<svg width="98" height="43" viewBox="0 0 98 43" fill="none" xmlns="http://www.w3.org/2000/svg">
<g clip-path="url(#clip0_54_6999)">
<path fill-rule="evenodd" clip-rule="evenodd" d="M92.6036 25.8376C91.8499 25.9003 91.0766 25.624 90.5315 25.0219L88.7395 23.0432C88.1268 22.3665 87.6556 21.5873 87.3414 20.7504C87.3067 20.7638 87.2715 20.7782 87.2374 20.7935C87.4667 21.5387 87.8196 22.2481 88.2891 22.8905L89.8628 25.0446C90.4472 25.8446 91.4324 26.1839 92.3454 25.9882C92.3847 25.9685 92.4234 25.9476 92.4621 25.9255C92.5106 25.8976 92.5579 25.8683 92.6036 25.8376ZM92.7231 25.7527C91.9521 25.8568 91.1448 25.5923 90.5846 24.974L88.7932 22.9954C88.1869 22.3255 87.7202 21.5542 87.409 20.7257C87.439 20.7154 87.4684 20.7058 87.4985 20.6968C87.9056 21.6027 88.5016 22.4235 89.2575 23.1003L91.247 24.882C91.7431 25.3259 92.3685 25.5366 92.9864 25.5211C92.9056 25.6037 92.8172 25.6812 92.7231 25.7527ZM92.7514 25.821C92.7092 25.8525 92.6659 25.8829 92.6215 25.912C92.7179 25.879 92.8132 25.8397 92.9062 25.7939C92.8548 25.8045 92.8034 25.8135 92.7514 25.821ZM93.1533 25.6544C93.0592 25.685 92.9639 25.7098 92.868 25.7287C92.9472 25.662 93.0211 25.5911 93.0904 25.5164C93.192 25.5097 93.2937 25.4968 93.3941 25.4778C93.3514 25.5131 93.3075 25.5471 93.2625 25.58C93.2261 25.6059 93.1897 25.6307 93.1533 25.6544ZM93.1845 25.7195C92.9287 25.883 92.6526 25.9946 92.3697 26.0562C91.1927 26.6457 89.7426 26.2251 89.075 25.0754L87.7364 22.7696C87.398 22.1869 87.1474 21.5654 86.9857 20.9242L85.0996 22.007C83.9012 22.6951 82.3689 22.2868 81.677 21.095C81.4986 20.7877 81.3935 20.4583 81.3563 20.1267C81.2487 19.844 81.1964 19.5525 81.1945 19.2647C81.1173 18.9721 81.0959 18.6767 81.1243 18.3903C81.0782 18.0917 81.0879 17.796 81.1462 17.5143C81.1316 17.2121 81.1724 16.9186 81.2601 16.6441C81.2774 16.3421 81.3489 16.0544 81.4651 15.7906C81.5141 15.4921 81.6154 15.2136 81.7586 14.9634C81.8387 14.6718 81.9687 14.4054 82.1372 14.1715C82.2475 13.8898 82.4047 13.6384 82.5969 13.4233C82.7363 13.1545 82.9191 12.9207 83.1329 12.7267C83.2998 12.4739 83.5062 12.2605 83.739 12.0898C83.9319 11.8557 84.1594 11.6648 84.4089 11.5193C84.6254 11.3065 84.8714 11.1404 85.1354 11.0216C85.3727 10.8325 85.6355 10.6929 85.9098 10.6022C86.1656 10.4387 86.4417 10.3272 86.7241 10.2655C87.9016 9.67596 89.3517 10.0965 90.0193 11.2462L91.135 13.1688C91.5531 13.8881 91.8378 14.6667 91.9845 15.4685L93.9953 14.3142C95.1936 13.6262 96.7257 14.0345 97.4181 15.2262C97.596 15.5334 97.7011 15.8626 97.7387 16.1939C97.8461 16.4768 97.8986 16.7684 97.9004 17.0562C97.9777 17.3487 97.9991 17.644 97.9708 17.9305C98.017 18.2297 98.0072 18.5259 97.9489 18.8081C97.9633 19.11 97.9223 19.4033 97.8345 19.6774C97.8172 19.9792 97.7462 20.2665 97.6301 20.5301C97.581 20.8286 97.4799 21.1071 97.3367 21.3573C97.2564 21.649 97.1265 21.9156 96.9579 22.1496C96.8476 22.4315 96.6905 22.6831 96.4976 22.8983C96.3584 23.1671 96.1754 23.4008 95.9617 23.5948C95.7948 23.8476 95.5886 24.0611 95.3553 24.2318C95.163 24.4659 94.9349 24.6567 94.6854 24.8022C94.4694 25.0151 94.2229 25.1812 93.9589 25.3C93.7216 25.4892 93.4594 25.6288 93.1845 25.7195ZM93.6904 25.4029C93.6026 25.4581 93.512 25.5071 93.419 25.55C93.4606 25.5163 93.5004 25.4816 93.5391 25.4458C93.5899 25.4331 93.6402 25.4188 93.6904 25.4029ZM94.1749 25.107C94.2621 25.0548 94.347 24.9966 94.429 24.9325C94.3811 24.9536 94.3326 24.973 94.2835 24.991C94.2483 25.0305 94.2125 25.0692 94.1749 25.107ZM94.142 25.0378C94.1039 25.0773 94.0635 25.1158 94.0219 25.1531C93.989 25.1826 93.9555 25.2111 93.9214 25.2385C93.8313 25.2787 93.7389 25.3132 93.6454 25.342C93.717 25.2675 93.7834 25.1892 93.844 25.1078C93.9445 25.0905 94.0444 25.0672 94.142 25.0378ZM94.3776 24.8767C94.4677 24.8383 94.5561 24.7944 94.6415 24.745C94.6721 24.7142 94.7028 24.6824 94.7322 24.6497C94.7697 24.6082 94.8055 24.5658 94.8396 24.5225C94.7455 24.5619 94.649 24.5955 94.5509 24.6232C94.4989 24.7104 94.4411 24.7951 94.3776 24.8767ZM94.4504 24.6492C94.388 24.7467 94.3181 24.8406 94.2413 24.9301C94.131 24.9694 94.0184 25.0007 93.9041 25.0238C93.9734 24.9226 94.0346 24.817 94.0871 24.708C94.2096 24.6973 94.3308 24.6775 94.4504 24.6492ZM94.6017 24.5334C94.7126 24.4984 94.8217 24.4556 94.9268 24.4051C94.9944 24.308 95.0539 24.2074 95.1058 24.1039C94.9898 24.1445 94.8714 24.1767 94.7507 24.2002C94.7097 24.314 94.66 24.4255 94.6017 24.5334ZM94.6687 24.2148C94.6231 24.3339 94.5682 24.45 94.5035 24.562C94.3788 24.5955 94.2512 24.6192 94.1224 24.6328C94.1784 24.5076 94.2234 24.3783 94.2575 24.2465C94.3961 24.2472 94.5335 24.2365 94.6687 24.2148ZM94.6964 24.1375C94.742 24.0043 94.7761 23.8678 94.7975 23.7297C94.645 23.7403 94.4908 23.737 94.3355 23.719C94.3297 23.8725 94.3089 24.0252 94.2748 24.175C94.4169 24.1747 94.5584 24.162 94.6964 24.1375ZM94.7778 24.1217C94.82 23.9914 94.8512 23.8582 94.8714 23.7235C95.0088 23.7098 95.1445 23.6849 95.2768 23.6492C95.2444 23.7724 95.2017 23.8936 95.1492 24.0117C95.0285 24.058 94.9043 24.0948 94.7778 24.1217ZM95.2029 24.0676C95.1601 24.1598 95.1116 24.25 95.0573 24.3378C95.1428 24.2902 95.226 24.2374 95.3057 24.1795C95.3334 24.1456 95.3599 24.1108 95.3859 24.0751C95.4188 24.0299 95.45 23.9841 95.4795 23.9375C95.39 23.9864 95.2976 24.0299 95.2029 24.0676ZM95.554 23.8116C95.4547 23.8728 95.3507 23.9267 95.2439 23.973C95.2906 23.8596 95.3282 23.7437 95.3571 23.6262C95.4749 23.5903 95.5892 23.546 95.7001 23.4936C95.6597 23.6019 95.6106 23.7081 95.554 23.8116ZM95.6077 23.8625C95.5823 23.9084 95.5551 23.9537 95.5257 23.9984C95.6008 23.9292 95.6718 23.8547 95.7382 23.7752C95.6955 23.8057 95.6522 23.8348 95.6077 23.8625ZM95.9068 23.5479C95.8335 23.6138 95.7567 23.675 95.6764 23.7312C95.7215 23.6383 95.7601 23.5435 95.7925 23.4474C95.8832 23.4001 95.9704 23.3472 96.0547 23.2892C96.0298 23.3386 96.0039 23.3874 95.9756 23.4358C95.9536 23.474 95.9305 23.5114 95.9068 23.5479ZM96.1066 23.345C96.1742 23.2684 96.2366 23.187 96.2943 23.101C96.2551 23.1357 96.2152 23.1692 96.1742 23.2013C96.1534 23.2496 96.1309 23.2975 96.1066 23.345ZM96.2285 23.0636C96.2631 22.9665 96.292 22.8682 96.314 22.7692C96.3989 22.7127 96.4803 22.6511 96.5577 22.5847C96.5392 22.6363 96.5178 22.6876 96.4953 22.7386C96.4768 22.7789 96.4583 22.8186 96.4381 22.8574C96.3723 22.9306 96.3018 22.9994 96.2285 23.0636ZM96.1153 23.1564C96.1609 23.0475 96.1979 22.9367 96.2268 22.8249C96.1222 22.8885 96.0131 22.9444 95.8999 22.9923C95.8832 23.1122 95.8583 23.2315 95.8237 23.349C95.9253 23.2919 96.0223 23.2275 96.1153 23.1564ZM95.7336 23.3974C95.7734 23.2745 95.8029 23.1495 95.8225 23.0235C95.6949 23.0727 95.5626 23.1117 95.4269 23.1396C95.4212 23.2756 95.4038 23.4113 95.3755 23.5453C95.4985 23.5055 95.6187 23.456 95.7336 23.3974ZM95.297 23.5694C95.3282 23.4323 95.3472 23.293 95.3542 23.1534C95.204 23.1798 95.0498 23.1926 94.8933 23.1908C94.9037 23.3441 94.8997 23.4981 94.8812 23.6506C95.0227 23.6355 95.1613 23.6083 95.297 23.5694ZM94.8079 23.6572C94.8275 23.502 94.8321 23.3452 94.8211 23.189C94.6814 23.1833 94.5405 23.1659 94.399 23.136L94.2846 23.1119C94.3222 23.2889 94.3395 23.4684 94.3372 23.6472C94.4954 23.666 94.6531 23.669 94.8079 23.6572ZM94.2656 23.6375C94.2667 23.4564 94.2477 23.2745 94.2078 23.0956L93.5963 22.9663C93.6609 23.1408 93.7054 23.3195 93.7291 23.499L93.8717 23.5451C94.0022 23.5873 94.1339 23.6179 94.2656 23.6375ZM93.6534 23.4744C93.6269 23.2969 93.5801 23.1205 93.512 22.9486L91.78 22.5825C90.3894 22.2884 89.1276 21.5951 88.1435 20.6033C88.136 20.6033 88.1285 20.6033 88.121 20.6033C88.9671 21.5797 90.0724 22.3174 91.3255 22.7223L93.6534 23.4744ZM88.0286 20.6059C88.8879 21.614 90.0187 22.3753 91.303 22.7903L93.6633 23.553C93.6846 23.7352 93.6846 23.918 93.6638 24.098C93.5351 24.0649 93.4074 24.0207 93.2821 23.9651L90.8358 22.8822C89.6959 22.3774 88.7193 21.5896 87.9917 20.608C88.0038 20.6072 88.0165 20.6065 88.0286 20.6059ZM88.061 20.533C88.0656 20.5328 88.0702 20.5327 88.0748 20.5326C88.0511 20.5081 88.0275 20.4834 88.0044 20.4586C88.0021 20.4583 88.0003 20.4579 87.998 20.4576C88.0188 20.4829 88.0396 20.508 88.061 20.533ZM87.8946 20.444C87.92 20.4754 87.9455 20.5067 87.9714 20.5377C87.9616 20.5384 87.9518 20.5391 87.942 20.54C87.9183 20.5074 87.8952 20.4746 87.8721 20.4416C87.8796 20.4424 87.8871 20.4432 87.8946 20.444ZM88.2481 20.6061C89.2142 21.5597 90.4431 22.2267 91.7951 22.5125L93.479 22.8684C93.4421 22.7841 93.3999 22.7011 93.3526 22.6196L93.244 22.4319L92.2328 22.3262C90.7504 22.1713 89.3638 21.5654 88.2538 20.6064C88.2521 20.6064 88.2504 20.6063 88.2481 20.6061ZM88.4698 20.6934C89.5388 21.5612 90.8468 22.1094 92.2403 22.2551L93.1995 22.3553L93.0072 22.0243H92.6555C91.1454 22.0243 89.6837 21.5534 88.4698 20.6934ZM93.0904 22.0243L93.2879 22.3645L93.952 22.434C93.907 22.354 93.8561 22.2757 93.8007 22.1996L93.6725 22.0243H93.0904ZM93.6205 21.9528H93.0488L92.8987 21.6938C92.9472 21.6897 92.9963 21.6851 93.0448 21.68L93.3941 21.6435L93.6205 21.9528ZM93.7614 22.0243L93.859 22.1576C93.926 22.2499 93.9867 22.3453 94.0392 22.4431L94.6745 22.5095C94.6115 22.3413 94.5289 22.1785 94.4267 22.0243H93.7614ZM94.3776 21.9528H93.7095L93.4767 21.6349L94.056 21.5743L94.2021 21.7353C94.265 21.8052 94.3239 21.8779 94.3776 21.9528ZM94.5122 22.0243C94.6127 22.1816 94.6929 22.3471 94.7542 22.5178L94.9031 22.5334C95.0394 22.5477 95.1751 22.5504 95.3074 22.5424C95.271 22.365 95.2144 22.191 95.1382 22.0243H94.5122ZM95.1035 21.9528H94.4648C94.4019 21.861 94.332 21.7723 94.2552 21.6875L94.1443 21.5651L94.8061 21.4959C94.9239 21.6386 95.0233 21.792 95.1035 21.9528ZM95.2167 22.0243C95.2901 22.1897 95.3444 22.3617 95.3802 22.5369C95.5384 22.5226 95.6932 22.4931 95.8422 22.4495C95.8289 22.2936 95.8006 22.1392 95.7578 21.9887C95.6198 22.0121 95.4778 22.0243 95.3334 22.0243H95.2167ZM95.7365 21.9196C95.6054 21.9414 95.4708 21.9528 95.3334 21.9528H95.1838C95.1053 21.7894 95.0077 21.633 94.8916 21.487L95.5136 21.422C95.6071 21.5799 95.6816 21.747 95.7365 21.9196ZM95.8289 21.9756C95.8705 22.1235 95.8987 22.2749 95.9126 22.4278C96.0477 22.3839 96.1777 22.3284 96.3018 22.2625C96.3042 22.1218 96.2938 21.9817 96.2712 21.8437C96.1297 21.9006 95.9819 21.9451 95.8289 21.9756ZM96.2585 21.7717C96.1147 21.8305 95.964 21.8761 95.8081 21.9067C95.7544 21.7361 95.6822 21.5707 95.5921 21.4138L95.7076 21.4017C95.8514 21.3867 95.9911 21.3598 96.1263 21.3222C96.1846 21.4675 96.2291 21.618 96.2585 21.7717ZM96.3394 21.8152C96.3625 21.9494 96.374 22.0857 96.374 22.2226C96.4861 22.1581 96.5929 22.0849 96.6934 22.0038C96.7067 21.8754 96.7096 21.747 96.702 21.6198C96.5877 21.6944 96.4664 21.7598 96.3394 21.8152ZM96.6963 21.5379C96.5796 21.6164 96.456 21.685 96.3261 21.7428C96.2961 21.5922 96.2522 21.4445 96.195 21.3018C96.3446 21.2555 96.4872 21.1959 96.6218 21.1246C96.6587 21.2595 96.6836 21.3978 96.6963 21.5379ZM96.7713 21.5732C96.7806 21.6939 96.7806 21.8158 96.7713 21.9379C96.8585 21.861 96.9406 21.7778 97.0162 21.689C97.0382 21.5731 97.0514 21.4571 97.0561 21.3417C96.9671 21.4256 96.8718 21.503 96.7713 21.5732ZM97.0584 21.2399C96.9671 21.3309 96.8684 21.4149 96.7638 21.4907C96.7494 21.3546 96.7234 21.2202 96.6865 21.0891C96.8072 21.0208 96.9203 20.9431 97.0266 20.8571C97.0474 20.9828 97.0578 21.1107 97.0584 21.2399ZM97.13 21.2693C97.1288 21.3706 97.1213 21.4726 97.1074 21.5748C97.1664 21.4967 97.2206 21.4149 97.2697 21.3297C97.2813 21.2876 97.2917 21.2451 97.3003 21.202C97.3125 21.1474 97.3223 21.0927 97.3298 21.0382C97.268 21.1193 97.201 21.1964 97.13 21.2693ZM97.346 20.8932C97.2801 20.9894 97.2079 21.0806 97.1288 21.1661C97.1254 21.0438 97.1121 20.9226 97.0907 20.8036C97.1831 20.7233 97.2697 20.6364 97.3494 20.5438C97.3569 20.659 97.3558 20.7757 97.346 20.8932ZM97.4164 20.9179C97.4118 20.9701 97.4054 21.0226 97.3968 21.075C97.4372 20.9816 97.4713 20.885 97.4996 20.7855C97.473 20.8305 97.4453 20.8747 97.4164 20.9179ZM97.5602 20.5097C97.5204 20.5995 97.4753 20.6864 97.4251 20.7702C97.428 20.6671 97.4251 20.565 97.4153 20.4641C97.4782 20.3843 97.5365 20.3007 97.5897 20.2137C97.5873 20.2687 97.5839 20.3239 97.5775 20.3795C97.5729 20.4233 97.5671 20.4667 97.5602 20.5097ZM97.6601 20.2431C97.6901 20.1462 97.7144 20.0466 97.7317 19.9449C97.7104 19.9924 97.6873 20.0391 97.663 20.085C97.6636 20.1374 97.663 20.1901 97.6601 20.2431ZM97.6561 19.9372C97.6971 19.8488 97.7329 19.7577 97.7635 19.6643C97.7658 19.6207 97.7669 19.5768 97.7669 19.5326C97.7669 19.4769 97.7652 19.4217 97.7612 19.3669C97.7179 19.4589 97.6688 19.548 97.6145 19.6338C97.6341 19.7332 97.6486 19.8344 97.6561 19.9372ZM97.5914 19.5332C97.6509 19.4334 97.7029 19.3292 97.7467 19.2217C97.7317 19.1046 97.7086 18.9902 97.6769 18.879C97.6185 18.986 97.5521 19.0887 97.4782 19.1864C97.5244 19.2984 97.5625 19.4143 97.5914 19.5332ZM97.4274 19.2519C97.4736 19.3706 97.5105 19.4937 97.5377 19.6199C97.4678 19.7278 97.3893 19.8301 97.3026 19.9259C97.2599 19.7957 97.2062 19.6697 97.1433 19.549C97.246 19.4574 97.3413 19.358 97.4274 19.2519ZM97.4453 19.1101C97.5215 19.006 97.5891 18.896 97.6474 18.7814C97.607 18.6587 97.5573 18.5402 97.4984 18.4269C97.4245 18.5414 97.3402 18.6502 97.2472 18.7519C97.3229 18.8654 97.3893 18.9852 97.4453 19.1101ZM97.197 18.8056C97.2732 18.9226 97.3402 19.0465 97.3956 19.1758C97.3096 19.2862 97.2131 19.3895 97.108 19.4842C97.0324 19.3502 96.9452 19.2232 96.8464 19.105C96.9735 19.0153 97.0907 18.9148 97.197 18.8056ZM97.2056 18.6912C97.3003 18.586 97.3852 18.4733 97.4597 18.3545C97.3904 18.2317 97.3113 18.1154 97.2224 18.007C97.1282 18.1267 97.0226 18.2387 96.9053 18.3412C97.0162 18.4485 97.1167 18.5657 97.2056 18.6912ZM96.8505 18.3879C96.9637 18.4969 97.0659 18.6165 97.1554 18.7449C97.0485 18.8568 96.929 18.9593 96.7991 19.0505C96.6807 18.9163 96.5467 18.7945 96.4 18.6876L96.5011 18.6298C96.6258 18.5579 96.743 18.4768 96.8505 18.3879ZM96.8528 18.2919C96.9729 18.1877 97.0803 18.0733 97.175 17.9509C96.7292 17.4374 96.0691 17.1126 95.3334 17.1126H92.6555C92.4655 17.1126 92.2778 17.0889 92.0965 17.0431C92.0942 17.0928 92.0919 17.1424 92.089 17.1921C92.2986 17.2851 92.5239 17.3459 92.7566 17.3703L95.4194 17.6485C95.9761 17.7067 96.4705 17.9419 96.8528 18.2919ZM92.0838 17.268C92.2934 17.3581 92.5175 17.4172 92.7491 17.4413L95.4119 17.7197C95.949 17.7759 96.4272 18.0019 96.7979 18.3385C96.6951 18.4227 96.5837 18.4995 96.4647 18.5679L96.3353 18.6421C96.0732 18.4633 95.7717 18.3315 95.4408 18.2617L92.8218 17.7081C92.5527 17.6511 92.2992 17.5452 92.0734 17.398C92.0769 17.3547 92.0803 17.3113 92.0838 17.268ZM92.0185 17.1594C92.0214 17.1143 92.0232 17.0691 92.0249 17.024C92.0087 17.0193 91.992 17.0144 91.9758 17.0093C91.9775 17.0527 91.9787 17.0962 91.9793 17.1397C91.992 17.1465 92.0053 17.153 92.0185 17.1594ZM91.9799 17.2203C91.9914 17.2258 92.0024 17.2312 92.0139 17.2365C92.011 17.275 92.0082 17.3134 92.0047 17.3519C91.9966 17.3458 91.9879 17.3398 91.9793 17.3336C91.9799 17.2958 91.9799 17.258 91.9799 17.2203ZM91.9065 17.1009C91.9054 17.0623 91.9048 17.0238 91.903 16.9853C91.8915 16.9811 91.8794 16.9769 91.8678 16.9726C91.8719 17.0102 91.8759 17.0478 91.8794 17.0854C91.888 17.0906 91.8973 17.0958 91.9065 17.1009ZM91.8869 17.1719C91.8938 17.1757 91.9007 17.1795 91.9077 17.1832C91.9082 17.2153 91.9082 17.2473 91.9077 17.2793C91.903 17.2757 91.8984 17.2719 91.8938 17.2682C91.8915 17.2361 91.8892 17.2039 91.8869 17.1719ZM91.8026 17.039C91.7991 17.007 91.7956 16.9751 91.7922 16.9433C91.7847 16.9403 91.7777 16.9374 91.7702 16.9343C91.776 16.966 91.7818 16.9977 91.7875 17.0294C91.7922 17.0326 91.7974 17.0358 91.8026 17.039ZM91.8031 17.1238C91.806 17.1253 91.8083 17.1268 91.8106 17.1283C91.813 17.1533 91.8153 17.1784 91.817 17.2035L91.8153 17.202C91.8118 17.1759 91.8078 17.1498 91.8031 17.1238ZM91.7044 16.973C91.6998 16.9483 91.6951 16.9236 91.69 16.8989C91.6876 16.8976 91.6848 16.8963 91.6819 16.895C91.6888 16.9205 91.6957 16.9461 91.7021 16.9716L91.7044 16.973ZM91.6565 16.8029C91.6617 16.8056 91.6668 16.8082 91.672 16.8108C91.6657 16.7794 91.6588 16.748 91.6518 16.7167C91.6443 16.7145 91.6368 16.7122 91.6293 16.7099C91.6386 16.7408 91.6472 16.7718 91.6565 16.8029ZM91.5456 16.683C91.5531 16.7071 91.5606 16.7313 91.5675 16.7555L91.5658 16.7543C91.5565 16.7295 91.5467 16.7048 91.5375 16.6801C91.5404 16.6811 91.5427 16.682 91.5456 16.683ZM91.6039 16.6269C91.6137 16.6302 91.6235 16.6333 91.6334 16.6364C91.6247 16.5988 91.6155 16.5613 91.6062 16.5238C91.5935 16.5222 91.5814 16.5205 91.5687 16.5188C91.5808 16.5547 91.5924 16.5908 91.6039 16.6269ZM91.4884 16.5057C91.4988 16.5362 91.5092 16.5667 91.519 16.5973C91.5132 16.5953 91.5075 16.5932 91.5023 16.5911C91.4901 16.5611 91.478 16.5312 91.4653 16.5014C91.4728 16.5029 91.4809 16.5044 91.4884 16.5057ZM91.5433 16.4424C91.5577 16.4448 91.5721 16.447 91.5866 16.4491C91.575 16.4053 91.5629 16.3616 91.5508 16.3182C91.5334 16.3187 91.5167 16.3191 91.4994 16.3193C91.5144 16.3602 91.5288 16.4013 91.5433 16.4424ZM91.4226 16.3189C91.4359 16.355 91.4491 16.3914 91.4618 16.4279C91.4514 16.4258 91.4416 16.4237 91.4312 16.4215C91.4162 16.3867 91.4006 16.3522 91.385 16.3177C91.3977 16.3182 91.4104 16.3186 91.4226 16.3189ZM91.4728 16.2479C91.4919 16.2479 91.5109 16.2477 91.53 16.2472C91.515 16.1969 91.4994 16.1467 91.4838 16.0967C91.4618 16.101 91.4405 16.1051 91.4191 16.1087C91.4376 16.1549 91.4555 16.2013 91.4728 16.2479ZM91.3458 16.12C91.3631 16.162 91.3793 16.2042 91.3954 16.2465C91.381 16.246 91.366 16.2453 91.3515 16.2445C91.3331 16.205 91.3146 16.1656 91.2955 16.1265C91.3123 16.1245 91.329 16.1224 91.3458 16.12ZM91.3914 16.0409C91.4145 16.037 91.4382 16.0328 91.4613 16.0283C91.4422 15.9706 91.422 15.9131 91.4012 15.856C91.3758 15.8659 91.3504 15.8753 91.3244 15.8842C91.3475 15.9362 91.3694 15.9884 91.3914 16.0409ZM91.2563 15.9068C91.277 15.9548 91.2978 16.0031 91.318 16.0516C91.299 16.0541 91.2805 16.0562 91.2614 16.0583C91.2389 16.0137 91.2164 15.9695 91.1933 15.9255C91.2141 15.9196 91.2349 15.9134 91.2563 15.9068ZM91.2955 15.8186C91.3227 15.8092 91.3498 15.7993 91.3769 15.7888C90.9791 14.7212 90.3247 13.7541 89.4585 12.9782L87.7994 11.4927C87.2981 11.0442 86.6617 10.8408 86.038 10.8747C85.9508 10.9708 85.8728 11.073 85.8035 11.1801C86.273 11.2032 86.7414 11.3578 87.1502 11.6531L88.9561 12.958C89.9823 13.6991 90.7839 14.6886 91.2955 15.8186ZM85.7596 11.2499C86.2291 11.2653 86.6992 11.4157 87.1081 11.711L88.9139 13.0158C89.9274 13.748 90.7203 14.7251 91.2268 15.8411C91.2037 15.848 91.1812 15.8546 91.1587 15.8608C90.5286 14.6973 89.5821 13.7193 88.4127 13.0479L86.4792 11.9379C86.1922 11.7729 85.8855 11.671 85.576 11.6277C85.6257 11.4972 85.6874 11.3707 85.7596 11.2499ZM85.7198 11.1774C85.7839 11.0745 85.8561 10.9759 85.9358 10.8824C85.8197 10.8936 85.7042 10.913 85.5904 10.9407C85.5044 11.0216 85.4253 11.1077 85.3531 11.1982C85.4744 11.1824 85.5974 11.1754 85.7198 11.1774ZM85.2913 11.2794C85.4189 11.2591 85.5477 11.2487 85.6771 11.2486C85.6089 11.3673 85.5506 11.4911 85.5026 11.6186C85.3646 11.6035 85.2272 11.5999 85.0903 11.6075C85.1481 11.4938 85.2151 11.384 85.2913 11.2794ZM85.2503 11.2137C85.3115 11.1323 85.3773 11.0541 85.4489 10.9796C85.3554 11.0084 85.2636 11.0429 85.1735 11.0831C85.1394 11.1105 85.1053 11.139 85.0724 11.1685C85.0308 11.2058 84.991 11.2443 84.9523 11.2837C85.0505 11.2544 85.1498 11.231 85.2503 11.2137ZM84.8535 11.3915C84.9633 11.3522 85.0759 11.3209 85.1902 11.2977C85.1209 11.3989 85.0597 11.5045 85.0072 11.6135C84.8847 11.6243 84.7635 11.644 84.6439 11.6723C84.7063 11.5748 84.7762 11.4809 84.8535 11.3915ZM84.8114 11.3306C84.846 11.2911 84.8818 11.2524 84.9194 11.2147C84.8322 11.2669 84.7473 11.325 84.6659 11.389C84.7138 11.368 84.7623 11.3485 84.8114 11.3306ZM84.4533 11.5765C84.5388 11.5272 84.6266 11.4833 84.7167 11.4449C84.6531 11.5265 84.5954 11.6111 84.5434 11.6984C84.4453 11.726 84.3488 11.7596 84.2547 11.799C84.2888 11.7557 84.3246 11.7133 84.3621 11.6719C84.3921 11.6391 84.4221 11.6073 84.4533 11.5765ZM84.2148 11.7337C84.1334 11.7947 84.0549 11.8614 83.9804 11.9335C84.026 11.9076 84.0722 11.8832 84.1195 11.8603C84.1496 11.8173 84.1813 11.7751 84.2148 11.7337ZM84.0375 11.9838C83.9515 12.0313 83.8689 12.0841 83.7892 12.1421C83.7615 12.1759 83.7344 12.2107 83.7084 12.2464C83.6754 12.2915 83.6443 12.3374 83.6148 12.3839C83.7049 12.335 83.7973 12.2915 83.892 12.2538C83.9342 12.1617 83.9827 12.0715 84.0375 11.9838ZM83.851 12.3484C83.7436 12.3947 83.6402 12.4486 83.5407 12.5098C83.4838 12.6133 83.4352 12.7196 83.3948 12.8278C83.5055 12.7754 83.62 12.7311 83.7372 12.6952C83.7667 12.5777 83.8042 12.4618 83.851 12.3484ZM83.8175 12.6721C83.8504 12.549 83.8926 12.4278 83.9457 12.3097C84.0658 12.2634 84.19 12.2266 84.3165 12.1997C84.2743 12.33 84.2431 12.4632 84.2229 12.5978C84.0855 12.6115 83.9498 12.6365 83.8175 12.6721ZM83.7188 12.776C83.5958 12.8159 83.4762 12.8655 83.3612 12.9241C83.3212 13.0469 83.2916 13.1719 83.2721 13.2978C83.3998 13.2486 83.5321 13.2096 83.6674 13.1817C83.6737 13.0457 83.6905 12.91 83.7188 12.776ZM83.7401 13.1678C83.7471 13.0282 83.7667 12.889 83.7979 12.7519C83.933 12.7131 84.0722 12.6858 84.2131 12.6707C84.1946 12.8231 84.1906 12.977 84.201 13.1303C84.0445 13.1286 83.8909 13.1414 83.7401 13.1678ZM83.6656 13.2552C83.5265 13.2849 83.3911 13.3265 83.2609 13.3792C83.2441 13.5188 83.2396 13.6593 83.2472 13.7988C83.394 13.7569 83.5459 13.7281 83.7014 13.7137C83.6754 13.5622 83.6633 13.4087 83.6656 13.2552ZM83.7736 13.708C83.7465 13.5538 83.7344 13.3973 83.7378 13.241C83.8903 13.2131 84.0474 13.1997 84.2062 13.2019C84.2235 13.3799 84.2593 13.5566 84.3147 13.7287L84.1992 13.7167C84.0554 13.7017 83.9134 13.699 83.7736 13.708ZM83.7147 13.7843C83.5561 13.7986 83.4015 13.8283 83.2523 13.8718C83.2656 14.0277 83.294 14.1821 83.337 14.3326C83.475 14.3092 83.6171 14.297 83.7615 14.297L83.8776 14.297C83.8042 14.1315 83.7499 13.9596 83.7147 13.7843ZM83.9567 14.297C83.8799 14.1302 83.8233 13.9563 83.7869 13.7788C83.9197 13.7708 84.0549 13.7735 84.1917 13.7878L84.3401 13.8033C84.4014 13.974 84.4816 14.1397 84.5815 14.297H83.9567ZM83.9105 14.3685H83.7615C83.624 14.3685 83.4891 14.3799 83.3579 14.4017C83.4129 14.5743 83.4875 14.7414 83.5813 14.8993L84.2027 14.8343C84.0866 14.6883 83.9896 14.5319 83.9105 14.3685ZM84.2882 14.8254C84.1704 14.6827 84.071 14.5292 83.9908 14.3685H84.6289C84.6918 14.4604 84.7623 14.5493 84.8391 14.6342L84.9494 14.7563L84.2882 14.8254ZM84.2576 14.9005L83.6229 14.9669C83.7193 15.1184 83.8343 15.2606 83.9665 15.3903L84.6168 15.2528L84.4943 15.1429C84.4089 15.0664 84.3298 14.9854 84.2576 14.9005ZM84.704 15.2344L84.5423 15.0897C84.4718 15.0266 84.406 14.9604 84.3448 14.8914L85.0089 14.822L85.2734 15.114C85.2705 15.1147 85.267 15.1154 85.2641 15.116L84.704 15.2344ZM84.6832 15.3119L84.0295 15.4501C84.0976 15.5123 84.1704 15.5714 84.2472 15.6268L84.4227 15.7539L84.9673 15.578C84.9708 15.577 84.9737 15.576 84.9765 15.575L84.6832 15.3119ZM85.0562 15.5499L84.7698 15.2936L85.2792 15.186C85.2959 15.1825 85.3127 15.179 85.3294 15.1756L85.5477 15.4168C85.3825 15.4553 85.2191 15.4996 85.0562 15.5499ZM85.0389 15.6304C85.0222 15.6355 85.006 15.6407 84.9898 15.646L84.4949 15.8059L84.8068 16.031C84.9633 15.9641 85.1215 15.903 85.2815 15.8475L85.0389 15.6304ZM85.3589 15.8211L85.1186 15.6057C85.2786 15.5572 85.4403 15.5145 85.6026 15.4775L85.7954 15.6905C85.6488 15.7293 85.5032 15.7729 85.3589 15.8211ZM85.3421 15.9022C85.185 15.9559 85.0285 16.0151 84.8743 16.08L85.1359 16.2692C85.2745 16.2063 85.4149 16.1478 85.5564 16.094L85.3421 15.9022ZM85.632 16.0656L85.4206 15.8761C85.5627 15.8296 85.7053 15.7877 85.8497 15.7503L86.0178 15.936C85.8884 15.9756 85.7596 16.0187 85.632 16.0656ZM85.6164 16.1478C85.4772 16.2 85.3392 16.2566 85.2029 16.3176L86.053 16.9316C86.4313 17.2051 86.7131 17.5857 86.865 18.0191C86.8661 18.0136 86.8667 18.0081 86.8678 18.0027C86.8055 17.4751 86.5525 16.9859 86.1535 16.6283L85.6164 16.1478ZM86.8401 18.1804C86.7079 17.7038 86.4168 17.283 86.0108 16.9895L85.1279 16.3517C84.9771 16.4214 84.8281 16.4966 84.6814 16.5772L85.9433 17.3016C86.3267 17.522 86.6345 17.8471 86.8332 18.2338C86.8355 18.216 86.8378 18.1982 86.8401 18.1804ZM86.8165 18.3654C86.6282 17.9473 86.3111 17.5955 85.9069 17.3635L84.6081 16.6178C84.5931 16.6263 84.5781 16.6348 84.5636 16.6434L84.1132 16.9019L85.8728 17.6809C86.2511 17.8485 86.5733 18.114 86.8078 18.4453C86.8107 18.4186 86.8136 18.392 86.8165 18.3654ZM86.7974 18.5572C86.5664 18.2034 86.2366 17.9203 85.8434 17.7462L84.0364 16.9461L83.4577 17.2783C83.5419 17.3164 83.6292 17.3503 83.7193 17.3794L85.8422 18.0654C86.206 18.1829 86.53 18.3882 86.7887 18.6587C86.7916 18.6249 86.7939 18.5911 86.7974 18.5572ZM86.7824 18.7571C86.5248 18.4708 86.1939 18.2542 85.8203 18.1335L83.6968 17.4474C83.5877 17.4121 83.4825 17.37 83.3817 17.3218L82.8289 17.6392C83.077 17.8031 83.3599 17.9241 83.6691 17.9895L85.8526 18.451C86.1922 18.5228 86.5075 18.67 86.776 18.8778C86.7778 18.8376 86.7801 18.7974 86.7824 18.7571ZM86.8459 18.934C86.8471 18.9014 86.8488 18.8688 86.8499 18.8362C86.8511 18.8377 86.8528 18.8392 86.854 18.8407C86.8546 18.8747 86.8551 18.9087 86.8563 18.9427C86.8528 18.9398 86.8494 18.9369 86.8459 18.934ZM86.7731 18.9667C86.504 18.7483 86.1841 18.5942 85.8376 18.5211L83.6541 18.0595C83.3235 17.9896 83.0221 17.8579 82.7595 17.679L82.6301 17.7534C82.511 17.8218 82.4 17.8986 82.2973 17.9827C82.6677 18.3193 83.1458 18.5453 83.683 18.6015L85.9034 18.8336C86.2107 18.8657 86.5052 18.9593 86.7703 19.1056C86.7708 19.0593 86.7714 19.013 86.7731 18.9667ZM86.8419 19.1468C86.8419 19.1066 86.8424 19.0664 86.8436 19.0263C86.8488 19.0312 86.8546 19.0362 86.8603 19.0412C86.8621 19.0816 86.8644 19.1218 86.8667 19.162C86.8586 19.1569 86.8499 19.1518 86.8419 19.1468ZM86.7697 19.1876C86.504 19.0347 86.2066 18.9372 85.8959 18.9047L83.6754 18.6727C83.1191 18.6145 82.6243 18.3793 82.242 18.0294C82.1222 18.1336 82.0146 18.248 81.9196 18.3704C82.3659 18.8838 83.0256 19.2088 83.7615 19.2087H85.9941C86.2615 19.2087 86.5248 19.2556 86.7714 19.3449C86.7703 19.2925 86.7697 19.2401 86.7697 19.1876ZM86.8442 19.3725C86.843 19.3253 86.8424 19.2781 86.8419 19.2309C86.8523 19.2374 86.8627 19.244 86.873 19.2507C86.8765 19.2969 86.8806 19.3431 86.8846 19.3891C86.8713 19.3835 86.858 19.3779 86.8442 19.3725ZM86.7737 19.422C86.5271 19.3291 86.2632 19.2803 85.9941 19.2803H83.7615C83.0095 19.2803 82.3348 18.9508 81.8756 18.4291C81.7923 18.5435 81.7198 18.6645 81.6583 18.7903C82.1499 19.4839 82.9945 19.8994 83.9036 19.8044L86.1235 19.5723C86.3452 19.5492 86.567 19.5587 86.7818 19.5989C86.7783 19.5399 86.776 19.481 86.7737 19.422ZM86.8551 19.6137C86.8517 19.5595 86.8488 19.5052 86.8471 19.4509C86.8621 19.4574 86.8777 19.464 86.8927 19.4707C86.8985 19.5229 86.9048 19.5749 86.9112 19.6269C86.8927 19.6222 86.8736 19.6179 86.8551 19.6137ZM86.7864 19.6726C86.5727 19.6308 86.3521 19.6204 86.131 19.6435L83.9111 19.8755C82.9898 19.9718 82.1329 19.5588 81.6235 18.8648C81.5709 18.9824 81.528 19.1039 81.4948 19.228C82.0082 20.11 83.0505 20.6053 84.1074 20.382L86.2909 19.9204C86.4607 19.8846 86.6322 19.8684 86.8032 19.8712C86.7968 19.8051 86.791 19.7389 86.7864 19.6726ZM86.8759 19.8737C86.8696 19.8119 86.8644 19.7501 86.8598 19.6882C86.8806 19.6929 86.9013 19.698 86.9216 19.7033C86.9296 19.7618 86.9389 19.8201 86.9481 19.8784C86.9239 19.8764 86.9002 19.8748 86.8759 19.8737ZM86.8107 19.943C86.6426 19.9395 86.4728 19.955 86.3059 19.9904L84.1224 20.452C83.0597 20.6766 82.0115 20.1954 81.4706 19.327C81.4454 19.4402 81.4283 19.5553 81.4196 19.6713C81.9353 20.7555 83.1931 21.3158 84.3708 20.9353L86.4936 20.2493C86.6068 20.2128 86.7223 20.1853 86.8384 20.1668C86.828 20.0923 86.8188 20.0177 86.8107 19.943ZM86.9094 20.1567C86.8996 20.0865 86.8909 20.0161 86.8829 19.9457C86.9089 19.947 86.9348 19.9489 86.9608 19.9512C86.9724 20.0167 86.9845 20.0821 86.9978 20.1472C86.9683 20.1498 86.9389 20.1529 86.9094 20.1567ZM86.8482 20.2376C86.7362 20.2555 86.6253 20.282 86.5162 20.3173L84.3927 21.0034C83.2229 21.3814 81.976 20.8574 81.4131 19.8171C81.4117 19.9145 81.4162 20.0123 81.4268 20.11C81.4425 20.1507 81.4594 20.1913 81.4774 20.2317C82.0242 21.4528 83.4627 22.0019 84.6907 21.4583L86.7298 20.5553C86.783 20.5318 86.8367 20.5105 86.8909 20.4912C86.8754 20.4069 86.8609 20.3224 86.8482 20.2376ZM86.9597 20.468C86.9452 20.3881 86.9314 20.3079 86.9198 20.2275C86.9504 20.2236 86.9816 20.2203 87.0128 20.2177C87.0284 20.2912 87.0457 20.3645 87.0636 20.4375C87.029 20.4468 86.9943 20.457 86.9597 20.468ZM86.9048 20.5623C86.8557 20.58 86.8072 20.5994 86.7593 20.6207L84.7196 21.5236C83.4999 22.0637 82.078 21.5562 81.4742 20.3903C81.5272 20.6196 81.6149 20.845 81.7393 21.0593C82.4114 22.2168 83.8995 22.6134 85.0637 21.9451L86.9678 20.8518C86.9447 20.7557 86.9239 20.6592 86.9048 20.5623ZM87.033 20.8149C87.0111 20.7232 86.9914 20.6312 86.9735 20.5388C87.0093 20.5272 87.0451 20.5166 87.0815 20.5069C87.1029 20.5898 87.126 20.6724 87.1502 20.7547C87.111 20.7736 87.0717 20.7937 87.033 20.8149ZM87.0503 20.8871C87.2103 21.5289 87.4604 22.151 87.7988 22.7338L89.1374 25.0396C89.7392 26.0755 90.9941 26.502 92.0855 26.1013C91.2274 26.1873 90.3478 25.8303 89.8044 25.0866L88.2307 22.9326C87.7589 22.2864 87.4032 21.5732 87.1716 20.824C87.1306 20.8437 87.0902 20.8647 87.0503 20.8871ZM87.2167 20.7244C87.2496 20.7099 87.2831 20.6961 87.3166 20.6832C87.2912 20.6125 87.2663 20.5414 87.2432 20.4699C87.212 20.4757 87.1814 20.4822 87.1514 20.4893C87.1716 20.5681 87.1936 20.6464 87.2167 20.7244ZM87.1335 20.42C87.1624 20.4132 87.1918 20.407 87.2207 20.4013C87.2005 20.3379 87.1814 20.2742 87.163 20.2103C87.137 20.2107 87.111 20.2116 87.0856 20.2128C87.1006 20.2821 87.1162 20.3512 87.1335 20.42ZM87.0706 20.142C87.0948 20.1406 87.1191 20.1397 87.1433 20.1391C87.1271 20.0822 87.1121 20.0251 87.0983 19.9677C87.0769 19.9646 87.0561 19.9616 87.0353 19.9591C87.0463 20.0202 87.0578 20.0812 87.0706 20.142ZM87.0226 19.8855C87.0417 19.8877 87.0607 19.8901 87.0798 19.8928C87.0677 19.8418 87.0561 19.7907 87.0451 19.7394C87.029 19.7343 87.0134 19.7293 86.9972 19.7245C87.0047 19.7783 87.0134 19.832 87.0226 19.8855ZM86.9862 19.6468C87.0007 19.6508 87.0145 19.6549 87.0284 19.6592C87.0192 19.6138 87.0105 19.5684 87.0024 19.5229C86.9914 19.5173 86.9805 19.5117 86.9689 19.5063C86.9747 19.5533 86.9805 19.6001 86.9862 19.6468ZM86.9603 19.4227C86.9689 19.4269 86.9782 19.4311 86.9868 19.4353C86.9799 19.3956 86.9735 19.3558 86.9678 19.3159C86.9614 19.3114 86.9551 19.3071 86.9493 19.3027C86.9527 19.3427 86.9562 19.3828 86.9603 19.4227ZM86.9423 19.2106C86.9458 19.2131 86.9499 19.2157 86.9533 19.2182C86.9487 19.1845 86.9441 19.1508 86.94 19.117C86.9389 19.1156 86.9372 19.1142 86.936 19.1128C86.9377 19.1454 86.94 19.178 86.9423 19.2106ZM87.0503 19.3792C87.0555 19.4114 87.0613 19.4436 87.0665 19.4758C87.0706 19.4779 87.0746 19.4801 87.0786 19.4823C87.0706 19.4493 87.063 19.4162 87.055 19.383C87.0532 19.3817 87.0521 19.3805 87.0503 19.3792ZM87.1035 19.578C87.0965 19.5741 87.0902 19.5704 87.0833 19.5666C87.0908 19.606 87.0988 19.6454 87.1069 19.6847C87.1162 19.6879 87.1254 19.6911 87.1347 19.6945C87.1243 19.6557 87.1133 19.6169 87.1035 19.578ZM87.219 19.7265C87.2097 19.6952 87.2011 19.6638 87.1924 19.6323C87.1941 19.6334 87.1959 19.6345 87.197 19.6356C87.2086 19.6677 87.2195 19.6997 87.2311 19.7316C87.2271 19.7299 87.223 19.7282 87.219 19.7265ZM87.1595 19.78C87.1479 19.7756 87.1364 19.7712 87.1248 19.767C87.1347 19.813 87.1456 19.859 87.1566 19.9048C87.171 19.9073 87.1855 19.9099 87.1999 19.9128C87.1861 19.8687 87.1722 19.8244 87.1595 19.78ZM87.2808 19.9299C87.2686 19.8917 87.2565 19.8535 87.245 19.8151C87.2519 19.8181 87.2588 19.8211 87.2657 19.8242C87.2802 19.8619 87.2946 19.8994 87.3091 19.9368C87.2998 19.9344 87.2906 19.9322 87.2808 19.9299ZM87.2247 19.9909C87.2086 19.9874 87.1918 19.984 87.1757 19.9809C87.1889 20.0336 87.2028 20.0862 87.2178 20.1386C87.2369 20.1387 87.2565 20.1391 87.2756 20.1398C87.2582 20.0904 87.2415 20.0407 87.2247 19.9909ZM87.3535 20.1438C87.3374 20.0993 87.3218 20.0547 87.3067 20.0099C87.3189 20.0129 87.331 20.016 87.3426 20.0192C87.3605 20.0621 87.3784 20.1047 87.3968 20.1472C87.3824 20.1459 87.368 20.1448 87.3535 20.1438ZM87.3015 20.2125C87.2802 20.2115 87.2594 20.2108 87.238 20.2104C87.2554 20.2701 87.2733 20.3295 87.2923 20.3887C87.316 20.3848 87.3402 20.3813 87.3645 20.3782C87.3426 20.3233 87.3218 20.268 87.3015 20.2125ZM87.4384 20.3699C87.4182 20.3194 87.3991 20.2686 87.3801 20.2176C87.3968 20.219 87.4136 20.2205 87.4303 20.2223C87.4517 20.2701 87.4736 20.3178 87.4962 20.3652C87.4771 20.3665 87.4575 20.3681 87.4384 20.3699ZM87.3916 20.4469C87.3662 20.45 87.3402 20.4536 87.3148 20.4575C87.3368 20.5249 87.3599 20.5919 87.3841 20.6585C87.4124 20.6488 87.4407 20.6395 87.469 20.6309C87.4425 20.5699 87.4165 20.5086 87.3916 20.4469ZM87.5389 20.6109C87.5141 20.554 87.4898 20.4967 87.4661 20.4393C87.4875 20.4374 87.5083 20.4359 87.5297 20.4347C87.5557 20.4878 87.5822 20.5406 87.6094 20.593C87.5857 20.5986 87.5626 20.6045 87.5389 20.6109ZM87.5684 20.6771C87.9714 21.5702 88.5599 22.3795 89.3055 23.0472L91.2955 24.8288C91.7962 25.2772 92.4332 25.4807 93.0569 25.4468C93.1435 25.3507 93.2215 25.2485 93.2908 25.1414C92.8213 25.1183 92.3529 24.9637 91.9446 24.6684L89.7784 23.1034C88.8804 22.4546 88.1539 21.6156 87.644 20.6585C87.6186 20.6642 87.5938 20.6704 87.5684 20.6771ZM87.7173 20.6431C88.2215 21.5831 88.937 22.4073 89.8206 23.0455L91.9868 24.6105C92.3951 24.9057 92.8652 25.0561 93.3347 25.0716C93.4069 24.9508 93.4686 24.8242 93.5183 24.6936C93.2093 24.6504 92.9027 24.5485 92.6157 24.3835L90.2965 23.0523C89.261 22.4578 88.4005 21.623 87.7797 20.632C87.7589 20.6354 87.7381 20.6391 87.7173 20.6431ZM87.6821 20.5771C87.7012 20.5733 87.7202 20.5697 87.7393 20.5664C87.7116 20.5216 87.685 20.4765 87.6584 20.4311C87.6417 20.4311 87.625 20.4312 87.6082 20.4316C87.6325 20.4804 87.6567 20.5289 87.6821 20.5771ZM87.5736 20.361C87.5886 20.3605 87.603 20.3601 87.6174 20.3599C87.5949 20.3196 87.5724 20.279 87.5505 20.2383C87.5383 20.2363 87.5256 20.2345 87.5135 20.2327C87.5331 20.2757 87.5533 20.3185 87.5736 20.361ZM87.4794 20.1559C87.4887 20.1571 87.4985 20.1584 87.5083 20.1597C87.4898 20.124 87.4713 20.0881 87.4529 20.0521C87.4459 20.0498 87.4384 20.0475 87.4315 20.0452C87.4471 20.0822 87.4633 20.1192 87.4794 20.1559ZM87.3963 19.9599C87.4003 19.9611 87.4049 19.9623 87.409 19.9636C87.3945 19.9331 87.3795 19.9025 87.3651 19.8718C87.3633 19.8708 87.3616 19.8699 87.3599 19.869C87.372 19.8994 87.3836 19.9296 87.3963 19.9599ZM87.5516 20.0869C87.5666 20.1159 87.5816 20.1448 87.5972 20.1737C87.6013 20.1745 87.6059 20.1753 87.6105 20.1761C87.5926 20.1472 87.5747 20.1182 87.5574 20.0891C87.5551 20.0884 87.5533 20.0876 87.5516 20.0869ZM87.6636 20.2596C87.6561 20.258 87.6486 20.2564 87.6411 20.2549C87.6608 20.2901 87.6804 20.3252 87.7006 20.36C87.7104 20.3602 87.7202 20.3604 87.7301 20.3608C87.7075 20.3272 87.6856 20.2935 87.6636 20.2596ZM87.8196 20.3654C87.8011 20.3384 87.7832 20.3112 87.7653 20.2839C87.767 20.2844 87.7687 20.285 87.7711 20.2855C87.7913 20.3126 87.8121 20.3396 87.8334 20.3664C87.8288 20.366 87.8242 20.3658 87.8196 20.3654ZM87.7797 20.4346C87.7676 20.4339 87.7549 20.4333 87.7428 20.4328C87.767 20.4735 87.7913 20.514 87.8161 20.5542C87.8305 20.5521 87.845 20.5502 87.8594 20.5485C87.8323 20.5108 87.8057 20.4728 87.7797 20.4346ZM87.9079 20.6151C87.8912 20.6168 87.8744 20.6187 87.8577 20.6208C88.471 21.5903 89.317 22.4071 90.3328 22.9903L92.6515 24.3216C92.935 24.4845 93.2382 24.5841 93.5437 24.6248C93.5951 24.4771 93.6327 24.3246 93.6546 24.1696C93.5195 24.1352 93.3849 24.0889 93.2527 24.0305L90.807 22.9475C89.6416 22.4316 88.6454 21.623 87.9079 20.6151ZM93.725 24.1863C93.7031 24.3384 93.6667 24.4882 93.6171 24.6335C93.758 24.648 93.9 24.6501 94.0404 24.64C94.0993 24.5123 94.1472 24.3801 94.1836 24.245C94.0311 24.2397 93.8775 24.2204 93.725 24.1863ZM93.7343 24.1151C93.8896 24.1501 94.0461 24.1696 94.2015 24.174C94.2373 24.0216 94.2581 23.8661 94.2639 23.7096C94.1258 23.6895 93.9872 23.6575 93.8498 23.6131L93.7383 23.5772C93.7568 23.7571 93.7551 23.9375 93.7343 24.1151ZM94.004 24.714C93.8671 24.7215 93.7297 24.7179 93.5922 24.7028C93.5443 24.8303 93.4854 24.9542 93.4172 25.0729C93.5466 25.0728 93.676 25.0624 93.803 25.0421C93.8792 24.9375 93.9462 24.8277 94.004 24.714ZM93.7412 25.1233C93.6199 25.1391 93.4969 25.1461 93.3745 25.1441C93.3104 25.247 93.2382 25.3456 93.1585 25.4391C93.2746 25.4279 93.3901 25.4085 93.5039 25.3809C93.5899 25.3 93.6696 25.2138 93.7412 25.1233ZM88.7401 20.7907C89.8951 21.5432 91.2539 21.9528 92.6555 21.9528H92.9656L92.819 21.7C91.392 21.8043 89.9736 21.4838 88.7401 20.7907ZM89.0196 20.8595C90.1717 21.4495 91.4711 21.7203 92.7791 21.6312L92.6532 21.4143C91.4122 21.5446 90.1602 21.3522 89.0196 20.8595ZM92.7312 21.4057L92.8588 21.6253C92.9183 21.6206 92.9778 21.6151 93.0373 21.6088L93.3456 21.5767L93.173 21.3406C93.0263 21.3669 92.8784 21.3885 92.7312 21.4057ZM93.1262 21.2762C92.9818 21.3013 92.8369 21.322 92.6919 21.3381L92.5805 21.1464C92.7133 21.1259 92.8461 21.1016 92.9778 21.0737L93.1262 21.2762ZM93.2515 21.3261L93.4282 21.568L93.9965 21.5086L93.7395 21.2245L93.3959 21.2971C93.3479 21.3073 93.2994 21.3169 93.2515 21.3261ZM93.684 21.1631L93.3809 21.2271C93.322 21.2395 93.2636 21.2512 93.2047 21.2621L93.0546 21.057C93.1995 21.0246 93.3439 20.9878 93.4877 20.9463L93.684 21.1631ZM93.8203 21.2073L94.0848 21.4994L94.7495 21.4299C94.6883 21.361 94.6225 21.2948 94.552 21.2318L94.3903 21.0869L93.8203 21.2073ZM94.3245 21.0277L93.7649 21.1459L93.5639 20.9238C93.6107 20.9097 93.6575 20.895 93.7043 20.8799L94.0386 20.7719L94.3245 21.0277ZM94.4775 21.0685L94.6005 21.1786C94.686 21.2551 94.7645 21.336 94.8367 21.4208L95.472 21.3544C95.375 21.2029 95.2606 21.0606 95.1278 20.931L94.4775 21.0685ZM95.0648 20.8712L94.4111 21.0094L94.1177 20.7464L94.6716 20.5674L94.8477 20.6947C94.9245 20.7501 94.9967 20.809 95.0648 20.8712ZM95.2121 20.9133C95.3426 21.0464 95.4558 21.1918 95.5517 21.3461L95.7001 21.3305C95.837 21.3162 95.9698 21.291 96.098 21.2557C96.0252 21.0897 95.9334 20.9312 95.8237 20.7839L95.2121 20.9133ZM95.7752 20.7211L95.1509 20.8531C95.07 20.7763 94.9828 20.704 94.8899 20.6368L94.7559 20.5401L95.3888 20.3357C95.5338 20.4509 95.6631 20.5805 95.7752 20.7211ZM95.9005 20.7676C96.0067 20.9143 96.0963 21.0713 96.1673 21.2354C96.3197 21.1886 96.4647 21.1277 96.6016 21.0542C96.5559 20.9045 96.4959 20.7594 96.4225 20.621C96.2926 20.6724 96.1563 20.7137 96.0148 20.7435L95.9005 20.7676ZM96.3873 20.5578C96.2637 20.6062 96.1344 20.6451 95.9998 20.6736L95.8537 20.7045C95.7422 20.561 95.614 20.4282 95.4702 20.3094L96.0651 20.1171C96.1898 20.2523 96.2978 20.4003 96.3873 20.5578ZM96.489 20.5935C96.5611 20.7295 96.62 20.8718 96.6657 21.0184C96.7887 20.9476 96.9047 20.8664 97.0122 20.7762C96.985 20.6383 96.9452 20.5033 96.8949 20.3729C96.7679 20.4579 96.6327 20.532 96.489 20.5935ZM96.8672 20.3051C96.739 20.3923 96.601 20.4681 96.4549 20.5304C96.3665 20.3746 96.2614 20.2278 96.1401 20.0929L96.251 20.0571C96.3885 20.0127 96.5196 19.9575 96.6437 19.8928C96.7315 20.0228 96.806 20.1609 96.8672 20.3051ZM96.9556 20.3309C97.0058 20.4575 97.0457 20.5884 97.0745 20.7222C97.1704 20.636 97.2599 20.5423 97.3408 20.4423C97.3269 20.3139 97.3032 20.1877 97.2691 20.0649C97.1727 20.1615 97.0676 20.2506 96.9556 20.3309ZM97.246 19.986C97.1485 20.0868 97.0422 20.1796 96.9273 20.2628C96.8666 20.1217 96.7927 19.9863 96.7067 19.8586C96.843 19.7825 96.97 19.6948 97.0872 19.5971C97.1513 19.7215 97.2045 19.8516 97.246 19.986ZM97.0526 19.5325C96.9769 19.3955 96.8874 19.2659 96.7869 19.1458C96.6703 19.223 96.5455 19.2915 96.4133 19.35L96.307 19.3971C96.4416 19.5185 96.5617 19.6536 96.6662 19.7994C96.8048 19.7222 96.9342 19.6326 97.0526 19.5325ZM96.6021 19.8336C96.4965 19.6863 96.3734 19.5503 96.2354 19.4289L95.6637 19.6819C95.8196 19.7851 95.9605 19.9039 96.0864 20.0351L96.2285 19.9891C96.3596 19.9469 96.4843 19.8947 96.6021 19.8336ZM96.0102 20.0597C95.8837 19.9315 95.7422 19.8161 95.5857 19.7166L94.9776 19.9856L95.1209 20.0679C95.2208 20.125 95.3143 20.1879 95.4033 20.2559L96.0102 20.0597ZM95.3195 20.2828C95.245 20.2281 95.1671 20.1769 95.0851 20.1298L94.8968 20.0216L94.3643 20.2572L94.6843 20.4881L95.3195 20.2828ZM94.5994 20.5155L94.2887 20.2908L93.9676 20.4329C93.9226 20.4528 93.8775 20.4722 93.8325 20.4911L94.056 20.6911L94.5994 20.5155ZM93.9768 20.7166L93.7591 20.5214C93.6205 20.5775 93.4808 20.6293 93.3399 20.6766L93.5108 20.865C93.568 20.848 93.6251 20.8303 93.6823 20.8119L93.9768 20.7166ZM93.434 20.8872L93.2654 20.7011C93.1372 20.7427 93.0078 20.7806 92.8779 20.8148L93.0084 20.9939C93.151 20.9628 93.2931 20.9272 93.434 20.8872ZM92.9316 21.0103L92.8028 20.834C92.6844 20.8638 92.5654 20.8906 92.4459 20.9144L92.5418 21.0799C92.6723 21.0603 92.8022 21.0371 92.9316 21.0103ZM92.4655 21.091L92.3714 20.9288C91.4555 21.1007 90.5136 21.0949 89.5977 20.9102C90.5309 21.1627 91.5063 21.2245 92.4655 21.091ZM89.887 20.89C90.6984 21.021 91.5259 21.0117 92.3333 20.8631L92.253 20.7255C91.4809 20.9093 90.6816 20.9655 89.887 20.89ZM92.3258 20.7079L92.4078 20.849C92.525 20.8261 92.6417 20.8004 92.7572 20.7717L92.6469 20.6202C92.5406 20.6519 92.4332 20.6811 92.3258 20.7079ZM92.6018 20.5588C92.4979 20.5894 92.3933 20.6176 92.2882 20.6434L92.0763 20.2779C91.8326 19.8584 91.7373 19.3731 91.7997 18.8981C91.8332 19.3089 91.9793 19.7065 92.227 20.0455L92.6018 20.5588ZM92.7196 20.5981L92.8322 20.7526C92.9599 20.7196 93.0869 20.683 93.2128 20.6429L93.0661 20.481C92.9512 20.523 92.8357 20.562 92.7196 20.5981ZM93.0142 20.4237C92.9021 20.4643 92.7889 20.502 92.6746 20.5369L92.2848 20.0035C91.9989 19.6115 91.8522 19.1387 91.8644 18.6596C91.9412 19.0648 92.1283 19.4452 92.4101 19.7566L93.0142 20.4237ZM93.1383 20.4541L93.2873 20.6186C93.4259 20.5728 93.5633 20.5226 93.6996 20.4682L93.5125 20.3007C93.3889 20.3554 93.2642 20.4065 93.1383 20.4541ZM93.4536 20.2483C93.3329 20.3013 93.2105 20.3509 93.0869 20.397L92.4638 19.7088C92.1392 19.3503 91.9446 18.8977 91.9048 18.4224L91.9054 18.4196C92.0249 18.8132 92.2501 19.1706 92.5625 19.4502L93.4536 20.2483ZM93.5841 20.2685L93.7736 20.4382C93.8284 20.4154 93.8833 20.3918 93.9381 20.3676L94.2211 20.2422L93.9838 20.0707C93.8521 20.1409 93.7187 20.2069 93.5841 20.2685ZM93.9191 20.024C93.7897 20.0923 93.6586 20.1564 93.5258 20.2163L92.6105 19.3971C92.2744 19.096 92.0422 18.7019 91.9394 18.27C91.9423 18.2584 91.9446 18.2468 91.9469 18.2352C92.1086 18.5884 92.3604 18.8976 92.6815 19.1297L93.9191 20.024ZM94.0542 20.0329L94.2974 20.2086L94.8194 19.9774L94.4868 19.7862L94.1818 19.9611C94.1397 19.9855 94.097 20.0094 94.0542 20.0329ZM94.4146 19.745L94.146 19.8992C94.0941 19.929 94.0421 19.958 93.9895 19.9864L92.7237 19.0718C92.3847 18.8267 92.1254 18.4926 91.9723 18.1114C91.9758 18.0918 91.9799 18.0723 91.9833 18.0527C92.1785 18.3576 92.4459 18.6145 92.7664 18.7986L94.4146 19.745ZM94.5584 19.745L94.9008 19.9415L95.5112 19.6712C95.4316 19.6244 95.3484 19.5817 95.2618 19.5434L95.0631 19.4553L94.5584 19.745ZM94.9817 19.4194L94.4868 19.7037L92.8022 18.7366C92.4684 18.5449 92.1935 18.2713 92.0024 17.9461C92.0064 17.92 92.011 17.8938 92.0151 17.8677C92.2328 18.1193 92.5054 18.3229 92.8161 18.4604L94.9817 19.4194ZM95.1399 19.4111L95.2912 19.478C95.3958 19.5245 95.4962 19.5773 95.5915 19.6357L96.1748 19.3774C96.0356 19.2631 95.882 19.163 95.7163 19.0803L95.1399 19.4111ZM95.6371 19.043L95.0585 19.3752L92.8449 18.3951C92.5244 18.2532 92.2461 18.0389 92.0295 17.7731C92.0341 17.7411 92.0382 17.7091 92.0422 17.6771C92.2703 17.8734 92.5371 18.0246 92.8294 18.119L95.3761 18.9418C95.4662 18.9709 95.5534 19.0047 95.6371 19.043ZM95.7902 19.0378C95.9559 19.1242 96.109 19.2276 96.2476 19.345L96.3844 19.2847C96.5097 19.229 96.6281 19.1641 96.7396 19.0911C96.6183 18.9557 96.482 18.8332 96.3319 18.7268L95.7902 19.0378ZM96.266 18.6819L95.7134 18.9993C95.6129 18.9511 95.5072 18.909 95.3981 18.8737L92.8519 18.0509C92.5527 17.9545 92.2813 17.7967 92.0532 17.5909C92.0572 17.5534 92.0619 17.5158 92.0653 17.4782C92.2905 17.6196 92.5418 17.7219 92.8074 17.778L95.4264 18.3317C95.7353 18.397 96.0183 18.518 96.266 18.6819ZM91.9978 17.4339C91.9908 17.4294 91.9845 17.4249 91.9781 17.4204C91.977 17.4525 91.9764 17.4848 91.9747 17.517C91.9793 17.5212 91.9833 17.5254 91.9879 17.5296C91.9914 17.4977 91.9943 17.4658 91.9978 17.4339ZM91.9775 17.6188C91.9752 17.6167 91.9729 17.6147 91.9706 17.6126C91.9695 17.639 91.9677 17.6654 91.966 17.6919L91.9677 17.6939C91.9712 17.6689 91.9741 17.6438 91.9775 17.6188ZM91.9054 17.4447C91.9059 17.4195 91.9065 17.3943 91.9071 17.3692C91.9048 17.3673 91.9025 17.3655 91.8996 17.3637C91.9013 17.3901 91.9025 17.4165 91.9036 17.4429L91.9054 17.4447ZM91.4087 16.5532C91.3995 16.5298 91.3897 16.5065 91.3793 16.4833C91.3764 16.4826 91.3735 16.482 91.3706 16.4813C91.3833 16.5049 91.3948 16.5285 91.407 16.5522L91.4087 16.5532ZM91.3267 16.3964C91.3325 16.3979 91.3377 16.3994 91.3435 16.4009C91.3307 16.3715 91.3175 16.3422 91.3042 16.3131C91.2961 16.3125 91.2886 16.3119 91.2805 16.3112C91.2961 16.3395 91.3111 16.3679 91.3267 16.3964ZM91.1933 16.3021C91.2054 16.3241 91.2176 16.3462 91.2297 16.3684L91.228 16.3677C91.2135 16.3454 91.1991 16.3231 91.1846 16.301C91.1875 16.3013 91.1904 16.3017 91.1933 16.3021ZM91.2383 16.2352C91.2487 16.2364 91.2591 16.2374 91.2695 16.2383C91.2528 16.2034 91.236 16.1686 91.2187 16.134C91.2066 16.135 91.1939 16.136 91.1818 16.1368C91.2008 16.1694 91.2193 16.2023 91.2383 16.2352ZM91.1003 16.1406C91.1171 16.1682 91.1332 16.196 91.1488 16.2239C91.1431 16.223 91.1373 16.2221 91.1315 16.2212C91.1136 16.1944 91.0951 16.1677 91.0766 16.1412C91.0847 16.1411 91.0928 16.1408 91.1003 16.1406ZM91.1402 16.0674C91.1552 16.0668 91.1696 16.0659 91.1841 16.0649C91.1639 16.0245 91.1431 15.9843 91.1217 15.9443C91.1049 15.9484 91.0888 15.9522 91.072 15.956C91.0951 15.9929 91.1177 16.0301 91.1402 16.0674ZM90.997 15.9714C91.0177 16.004 91.038 16.0369 91.0582 16.07C91.0478 16.0701 91.0374 16.0701 91.027 16.0701C91.0045 16.0392 90.9825 16.0085 90.96 15.978C90.9721 15.9759 90.9848 15.9737 90.997 15.9714ZM91.031 15.8916C91.0495 15.8877 91.068 15.8836 91.0865 15.8791C90.4633 14.7341 89.5295 13.7716 88.3769 13.1098L86.4434 11.9998C86.1598 11.8369 85.8567 11.7373 85.5506 11.6965C85.4992 11.8442 85.4616 11.9967 85.4397 12.1516C85.5754 12.186 85.71 12.2323 85.8422 12.2908L87.8814 13.1938C89.1842 13.7706 90.2757 14.7134 91.031 15.8916ZM85.4305 12.2231C85.5592 12.2563 85.6874 12.3005 85.8128 12.3562L87.8525 13.2591C89.1334 13.8263 90.2081 14.7509 90.9554 15.9062C90.9409 15.9088 90.9265 15.9111 90.9121 15.9134C90.0262 14.7387 88.7921 13.8539 87.3685 13.3941L85.4305 12.7679C85.4097 12.5858 85.4097 12.403 85.4305 12.2231ZM85.3692 12.1348C85.3918 11.9828 85.4276 11.8332 85.4778 11.6879C85.3363 11.6734 85.1943 11.6714 85.0539 11.6814C84.995 11.8091 84.9471 11.9412 84.9107 12.0763C85.0637 12.0816 85.2168 12.1008 85.3692 12.1348ZM84.8928 12.1473C85.0482 12.1517 85.2047 12.171 85.36 12.2061C85.3392 12.3836 85.3375 12.5639 85.356 12.7437L85.2457 12.7081C85.1076 12.6636 84.969 12.6316 84.8304 12.6114C84.8362 12.4551 84.857 12.2996 84.8928 12.1473ZM84.8368 12.0748C84.8709 11.9431 84.9165 11.8139 84.9719 11.6887C84.8431 11.7023 84.7161 11.726 84.5914 11.7596C84.5261 11.8715 84.4712 11.9876 84.4256 12.1066C84.5608 12.0849 84.6988 12.0741 84.8368 12.0748ZM84.3979 12.1839C84.5365 12.1594 84.6774 12.1466 84.8195 12.1463C84.7854 12.296 84.7646 12.4486 84.7588 12.6021C84.6035 12.5841 84.4493 12.5809 84.2968 12.5915C84.3182 12.4535 84.3523 12.317 84.3979 12.1839ZM84.2864 12.664C84.2668 12.8192 84.2622 12.976 84.2732 13.1322C84.4129 13.1378 84.5544 13.1552 84.6959 13.1851L84.8091 13.209C84.7721 13.0321 84.7548 12.8526 84.7571 12.6739C84.5989 12.6552 84.4412 12.6522 84.2864 12.664ZM84.8287 12.6835C84.8276 12.8646 84.8466 13.0464 84.8865 13.2253L85.498 13.3546C85.4328 13.1801 85.3889 13.0014 85.3646 12.8219L85.2231 12.7761C85.0926 12.7338 84.9604 12.7031 84.8287 12.6835ZM85.4409 12.8465C85.4674 13.024 85.5142 13.2004 85.5818 13.3723L86.8794 13.6467C88.408 13.9697 89.7796 14.7747 90.7989 15.9278C90.8093 15.9267 90.8197 15.9257 90.8301 15.9244C89.9546 14.7773 88.7424 13.9132 87.3466 13.4621L85.4409 12.8465ZM90.8797 15.9903C90.8716 15.9913 90.8641 15.9924 90.856 15.9934C90.8774 16.0178 90.8982 16.0424 90.919 16.0672C90.9248 16.0675 90.9311 16.0678 90.9369 16.068C90.9178 16.042 90.8988 16.016 90.8797 15.9903ZM90.9889 16.1412C90.986 16.1412 90.9831 16.1411 90.9802 16.141C90.997 16.1616 91.0137 16.1822 91.0299 16.2029L91.0322 16.2034C91.0183 16.1826 91.0039 16.1619 90.9889 16.1412ZM90.8185 16.0597C90.8023 16.0406 90.7856 16.0215 90.7688 16.0025C90.766 16.0027 90.7631 16.003 90.7602 16.0032C90.7787 16.0219 90.7977 16.0406 90.8162 16.0595L90.8185 16.0597ZM90.6915 15.9362C90.6972 15.9358 90.7036 15.9355 90.7094 15.9351C89.7039 14.8148 88.3601 14.0327 86.8644 13.7166L85.6153 13.4525C85.6516 13.537 85.6938 13.6204 85.7417 13.7021L85.8503 13.8892L86.4197 13.9487C88.0356 14.1176 89.5376 14.8224 90.6915 15.9362ZM85.8948 13.9658L86.4122 14.0199C87.9882 14.1846 89.455 14.8644 90.591 15.9392H90.5881C89.3245 14.9017 87.7376 14.3188 86.0871 14.2976L85.8948 13.9658ZM85.7619 13.88L85.6794 13.7379C85.6216 13.6388 85.5719 13.5374 85.5292 13.4344L84.9049 13.3024C84.95 13.4762 85.0147 13.6468 85.1001 13.8108L85.7619 13.88ZM85.1417 13.8871L85.8064 13.9566L86.0039 14.297C86.0005 14.297 85.997 14.297 85.9941 14.297L85.4212 14.297L85.2936 14.1221C85.2376 14.0458 85.1873 13.9673 85.1417 13.8871ZM85.0152 13.8019C84.9321 13.6351 84.8691 13.462 84.8264 13.2858L84.6809 13.2551C84.5463 13.2266 84.4118 13.2098 84.2789 13.204C84.2968 13.3843 84.3344 13.5631 84.3933 13.7369L85.0152 13.8019ZM84.4198 13.8116L85.0545 13.878C85.1076 13.976 85.1677 14.0716 85.2353 14.1642L85.3323 14.297H84.6676C84.5654 14.1428 84.4828 13.9799 84.4198 13.8116ZM84.7167 14.3685C84.7704 14.4435 84.8287 14.5163 84.8922 14.5864L85.0378 14.747L85.6072 14.6875C85.6106 14.6872 85.6135 14.6868 85.617 14.6865L85.3848 14.3685H84.7167ZM85.4738 14.3685L85.7002 14.6784C85.8699 14.6629 86.0391 14.6534 86.2083 14.6498L86.0455 14.3687C86.0282 14.3686 86.0108 14.3685 85.9941 14.3685H85.4738ZM86.1292 14.3698L86.2909 14.6485C87.741 14.6343 89.1622 15.0552 90.3686 15.856C89.1582 14.9241 87.6729 14.3988 86.1292 14.3698ZM90.1203 15.7825C88.9838 15.0833 87.6712 14.7143 86.3325 14.7198L86.4746 14.965C87.7376 14.9145 88.9959 15.1949 90.1203 15.7825ZM86.3937 14.9686L86.2499 14.7206C86.083 14.7232 85.9161 14.7316 85.7492 14.7459L85.9398 15.0062C86.0905 14.9889 86.2424 14.9764 86.3937 14.9686ZM85.9883 15.0728C86.1367 15.0566 86.2857 15.0451 86.4341 15.0383L86.56 15.2548C86.4249 15.2667 86.2898 15.2824 86.1558 15.3019L85.9883 15.0728ZM85.8578 15.016L85.6661 14.7535C85.6488 14.7551 85.632 14.7569 85.6147 14.7586L85.0972 14.8127L85.3554 15.0974C85.5223 15.0643 85.6898 15.0372 85.8578 15.016ZM85.4114 15.1593C85.576 15.1278 85.7406 15.1021 85.9063 15.0822L86.0755 15.314C85.926 15.3374 85.7764 15.3656 85.628 15.3985L85.4114 15.1593ZM85.6834 15.4597L85.874 15.6701C86.0057 15.6368 86.1379 15.6071 86.2707 15.5813L86.1229 15.379C85.9756 15.4013 85.8289 15.4282 85.6834 15.4597ZM86.2032 15.3674L86.3487 15.5665C86.4682 15.5447 86.5878 15.5258 86.7079 15.51L86.5993 15.3232C86.4671 15.3342 86.3354 15.3489 86.2032 15.3674ZM86.679 15.317L86.7853 15.5002C87.7283 15.3863 88.6899 15.458 89.6133 15.7167C88.6714 15.3802 87.6711 15.2452 86.679 15.317ZM89.3563 15.7234C88.5253 15.521 87.6677 15.4694 86.8245 15.5676L86.8575 15.6247C86.8765 15.6574 86.895 15.6905 86.9123 15.7239C87.7162 15.5863 88.5432 15.5846 89.3563 15.7234ZM86.8378 15.737C86.824 15.7113 86.8101 15.6857 86.7957 15.6604L86.7472 15.5771C86.6293 15.5921 86.5127 15.61 86.396 15.6307L86.5208 15.802C86.6259 15.7779 86.7316 15.7563 86.8378 15.737ZM86.567 15.8649C86.668 15.8423 86.7697 15.8219 86.8713 15.8036C87.0856 16.244 87.145 16.7435 87.0405 17.2224C87.0347 16.7565 86.8846 16.3001 86.6057 15.9181L86.567 15.8649ZM86.4451 15.8197L86.3175 15.6452C86.187 15.6699 86.057 15.6983 85.9283 15.7303L86.094 15.9132C86.2101 15.8791 86.3273 15.848 86.4451 15.8197ZM86.1471 15.9722C86.2609 15.9394 86.3758 15.9095 86.4907 15.8824L86.5473 15.9602C86.8707 16.4022 87.0151 16.9472 86.9556 17.4879C86.9013 17.0252 86.7038 16.587 86.3862 16.2361L86.1471 15.9722ZM86.0709 15.9947C85.9439 16.0328 85.818 16.0745 85.6926 16.1198L86.2014 16.5752C86.5543 16.891 86.7962 17.306 86.899 17.7604C86.9013 17.2167 86.7004 16.69 86.3325 16.284L86.0709 15.9947ZM88.8331 20.6369C89.9517 20.9163 91.1113 20.9201 92.2155 20.6609L92.0139 20.3137C91.7119 19.7937 91.6305 19.1756 91.7864 18.5955C91.7904 18.5816 91.7939 18.5677 91.7979 18.5538C91.8026 18.4893 91.8095 18.4247 91.8199 18.3604C91.8222 18.3461 91.8245 18.3318 91.8268 18.3174C91.8245 18.2529 91.8251 18.188 91.8286 18.123C91.8291 18.1084 91.8303 18.0937 91.8309 18.079C91.8216 18.0152 91.8158 17.9509 91.8124 17.886C91.8112 17.8715 91.8106 17.8571 91.8101 17.8426C91.7945 17.7799 91.7812 17.7164 91.7708 17.6521C91.7685 17.6378 91.7662 17.6234 91.7639 17.609C91.7419 17.5484 91.7223 17.4865 91.7055 17.4237C91.7015 17.4095 91.6975 17.3954 91.694 17.3813C91.6657 17.3233 91.6397 17.264 91.616 17.2034C91.6108 17.1896 91.6056 17.176 91.6004 17.1624C91.5658 17.1077 91.534 17.0514 91.5046 16.9935C91.4976 16.9806 91.4913 16.9677 91.4844 16.9549C91.4445 16.9039 91.4064 16.8511 91.3712 16.7965C91.3631 16.7845 91.355 16.7725 91.3475 16.7606C91.3019 16.7139 91.2586 16.6652 91.2176 16.6144C91.2083 16.6034 91.1991 16.5923 91.1904 16.5812C91.1402 16.5395 91.0922 16.4956 91.0455 16.4494C91.0356 16.4391 91.0252 16.4289 91.0149 16.4187C90.9611 16.3825 90.9086 16.3439 90.8578 16.303C90.8462 16.2938 90.8347 16.2845 90.8231 16.2754C90.766 16.2451 90.7099 16.2122 90.6557 16.1769C90.6435 16.1691 90.6314 16.1613 90.6187 16.1535C90.5586 16.1292 90.4992 16.1022 90.4408 16.0726C90.4281 16.0661 90.4148 16.0596 90.4021 16.0531C90.3398 16.0352 90.2774 16.0146 90.2162 15.9912C90.2029 15.9861 90.1896 15.981 90.1758 15.976C90.1117 15.9646 90.0481 15.9505 89.9846 15.9336C88.9838 15.667 87.9472 15.6225 86.9452 15.7909C87.1739 16.2736 87.2253 16.8234 87.085 17.3428C87.0521 17.4656 87.0226 17.5889 86.9961 17.7127C86.9833 17.8016 86.9724 17.8906 86.9631 17.9796C86.9597 18.069 86.9579 18.1584 86.9579 18.2476C86.9643 18.3379 86.9724 18.428 86.9816 18.5178C86.9972 18.6064 87.0145 18.6945 87.033 18.7822C87.0578 18.8685 87.0844 18.9541 87.1121 19.0391C87.1456 19.1227 87.1809 19.2054 87.2178 19.2874C87.2605 19.3675 87.3044 19.4466 87.3501 19.5247C87.4009 19.5998 87.4529 19.6739 87.506 19.7468C87.5643 19.8159 87.6238 19.8837 87.6839 19.9503C87.7485 20.0126 87.8144 20.0734 87.8808 20.133C87.9518 20.1883 88.0234 20.2421 88.0962 20.2945C88.1736 20.3429 88.2521 20.3897 88.3312 20.435C88.4121 20.4745 88.4941 20.5125 88.5767 20.5489C88.6616 20.5799 88.747 20.6093 88.8331 20.6369ZM89.8697 15.737C88.8244 15.2351 87.6723 14.9949 86.5156 15.035L86.6392 15.2482C87.7347 15.1637 88.8406 15.3289 89.8697 15.737ZM89.3089 20.9004C90.3565 21.305 91.489 21.4595 92.6134 21.3465L92.5042 21.1577C91.4335 21.3113 90.3409 21.2233 89.3089 20.9004ZM84.3436 12.1212C84.2229 12.1447 84.1045 12.1769 83.989 12.2175C84.0404 12.1141 84.0999 12.0134 84.1675 11.9165C84.2732 11.866 84.3817 11.8231 84.4926 11.7882C84.4343 11.8961 84.3846 12.0074 84.3436 12.1212ZM97.3269 20.0051C97.4106 19.9156 97.4874 19.8204 97.5573 19.72C97.5764 19.8338 97.5879 19.9499 97.5908 20.0678C97.5354 20.1702 97.4724 20.2684 97.4031 20.3616C97.387 20.2404 97.361 20.1212 97.3269 20.0051ZM81.3409 19.8407C81.3411 19.7887 81.3431 19.7366 81.3465 19.6848C81.3243 19.6372 81.3035 19.5886 81.2841 19.5391C81.2964 19.6399 81.3153 19.7406 81.3409 19.8407ZM81.2665 19.2553C81.2777 19.2974 81.2903 19.3395 81.304 19.3815C81.3213 19.4346 81.3403 19.4865 81.3608 19.5375C81.3737 19.4366 81.3928 19.3366 81.4178 19.2382C81.3678 19.1499 81.3229 19.0579 81.2836 18.9625C81.272 19.0593 81.2662 19.1571 81.2665 19.2553ZM81.3054 18.8181C81.3446 18.9295 81.3915 19.0365 81.4453 19.1387C81.4803 19.022 81.5237 18.9078 81.5754 18.7971C81.5071 18.697 81.4457 18.5916 81.3922 18.4814C81.3552 18.5912 81.3262 18.7038 81.3054 18.8181ZM81.3491 18.3876C81.3138 18.4827 81.2844 18.5801 81.2611 18.679C81.2459 18.6262 81.2325 18.5725 81.2209 18.518C81.2116 18.4747 81.2036 18.4315 81.1968 18.3884C81.2068 18.2908 81.2228 18.1944 81.2445 18.0995C81.2736 18.1984 81.3086 18.2946 81.3491 18.3876ZM81.4267 18.3854C81.4796 18.5033 81.5417 18.6159 81.6119 18.7224C81.6737 18.6008 81.7457 18.4839 81.8277 18.373C81.7406 18.268 81.6619 18.1558 81.5929 18.0374C81.5283 18.1489 81.4727 18.2653 81.4267 18.3854ZM81.5522 17.965C81.4891 18.0698 81.4338 18.179 81.3868 18.2915C81.344 18.1842 81.3086 18.0729 81.2813 17.9582C81.3141 17.8465 81.3548 17.7375 81.4031 17.632C81.4447 17.7472 81.4947 17.8584 81.5522 17.965ZM81.6353 17.9669C81.7043 18.0897 81.7837 18.2059 81.8723 18.3143C81.9664 18.1946 82.0723 18.0825 82.1895 17.98C82.0789 17.8727 81.9785 17.7555 81.8895 17.6301C81.7946 17.7353 81.7096 17.8481 81.6353 17.9669ZM81.8477 17.5694C81.7546 17.6711 81.6706 17.78 81.5963 17.8945C81.5377 17.7813 81.4878 17.6628 81.4475 17.5401C81.5059 17.4254 81.5734 17.3154 81.6495 17.2111C81.7057 17.3361 81.7721 17.4558 81.8477 17.5694ZM81.9394 17.5764C82.0293 17.7047 82.1315 17.8243 82.2445 17.9333C82.3522 17.8444 82.4688 17.7633 82.5941 17.6914L82.695 17.6335C82.5483 17.5267 82.4147 17.4048 82.2959 17.2707C82.1658 17.3618 82.0467 17.4644 81.9394 17.5764ZM82.2489 17.2161C82.1215 17.3059 82.0044 17.4064 81.8983 17.5157C81.8215 17.3986 81.7548 17.2748 81.6991 17.1455C81.7855 17.035 81.8818 16.9317 81.9873 16.8369C82.0626 16.9709 82.1502 17.0979 82.2489 17.2161ZM82.3558 17.23C82.4766 17.3655 82.6131 17.4879 82.7632 17.5943L83.3048 17.2834C83.1391 17.1969 82.986 17.0935 82.8473 16.9761L82.7109 17.0365C82.5852 17.0921 82.4667 17.157 82.3558 17.23ZM82.7879 16.9241L82.6816 16.9712C82.5494 17.0297 82.4249 17.0982 82.3085 17.1753C82.2075 17.0552 82.1185 16.9257 82.0426 16.7887C82.1611 16.6885 82.2903 16.5989 82.4292 16.5218C82.5332 16.6675 82.6533 16.8026 82.7879 16.9241ZM82.9205 16.9437C83.0595 17.0581 83.2129 17.1581 83.379 17.2408L83.955 16.9101L83.8037 16.8432C83.6991 16.7968 83.5986 16.744 83.5036 16.6855L82.9205 16.9437ZM83.4311 16.6393L82.8599 16.8922C82.7218 16.7708 82.5989 16.6348 82.493 16.4875C82.611 16.4265 82.7357 16.3743 82.8665 16.332L83.0084 16.2861C83.134 16.4174 83.2754 16.5361 83.4311 16.6393ZM83.5836 16.6501C83.6633 16.6969 83.7465 16.7396 83.8331 16.7779L84.0318 16.8659L84.5273 16.5814C84.5301 16.5798 84.533 16.5781 84.5359 16.5764L84.194 16.3799L83.5836 16.6501ZM84.1167 16.3357L83.5094 16.6047C83.3529 16.5052 83.2109 16.3897 83.0846 16.2615L83.6916 16.0654C83.78 16.1334 83.8741 16.1964 83.974 16.2535L84.1167 16.3357ZM84.2749 16.344L84.6087 16.5355C84.7571 16.4527 84.9084 16.3754 85.0614 16.3037L84.7975 16.1129C84.7819 16.1197 84.7658 16.1266 84.7502 16.1336L84.2749 16.344ZM84.73 16.0642C84.7271 16.0655 84.7242 16.0669 84.7207 16.0682L84.1981 16.2997L84.0098 16.1916C83.9278 16.1445 83.8493 16.0933 83.7748 16.0385L84.41 15.8332L84.73 16.0642ZM84.3384 15.7812L84.2044 15.6846C84.1115 15.6174 84.0248 15.5451 83.944 15.4682L83.3194 15.6002C83.4316 15.7408 83.5605 15.8703 83.7061 15.9856L84.3384 15.7812ZM83.6246 16.0119C83.4803 15.8931 83.3523 15.7603 83.2411 15.6167L83.0954 15.6475C82.9608 15.676 82.8313 15.715 82.7073 15.7634C82.7972 15.9209 82.9052 16.0689 83.0297 16.2041L83.6246 16.0119ZM82.9548 16.2283C82.8337 16.0935 82.7285 15.9466 82.6403 15.7909C82.4941 15.8531 82.3562 15.9288 82.2279 16.0161C82.289 16.1602 82.3639 16.2983 82.4517 16.4283C82.5756 16.3636 82.7066 16.3085 82.8443 16.264L82.9548 16.2283ZM82.3882 16.4625C82.3024 16.3348 82.2286 16.1994 82.1678 16.0583C82.053 16.1416 81.9464 16.2343 81.8489 16.3352C81.8906 16.4696 81.944 16.5996 82.0081 16.724C82.1251 16.6264 82.2521 16.5386 82.3882 16.4625ZM81.9521 16.7721C81.8889 16.6514 81.8354 16.5254 81.7926 16.3953C81.706 16.4911 81.6273 16.5935 81.5572 16.7014C81.5843 16.8277 81.6215 16.9507 81.6679 17.0694C81.7538 16.9633 81.8488 16.8637 81.9521 16.7721ZM81.6167 17.1349C81.5706 17.0229 81.5327 16.907 81.5034 16.7882C81.4442 16.8882 81.3922 16.9925 81.3478 17.1002C81.363 17.2172 81.3865 17.3315 81.4178 17.4426C81.4763 17.3355 81.5428 17.2326 81.6167 17.1349ZM81.3701 17.5342C81.3396 17.4375 81.3149 17.3383 81.2964 17.2369C81.2648 17.3292 81.2387 17.4237 81.2185 17.5199C81.2207 17.5633 81.2241 17.6068 81.2288 17.6505C81.2346 17.706 81.2423 17.761 81.2518 17.8152C81.2855 17.7192 81.325 17.6253 81.3701 17.5342ZM81.2071 17.9563C81.1953 17.9053 81.1851 17.8536 81.1765 17.8013C81.1676 17.9022 81.165 18.0044 81.1691 18.1073C81.1801 18.0565 81.1928 18.0062 81.2071 17.9563ZM81.2203 17.2375C81.2367 17.1879 81.2547 17.1389 81.2742 17.0906C81.2679 17.0384 81.2631 16.9858 81.2601 16.9327C81.2405 17.0325 81.2271 17.1342 81.2203 17.2375ZM81.3314 16.6573C81.3291 16.7008 81.3279 16.7446 81.3279 16.7886C81.3279 16.8445 81.3298 16.9 81.3335 16.9549C81.3772 16.8628 81.4263 16.7735 81.4808 16.6875C81.4606 16.5881 81.4465 16.4867 81.4387 16.3839C81.3976 16.4724 81.3617 16.5637 81.3314 16.6573ZM81.5043 16.2533C81.5071 16.3713 81.5184 16.4875 81.5378 16.6013C81.6074 16.501 81.6843 16.4056 81.768 16.316C81.734 16.1999 81.7084 16.0806 81.6917 15.9593C81.6224 16.0526 81.5597 16.1508 81.5043 16.2533ZM81.6799 15.8569C81.6167 15.9367 81.5584 16.0204 81.5054 16.1074C81.5074 16.0525 81.5113 15.9972 81.5172 15.9417C81.5218 15.8977 81.5277 15.8542 81.5346 15.8111C81.5745 15.7212 81.6198 15.6343 81.67 15.5505C81.6669 15.6536 81.6703 15.7559 81.6799 15.8569ZM81.7544 15.8787C81.7681 16.0071 81.7922 16.1334 81.8258 16.2563C81.9224 16.1597 82.0273 16.0705 82.1397 15.9903C82.0895 15.8636 82.0496 15.7327 82.0206 15.5988C81.9245 15.685 81.8355 15.7786 81.7544 15.8787ZM82.0045 15.5175C81.9119 15.5977 81.8254 15.6845 81.7457 15.7771C81.7383 15.6619 81.7393 15.5451 81.749 15.4275C81.8148 15.3314 81.8875 15.2403 81.9662 15.1548C81.97 15.2772 81.9829 15.3984 82.0045 15.5175ZM82.0829 15.5448C82.1103 15.6829 82.1498 15.8178 82.2004 15.9482C82.327 15.8633 82.4625 15.7893 82.6058 15.7277C82.5339 15.5917 82.4748 15.4494 82.4291 15.3028C82.3063 15.3736 82.1905 15.4548 82.0829 15.5448ZM82.4082 15.2322C82.2881 15.3003 82.1745 15.378 82.0683 15.464C82.0477 15.3383 82.0371 15.2103 82.037 15.0811C82.128 14.9901 82.2264 14.9063 82.331 14.8305C82.3458 14.9667 82.3716 15.101 82.4082 15.2322ZM82.4933 15.267C82.5389 15.4167 82.5989 15.5619 82.6725 15.7002C82.8026 15.6488 82.9388 15.6075 83.0804 15.5776L83.1939 15.5536C83.0876 15.4069 82.9984 15.25 82.9271 15.0859C82.7752 15.1326 82.6301 15.1936 82.4933 15.267ZM82.8994 15.0195C82.7504 15.0658 82.6079 15.1254 82.4731 15.1966C82.4364 15.0617 82.4114 14.9234 82.3987 14.7833C82.5151 14.7049 82.6387 14.6363 82.7684 14.5786C82.7984 14.7291 82.8422 14.8768 82.8994 15.0195ZM82.9967 15.0656C83.0695 15.2316 83.1613 15.39 83.271 15.5373L83.8828 15.408C83.7517 15.2749 83.6385 15.1295 83.543 14.9752L83.3947 14.9907C83.2579 15.005 83.125 15.0303 82.9967 15.0656ZM83.5027 14.9075L83.3872 14.9196C83.2432 14.9346 83.1034 14.9615 82.9686 14.9991C82.91 14.8539 82.8656 14.7033 82.8361 14.5497C82.9798 14.4908 83.1305 14.4453 83.2866 14.4146C83.3402 14.5852 83.4124 14.7506 83.5027 14.9075ZM83.2659 14.3457C83.2241 14.1978 83.196 14.0464 83.182 13.8935C83.047 13.9375 82.9168 13.9929 82.7927 14.0588C82.7907 14.1995 82.801 14.3396 82.8233 14.4776C82.9649 14.4207 83.1129 14.3763 83.2659 14.3457ZM82.7551 14.5062C82.7325 14.3719 82.7208 14.2356 82.7206 14.0987C82.6085 14.1632 82.5019 14.2364 82.4017 14.3174C82.3883 14.4459 82.3854 14.5742 82.3926 14.7014C82.5072 14.6269 82.6284 14.5615 82.7551 14.5062ZM82.3235 14.7479C82.3146 14.6273 82.3145 14.5054 82.3235 14.3834C82.2363 14.4602 82.1546 14.5433 82.079 14.632C82.057 14.7479 82.0438 14.8639 82.039 14.9792C82.1279 14.8954 82.223 14.8181 82.3235 14.7479ZM81.9651 15.0517C81.9662 14.9503 81.9736 14.8483 81.9875 14.7461C81.9288 14.8241 81.8747 14.9059 81.8255 14.991C81.8141 15.0332 81.8038 15.0759 81.7945 15.1191C81.7829 15.1736 81.7732 15.2281 81.7654 15.2825C81.8272 15.2015 81.894 15.1245 81.9651 15.0517ZM81.6789 15.4029C81.6836 15.3506 81.69 15.2981 81.6982 15.2456C81.6581 15.339 81.6238 15.4357 81.5955 15.5353C81.622 15.4902 81.6498 15.4461 81.6789 15.4029ZM81.9152 14.7231C81.9461 14.681 81.9784 14.6401 82.0119 14.6002C82.0221 14.5487 82.0339 14.4972 82.0475 14.4458C81.9979 14.5346 81.9536 14.6271 81.9152 14.7231ZM82.201 14.2059C82.1852 14.2466 82.1704 14.2879 82.1567 14.3299C82.1394 14.3829 82.124 14.4361 82.1105 14.4894C82.1805 14.4154 82.255 14.3457 82.3333 14.2807C82.3451 14.18 82.3631 14.0793 82.3877 13.9792C82.3212 14.0507 82.2587 14.1263 82.201 14.2059ZM82.4907 13.8752C82.4566 13.9881 82.4313 14.1021 82.4144 14.2163C82.5117 14.1422 82.6144 14.0752 82.7217 14.0158C82.7255 13.8949 82.7382 13.7737 82.7601 13.6532C82.6652 13.7206 82.5751 13.7948 82.4907 13.8752ZM82.7806 13.5522C82.6958 13.6086 82.6144 13.6703 82.537 13.7367C82.556 13.685 82.5769 13.6337 82.5997 13.5827C82.6178 13.5425 82.6368 13.5029 82.6567 13.4642C82.7225 13.391 82.7926 13.3222 82.8663 13.258C82.8314 13.355 82.8028 13.4533 82.7806 13.5522ZM82.8447 13.5958C82.8179 13.7221 82.8015 13.8495 82.7953 13.9767C82.9172 13.9145 83.0446 13.862 83.1764 13.8201C83.168 13.6843 83.1708 13.5475 83.1849 13.4114C83.0667 13.4638 82.9529 13.5256 82.8447 13.5958ZM83.1948 13.329C83.0817 13.3769 82.9725 13.4329 82.868 13.4965C82.8968 13.3847 82.9339 13.274 82.9797 13.1652C83.0721 13.094 83.1696 13.0296 83.271 12.9725C83.2366 13.09 83.2113 13.2092 83.1948 13.329ZM83.302 12.874C83.3346 12.778 83.3733 12.6832 83.4183 12.5903C83.3382 12.6465 83.2613 12.7076 83.1881 12.7736C83.1641 12.8101 83.1411 12.8475 83.1189 12.8857C83.0908 12.934 83.0647 12.9829 83.0403 13.0323C83.1243 12.9742 83.2117 12.9214 83.302 12.874ZM82.9207 13.1202C82.9414 13.072 82.9637 13.0241 82.9878 12.9766C82.9207 13.0532 82.8581 13.1346 82.8004 13.2205C82.8395 13.1858 82.8796 13.1524 82.9207 13.1202ZM83.3566 12.5462C83.3991 12.5157 83.4425 12.4867 83.4868 12.459C83.5125 12.4131 83.5397 12.3679 83.5686 12.3232C83.4939 12.3923 83.423 12.4667 83.3566 12.5462ZM82.4789 13.6869C82.46 13.7366 82.4428 13.7865 82.4272 13.8366C82.3898 13.8728 82.3534 13.9101 82.3183 13.9487C82.3666 13.8573 82.4203 13.77 82.4789 13.6869ZM81.4346 16.0774C81.4321 16.1306 81.4312 16.1835 81.432 16.2361C81.4076 16.2821 81.3846 16.329 81.363 16.3766C81.3806 16.2746 81.4046 16.1747 81.4346 16.0774ZM81.1845 18.6725C81.1986 18.7238 81.2142 18.7743 81.2313 18.824C81.2224 18.8752 81.215 18.9268 81.2093 18.9786C81.1944 18.8763 81.1862 18.7741 81.1845 18.6725ZM85.4045 10.9186C85.4541 10.9028 85.5044 10.8884 85.5552 10.8757C85.5939 10.84 85.6337 10.8053 85.6753 10.7717C85.5823 10.8145 85.4923 10.8635 85.4045 10.9186ZM85.941 10.6673C85.904 10.691 85.8682 10.7158 85.8318 10.7417C85.7868 10.7745 85.7429 10.8085 85.7002 10.8438C85.8006 10.8247 85.9023 10.8118 86.0039 10.8051C86.0732 10.7305 86.1471 10.6596 86.2263 10.593C86.1304 10.6119 86.0351 10.6367 85.941 10.6673ZM86.3712 10.569C86.2771 10.6405 86.1887 10.7179 86.1079 10.8004C86.7264 10.7848 87.3512 10.9955 87.8473 11.4396L89.5064 12.925C90.3808 13.7082 91.0414 14.6842 91.4434 15.7616C91.4757 15.7479 91.5075 15.7332 91.5392 15.7179C91.2395 14.7184 90.7186 13.7873 90.0031 12.9974L88.5097 11.3476C87.9495 10.7293 87.1422 10.4648 86.3712 10.569ZM91.6045 15.6849C91.3007 14.6802 90.7764 13.7442 90.0568 12.9495L88.5628 11.2998C88.0176 10.6976 87.2444 10.4214 86.4907 10.484C86.5364 10.4534 86.5837 10.4241 86.6322 10.3962C86.6709 10.3741 86.7096 10.3533 86.7483 10.3335C87.6619 10.1378 88.6471 10.4771 89.2315 11.2771L90.5436 13.0731C91.1067 13.8441 91.5028 14.7116 91.7182 15.6216L91.6767 15.6455C91.653 15.6591 91.6287 15.6723 91.6045 15.6849ZM91.56 15.7874C91.5294 15.802 91.4988 15.8158 91.4682 15.8289C91.4901 15.89 91.5115 15.9514 91.5317 16.0131C91.56 16.0066 91.5877 15.9996 91.616 15.9919C91.5981 15.9235 91.5796 15.8553 91.56 15.7874ZM91.6848 15.9719C91.6663 15.8992 91.6466 15.8269 91.6253 15.7549C91.6547 15.7397 91.6836 15.7239 91.7125 15.7074L91.735 15.6946C91.7529 15.7755 91.7702 15.8567 91.7852 15.9383C91.7523 15.9503 91.7188 15.9615 91.6848 15.9719ZM91.6334 16.0614C91.6068 16.0685 91.5808 16.0752 91.5542 16.0814C91.5716 16.1354 91.5883 16.1896 91.6039 16.2441C91.6276 16.2427 91.6513 16.241 91.6744 16.2389C91.6617 16.1795 91.6478 16.1203 91.6334 16.0614ZM91.7465 16.2311C91.7327 16.1677 91.7182 16.1044 91.7027 16.0414C91.7344 16.0315 91.7668 16.0209 91.7985 16.0096C91.8106 16.0792 91.8222 16.1489 91.8326 16.2188C91.8037 16.2235 91.7754 16.2276 91.7465 16.2311ZM91.69 16.3093C91.668 16.3113 91.6461 16.3131 91.6241 16.3145C91.638 16.3623 91.6507 16.4103 91.6634 16.4585C91.6824 16.4605 91.7009 16.4622 91.72 16.4637C91.7107 16.4121 91.7003 16.3606 91.69 16.3093ZM91.7939 16.4683C91.7841 16.4125 91.7731 16.3569 91.7616 16.3013C91.7887 16.298 91.8158 16.2941 91.8424 16.2896C91.8511 16.3498 91.858 16.4101 91.8649 16.4705C91.8413 16.4701 91.8176 16.4694 91.7939 16.4683ZM91.7333 16.5365C91.7159 16.5352 91.6992 16.5338 91.6824 16.5323C91.6928 16.5745 91.7027 16.6169 91.7125 16.6594C91.7269 16.6632 91.7408 16.6669 91.7552 16.6704C91.7483 16.6257 91.7408 16.581 91.7333 16.5365ZM91.8309 16.6878C91.8234 16.6386 91.8153 16.5895 91.8066 16.5405C91.8285 16.5413 91.8505 16.5419 91.8724 16.5421C91.8776 16.5943 91.8823 16.6466 91.8863 16.6989C91.8678 16.6955 91.8493 16.6917 91.8309 16.6878ZM91.7668 16.7468C91.7546 16.7439 91.7425 16.741 91.7304 16.738C91.7385 16.7749 91.746 16.8119 91.7535 16.8491C91.7633 16.8533 91.7725 16.8575 91.7823 16.8616C91.7772 16.8233 91.772 16.785 91.7668 16.7468ZM91.8586 16.8927C91.8534 16.8494 91.8476 16.8063 91.8418 16.7631C91.8586 16.7665 91.8753 16.7696 91.8921 16.7726C91.895 16.8177 91.8979 16.8629 91.8996 16.9081C91.8857 16.9031 91.8724 16.898 91.8586 16.8927ZM91.9729 16.9332C91.9908 16.9391 92.0093 16.9447 92.0272 16.9501C92.0289 16.8976 92.0295 16.8452 92.0301 16.7927C92.0082 16.7902 91.9862 16.7874 91.9648 16.7843C91.9683 16.8339 91.9706 16.8836 91.9729 16.9332ZM91.9596 16.7112C91.9827 16.7148 92.0064 16.7179 92.0301 16.7207C92.0295 16.6599 92.0284 16.5992 92.0266 16.5384C91.9995 16.54 91.9723 16.5411 91.9446 16.5417C91.9504 16.5981 91.9556 16.6546 91.9596 16.7112ZM91.9371 16.4703C91.966 16.4697 91.9954 16.4686 92.0243 16.4669C92.0214 16.3963 92.0174 16.3258 92.0122 16.2553C91.9793 16.2633 91.9464 16.2705 91.9134 16.2769C91.9221 16.3413 91.9302 16.4057 91.9371 16.4703ZM91.903 16.206C91.9377 16.1992 91.9723 16.1915 92.007 16.183C92.0001 16.1003 91.992 16.0178 91.9822 15.9354L91.9585 15.9459C91.9285 15.9593 91.8979 15.972 91.8667 15.9841C91.8799 16.0579 91.8921 16.1318 91.903 16.206ZM91.8534 15.9123C91.8788 15.9022 91.9042 15.8916 91.929 15.8805L91.9729 15.8611C91.9614 15.7677 91.9475 15.6745 91.9313 15.5816L91.8003 15.6571C91.8193 15.7418 91.8372 15.8269 91.8534 15.9123ZM91.7829 15.5843L91.9186 15.5065C91.7743 14.7038 91.4907 13.9243 91.0732 13.2046L89.9569 11.282C89.3551 10.2461 88.1002 9.81965 87.0088 10.2204C87.8663 10.1344 88.7464 10.4914 89.2893 11.2351L90.6019 13.0311C91.1662 13.8039 91.5646 14.6728 91.7829 15.5843ZM91.9983 15.5434C92.0145 15.6389 92.0289 15.7347 92.0416 15.8307L94.3753 14.7976C95.595 14.2575 97.0168 14.7649 97.6208 15.9303C97.5677 15.7013 97.4799 15.4761 97.3558 15.262C96.6836 14.1045 95.1954 13.7079 94.0311 14.3762L91.9983 15.5434ZM97.6682 16.2107C97.6526 16.1701 97.6359 16.1296 97.6174 16.0894C97.0711 14.8684 95.6325 14.3193 94.4042 14.8629L92.0509 15.9049C92.0613 15.9912 92.0699 16.0777 92.0775 16.1643C92.1034 16.1569 92.13 16.149 92.156 16.1405L94.7022 15.3178C95.8722 14.9398 97.119 15.4636 97.6821 16.5037C97.6832 16.4063 97.6786 16.3084 97.6682 16.2107ZM97.6751 16.6495C97.1594 15.5655 95.9016 15.0054 94.7247 15.3858L92.1779 16.2086C92.1467 16.2188 92.115 16.2283 92.0832 16.237C92.0884 16.3118 92.093 16.3867 92.0959 16.4616C92.182 16.4538 92.2686 16.4408 92.3541 16.4227L94.973 15.8691C96.035 15.6446 97.0838 16.1256 97.6243 16.9938C97.6497 16.8806 97.6665 16.7655 97.6751 16.6495ZM97.6774 17.0826C97.7023 16.9842 97.7213 16.8842 97.734 16.7833C97.7548 16.8344 97.7739 16.8865 97.7912 16.9396C97.8051 16.9815 97.8172 17.0236 97.8287 17.0657C97.8287 17.1639 97.823 17.2616 97.8114 17.3584C97.7722 17.263 97.7271 17.1709 97.6774 17.0826ZM97.6001 17.0928C97.0867 16.2111 96.0443 15.7158 94.988 15.9391L92.3691 16.4927C92.279 16.5116 92.1889 16.5251 92.0982 16.5332C92.1006 16.5981 92.1017 16.663 92.1017 16.728C92.2403 16.7399 92.3806 16.7387 92.521 16.724L95.1838 16.4457C96.1049 16.3495 96.9619 16.7624 97.4713 17.4565C97.5238 17.3387 97.5671 17.2171 97.6001 17.0928ZM97.5192 17.5243C97.5712 17.4134 97.6145 17.299 97.6497 17.1821C97.7034 17.2843 97.7502 17.3914 97.7895 17.5027C97.7687 17.6173 97.7398 17.73 97.7028 17.8401C97.6491 17.7298 97.5879 17.6243 97.5192 17.5243ZM97.4366 17.5309C96.9452 16.8374 96.1003 16.4219 95.1913 16.5169L92.5285 16.7952C92.3858 16.8101 92.2432 16.8115 92.1017 16.7998C92.1017 16.8565 92.1006 16.9132 92.0988 16.9699C92.279 17.0167 92.4661 17.041 92.6555 17.041H95.3334C96.0853 17.041 96.7598 17.3705 97.2195 17.8923C97.3026 17.7778 97.3754 17.6568 97.4366 17.5309ZM97.2674 17.9484C97.3488 17.8374 97.421 17.7204 97.4828 17.5989C97.5533 17.7055 97.6151 17.8181 97.6682 17.936C97.622 18.0561 97.5666 18.1725 97.5019 18.284C97.4332 18.1656 97.354 18.0534 97.2674 17.9484ZM97.5429 18.3565C97.6001 18.4631 97.6503 18.5744 97.6919 18.6896C97.7398 18.5841 97.7808 18.4751 97.8137 18.3634C97.7866 18.2486 97.7508 18.1373 97.708 18.0299C97.6613 18.1425 97.6058 18.2517 97.5429 18.3565ZM97.7462 17.9339C97.7866 18.0269 97.8212 18.1231 97.8507 18.2221C97.8721 18.127 97.8882 18.0302 97.8986 17.9324C97.8917 17.8893 97.8836 17.8463 97.8744 17.8032C97.8628 17.7485 97.849 17.6947 97.8339 17.6418C97.8108 17.741 97.7814 17.8385 97.7462 17.9339ZM97.864 17.4968C97.8807 17.5465 97.8963 17.597 97.9107 17.6483C97.909 17.5467 97.9009 17.4446 97.8859 17.3423C97.8801 17.3941 97.8726 17.4457 97.864 17.4968ZM97.9263 18.2134C97.9148 18.2645 97.9021 18.3152 97.8876 18.3653C97.8998 18.4166 97.9102 18.4686 97.9188 18.5212C97.9275 18.4198 97.9304 18.317 97.9263 18.2134ZM97.8767 18.8025C97.8744 18.7587 97.8709 18.7148 97.8663 18.6708C97.8605 18.6153 97.8524 18.5605 97.8432 18.5064C97.8097 18.6024 97.7698 18.6963 97.7248 18.7873C97.7554 18.8842 97.7802 18.9835 97.7987 19.085C97.8299 18.9928 97.8565 18.8985 97.8767 18.8025ZM97.8207 19.2313C97.827 19.2834 97.8316 19.336 97.8345 19.389C97.8542 19.2894 97.8674 19.1878 97.8744 19.0848C97.8582 19.1343 97.8403 19.1831 97.8207 19.2313ZM97.8108 16.7818C97.7912 16.7323 97.7704 16.6837 97.7485 16.636C97.7519 16.5841 97.7537 16.5321 97.7542 16.4799C97.7797 16.5802 97.7987 16.6809 97.8108 16.7818ZM86.4728 10.4097C86.4284 10.4389 86.3851 10.4692 86.3429 10.5007C86.2909 10.5081 86.2395 10.5171 86.1881 10.5277C86.2811 10.482 86.3764 10.4427 86.4728 10.4097ZM97.1802 21.5977C97.149 21.6397 97.1167 21.6808 97.0832 21.7208C97.0734 21.7723 97.0613 21.8238 97.0474 21.8752C97.0971 21.7864 97.1415 21.6938 97.1802 21.5977ZM96.8944 22.1152C96.9099 22.0745 96.925 22.0332 96.9382 21.9913C96.9556 21.9382 96.9712 21.8849 96.9844 21.8315C96.9146 21.9057 96.8401 21.9755 96.7615 22.0405C96.75 22.1413 96.7321 22.242 96.7072 22.3422C96.7737 22.2706 96.8366 22.1948 96.8944 22.1152ZM96.6674 22.4848C96.6524 22.535 96.6351 22.5851 96.616 22.6349C96.6749 22.5516 96.7286 22.464 96.7771 22.3723C96.7419 22.4111 96.7049 22.4485 96.6674 22.4848ZM96.6044 22.4462C96.6385 22.3332 96.6634 22.2192 96.6807 22.105C96.5831 22.179 96.4803 22.2461 96.3729 22.3055C96.3694 22.4265 96.3567 22.5477 96.3348 22.6682C96.4295 22.6008 96.5196 22.5266 96.6044 22.4462ZM96.2499 22.7256C96.277 22.5992 96.2932 22.4719 96.2995 22.3446C96.1777 22.4068 96.0501 22.4593 95.9184 22.5012C95.9265 22.637 95.9242 22.7738 95.9097 22.91C96.0281 22.8576 96.1419 22.7958 96.2499 22.7256ZM95.8341 22.9422C95.8508 22.8025 95.8549 22.6621 95.8474 22.5225C95.7007 22.5644 95.5488 22.5932 95.3934 22.6076C95.4194 22.759 95.4316 22.9125 95.4292 23.066C95.5678 23.0364 95.7036 22.9948 95.8341 22.9422ZM95.3571 23.0803C95.3599 22.9239 95.3484 22.7675 95.3212 22.6132C95.1815 22.6222 95.0394 22.6195 94.8956 22.6045L94.7796 22.5924C94.835 22.7645 94.8708 22.9412 94.8881 23.1192C95.0469 23.1215 95.204 23.1081 95.3571 23.0803ZM94.8154 23.1171C94.7975 22.9369 94.7593 22.758 94.701 22.5842L94.0791 22.5191C94.1622 22.686 94.2246 22.859 94.2673 23.0351L94.414 23.0661C94.5486 23.0944 94.6825 23.1113 94.8154 23.1171ZM94.1894 23.0185C94.1443 22.8448 94.0791 22.6742 93.9936 22.5102L93.3323 22.4411L93.4149 22.5838C93.4727 22.6826 93.5223 22.7838 93.5645 22.8865L94.1894 23.0185ZM95.1139 24.388C95.0683 24.4139 95.0221 24.4383 94.9753 24.4612C94.9447 24.5042 94.913 24.5464 94.8795 24.5879C94.9615 24.5268 95.0394 24.4602 95.1139 24.388Z" fill="#00A6CA"/>
<path d="M2.88329 20.6043H0V33.5418H7.98178V31.0067H2.88329V20.6043Z" fill="#00A6CA"/>
<path d="M8.25708 29.1535C8.25708 31.9159 10.1207 33.7516 12.9337 33.7516C15.729 33.7516 17.5926 31.9159 17.5926 29.1535C17.5926 26.3912 15.729 24.538 12.9337 24.538C10.1207 24.538 8.25708 26.3912 8.25708 29.1535ZM10.9821 29.1361C10.9821 27.8248 11.7557 26.9506 12.9337 26.9506C14.094 26.9506 14.8676 27.8248 14.8676 29.1361C14.8676 30.4648 14.094 31.3389 12.9337 31.3389C11.7557 31.3389 10.9821 30.4648 10.9821 29.1361Z" fill="#00A6CA"/>
<path d="M18.0284 29.0137C18.0284 31.6537 19.7513 33.4369 22.1951 33.4369C23.373 33.4369 24.3927 33.0174 24.9025 32.3355V33.5418C24.9025 34.7482 24.1465 35.5523 22.8104 35.5523C21.6149 35.5523 20.7886 34.9929 20.7358 33.9964H17.9932C18.2393 36.3916 20.1029 38 22.6522 38C25.6585 38 27.5572 36.0594 27.5572 32.9823V24.8002H25.1135L24.9728 25.6919C24.4806 24.9751 23.4433 24.5031 22.2478 24.5031C19.7864 24.5031 18.0284 26.3388 18.0284 29.0137ZM20.771 28.9437C20.771 27.685 21.6149 26.8458 22.6873 26.8458C23.9356 26.8458 24.8498 27.6675 24.8498 28.9437C24.8498 30.22 23.9531 31.0942 22.7049 31.0942C21.6325 31.0942 20.771 30.22 20.771 28.9437Z" fill="#00A6CA"/>
<path d="M28.3462 29.1535C28.3462 31.9159 30.2098 33.7516 33.0228 33.7516C35.8181 33.7516 37.6817 31.9159 37.6817 29.1535C37.6817 26.3912 35.8181 24.538 33.0228 24.538C30.2098 24.538 28.3462 26.3912 28.3462 29.1535ZM31.0713 29.1361C31.0713 27.8248 31.8449 26.9506 33.0228 26.9506C34.1831 26.9506 34.9567 27.8248 34.9567 29.1361C34.9567 30.4648 34.1831 31.3389 33.0228 31.3389C31.8449 31.3389 31.0713 30.4648 31.0713 29.1361Z" fill="#00A6CA"/>
<path d="M40.0161 23.4366C40.8601 23.4366 41.5457 22.7548 41.5457 21.8981C41.5457 21.0414 40.8601 20.377 40.0161 20.377C39.1547 20.377 38.469 21.0414 38.469 21.8981C38.469 22.7548 39.1547 23.4366 40.0161 23.4366ZM38.6448 33.5418H41.3699V24.8002H38.6448V33.5418Z" fill="#00A6CA"/>
<path d="M42.9561 37.7377H45.6284V32.6677C46.1382 33.332 47.2986 33.7866 48.5117 33.7866C51.1312 33.7866 52.7135 31.7935 52.6432 29.0312C52.5729 26.2164 50.9379 24.5205 48.4941 24.5205C47.2458 24.5205 46.0679 25.0625 45.5756 25.8668L45.435 24.8002H42.9561V37.7377ZM45.6812 29.1711C45.6812 27.8598 46.5602 26.9857 47.826 26.9857C49.1094 26.9857 49.9182 27.8773 49.9182 29.1711C49.9182 30.4648 49.1094 31.3565 47.826 31.3565C46.5602 31.3565 45.6812 30.4823 45.6812 29.1711Z" fill="#00A6CA"/>
<path d="M52.9319 30.7795C53.0022 32.5453 54.4087 33.7691 56.6239 33.7691C58.7512 33.7691 60.228 32.6502 60.228 30.8494C60.228 29.5556 59.4544 28.699 58.0128 28.3494L56.4481 27.9647C55.8854 27.8248 55.5338 27.685 55.5338 27.2305C55.5338 26.7759 55.9031 26.4787 56.4481 26.4787C57.0634 26.4787 57.4677 26.8807 57.4502 27.4752H59.8939C59.8236 25.657 58.4347 24.5205 56.5008 24.5205C54.5493 24.5205 53.0901 25.6744 53.0901 27.4227C53.0901 28.5941 53.7406 29.5556 55.4811 30.0102L57.0282 30.4124C57.4853 30.5348 57.6787 30.7445 57.6787 31.0417C57.6787 31.4788 57.2743 31.7585 56.5887 31.7585C55.7976 31.7585 55.3756 31.3914 55.3756 30.7795H52.9319Z" fill="#00A6CA"/>
<path d="M64.3723 33.7691C65.4448 33.7691 66.5172 33.2795 67.0622 32.5628L67.2381 33.5418H69.7873V24.8002H67.0798V29.3458C67.0798 30.6571 66.693 31.3739 65.4448 31.3739C64.4778 31.3739 63.8449 30.9368 63.8449 29.3109V24.8002H61.1375V30.29C61.1375 32.3704 62.2977 33.7691 64.3723 33.7691Z" fill="#00A6CA"/>
<path d="M74.0806 33.5418V28.7689C74.0806 27.3004 74.8717 26.8807 75.6452 26.8807C76.5068 26.8807 77.0693 27.4052 77.0693 28.4892V33.5418H79.7416V28.7689C79.7416 27.2828 80.5152 26.8633 81.2884 26.8633C82.1503 26.8633 82.7303 27.3878 82.7303 28.4892V33.5418H85.3676V27.8248C85.3676 25.8318 84.3123 24.5031 82.0448 24.5031C80.7793 24.5031 79.7416 25.115 79.2845 26.0591C78.7571 25.115 77.8429 24.5031 76.3837 24.5031C75.4167 24.5031 74.5201 24.9401 73.9926 25.6394L73.8872 24.8002H71.3555V33.5418H74.0806Z" fill="#00A6CA"/>
</g>
<defs>
<clipPath id="clip0_54_6999">
<rect width="98" height="28" fill="white" transform="translate(0 10)"/>
</clipPath>
</defs>
</svg>
