<svg width="98" height="43" viewBox="0 0 98 43" fill="none" xmlns="http://www.w3.org/2000/svg">
<g clip-path="url(#clip0_54_7011)">
<path d="M8.86428 25.1491C8.43248 26.3496 8.50792 27.7285 9.18662 28.9219C9.86532 30.1154 11.0039 30.8711 12.2439 31.0918C12.1748 31.1951 12.1118 31.3002 12.0555 31.4071C11.7001 32.082 11.1606 32.6677 10.4597 33.0785C8.4593 34.251 5.90147 33.5551 4.74657 31.5244C3.59166 29.4936 4.27704 26.8969 6.27738 25.7244C6.9783 25.3136 7.74767 25.1322 8.50112 25.1572C8.6204 25.1611 8.74168 25.1582 8.86428 25.1491Z" fill="#FF65AC"/>
<path d="M7.70299 22.3858C6.73781 23.2064 6.12402 24.4388 6.12402 25.8168C6.12402 27.1948 6.73781 28.4273 7.70299 29.2478C7.59238 29.3021 7.48592 29.3612 7.38455 29.4252C6.74434 29.8293 5.98869 30.0627 5.17935 30.0627C2.86954 30.0627 0.99707 28.1617 0.99707 25.8168C0.99707 23.4719 2.86954 21.5709 5.17935 21.5709C5.98869 21.5709 6.74434 21.8043 7.38455 22.2085C7.48592 22.2724 7.59238 22.3314 7.70299 22.3858Z" fill="#E63888"/>
<path d="M8.05836 19.4031C6.81835 19.6238 5.6798 20.3796 5.00111 21.573C4.32243 22.7664 4.24698 24.1453 4.67872 25.3458C4.55616 25.3367 4.43488 25.3338 4.31557 25.3377C3.56211 25.3627 2.79275 25.1813 2.09184 24.7705C0.0914846 23.598 -0.593887 21.0013 0.561017 18.9705C1.71592 16.9398 4.27376 16.2439 6.27412 17.4164C6.97502 17.8272 7.51448 18.4129 7.8699 19.0878C7.92618 19.1947 7.98933 19.2998 8.05836 19.4031Z" fill="#AF1685"/>
<path d="M9.83504 17.0002C8.65249 16.5619 7.29422 16.6385 6.1187 17.3274C4.94318 18.0165 4.19871 19.1723 3.98134 20.4312C3.87966 20.3611 3.77608 20.297 3.67081 20.2399C3.00599 19.8791 2.42907 19.3314 2.0244 18.6199C0.86949 16.5891 1.55486 13.9924 3.55522 12.8199C5.55557 11.6474 8.1134 12.3432 9.26835 14.374C9.67301 15.0855 9.85173 15.8666 9.82708 16.6315C9.82321 16.7526 9.82607 16.8757 9.83504 17.0002Z" fill="#6D2077"/>
<path d="M12.5568 15.8209C11.7486 14.841 10.5345 14.2179 9.17715 14.2179C7.81975 14.2179 6.60577 14.841 5.79752 15.8209C5.74399 15.7086 5.68584 15.6005 5.62282 15.4975C5.22477 14.8476 4.99487 14.0805 4.99487 13.2588C4.99487 10.9139 6.86734 9.01296 9.17715 9.01296C11.487 9.01296 13.3594 10.9139 13.3594 13.2588C13.3594 14.0805 13.1295 14.8476 12.7315 15.4975C12.6684 15.6005 12.6103 15.7086 12.5568 15.8209Z" fill="#512077"/>
<path d="M15.4948 16.1808C15.2774 14.922 14.5329 13.7661 13.3574 13.0771C12.1819 12.3881 10.8237 12.3115 9.64111 12.7498C9.65008 12.6254 9.65294 12.5023 9.649 12.3812C9.62442 11.6163 9.80314 10.8352 10.2078 10.1236C11.3628 8.09288 13.9206 7.39708 15.9209 8.56955C17.9213 9.74201 18.6067 12.3387 17.4517 14.3695C17.0471 15.0811 16.4702 15.6287 15.8053 15.9896C15.7001 16.0467 15.5965 16.1107 15.4948 16.1808Z" fill="#426DA9"/>
<path d="M17.8616 17.9837C18.2933 16.7832 18.2179 15.4043 17.5392 14.2109C16.8605 13.0175 15.7219 12.2617 14.4819 12.0411C14.551 11.9378 14.614 11.8327 14.6703 11.7258C15.0257 11.0509 15.5652 10.4652 16.2661 10.0544C18.2665 8.88192 20.8244 9.57771 21.9792 11.6085C23.1341 13.6392 22.4488 16.236 20.4484 17.4084C19.7475 17.8192 18.9781 18.0007 18.2247 17.9757C18.1054 17.9717 17.9841 17.9747 17.8616 17.9837Z" fill="#E63888"/>
<path d="M17.4553 20.9493V33.6302H14.687V20.9493H17.4553ZM15.1259 33.6302L15.1765 31.1454H22.3504V33.6302H15.1259ZM22.7836 29.329C22.7836 28.4265 22.9693 27.6382 23.3407 26.9642C23.712 26.2787 24.2353 25.7475 24.9105 25.3705C25.5856 24.9935 26.3733 24.805 27.2736 24.805C28.1739 24.805 28.9559 24.9935 29.6199 25.3705C30.2951 25.7475 30.8183 26.2787 31.1897 26.9642C31.5611 27.6382 31.7467 28.4265 31.7467 29.329C31.7467 30.2315 31.5611 31.0198 31.1897 31.6938C30.8183 32.3679 30.2951 32.8933 29.6199 33.2703C28.9559 33.6473 28.1739 33.8358 27.2736 33.8358C26.3733 33.8358 25.5856 33.6473 24.9105 33.2703C24.2353 32.8933 23.712 32.3679 23.3407 31.6938C22.9693 31.0198 22.7836 30.2315 22.7836 29.329ZM25.4 29.3119C25.4 29.746 25.4787 30.1287 25.6363 30.46C25.7938 30.7799 26.0133 31.0312 26.2946 31.214C26.5759 31.3853 26.9023 31.471 27.2736 31.471C27.645 31.471 27.9713 31.3853 28.2527 31.214C28.534 31.0312 28.7478 30.7799 28.8941 30.46C29.0516 30.1287 29.1304 29.746 29.1304 29.3119C29.1304 28.8777 29.0516 28.5007 28.8941 28.1809C28.7478 27.861 28.534 27.6154 28.2527 27.444C27.9713 27.2612 27.645 27.1698 27.2736 27.1698C26.9023 27.1698 26.5759 27.2612 26.2946 27.444C26.0133 27.6154 25.7938 27.861 25.6363 28.1809C25.4787 28.5007 25.4 28.8777 25.4 29.3119ZM32.3337 29.1919C32.3337 28.3122 32.5081 27.5411 32.857 26.8785C33.2059 26.2159 33.6841 25.7018 34.2918 25.3362C34.8994 24.9592 35.5972 24.7707 36.3848 24.7707C37.0488 24.7707 37.6339 24.9078 38.1403 25.182C38.658 25.4562 39.0068 25.8161 39.1869 26.2616L38.9337 26.433L39.1363 25.0621H41.4825V33.0818C41.4825 34.0872 41.2912 34.9554 40.9086 35.6866C40.526 36.4291 39.9802 37.0004 39.2712 37.4002C38.5736 37.8 37.7409 38 36.773 38C35.9629 38 35.2314 37.8343 34.5787 37.503C33.9373 37.1831 33.414 36.7262 33.0089 36.1321C32.615 35.5381 32.3787 34.8526 32.3 34.0757H34.9332C34.9557 34.567 35.147 34.944 35.5071 35.2068C35.8784 35.4695 36.3511 35.6009 36.925 35.6009C37.5665 35.6009 38.0616 35.4181 38.4104 35.0525C38.7593 34.6984 38.9337 34.2243 38.9337 33.6302V31.8137L39.17 32.0365C38.99 32.4821 38.6411 32.8419 38.1235 33.1161C37.6058 33.3903 37.0094 33.5274 36.3342 33.5274C35.5577 33.5274 34.8657 33.3447 34.258 32.979C33.6616 32.6135 33.1889 32.1051 32.8401 31.4539C32.5025 30.8027 32.3337 30.0487 32.3337 29.1919ZM34.9669 29.1234C34.9669 29.5346 35.0513 29.9002 35.2202 30.2201C35.389 30.54 35.614 30.7913 35.8954 30.9741C36.1767 31.1454 36.4861 31.2311 36.8238 31.2311C37.2288 31.2311 37.5833 31.1454 37.8872 30.9741C38.2023 30.7913 38.4442 30.54 38.613 30.2201C38.793 29.9002 38.883 29.5346 38.883 29.1234C38.883 28.7007 38.793 28.3408 38.613 28.0438C38.4329 27.7354 38.1853 27.4954 37.8703 27.3241C37.5665 27.1527 37.212 27.067 36.8068 27.067C36.4693 27.067 36.1598 27.1527 35.8784 27.3241C35.5971 27.4954 35.372 27.7354 35.2033 28.0438C35.0457 28.3523 34.9669 28.7121 34.9669 29.1234ZM42.409 29.329C42.409 28.4265 42.5946 27.6382 42.966 26.9642C43.3373 26.2787 43.8606 25.7475 44.5358 25.3705C45.211 24.9935 45.9987 24.805 46.899 24.805C47.7992 24.805 48.5813 24.9935 49.2453 25.3705C49.9204 25.7475 50.4437 26.2787 50.815 26.9642C51.1864 27.6382 51.3721 28.4265 51.3721 29.329C51.3721 30.2315 51.1864 31.0198 50.815 31.6938C50.4437 32.3679 49.9204 32.8933 49.2453 33.2703C48.5813 33.6473 47.7992 33.8358 46.899 33.8358C45.9987 33.8358 45.211 33.6473 44.5358 33.2703C43.8606 32.8933 43.3373 32.3679 42.966 31.6938C42.5946 31.0198 42.409 30.2315 42.409 29.329ZM45.0253 29.3119C45.0253 29.746 45.104 30.1287 45.2616 30.46C45.4191 30.7799 45.6386 31.0312 45.92 31.214C46.2013 31.3853 46.5276 31.471 46.899 31.471C47.2703 31.471 47.5967 31.3853 47.878 31.214C48.1593 31.0312 48.3731 30.7799 48.5194 30.46C48.677 30.1287 48.7557 29.746 48.7557 29.3119C48.7557 28.8777 48.677 28.5007 48.5194 28.1809C48.3731 27.861 48.1593 27.6154 47.878 27.444C47.5967 27.2612 47.2703 27.1698 46.899 27.1698C46.5276 27.1698 46.2013 27.2612 45.92 27.444C45.6386 27.6154 45.4191 27.861 45.2616 28.1809C45.104 28.5007 45.0253 28.8777 45.0253 29.3119ZM52.4655 33.6302V25.0621H55.0818V33.6302H52.4655ZM53.7821 23.7254C53.3657 23.7254 53.0112 23.5826 52.7186 23.297C52.4373 23 52.2966 22.6401 52.2966 22.2174C52.2966 21.7947 52.4373 21.4406 52.7186 21.1549C53.0112 20.8693 53.3657 20.7265 53.7821 20.7265C54.1872 20.7265 54.5304 20.8693 54.8117 21.1549C55.1043 21.4406 55.2506 21.7947 55.2506 22.2174C55.2506 22.6401 55.1043 23 54.8117 23.297C54.5304 23.5826 54.1872 23.7254 53.7821 23.7254ZM56.7736 37.743V25.0621H59.154L59.2885 26.1074C59.525 25.7075 59.9023 25.3877 60.4194 25.1477C60.9373 24.9078 61.4946 24.7879 62.0906 24.7879C62.8783 24.7879 63.5648 24.9649 64.1499 25.3191C64.7351 25.6732 65.1966 26.1816 65.5344 26.8443C65.8714 27.4954 66.0515 28.2837 66.0747 29.209C66.0971 30.1115 65.9503 30.917 65.6356 31.6252C65.3203 32.3221 64.865 32.8705 64.2682 33.2703C63.6714 33.6702 62.9518 33.8701 62.1076 33.8701C61.5225 33.8701 60.9767 33.7673 60.4704 33.5617C59.9641 33.356 59.5869 33.0933 59.3395 32.7734V37.743H56.7736ZM59.3898 29.3461C59.3898 29.7688 59.474 30.1458 59.6433 30.4771C59.8234 30.797 60.0654 31.0484 60.3692 31.2311C60.6838 31.4025 61.044 31.4881 61.449 31.4881C61.8657 31.4881 62.2205 31.3968 62.5127 31.214C62.8165 31.0312 63.0476 30.7799 63.2045 30.46C63.3738 30.1401 63.4581 29.7688 63.4581 29.3461C63.4581 28.9234 63.3738 28.5521 63.2045 28.2323C63.0476 27.9124 62.8165 27.661 62.5127 27.4783C62.2205 27.2955 61.8657 27.2041 61.449 27.2041C61.044 27.2041 60.6838 27.2955 60.3692 27.4783C60.0654 27.6497 59.8234 27.8953 59.6433 28.2152C59.474 28.535 59.3898 28.912 59.3898 29.3461ZM66.52 30.9227H68.8668C68.8668 31.2197 68.9619 31.4539 69.1536 31.6252C69.3561 31.7966 69.6483 31.8823 70.031 31.8823C70.2559 31.8823 70.4422 31.8538 70.5883 31.7966C70.746 31.7395 70.8643 31.6595 70.9423 31.5567C71.0328 31.4425 71.0776 31.3168 71.0776 31.1797C71.0776 31.0312 71.0274 30.9055 70.9261 30.8027C70.8357 30.6999 70.678 30.62 70.453 30.5628L68.9681 30.1687C68.1348 29.9402 67.5442 29.6032 67.1956 29.1576C66.8462 28.7121 66.6722 28.2037 66.6722 27.6325C66.6722 27.0612 66.8129 26.5643 67.0943 26.1417C67.3865 25.7075 67.7807 25.3762 68.2755 25.1477C68.771 24.9078 69.3275 24.7879 69.9467 24.7879C70.8805 24.7879 71.6458 25.0506 72.2425 25.5762C72.8501 26.0902 73.1709 26.7928 73.2049 27.6839H70.8581C70.8697 27.3868 70.7854 27.1527 70.6053 26.9813C70.4252 26.7985 70.1887 26.7072 69.8965 26.7072C69.6375 26.7072 69.4234 26.7757 69.2549 26.9128C69.0972 27.0384 69.0183 27.2155 69.0183 27.444C69.0183 27.661 69.0972 27.821 69.2549 27.9239C69.4126 28.0152 69.6259 28.0952 69.8965 28.1638L71.3984 28.5408C72.0964 28.7121 72.6252 29.0034 72.9854 29.4147C73.3456 29.8259 73.5249 30.3515 73.5249 30.9912C73.5249 31.8709 73.2049 32.5677 72.5633 33.0818C71.9217 33.5959 71.0892 33.853 70.065 33.853C69.0075 33.853 68.1572 33.5846 67.5164 33.0476C66.8856 32.4992 66.554 31.7909 66.52 30.9227ZM77.6729 33.853C76.6827 33.853 75.9174 33.5388 75.3771 32.9105C74.8375 32.2822 74.567 31.4596 74.567 30.4428V25.0621H77.1666V29.4832C77.1666 30.2829 77.3073 30.8198 77.5886 31.094C77.87 31.3682 78.2411 31.5053 78.7025 31.5053C79.2993 31.5053 79.7098 31.3339 79.9347 30.9912C80.1597 30.6485 80.2725 30.1573 80.2725 29.5175V25.0621H82.8721V33.6302H80.4248L80.2555 32.6706C79.9966 33.0247 79.6309 33.3104 79.1586 33.5274C78.6855 33.7445 78.1908 33.853 77.6729 33.853ZM87.1631 33.6302H84.5465V25.0621H86.9776L87.1631 26.5358L86.8763 26.2273C87.1013 25.7932 87.4391 25.4447 87.889 25.182C88.3504 24.9078 88.8452 24.7707 89.3747 24.7707C90.2072 24.7707 90.8596 24.9592 91.3327 25.3362C91.8166 25.7132 92.1652 26.2102 92.3786 26.8271H91.9735C92.1088 26.2102 92.435 25.7132 92.9529 25.3362C93.4708 24.9592 94.0892 24.7707 94.8097 24.7707C95.9012 24.7707 96.7059 25.0677 97.2238 25.6618C97.7409 26.2558 97.9999 27.0441 97.9999 28.0267V33.6302H95.4683V28.6778C95.4683 28.1408 95.3384 27.741 95.0795 27.4783C94.8321 27.2155 94.5005 27.0842 94.0838 27.0842C93.8365 27.0842 93.5999 27.1413 93.375 27.2555C93.15 27.3583 92.9637 27.5468 92.8176 27.821C92.6716 28.0838 92.5981 28.4608 92.5981 28.952V33.6302H90.0325V28.6778C90.0325 28.1408 89.9088 27.7467 89.6615 27.4954C89.4133 27.2326 89.0817 27.1013 88.6651 27.1013C88.4177 27.1013 88.1757 27.1584 87.9392 27.2727C87.7143 27.3755 87.5287 27.564 87.3826 27.8382C87.2365 28.1009 87.1631 28.4722 87.1631 28.952V33.6302Z" fill="#1D4F91"/>
</g>
<defs>
<clipPath id="clip0_54_7011">
<rect width="98" height="30" fill="white" transform="translate(0 8)"/>
</clipPath>
</defs>
</svg>
