<svg width="90" height="43" viewBox="0 0 90 43" fill="none" xmlns="http://www.w3.org/2000/svg">
<g clip-path="url(#clip0_54_7021)">
<path d="M37.3005 33.6573H39.8701V23.8584H37.3005V33.6573ZM37.3005 22.3303H39.8701V20H37.3005V22.3303Z" fill="#9D1535"/>
<path d="M41.5259 36.8663H44.0954V32.5494H44.1329C44.6806 33.3899 45.5689 33.9438 46.9289 33.9438C49.423 33.9438 51.1235 31.9382 51.1235 28.7674C51.1235 25.7112 49.4797 23.591 46.9102 23.591C45.5877 23.591 44.6806 24.2214 44.0574 25.0809H44.0006V23.8584H41.5259V36.8663ZM46.3812 31.7854C44.8509 31.7854 44.0387 30.6202 44.0387 28.8438C44.0387 27.0865 44.6806 25.6922 46.2869 25.6922C47.874 25.6922 48.5159 26.991 48.5159 28.8438C48.5159 30.6966 47.685 31.7854 46.3812 31.7854Z" fill="#9D1535"/>
<path d="M56.2491 33.9438C58.6677 33.9438 60.3302 32.7596 60.3302 30.7921C60.3302 28.5 58.5354 28.0416 56.9104 27.6978C55.5311 27.4113 54.2466 27.3348 54.2466 26.4944C54.2466 25.7877 54.9079 25.4056 55.9091 25.4056C57.0052 25.4056 57.6664 25.7877 57.7794 26.8382H60.1032C59.9147 24.8708 58.4974 23.591 55.9471 23.591C53.7363 23.591 51.9983 24.6034 51.9983 26.7236C51.9983 28.8629 53.6989 29.3404 55.4369 29.6843C56.7594 29.9517 57.9871 30.0472 57.9871 30.9832C57.9871 31.6708 57.3452 32.1101 56.2117 32.1101C55.0589 32.1101 54.2653 31.6135 54.0956 30.4865H51.7151C51.8661 32.5685 53.4344 33.9438 56.2491 33.9438Z" fill="#9D1535"/>
<path d="M70.0854 33.6573V23.8584H67.5159V29.5124C67.5159 30.8112 66.7791 31.7281 65.5701 31.7281C64.4741 31.7281 63.9644 31.0977 63.9644 29.9517V23.8584H61.4136V30.391C61.4136 32.5303 62.6226 33.9247 64.7766 33.9247C66.1372 33.9247 66.8927 33.409 67.5539 32.5113H67.6107V33.6573H70.0854Z" fill="#9D1535"/>
<path d="M71.7471 33.6573H74.3166V27.9652C74.3166 26.6663 75.0159 25.8259 76.0552 25.8259C76.9997 25.8259 77.5474 26.3989 77.5474 27.5067V33.6573H80.117V27.9652C80.117 26.6663 80.7782 25.8259 81.855 25.8259C82.8 25.8259 83.3478 26.3989 83.3478 27.5067V33.6573H85.9173V27.0674C85.9173 24.9281 84.7645 23.591 82.724 23.591C81.4962 23.591 80.4757 24.2404 79.8144 25.3101H79.777C79.3047 24.2786 78.3222 23.591 77.0939 23.591C75.7526 23.591 74.8081 24.2786 74.2791 25.1764H74.2224V23.8584H71.7471V33.6573Z" fill="#9D1535"/>
<path d="M0 33.6573H2.56946V20H0V33.6573Z" fill="#9D1535"/>
<path d="M8.8522 33.9438C11.8562 33.9438 13.9155 31.6899 13.9155 28.7674C13.9155 25.8449 11.8562 23.591 8.8522 23.591C5.84815 23.591 3.78882 25.8449 3.78882 28.7674C3.78882 31.6899 5.84815 33.9438 8.8522 33.9438ZM8.8522 31.9573C7.26518 31.9573 6.39606 30.6775 6.39606 28.7674C6.39606 26.8573 7.26518 25.5585 8.8522 25.5585C10.4203 25.5585 11.3083 26.8573 11.3083 28.7674C11.3083 30.6775 10.4203 31.9573 8.8522 31.9573Z" fill="#9D1535"/>
<path d="M19.3799 37C20.8157 37 22.0627 36.6562 22.8751 35.8921C23.593 35.2236 24.0276 34.2876 24.0276 32.9124V23.8584H21.5526V24.8899H21.5148C20.9291 24.0686 20.0411 23.591 18.832 23.591C16.3759 23.591 14.6377 25.4629 14.6377 28.3854C14.6377 31.3461 16.7537 33.0651 18.9076 33.0651C20.1356 33.0651 20.8724 32.5685 21.4392 31.9191H21.4959V32.9888C21.4959 34.3258 20.7968 35.0326 19.3421 35.0326C18.1518 35.0326 17.6039 34.555 17.3961 33.9438H14.8455C15.11 35.854 16.7348 37 19.3799 37ZM19.3421 30.9831C18.0195 30.9831 17.1505 30.009 17.1505 28.3472C17.1505 26.7045 18.0195 25.673 19.3232 25.673C20.8724 25.673 21.6281 26.8955 21.6281 28.3281C21.6281 29.7798 20.9669 30.9831 19.3421 30.9831Z" fill="#9D1535"/>
<path d="M30.2728 33.9438C33.2768 33.9438 35.3362 31.6899 35.3362 28.7674C35.3362 25.8449 33.2768 23.591 30.2728 23.591C27.2689 23.591 25.2095 25.8449 25.2095 28.7674C25.2095 31.6899 27.2689 33.9438 30.2728 33.9438ZM30.2728 31.9573C28.6858 31.9573 27.8168 30.6775 27.8168 28.7674C27.8168 26.8573 28.6858 25.5585 30.2728 25.5585C31.841 25.5585 32.729 26.8573 32.729 28.7674C32.729 30.6775 31.841 31.9573 30.2728 31.9573Z" fill="#9D1535"/>
<path d="M86.8508 22.2497C86.8508 21.8101 87.2035 21.4538 87.6383 21.4538H89.2126C89.6474 21.4538 90.0001 21.8101 90.0001 22.2497C90.0001 22.6893 89.6474 23.0456 89.2126 23.0456H87.6383C87.2035 23.0456 86.8508 22.6893 86.8508 22.2497Z" fill="#9D1535"/>
</g>
<defs>
<clipPath id="clip0_54_7021">
<rect width="90" height="17" fill="white" transform="translate(0 20)"/>
</clipPath>
</defs>
</svg>
