<svg width="32" height="32" viewBox="0 0 32 32" fill="none" xmlns="http://www.w3.org/2000/svg">
<rect width="32" height="32" fill="#009347"/>
<path fill-rule="evenodd" clip-rule="evenodd" d="M4.48633 16.2612L4.4875 16.1409L4.48991 16.0206L4.49357 15.9003L4.49847 15.78L4.50463 15.6597L4.51203 15.5394L4.52068 15.4192L4.53058 15.299L4.54173 15.1788L4.55413 15.0586L4.56777 14.9386L4.58266 14.8186L4.5988 14.6987L4.6162 14.579L4.63483 14.4593L4.65471 14.3399L4.67584 14.2205L4.69821 14.1013L4.72182 13.9823L4.74668 13.8634L4.77278 13.7447L4.80011 13.6263L4.82869 13.5081L4.85849 13.3901L4.88954 13.2723L4.9218 13.1548L4.95531 13.0376L4.99004 12.9206L5.02599 12.804L5.06316 12.6876L5.10156 12.5716L5.14117 12.4559L5.18199 12.3405L5.22402 12.2255L5.26727 12.1108L5.31171 11.9965L5.35736 11.8826L5.4042 11.7691L5.45224 11.6561L5.50146 11.5434L5.55187 11.4311L5.60346 11.3193L5.65623 11.208L5.71018 11.0972L5.76529 10.9868L5.82157 10.8769L5.879 10.7675L5.9376 10.6586L5.99733 10.5503L6.05822 10.4425L6.12024 10.3352L6.1834 10.2285L6.24769 10.1224L6.3131 10.0169L6.37963 9.91192L6.44727 9.80758L6.51602 9.7039L6.58587 9.60076L6.65681 9.49834L6.72884 9.39652L6.80195 9.29536L6.87614 9.19492L6.95139 9.09508L7.02771 8.99602L7.10509 8.89762L7.18351 8.7999L7.26297 8.70294L7.34347 8.60672L7.42499 8.51123L7.50754 8.4165L7.5911 8.32253L7.67566 8.22935L7.76121 8.13694L7.84777 8.04533L7.93529 7.95453L8.0238 7.86454L8.11326 7.77537L8.20369 7.68704L8.29506 7.59956L8.38738 7.51292L8.48063 7.42716L8.5748 7.34226L8.66988 7.25825L8.76587 7.17512L8.86276 7.09289L8.96054 7.01158L9.05919 6.93119L9.15872 6.85172L9.25911 6.77318L9.36035 6.69559L9.46239 6.61896L9.56535 6.54328L9.66909 6.46858L9.77362 6.39486L9.87894 6.32212L9.98511 6.25038L10.092 6.17963L10.1997 6.10991L10.3082 6.04119L10.4174 5.97351L10.5273 5.90687L10.6381 5.84126L10.7494 5.7767L10.8615 5.7132L10.9744 5.65077L11.0879 5.58941L11.202 5.52912L11.3169 5.46992L11.4324 5.41181L11.5485 5.35481L11.6653 5.2989L11.7828 5.24411L11.9007 5.19044L12.0194 5.1379L12.1386 5.08649L12.2584 5.03621L12.3787 4.98708L12.4996 4.9391L12.6211 4.89227L12.743 4.84661L12.8655 4.80211L12.9885 4.75879L13.112 4.71664L13.236 4.67567L13.3604 4.6359L13.4853 4.59731L13.6107 4.55993L13.7365 4.52375L13.8627 4.48877L13.9893 4.455L14.1163 4.42245L14.2437 4.39113L14.3714 4.36103L14.4996 4.33215L14.6281 4.30452L14.7568 4.27811L14.886 4.25295L15.0154 4.22903L15.1452 4.20636L15.2752 4.18494L15.4055 4.16477L15.536 4.14586L15.6668 4.12821L15.7978 4.11183L15.929 4.09671L16.0605 4.08285L16.1921 4.07027L16.3239 4.05896L16.4559 4.04892L16.588 4.04017L17.2984 4L17.339 7.3892L17.3622 7.38894L17.4603 7.3888L17.5584 7.38962L17.6565 7.39139L17.7547 7.39412L17.8529 7.3978L17.9511 7.40243L18.0494 7.40803L18.1476 7.41459L18.2458 7.42209L18.344 7.43057L18.4421 7.44L18.5402 7.45039L18.6382 7.46174L18.7362 7.47404L18.8341 7.48731L18.9319 7.50153L19.0295 7.51671L19.1272 7.53285L19.2246 7.54995L19.322 7.568L19.4192 7.58701L19.5162 7.60698L19.6132 7.62789L19.7099 7.64976L19.8064 7.67258L19.9028 7.69635L19.999 7.72108L20.0949 7.74675L20.1907 7.77336L20.2862 7.80092L20.3815 7.82942L20.4765 7.85886L20.5713 7.88925L20.6658 7.92057L20.76 7.95282L20.854 7.986L20.9477 8.02011L21.041 8.05516L21.134 8.09112L21.2267 8.12802L21.3191 8.16583L21.411 8.20455L21.5027 8.2442L21.5941 8.28475L21.685 8.32621L21.7755 8.36857L21.8657 8.41184L21.9554 8.456L22.0447 8.50106L22.1336 8.54701L22.2221 8.59385L22.3101 8.64157L22.3977 8.69017L22.4848 8.73965L22.5715 8.78999L22.6577 8.84122L22.7434 8.8933L22.8286 8.94622L22.9132 9.00004L22.9974 9.05464L23.081 9.11014L23.1641 9.16648L23.2467 9.2236L23.3287 9.28162L23.4102 9.34042L23.491 9.40006L23.5714 9.46054L23.6511 9.5218L23.7302 9.5839L23.8087 9.64672L23.8866 9.71038L23.9639 9.77488L24.0405 9.8401L24.1166 9.9061L24.192 9.97288L24.2666 10.0404L24.3407 10.1088L24.414 10.1778L24.4868 10.2476L24.5588 10.3182L24.6301 10.3895L24.7007 10.4615L24.7706 10.5342L24.8397 10.6077L24.9082 10.6818L24.9759 10.7567L25.0429 10.8323L25.1091 10.9085L25.1745 10.9854L25.2393 11.063L25.3032 11.1413L25.3663 11.2202L25.4287 11.2998L25.4903 11.38L25.551 11.4609L25.611 11.5424L25.6701 11.6245L25.7284 11.7072L25.7859 11.7905L25.8426 11.8745L25.8984 11.959L25.9534 12.0441L26.0074 12.1298L26.0607 12.216L26.113 12.3029L26.1645 12.3902L26.2151 12.4781L26.2649 12.5666L26.3137 12.6555L26.3617 12.745L26.4087 12.835L26.4548 12.9255L26.5 13.0164L26.5443 13.1079L26.5877 13.1999L26.6301 13.2923L26.6716 13.3851L26.7122 13.4784L26.7517 13.5722L26.7904 13.6664L26.8281 13.761L26.8648 13.856L26.9006 13.9514L26.9353 14.0472L26.9692 14.1434L27.002 14.24L27.0339 14.3369L27.0647 14.4342L27.0946 14.5318L27.1234 14.6298L27.1513 14.7281L27.1782 14.8267L27.204 14.9256L27.2288 15.0248L27.2527 15.1244L27.2755 15.2241L27.2972 15.3242L27.318 15.4245L27.3377 15.5251L27.3564 15.6259L27.3741 15.7269L27.3907 15.8282L27.4062 15.9296L27.4208 16.0313L27.4342 16.1331L27.4467 16.2352L27.4581 16.3374L27.4684 16.4397L27.4776 16.5422L27.4859 16.6449L27.493 16.7477L27.4991 16.8506L27.5041 16.9535L27.5081 17.0567L27.511 17.1598L27.5128 17.2631L27.5136 17.3664L27.5133 17.4698L27.5119 17.5732L27.5094 17.6767L27.5059 17.7801L27.5013 17.8836L27.4956 17.9871L27.4888 18.0906L27.481 18.1941L27.4721 18.2976L27.4621 18.401L27.4511 18.5044L27.4389 18.6077L27.4257 18.7109L27.4115 18.8141L27.3961 18.9171L27.3796 19.0201L27.3621 19.1229L27.3435 19.2257L27.3239 19.3283L27.3032 19.4307L27.2814 19.533L27.2585 19.6352L27.2345 19.7372L27.2095 19.8389L27.1834 19.9405L27.1563 20.0418L27.1281 20.143L27.0988 20.2439L27.0685 20.3446L27.0371 20.4451L27.0047 20.5452L26.9712 20.6452L26.9367 20.7448L26.901 20.8442L26.8644 20.9432L26.8268 21.0419L26.788 21.1403L26.7483 21.2384L26.7075 21.3362L26.6657 21.4335L26.6228 21.5306L26.579 21.6272L26.5341 21.7235L26.4881 21.8194L26.4412 21.9149L26.3932 22.01L26.3443 22.1046L26.2943 22.1988L26.2434 22.2926L26.1914 22.3859L26.1385 22.4787L26.0846 22.5711L26.0297 22.6631L25.9738 22.7544L25.917 22.8454L25.8591 22.9358L25.8003 23.0256L25.7407 23.115L25.6799 23.2038L25.6183 23.292L25.5557 23.3798L25.4922 23.4669L25.4277 23.5535L25.3623 23.6394L25.296 23.7248L25.2288 23.8095L25.1607 23.8937L25.0917 23.9772L25.0218 24.0601L24.9509 24.1424L24.8793 24.224L24.8067 24.3049L24.7332 24.3852L24.6589 24.4648L24.5838 24.5437L24.5077 24.6219L24.4309 24.6994L24.3531 24.7762L24.2746 24.8523L24.1953 24.9276L24.1151 25.0023L24.0342 25.0761L23.9523 25.1493L23.8698 25.2216L23.7864 25.2932L23.7023 25.364L23.6174 25.434L23.5317 25.5032L23.4453 25.5717L23.3581 25.6393L23.2701 25.7061L23.1815 25.772L23.0921 25.8372L23.002 25.9015L22.9112 25.9649L22.8197 26.0276L22.7275 26.0893L22.6347 26.1501L22.5411 26.2101L22.447 26.2693L22.3521 26.3275L22.2566 26.3849L22.1605 26.4413L22.0637 26.4968L21.9664 26.5514L21.8683 26.6051L21.7698 26.6579L21.6706 26.7096L21.5708 26.7605L21.4705 26.8105L21.3696 26.8595L21.2682 26.9075L21.1662 26.9546L21.0636 27.0006L20.9606 27.0458L20.8571 27.0899L20.753 27.133L20.6485 27.1752L20.5435 27.2163L20.438 27.2565L20.332 27.2957L20.2256 27.3338L20.1187 27.3709L20.0114 27.407L19.9037 27.4421L19.7956 27.4761L19.687 27.5091L19.5781 27.5411L19.4689 27.572L19.3592 27.6018L19.2492 27.6307L19.1388 27.6584L19.0282 27.6851L18.9171 27.7108L18.8058 27.7353L18.6941 27.7589L18.5822 27.7813L18.47 27.8027L18.3575 27.8229L18.2448 27.8421L18.1318 27.8602L18.0186 27.8772L17.9051 27.8931L17.7915 27.908L17.6776 27.9217L17.5635 27.9343L17.4493 27.9458L17.3349 27.9563L17.2203 27.9656L17.1056 27.9738L16.9908 27.9809L16.8758 27.9869L16.7607 27.9917L16.6456 27.9954L16.5302 27.9981L16.4149 27.9996L16.2995 28L16.184 27.9993L16.0685 27.9974L15.953 27.9945L15.8374 27.9903L15.7219 27.9851L15.6063 27.9788L15.4908 27.9713L15.3752 27.9627L15.2598 27.953L15.1444 27.9422L15.029 27.9302L14.9137 27.9171L14.7985 27.9029L14.6834 27.8876L14.5684 27.8711L14.4535 27.8535L14.3388 27.8348L14.2242 27.815L14.1098 27.794L13.9955 27.7719L13.8814 27.7487L13.7676 27.7244L13.6538 27.6989L13.5404 27.6724L13.4271 27.6447L13.3141 27.6159L13.2014 27.5861L13.0889 27.5551L12.9767 27.523L12.8647 27.4898L12.753 27.4555L12.6417 27.4201L12.5307 27.3836L12.42 27.346L12.3097 27.3073L12.1997 27.2676L12.09 27.2267L11.9808 27.1848L11.872 27.1418L11.7635 27.0977L11.6554 27.0525L11.5478 27.0063L11.4406 26.959L11.3338 26.9106L11.2276 26.8612L11.1217 26.8107L11.0164 26.7592L10.9115 26.7066L10.8072 26.6531L10.7034 26.5984L10.6 26.5428L10.4972 26.4861L10.395 26.4284L10.2933 26.3696L10.1922 26.3099L10.0916 26.2491L9.99166 26.1873L9.89228 26.1246L9.79356 26.0609L9.69539 25.9962L9.59789 25.9304L9.50106 25.8638L9.40483 25.7961L9.30927 25.7275L9.21438 25.658L9.12018 25.5874L9.02667 25.5159L8.93386 25.4436L8.84176 25.3702L8.75038 25.296L8.65973 25.2208L8.56982 25.1447L8.48066 25.0677L8.39227 24.9898L8.30464 24.911L8.2178 24.8314L8.13174 24.7508L8.04649 24.6695L7.96204 24.5871L7.8784 24.504L7.79559 24.4201L7.71362 24.3353L7.63249 24.2496L7.55222 24.1632L7.47281 24.0759L7.39427 23.9878L7.31661 23.8989L7.23983 23.8092L7.16396 23.7188L7.08899 23.6276L7.01494 23.5356L6.94181 23.4428L6.86961 23.3493L6.79834 23.2551L6.72802 23.1601L6.65866 23.0644L6.59026 22.968L6.52283 22.8709L6.45638 22.7731L6.39092 22.6746L6.32645 22.5755L6.26297 22.4756L6.20051 22.3751L6.13906 22.274L6.07863 22.1722L6.01924 22.0698L5.96088 21.9668L5.90356 21.8632L5.84729 21.7589L5.79208 21.6541L5.73793 21.5487L5.68485 21.4428L5.63285 21.3363L5.58193 21.2292L5.53209 21.1216L5.48335 21.0134L5.43571 20.9048L5.38918 20.7956L5.34376 20.686L5.29945 20.5758L5.25627 20.4652L5.21422 20.3541L5.1733 20.2426L5.13351 20.1306L5.09487 20.0183L5.05738 19.9054L5.02104 19.7922L4.98586 19.6785L4.95185 19.5645L4.919 19.4501L4.88732 19.3353L4.85681 19.2203L4.82749 19.1048L4.79935 18.989L4.7724 18.8729L4.74664 18.7565L4.72207 18.6398L4.69871 18.5228L4.67654 18.4055L4.65558 18.288L4.63583 18.1702L4.61729 18.0522L4.59996 17.9339L4.58385 17.8154L4.56897 17.6967L4.55531 17.5779L4.54287 17.4588L4.53166 17.3397L4.52167 17.2203L4.51292 17.1008L4.50541 16.9811L4.49913 16.8614L4.49409 16.7415L4.49029 16.6215L4.48772 16.5015L4.48641 16.3814L4.48633 16.2612ZM16.2291 7.46019L16.2014 5.15007L16.1752 5.15258L16.0547 5.16528L15.9346 5.17913L15.8145 5.19415L15.6948 5.21029L15.5753 5.22761L15.456 5.24608L15.3369 5.26569L15.2181 5.28647L15.0998 5.30832L14.9813 5.33141L14.8637 5.35553L14.7459 5.38086L14.6287 5.40728L14.5116 5.43486L14.3951 5.46351L14.2788 5.4933L14.1629 5.52421L14.0474 5.55623L13.9323 5.58933L13.8175 5.62356L13.7033 5.65886L13.5894 5.69528L13.476 5.73271L13.3629 5.77132L13.2504 5.81096L13.1384 5.85165L13.0267 5.89346L12.9156 5.93628L12.8052 5.98013L12.695 6.02511L12.5854 6.07112L12.4763 6.11817L12.3678 6.16621L12.2599 6.2153L12.1526 6.26537L12.0456 6.31655L11.9395 6.36867L11.8338 6.4218L11.7288 6.47593L11.6244 6.53106L11.5207 6.58714L11.4175 6.64425L11.3149 6.70236L11.2132 6.76129L11.1118 6.82137L11.0114 6.88226L10.9117 6.94409L10.8124 7.00693L10.7139 7.07069L10.6162 7.13538L10.5193 7.20084L10.4229 7.26745L10.3274 7.33478L10.2326 7.40303L10.1385 7.47222L10.0452 7.54224L9.95281 7.61309L9.86095 7.68494L9.77011 7.75748L9.67994 7.83096L9.59062 7.90525L9.50209 7.9804L9.41446 8.05627L9.32749 8.1331L9.24151 8.21061L9.15627 8.28902L9.07202 8.36809L8.98853 8.44802L8.90597 8.52866L8.82425 8.61011L8.74333 8.69239L8.66347 8.77524L8.5845 8.8588L8.50624 8.94334L8.42906 9.02842L8.35283 9.1141L8.27738 9.20068L8.20303 9.2878L8.1295 9.3757L8.05696 9.4642L7.98537 9.55342L7.91471 9.64324L7.84509 9.73366L7.77639 9.82474L7.70863 9.91654L7.64196 10.0088L7.57618 10.1018L7.51145 10.1952L7.44772 10.2893L7.38494 10.384L7.32323 10.4792L7.26253 10.5749L7.20285 10.6712L7.14423 10.768L7.08658 10.8654L7.02996 10.9633L6.97446 11.0616L6.91995 11.1604L6.86648 11.2598L6.8141 11.3595L6.76275 11.4598L6.7125 11.5604L6.66331 11.6615L6.61519 11.763L6.56812 11.865L6.52217 11.9673L6.47726 12.0701L6.43345 12.1733L6.39076 12.2767L6.34913 12.3806L6.3086 12.4848L6.26918 12.5893L6.23085 12.6942L6.19366 12.7993L6.15754 12.9048L6.12253 13.0106L6.08865 13.1167L6.0559 13.223L6.02423 13.3296L5.9937 13.4364L5.9643 13.5435L5.936 13.6508L5.90884 13.7584L5.8828 13.8661L5.8579 13.974L5.83412 14.0822L5.81147 14.1905L5.78996 14.2989L5.76958 14.4075L5.75033 14.5162L5.73222 14.6251L5.71524 14.7341L5.6994 14.8431L5.6847 14.9523L5.67113 15.0616L5.65871 15.1709L5.64742 15.2804L5.63727 15.3898L5.62825 15.4992L5.62037 15.6088L5.61363 15.7184L5.60803 15.8279L5.60356 15.9374L5.60023 16.0469L5.59803 16.1564L5.59697 16.2659L5.59704 16.3753L5.59824 16.4846L5.60057 16.5939L5.60403 16.7031L5.60862 16.8122L5.61434 16.9212L5.62118 17.0301L5.62914 17.1389L5.63822 17.2475L5.64843 17.3559L5.65974 17.4643L5.67218 17.5724L5.68572 17.6804L5.70037 17.7882L5.71613 17.8958L5.733 18.0032L5.75097 18.1103L5.77004 18.2172L5.7902 18.3239L5.81145 18.4302L5.83379 18.5364L5.85722 18.6423L5.88173 18.7479L5.90732 18.8532L5.93398 18.9582L5.96173 19.0629L5.99052 19.1672L6.0204 19.2712L6.05133 19.3749L6.08331 19.4782L6.11635 19.5812L6.15042 19.6837L6.18554 19.7859L6.22171 19.8876L6.2589 19.989L6.29712 20.09L6.33638 20.1905L6.37663 20.2906L6.41791 20.3903L6.4602 20.4894L6.50348 20.5881L6.54778 20.6864L6.59305 20.7842L6.63932 20.8815L6.68656 20.9783L6.73479 21.0745L6.78397 21.1703L6.83413 21.2655L6.88524 21.3602L6.93731 21.4543L6.99031 21.5478L7.04425 21.6408L7.09913 21.7333L7.15494 21.8251L7.21164 21.9164L7.2693 22.007L7.32783 22.097L7.38728 22.1865L7.44761 22.2753L7.50882 22.3634L7.57091 22.451L7.63389 22.5378L7.69771 22.6241L7.76241 22.7096L7.82793 22.7945L7.89433 22.8786L7.96152 22.9621L8.02956 23.0449L8.09844 23.127L8.16808 23.2084L8.23856 23.289L8.30981 23.369L8.38188 23.4482L8.45471 23.5266L8.52829 23.6043L8.60266 23.6812L8.67777 23.7574L8.75365 23.8328L8.83025 23.9074L8.90759 23.9813L8.98563 24.0543L9.06439 24.1266L9.14388 24.198L9.22404 24.2687L9.30485 24.3384L9.3864 24.4074L9.46864 24.4756L9.55141 24.5429L9.63498 24.6095L9.71909 24.675L9.80386 24.7398L9.88925 24.8038L9.9753 24.8669L10.0619 24.929L10.1491 24.9903L10.2368 25.0508L10.3252 25.1103L10.4141 25.169L10.5037 25.2267L10.5937 25.2836L10.6843 25.3395L10.7754 25.3946L10.867 25.4487L10.9592 25.502L11.0518 25.5542L11.1449 25.6056L11.2385 25.656L11.3326 25.7055L11.427 25.754L11.522 25.8017L11.6174 25.8483L11.7133 25.894L11.8095 25.9388L11.9062 25.9826L12.0032 26.0253L12.1007 26.0672L12.1985 26.1081L12.2967 26.148L12.3953 26.187L12.4942 26.2249L12.5934 26.2619L12.6929 26.2979L12.7928 26.3329L12.893 26.3669L12.9935 26.4L13.0943 26.432L13.1952 26.463L13.2966 26.4931L13.3981 26.5221L13.4999 26.5502L13.602 26.5772L13.7042 26.6033L13.8067 26.6283L13.9093 26.6523L14.0122 26.6753L14.1152 26.6973L14.2183 26.7183L14.3217 26.7383L14.4252 26.7572L14.5288 26.7752L14.6326 26.7921L14.7364 26.808L14.8404 26.8229L14.9445 26.8367L15.0486 26.8496L15.1528 26.8614L15.2571 26.8722L15.3615 26.8821L15.4659 26.8908L15.5703 26.8986L15.6747 26.9054L15.7792 26.9111L15.8836 26.9158L15.988 26.9195L16.0924 26.9222L16.1968 26.9238L16.3011 26.9245L16.4054 26.9241L16.5096 26.9228L16.6137 26.9204L16.7178 26.917L16.8218 26.9126L16.9256 26.9072L17.0293 26.9008L17.1329 26.8934L17.2365 26.885L17.3398 26.8756L17.4429 26.8652L17.5459 26.8538L17.6487 26.8414L17.7514 26.828L17.8538 26.8136L17.956 26.7983L18.058 26.7819L18.1598 26.7646L18.2613 26.7463L18.3626 26.727L18.4636 26.7068L18.5644 26.6856L18.6649 26.6634L18.765 26.6403L18.865 26.6162L18.9645 26.5911L19.0638 26.5651L19.1627 26.5382L19.2613 26.5103L19.3596 26.4814L19.4575 26.4516L19.555 26.421L19.6522 26.3893L19.749 26.3568L19.8453 26.3233L19.9413 26.2889L20.0369 26.2536L20.132 26.2173L20.2267 26.1803L20.321 26.1423L20.4148 26.1033L20.5081 26.0636L20.601 26.0229L20.6934 25.9814L20.7854 25.9389L20.8768 25.8956L20.9677 25.8515L21.0582 25.8065L21.1481 25.7606L21.2374 25.7139L21.3263 25.6664L21.4146 25.618L21.5023 25.5688L21.5894 25.5188L21.6762 25.4679L21.7621 25.4163L21.8477 25.3638L21.9324 25.3106L22.0167 25.2566L22.1003 25.2017L22.1834 25.146L22.2657 25.0898L22.3475 25.0326L22.4286 24.9747L22.5091 24.9161L22.589 24.8566L22.668 24.7965L22.7466 24.7356L22.8244 24.674L22.9015 24.6117L22.978 24.5487L23.0537 24.4849L23.1287 24.4205L23.2031 24.3554L23.2766 24.2896L23.3495 24.2231L23.4217 24.156L23.493 24.0882L23.5637 24.0197L23.6337 23.9506L23.7028 23.8809L23.7712 23.8105L23.8388 23.7396L23.9056 23.6681L23.9717 23.5957L24.0369 23.523L24.1015 23.4495L24.1651 23.3756L24.228 23.301L24.2901 23.226L24.3513 23.1503L24.4117 23.0741L24.4713 22.9974L24.5301 22.92L24.588 22.8423L24.6452 22.7639L24.7015 22.685L24.7568 22.6058L24.8114 22.526L24.865 22.4457L24.9179 22.3649L24.9699 22.2836L25.0209 22.202L25.0711 22.1199L25.1205 22.0372L25.1689 21.9543L25.2164 21.8709L25.2631 21.787L25.3088 21.7029L25.3537 21.6182L25.3977 21.5331L25.4407 21.4479L25.4829 21.3621L25.5241 21.2759L25.5644 21.1895L25.6038 21.1028L25.6423 21.0156L25.6798 20.9283L25.7165 20.8404L25.7522 20.7524L25.7869 20.6642L25.8207 20.5754L25.8535 20.4866L25.8855 20.3974L25.9166 20.308L25.9466 20.2183L25.9757 20.1286L26.0039 20.0382L26.031 19.948L26.0573 19.8575L26.0826 19.7668L26.107 19.6758L26.1303 19.5848L26.1528 19.4934L26.1742 19.4019L26.1948 19.3104L26.2143 19.2186L26.2329 19.1268L26.2505 19.0347L26.2672 18.9428L26.2829 18.8505L26.2976 18.7581L26.3114 18.6658L26.3242 18.5733L26.336 18.4809L26.3469 18.3881L26.3568 18.2956L26.3658 18.2028L26.3737 18.1103L26.3808 18.0174L26.3868 17.9249L26.3919 17.832L26.396 17.7392L26.3992 17.6465L26.4014 17.5541L26.4026 17.4612L26.4029 17.3686L26.4023 17.2761L26.4006 17.1836L26.398 17.0912L26.3944 16.9991L26.39 16.9066L26.3845 16.8146L26.3781 16.7225L26.3708 16.6308L26.3624 16.5389L26.3532 16.4474L26.3431 16.3558L26.3319 16.2645L26.3199 16.1733L26.3069 16.0824L26.2929 15.9915L26.278 15.9009L26.2623 15.8107L26.2456 15.7204L26.2279 15.6304L26.2093 15.5408L26.1898 15.4511L26.1695 15.362L26.1481 15.2729L26.126 15.1843L26.1028 15.0956L26.0788 15.0076L26.0539 14.9197L26.0281 14.832L26.0014 14.7448L25.9738 14.6579L25.9453 14.5711L25.916 14.4849L25.8857 14.3988L25.8547 14.3133L25.8227 14.2279L25.7899 14.1431L25.7562 14.0585L25.7216 13.9743L25.6863 13.8906L25.6501 13.8074L25.6129 13.7242L25.5752 13.6418L25.5363 13.5595L25.4968 13.478L25.4564 13.3967L25.4152 13.3158L25.3732 13.2355L25.3304 13.1556L25.2867 13.076L25.2425 12.9972L25.1972 12.9186L25.1513 12.8407L25.1044 12.7631L25.057 12.6863L25.0086 12.6097L24.9597 12.5338L24.9098 12.4583L24.8593 12.3834L24.8081 12.3092L24.7559 12.2352L24.7032 12.162L24.6497 12.0893L24.5955 12.0172L24.5406 11.9456L24.4849 11.8746L24.4286 11.8042L24.3716 11.7344L24.3139 11.6652L24.2555 11.5966L24.1964 11.5286L24.1367 11.4612L24.0765 11.3945L24.0154 11.3284L23.9536 11.2628L23.8915 11.1981L23.8284 11.1338L23.7649 11.0704L23.7007 11.0075L23.636 10.9453L23.5705 10.8836L23.5046 10.8229L23.438 10.7627L23.3708 10.7031L23.3032 10.6444L23.235 10.5863L23.166 10.5288L23.0966 10.4721L23.0267 10.4161L22.9562 10.3608L22.8852 10.3062L22.8138 10.2525L22.7417 10.1993L22.6692 10.147L22.5962 10.0954L22.5227 10.0445L22.4488 9.99436L22.3741 9.94486L22.2995 9.89638L22.224 9.84844L22.1482 9.80134L22.0719 9.75496L21.9952 9.70936L21.9181 9.6646L21.8407 9.62068L21.7626 9.5773L21.6845 9.53494L21.6057 9.49324L21.5267 9.45238L21.4473 9.41236L21.3674 9.37306L21.2872 9.33454L21.2068 9.29692L21.1259 9.26002L21.0448 9.22402L20.9633 9.18874L20.8789 9.15322L20.7995 9.12076L20.7169 9.08788L20.6344 9.05602L20.5513 9.02476L20.4681 8.99452L20.3846 8.965L20.301 8.93638L20.2169 8.90848L20.1328 8.88154L20.0483 8.85538L19.9637 8.83006L19.8789 8.80564L19.7939 8.78198L19.7085 8.75913L19.6232 8.73721L19.5378 8.71613L19.4518 8.69582L19.3661 8.67644L19.28 8.65784L19.1939 8.64014L19.1075 8.62325L19.0212 8.60724L18.9346 8.59206L18.8482 8.57776L18.7613 8.56426L18.6746 8.55165L18.5878 8.53988L18.5008 8.52896L18.4139 8.51889L18.3269 8.50968L18.2399 8.50132L18.1528 8.49381L18.0657 8.48714L17.9785 8.48132L17.8915 8.47637L17.8045 8.47226L17.7172 8.46899L17.6303 8.46657L17.5433 8.465L17.4564 8.46428L17.3693 8.4644L17.3518 8.4646L17.3793 10.7579L17.4287 10.7577L17.4922 10.758L17.5558 10.759L17.6194 10.7606L17.6831 10.7628L17.7468 10.7657L17.8105 10.7692L17.8742 10.7733L17.938 10.778L18.0017 10.7834L18.0655 10.7894L18.1292 10.796L18.1929 10.8032L18.2566 10.8111L18.3202 10.8195L18.3839 10.8287L18.4474 10.8384L18.5109 10.8488L18.5745 10.8599L18.6378 10.8715L18.7012 10.8838L18.7644 10.8967L18.8276 10.9102L18.8907 10.9244L18.9537 10.9392L19.0166 10.9546L19.0793 10.9706L19.142 10.9873L19.2045 11.0046L19.2669 11.0225L19.3292 11.0411L19.3913 11.0602L19.4532 11.08L19.5151 11.1004L19.5767 11.1215L19.6382 11.1431L19.6995 11.1654L19.7606 11.1882L19.8216 11.2118L19.8823 11.2359L19.9428 11.2606L20.0031 11.286L20.0632 11.3119L20.1231 11.3385L20.1827 11.3656L20.2421 11.3934L20.3013 11.4218L20.3602 11.4507L20.4189 11.4803L20.4773 11.5105L20.5354 11.5412L20.5933 11.5726L20.6508 11.6045L20.7081 11.637L20.7651 11.6702L20.8219 11.7039L20.8782 11.7381L20.9343 11.773L20.99 11.8085L21.0455 11.8445L21.1005 11.881L21.1553 11.9181L21.2097 11.9559L21.2638 11.9941L21.3175 12.0329L21.3708 12.0723L21.4238 12.1122L21.4764 12.1527L21.5286 12.1938L21.5804 12.2353L21.6319 12.2774L21.6829 12.3201L21.7336 12.3632L21.7838 12.4069L21.8336 12.4511L21.883 12.4959L21.9319 12.5411L21.9804 12.5869L22.0285 12.6332L22.0761 12.68L22.1233 12.7272L22.17 12.7751L22.2163 12.8233L22.2621 12.8721L22.3074 12.9213L22.3523 12.9711L22.3966 13.0212L22.4405 13.0719L22.4839 13.1231L22.5268 13.1747L22.5691 13.2267L22.611 13.2792L22.6523 13.3322L22.6932 13.3856L22.7335 13.4395L22.7732 13.4937L22.8125 13.5485L22.8512 13.6036L22.8893 13.6592L22.9269 13.7151L22.9639 13.7715L23.0004 13.8283L23.0363 13.8855L23.0717 13.943L23.1065 14.001L23.1407 14.0594L23.1743 14.118L23.2074 14.1771L23.2398 14.2366L23.2716 14.2964L23.3029 14.3566L23.3335 14.4171L23.3636 14.478L23.393 14.5392L23.4218 14.6007L23.45 14.6627L23.4776 14.7248L23.5045 14.7873L23.5308 14.8502L23.5565 14.9133L23.5815 14.9767L23.6059 15.0404L23.6297 15.1044L23.6527 15.1686L23.6752 15.2332L23.697 15.298L23.7181 15.3631L23.7386 15.4284L23.7584 15.494L23.7776 15.5598L23.7961 15.6258L23.8138 15.6921L23.831 15.7586L23.8474 15.8253L23.8631 15.8922L23.8782 15.9594L23.8926 16.0267L23.9063 16.0942L23.9193 16.1619L23.9316 16.2298L23.9432 16.2978L23.9541 16.366L23.9643 16.4344L23.9738 16.5029L23.9826 16.5715L23.9907 16.6403L23.998 16.7093L24.0047 16.7783L24.0107 16.8474L24.0159 16.9167L24.0205 16.986L24.0242 17.0555L24.0273 17.125L24.0297 17.1947L24.0313 17.2643L24.0322 17.3341L24.0324 17.4039L24.0318 17.4738L24.0306 17.5437L24.0286 17.6136L24.0259 17.6837L24.0224 17.7536L24.0182 17.8236L24.0133 17.8937L24.0077 17.9637L24.0012 18.0338L23.9942 18.1038L23.9863 18.1737L23.9777 18.2438L23.9684 18.3137L23.9583 18.3836L23.9476 18.4534L23.936 18.5232L23.9238 18.5929L23.9108 18.6626L23.8971 18.7322L23.8826 18.8016L23.8674 18.8711L23.8515 18.9404L23.8348 19.0095L23.8175 19.0786L23.7993 19.1476L23.7805 19.2164L23.7609 19.2851L23.7406 19.3536L23.7196 19.422L23.6978 19.4903L23.6753 19.5584L23.6521 19.6263L23.6281 19.694L23.6035 19.7616L23.5782 19.8289L23.552 19.896L23.5253 19.963L23.4977 20.0297L23.4695 20.0963L23.4405 20.1625L23.4109 20.2286L23.3805 20.2944L23.3495 20.3599L23.3177 20.4252L23.2852 20.4902L23.252 20.555L23.2181 20.6195L23.1836 20.6836L23.1483 20.7475L23.1124 20.8111L23.0758 20.8744L23.0385 20.9373L23.0005 21L22.9618 21.0623L22.9225 21.1244L22.8824 21.186L22.8418 21.2473L22.8004 21.3082L22.7584 21.3688L22.7157 21.429L22.6724 21.4889L22.6284 21.5483L22.5838 21.6074L22.5385 21.6661L22.4926 21.7244L22.4461 21.7822L22.3989 21.8397L22.351 21.8967L22.3026 21.9533L22.2535 22.0095L22.2039 22.0652L22.1536 22.1205L22.1027 22.1753L22.0511 22.2297L21.9991 22.2836L21.9464 22.337L21.8931 22.39L21.8392 22.4424L21.7848 22.4945L21.7297 22.5459L21.6741 22.5969L21.6179 22.6474L21.5611 22.6973L21.5039 22.7468L21.446 22.7957L21.3877 22.8441L21.3287 22.892L21.2692 22.9392L21.2092 22.986L21.1487 23.0322L21.0876 23.0778L21.0261 23.1229L20.964 23.1674L20.9014 23.2114L20.8383 23.2547L20.7748 23.2975L20.7107 23.3397L20.6461 23.3813L20.5811 23.4222L20.5157 23.4626L20.4497 23.5023L20.3833 23.5415L20.3164 23.58L20.2491 23.6179L20.1814 23.6552L20.1132 23.6918L20.0446 23.7278L19.9756 23.7632L19.9062 23.7978L19.8363 23.8319L19.7661 23.8653L19.6955 23.898L19.6244 23.93L19.5531 23.9614L19.4813 23.9921L19.4091 24.0221L19.3367 24.0515L19.2638 24.0801L19.1906 24.1081L19.1171 24.1354L19.0432 24.162L18.9691 24.1878L18.8945 24.213L18.8198 24.2375L18.7446 24.2612L18.6692 24.2842L18.5935 24.3065L18.5176 24.3281L18.4413 24.3489L18.3648 24.369L18.288 24.3884L18.211 24.4071L18.1337 24.425L18.0562 24.4422L17.9785 24.4586L17.9005 24.4743L17.8223 24.4892L17.744 24.5034L17.6654 24.5169L17.5866 24.5295L17.5077 24.5414L17.4285 24.5526L17.3492 24.563L17.2698 24.5726L17.1902 24.5814L17.1105 24.5895L17.0306 24.5969L16.9506 24.6034L16.8705 24.6092L16.7903 24.6141L16.7099 24.6183L16.6295 24.6218L16.549 24.6244L16.4684 24.6263L16.3877 24.6273L16.3069 24.6276L16.2262 24.6272L16.1454 24.6258L16.0645 24.6238L15.9836 24.6209L15.9027 24.6173L15.8217 24.6128L15.7408 24.6076L15.6599 24.6016L15.579 24.5948L15.4981 24.5871L15.4172 24.5787L15.3363 24.5696L15.2556 24.5596L15.1748 24.5488L15.0941 24.5372L15.0135 24.5249L14.933 24.5117L14.8525 24.4977L14.7722 24.483L14.6919 24.4675L14.6118 24.4511L14.5318 24.434L14.4519 24.4161L14.3722 24.3974L14.2925 24.3779L14.2131 24.3576L14.1338 24.3366L14.0546 24.3147L13.9757 24.2921L13.897 24.2687L13.8184 24.2445L13.74 24.2195L13.6619 24.1938L13.5839 24.1673L13.5062 24.14L13.4288 24.1119L13.3515 24.083L13.2746 24.0534L13.1978 24.023L13.1214 23.9918L13.0452 23.9599L12.9693 23.9273L12.8938 23.8938L12.8184 23.8596L12.7435 23.8247L12.6688 23.789L12.5945 23.7525L12.5204 23.7153L12.4468 23.6774L12.3735 23.6387L12.3005 23.5992L12.2279 23.5591L12.1557 23.5182L12.0838 23.4766L12.0124 23.4342L11.9413 23.3912L11.8706 23.3474L11.8004 23.3029L11.7306 23.2577L11.6612 23.2118L11.5922 23.1651L11.5237 23.1179L11.4556 23.0699L11.388 23.0211L11.3209 22.9718L11.2542 22.9217L11.188 22.8709L11.1223 22.8195L11.0571 22.7673L10.9924 22.7146L10.9281 22.6611L10.8644 22.6071L10.8013 22.5523L10.7386 22.4969L10.6765 22.4409L10.615 22.3842L10.554 22.3269L10.4935 22.269L10.4337 22.2104L10.3744 22.1513L10.3157 22.0914L10.2575 22.0311L10.1999 21.9701L10.143 21.9085L10.0867 21.8463L10.0309 21.7835L9.97584 21.7202L9.9213 21.6563L9.86749 21.5918L9.81423 21.5267L9.76169 21.4611L9.70975 21.3949L9.65849 21.3282L9.60789 21.2609L9.5579 21.1932L9.50863 21.1248L9.46009 21.056L9.41216 20.9867L9.36495 20.9168L9.31845 20.8465L9.27264 20.7756L9.22754 20.7043L9.18316 20.6325L9.13949 20.5602L9.09655 20.4875L9.05434 20.4142L9.01286 20.3406L8.97213 20.2664L8.93214 20.1919L8.89289 20.1169L8.85441 20.0415L8.81669 19.9656L8.77973 19.8894L8.74354 19.8128L8.70812 19.7357L8.67349 19.6583L8.63964 19.5804L8.60657 19.5022L8.5743 19.4237L8.54283 19.3448L8.51216 19.2654L8.48229 19.1858L8.45323 19.1059L8.42498 19.0256L8.39755 18.945L8.37094 18.864L8.34516 18.7828L8.32021 18.7013L8.29608 18.6195L8.27279 18.5374L8.25034 18.455L8.22874 18.3723L8.20798 18.2895L8.18806 18.2063L8.169 18.1229L8.15079 18.0393L8.13344 17.9555L8.11695 17.8714L8.10133 17.7871L8.08656 17.7026L8.07268 17.618L8.05965 17.5331L8.0475 17.4481L8.03623 17.3629L8.02584 17.2775L8.01633 17.192L8.00769 17.1064L7.99994 17.0206L7.99308 16.9347L7.98711 16.8487L7.98201 16.7625L7.97782 16.6763L7.97452 16.59L7.97211 16.5036L7.9706 16.4172L7.96998 16.3306L7.97026 16.244L7.97144 16.1574L7.97353 16.0707L7.9765 15.984L7.98038 15.8973L7.98517 15.8106L7.99086 15.7238L7.99745 15.6371L8.00494 15.5504L8.01334 15.4637L8.02265 15.377L8.03285 15.2904L8.04396 15.2039L8.05598 15.1173L8.0689 15.0309L8.08273 14.9445L8.09745 14.8583L8.11309 14.7721L8.12963 14.686L8.14707 14.6L8.1654 14.5142L8.18465 14.4285L8.20479 14.3429L8.22583 14.2575L8.24777 14.1722L8.27061 14.0871L8.29434 14.0022L8.31896 13.9175L8.34449 13.8329L8.3709 13.7486L8.3982 13.6644L8.42639 13.5805L8.45547 13.4968L8.48543 13.4133L8.51628 13.3301L8.548 13.2471L8.5806 13.1645L8.61408 13.082L8.64844 12.9999L8.68366 12.918L8.71975 12.8364L8.75672 12.7552L8.79454 12.6743L8.83322 12.5936L8.87276 12.5133L8.91316 12.4334L8.95441 12.3538L8.99651 12.2746L9.03945 12.1957L9.08324 12.1172L9.12786 12.0391L9.17332 11.9613L9.21961 11.8841L9.26673 11.8071L9.31467 11.7306L9.36344 11.6546L9.41301 11.5789L9.46342 11.5037L9.51457 11.429L9.56662 11.3547L9.6194 11.2808L9.67297 11.2074L9.72739 11.1346L9.78253 11.0622L9.83853 10.9903L9.89525 10.9189L9.95275 10.848L10.011 10.7777L10.07 10.7079L10.1298 10.6386L10.1904 10.5698L10.2516 10.5017L10.3137 10.434L10.3764 10.367L10.4399 10.3005L10.5041 10.2345L10.569 10.1693L10.6347 10.1045L10.701 10.0404L10.7681 9.9769L10.8358 9.91396L10.9043 9.85174L10.9734 9.79006L11.0432 9.7291L11.1136 9.66874L11.1848 9.60904L11.2566 9.55L11.329 9.49162L11.4021 9.4339L11.4758 9.3769L11.5502 9.32056L11.6251 9.26494L11.7008 9.20998L11.7769 9.15574L11.8537 9.10222L11.9312 9.04942L12.0091 8.99734L12.0877 8.94604L12.1669 8.8954L12.2466 8.84554L12.3269 8.79642L12.4077 8.74806L12.4891 8.70045L12.571 8.65362L12.6534 8.60755L12.7364 8.56226L12.8198 8.51775L12.9038 8.47404L12.9883 8.43111L13.0732 8.38899L13.1587 8.34767L13.2446 8.30715L13.331 8.26746L13.4179 8.22858L13.5052 8.19052L13.5929 8.1533L13.6811 8.11691L13.7697 8.08135L13.8587 8.04664L13.9481 8.01278L14.0379 7.97976L14.1281 7.94761L14.2187 7.91631L14.3097 7.88588L14.401 7.85632L14.4926 7.82763L14.5847 7.79982L14.677 7.77288L14.7697 7.74684L14.8627 7.72167L14.956 7.6974L15.0497 7.67403L15.1436 7.65155L15.2377 7.62998L15.3322 7.60931L15.4269 7.58954L15.5219 7.57069L15.6172 7.55276L15.7126 7.53573L15.8083 7.51963L15.9042 7.50445L16.0003 7.49019L16.0966 7.47687L16.1931 7.46447L16.2291 7.46019ZM16.2698 10.8617L16.242 8.54313L16.163 8.55408L16.0779 8.5667L15.9929 8.58015L15.9083 8.59438L15.8237 8.60948L15.7394 8.62535L15.6554 8.64203L15.5716 8.6595L15.4881 8.67779L15.4047 8.6969L15.3216 8.71679L15.2388 8.73746L15.1561 8.75897L15.0766 8.78044L14.992 8.80426L14.9102 8.82808L14.8288 8.85268L14.7479 8.878L14.6671 8.90416L14.5866 8.9311L14.5065 8.95876L14.4268 8.98714L14.3474 9.01636L14.2684 9.04624L14.1897 9.07696L14.1116 9.10834L14.0335 9.14056L13.956 9.17344L13.8788 9.20704L13.8022 9.24136L13.7258 9.27646L13.6498 9.31228L13.5745 9.3487L13.4993 9.38596L13.4249 9.42382L13.3506 9.46252L13.277 9.5017L13.2036 9.54184L13.1309 9.5824L13.0586 9.62374L12.9868 9.6658L12.9154 9.70846L12.8445 9.7519L12.7743 9.79582L12.7043 9.84052L12.6351 9.88582L12.5663 9.93172L12.498 9.97834L12.4301 10.0256L12.363 10.0733L12.2963 10.1219L12.2301 10.1709L12.1646 10.2206L12.0996 10.2708L12.0351 10.3218L11.9713 10.3732L11.908 10.4252L11.8452 10.478L11.7832 10.5311L11.7217 10.5849L11.6607 10.6392L11.6004 10.6941L11.5408 10.7495L11.4816 10.8055L11.4232 10.8619L11.3654 10.9189L11.3081 10.9765L11.2516 11.0345L11.1957 11.0931L11.1404 11.1522L11.0858 11.2117L11.0318 11.2718L10.9784 11.3324L10.926 11.3933L10.874 11.4548L10.8226 11.5167L10.772 11.5791L10.7222 11.6418L10.6728 11.7052L10.6243 11.7689L10.5764 11.833L10.5293 11.8976L10.4828 11.9625L10.4371 12.0278L10.3921 12.0936L10.3477 12.1598L10.3041 12.2263L10.2613 12.2931L10.2191 12.3604L10.1777 12.4281L10.137 12.4961L10.097 12.5644L10.0578 12.6331L10.0194 12.702L9.9816 12.7713L9.94451 12.8411L9.90833 12.9109L9.87282 12.9812L9.8381 13.0518L9.80411 13.1225L9.7709 13.1937L9.73842 13.265L9.70673 13.3367L9.67576 13.4085L9.64564 13.4807L9.61625 13.553L9.58759 13.6257L9.55971 13.6985L9.53269 13.7715L9.50633 13.8449L9.48088 13.9182L9.45609 13.9919L9.43216 14.0658L9.40895 14.1398L9.38659 14.214L9.36495 14.2883L9.34417 14.3628L9.32412 14.4375L9.30487 14.5122L9.28642 14.5872L9.26876 14.6622L9.25188 14.7374L9.23579 14.8127L9.22052 14.888L9.20602 14.9634L9.19231 15.039L9.17941 15.1146L9.16728 15.1904L9.15597 15.266L9.14543 15.3419L9.1357 15.4177L9.12675 15.4936L9.1186 15.5695L9.11125 15.6455L9.10468 15.7214L9.09891 15.7973L9.09393 15.8733L9.08974 15.9493L9.08634 16.0252L9.08374 16.1011L9.08191 16.1769L9.08088 16.2528L9.08063 16.3286L9.08117 16.4043L9.0825 16.48L9.08461 16.5556L9.08749 16.6311L9.09116 16.7066L9.09561 16.7819L9.10084 16.8571L9.10684 16.9323L9.11362 17.0073L9.12117 17.0822L9.12949 17.1569L9.13857 17.2316L9.14843 17.3061L9.15905 17.3804L9.17043 17.4546L9.18257 17.5285L9.19547 17.6024L9.20913 17.676L9.22353 17.7494L9.2387 17.8227L9.2546 17.8958L9.27126 17.9687L9.28864 18.0412L9.30678 18.1136L9.32565 18.1858L9.34526 18.2577L9.36556 18.3294L9.38665 18.4008L9.4084 18.472L9.43094 18.5429L9.45415 18.6136L9.47809 18.6839L9.50275 18.7539L9.52808 18.8237L9.55414 18.8932L9.58092 18.9624L9.60837 19.0312L9.63649 19.0997L9.66534 19.1679L9.69485 19.2358L9.72509 19.3033L9.75593 19.3705L9.7875 19.4373L9.81974 19.5038L9.85258 19.5699L9.88616 19.6356L9.92033 19.701L9.95518 19.766L9.99069 19.8305L10.0268 19.8947L10.0636 19.9585L10.101 20.0219L10.139 20.0848L10.1777 20.1474L10.217 20.2095L10.2568 20.2712L10.2974 20.3325L10.3384 20.3932L10.3802 20.4536L10.4224 20.5135L10.4653 20.573L10.5087 20.6319L10.5528 20.6904L10.5974 20.7485L10.6426 20.8061L10.6883 20.8631L10.7346 20.9197L10.7814 20.9758L10.8288 21.0314L10.8768 21.0864L10.9252 21.1411L10.9742 21.1951L11.0237 21.2487L11.0737 21.3017L11.1242 21.3542L11.1753 21.4061L11.2268 21.4575L11.2788 21.5084L11.3314 21.5588L11.3844 21.6086L11.4378 21.6578L11.4918 21.7065L11.5461 21.7545L11.601 21.8021L11.6563 21.849L11.712 21.8954L11.7682 21.9413L11.8248 21.9864L11.8818 22.0311L11.9393 22.0751L11.9971 22.1186L12.0554 22.1615L12.114 22.2037L12.1731 22.2453L12.2325 22.2864L12.2923 22.3268L12.3526 22.3667L12.4131 22.4058L12.474 22.4444L12.5353 22.4824L12.5968 22.5197L12.6588 22.5564L12.7211 22.5925L12.7836 22.6279L12.8465 22.6627L12.9097 22.6968L12.9733 22.7304L13.0371 22.7633L13.1011 22.7954L13.1655 22.827L13.2303 22.8579L13.2952 22.8882L13.3603 22.9178L13.4258 22.9468L13.4914 22.9751L13.5574 23.0027L13.6235 23.0297L13.69 23.0559L13.7565 23.0816L13.8233 23.1065L13.8904 23.1308L13.9576 23.1545L14.0249 23.1774L14.0926 23.1997L14.1603 23.2212L14.2282 23.2422L14.2964 23.2624L14.3646 23.282L14.4329 23.3009L14.5015 23.319L14.5701 23.3366L14.6389 23.3534L14.7078 23.3696L14.7768 23.385L14.846 23.3999L14.9152 23.414L14.9844 23.4273L15.0539 23.4401L15.1233 23.4521L15.1928 23.4635L15.2624 23.4741L15.332 23.4842L15.4017 23.4935L15.4714 23.5021L15.5412 23.51L15.6109 23.5173L15.6807 23.5238L15.7505 23.5297L15.8203 23.5349L15.8901 23.5394L15.9599 23.5432L16.0296 23.5464L16.0995 23.5488L16.1691 23.5506L16.2388 23.5517L16.3084 23.5521L16.378 23.5519L16.4475 23.5509L16.5169 23.5494L16.5862 23.5471L16.6556 23.5442L16.7247 23.5405L16.7938 23.5362L16.8627 23.5313L16.9316 23.5256L17.0004 23.5193L17.069 23.5124L17.1376 23.5047L17.2059 23.4965L17.2741 23.4875L17.3422 23.478L17.4101 23.4677L17.4779 23.4568L17.5454 23.4453L17.6128 23.433L17.68 23.4202L17.7471 23.4068L17.8139 23.3926L17.8805 23.3778L17.9469 23.3625L18.0131 23.3464L18.0791 23.3298L18.1448 23.3125L18.2103 23.2946L18.2756 23.276L18.3406 23.2569L18.4053 23.2371L18.4698 23.2167L18.5341 23.1957L18.598 23.1741L18.6617 23.1519L18.7251 23.1291L18.7882 23.1057L18.851 23.0817L18.9134 23.0571L18.9757 23.0319L19.0375 23.0062L19.0991 22.9799L19.1603 22.953L19.2212 22.9255L19.2818 22.8974L19.342 22.8688L19.4017 22.8397L19.4614 22.8099L19.5205 22.7796L19.5793 22.7487L19.6376 22.7174L19.6956 22.6855L19.7533 22.653L19.8105 22.62L19.8674 22.5865L19.9239 22.5525L19.9799 22.5179L20.0357 22.4828L20.0908 22.4473L20.1456 22.4112L20.2001 22.3745L20.2541 22.3374L20.3075 22.2999L20.3607 22.2618L20.4133 22.2233L20.4655 22.1843L20.5173 22.1447L20.5685 22.1048L20.6195 22.0643L20.6699 22.0234L20.7196 21.9821L20.7692 21.9402L20.8181 21.898L20.8665 21.8554L20.9146 21.8121L20.962 21.7687L21.009 21.7247L21.0556 21.6803L21.1015 21.6356L21.147 21.5903L21.192 21.5447L21.2365 21.4987L21.2804 21.4523L21.3238 21.4055L21.3668 21.3584L21.4091 21.3109L21.451 21.2629L21.4923 21.2147L21.533 21.1661L21.5733 21.117L21.613 21.0678L21.6521 21.018L21.6907 20.9681L21.7288 20.9177L21.7662 20.867L21.8031 20.8161L21.8395 20.7647L21.8752 20.7132L21.9104 20.6613L21.9452 20.609L21.9791 20.5566L22.0127 20.5038L22.0456 20.4507L22.0779 20.3975L22.1096 20.3439L22.1409 20.2899L22.1714 20.236L22.2014 20.1815L22.2308 20.127L22.2595 20.0722L22.2878 20.017L22.3154 19.9619L22.3424 19.9062L22.3687 19.8507L22.3947 19.7946L22.4198 19.7387L22.4444 19.6822L22.4684 19.6258L22.4918 19.5692L22.5145 19.5123L22.5367 19.4552L22.5582 19.3982L22.5792 19.3407L22.5994 19.2833L22.6191 19.2257L22.6382 19.1679L22.6567 19.1099L22.6746 19.0519L22.6918 18.9938L22.7084 18.9355L22.7243 18.8772L22.7397 18.8187L22.7544 18.7601L22.7686 18.7016L22.7821 18.6427L22.7949 18.5839L22.8072 18.525L22.8188 18.4662L22.8298 18.4072L22.8402 18.348L22.8499 18.289L22.8591 18.2298L22.8676 18.1706L22.8755 18.1115L22.8827 18.0523L22.8894 17.9929L22.8954 17.9339L22.9008 17.8745L22.9056 17.8152L22.9098 17.7561L22.9133 17.6969L22.9162 17.6377L22.9185 17.5786L22.9202 17.5193L22.9213 17.4604L22.9218 17.4012L22.9216 17.3423L22.9208 17.2833L22.9195 17.2245L22.9175 17.1657L22.9148 17.1069L22.9116 17.0484L22.9078 16.9898L22.9034 16.9313L22.8984 16.8731L22.8928 16.8147L22.8865 16.7567L22.8797 16.6985L22.8723 16.6407L22.8643 16.5829L22.8557 16.5252L22.8465 16.4677L22.8367 16.4104L22.8264 16.3532L22.8154 16.2962L22.8038 16.2392L22.7917 16.1825L22.779 16.1261L22.7658 16.0697L22.7519 16.0134L22.7375 15.9576L22.7225 15.9016L22.707 15.8461L22.6909 15.7907L22.6742 15.7356L22.657 15.6806L22.6392 15.6258L22.6209 15.5714L22.602 15.5171L22.5825 15.4629L22.5627 15.4092L22.5421 15.3557L22.5211 15.3024L22.4995 15.2493L22.4774 15.1965L22.4548 15.1441L22.4316 15.0918L22.4079 15.0399L22.3838 14.9883L22.359 14.9368L22.3338 14.8856L22.3081 14.8349L22.2818 14.7843L22.2552 14.7342L22.228 14.6844L22.2002 14.6347L22.1721 14.5856L22.1434 14.5366L22.1142 14.4881L22.0845 14.4397L22.0545 14.3919L22.0239 14.3442L21.9929 14.297L21.9614 14.2502L21.9295 14.2037L21.897 14.1574L21.8641 14.1116L21.8309 14.0663L21.7971 14.0211L21.763 13.9764L21.7283 13.9321L21.6934 13.8882L21.6579 13.8446L21.6221 13.8015L21.5858 13.7587L21.5491 13.7163L21.5121 13.6744L21.4745 13.6328L21.4367 13.5917L21.3984 13.5509L21.3598 13.5107L21.3207 13.4706L21.2814 13.4312L21.2415 13.392L21.2014 13.3535L21.161 13.3153L21.1201 13.2775L21.0788 13.2401L21.0373 13.2033L20.9954 13.1669L20.953 13.1307L20.9107 13.0953L20.8677 13.0601L20.8245 13.0255L20.781 12.9914L20.7371 12.9575L20.693 12.9243L20.6487 12.8916L20.6039 12.8592L20.5587 12.8272L20.5136 12.7959L20.4678 12.7649L20.4221 12.7346L20.376 12.7046L20.3296 12.6751L20.2829 12.6461L20.2361 12.6176L20.1888 12.5895L20.1415 12.5621L20.0938 12.5349L20.0461 12.5085L19.998 12.4824L19.9496 12.4568L19.9011 12.4317L19.8524 12.4073L19.8034 12.3831L19.7542 12.3596L19.705 12.3365L19.6556 12.314L19.6057 12.2919L19.556 12.2704L19.5059 12.2494L19.4556 12.2288L19.4053 12.2088L19.3548 12.1894L19.3042 12.1704L19.2532 12.1519L19.2024 12.134L19.1512 12.1166L19.1 12.0996L19.0488 12.0833L18.9973 12.0674L18.9459 12.0521L18.894 12.0372L18.8423 12.0229L18.7905 12.0091L18.7386 11.9958L18.6866 11.9831L18.6343 11.9708L18.5822 11.9591L18.5301 11.948L18.4777 11.9373L18.4253 11.9271L18.3731 11.9175L18.3205 11.9084L18.2681 11.8998L18.2155 11.8917L18.1631 11.8842L18.1103 11.8772L18.0579 11.8707L18.0053 11.8647L17.9527 11.8593L17.9002 11.8544L17.8475 11.8499L17.7951 11.846L17.7424 11.8427L17.6899 11.8398L17.6375 11.8374L17.5848 11.8356L17.5325 11.8343L17.4802 11.8335L17.4279 11.8332L17.3921 11.8333L17.4192 14.0985L17.4354 14.0986L17.4655 14.099L17.4956 14.0997L17.5257 14.1007L17.5559 14.1021L17.5862 14.1037L17.6164 14.1056L17.6467 14.1079L17.677 14.1105L17.7074 14.1134L17.7377 14.1165L17.7681 14.12L17.7985 14.1239L17.8289 14.128L17.8593 14.1324L17.8897 14.1372L17.9201 14.1423L17.9505 14.1477L17.9809 14.1535L18.0113 14.1595L18.0416 14.1659L18.072 14.1726L18.1023 14.1796L18.1326 14.1869L18.1629 14.1945L18.1931 14.2025L18.2233 14.2108L18.2535 14.2194L18.2836 14.2283L18.3136 14.2376L18.3436 14.2472L18.3736 14.2571L18.4035 14.2673L18.4334 14.2778L18.4631 14.2886L18.4928 14.2998L18.5225 14.3112L18.552 14.3231L18.5815 14.3352L18.6109 14.3476L18.6402 14.3604L18.6694 14.3735L18.6986 14.3868L18.7276 14.4006L18.7565 14.4146L18.7853 14.4289L18.814 14.4436L18.8426 14.4585L18.8711 14.4738L18.8994 14.4894L18.9277 14.5053L18.9558 14.5215L18.9837 14.538L19.0116 14.5549L19.0393 14.5721L19.0669 14.5895L19.0943 14.6072L19.1215 14.6253L19.1487 14.6437L19.1756 14.6624L19.2024 14.6813L19.2291 14.7006L19.2556 14.7201L19.2819 14.74L19.308 14.7602L19.334 14.7806L19.3597 14.8014L19.3853 14.8224L19.4108 14.8437L19.436 14.8653L19.461 14.8872L19.4858 14.9094L19.5105 14.9319L19.5349 14.9547L19.5591 14.9777L19.5831 15.0011L19.6069 15.0246L19.6304 15.0485L19.6538 15.0726L19.6769 15.0971L19.6998 15.1218L19.7225 15.1467L19.745 15.1719L19.7671 15.1974L19.7891 15.2232L19.8108 15.2492L19.8323 15.2754L19.8535 15.302L19.8745 15.3287L19.8952 15.3558L19.9157 15.383L19.9358 15.4106L19.9557 15.4383L19.9754 15.4663L19.9948 15.4946L20.0139 15.5231L20.0327 15.5517L20.0513 15.5807L20.0696 15.6099L20.0876 15.6393L20.1053 15.6689L20.1227 15.6987L20.1398 15.7288L20.1566 15.7591L20.1732 15.7896L20.1894 15.8203L20.2053 15.8512L20.2209 15.8823L20.2362 15.9136L20.2511 15.9452L20.2658 15.9768L20.2802 16.0088L20.2942 16.0409L20.3079 16.0731L20.3213 16.1056L20.3343 16.1382L20.3471 16.1711L20.3595 16.2041L20.3715 16.2372L20.3832 16.2706L20.3946 16.3041L20.4057 16.3377L20.4163 16.3716L20.4267 16.4055L20.4367 16.4397L20.4463 16.474L20.4557 16.5084L20.4646 16.5429L20.4732 16.5777L20.4814 16.6125L20.4893 16.6475L20.4968 16.6826L20.504 16.7178L20.5107 16.7531L20.5171 16.7886L20.5232 16.8242L20.5289 16.8599L20.5341 16.8957L20.539 16.9316L20.5436 16.9676L20.5478 17.0037L20.5516 17.0399L20.555 17.0761L20.558 17.1125L20.5607 17.1489L20.5629 17.1854L20.5648 17.222L20.5663 17.2587L20.5674 17.2954L20.5681 17.3322L20.5684 17.369L20.5683 17.4059L20.5679 17.4428L20.567 17.4798L20.5658 17.5169L20.5641 17.5539L20.5621 17.591L20.5596 17.6282L20.5568 17.6653L20.5535 17.7025L20.5499 17.7397L20.5459 17.7769L20.5414 17.8141L20.5366 17.8514L20.5313 17.8886L20.5257 17.9258L20.5197 17.963L20.5132 18.0002L20.5063 18.0374L20.499 18.0746L20.4914 18.1118L20.4833 18.1489L20.4748 18.186L20.466 18.2231L20.4566 18.2601L20.4469 18.2971L20.4369 18.334L20.4263 18.3709L20.4154 18.4077L20.4041 18.4445L20.3924 18.4812L20.3803 18.5178L20.3677 18.5544L20.3548 18.5909L20.3414 18.6272L20.3277 18.6636L20.3136 18.6998L20.299 18.7359L20.284 18.7719L20.2687 18.8079L20.253 18.8437L20.2368 18.8795L20.2202 18.915L20.2033 18.9505L20.1859 18.9859L20.1682 19.0211L20.15 19.0562L20.1315 19.0912L20.1125 19.126L20.0932 19.1607L20.0735 19.1952L20.0533 19.2296L20.0328 19.2639L20.012 19.2979L19.9906 19.3319L19.969 19.3656L19.9469 19.3991L19.9245 19.4325L19.9017 19.4657L19.8785 19.4988L19.8549 19.5316L19.8309 19.5642L19.8066 19.5967L19.7819 19.6289L19.7568 19.661L19.7313 19.6928L19.7055 19.7244L19.6793 19.7558L19.6528 19.787L19.6259 19.818L19.5986 19.8487L19.5709 19.8792L19.5429 19.9095L19.5146 19.9395L19.4859 19.9692L19.4568 19.9988L19.4274 20.0281L19.3977 20.0571L19.3676 20.0859L19.3371 20.1144L19.3064 20.1426L19.2753 20.1705L19.2438 20.1983L19.2121 20.2257L19.18 20.2528L19.1475 20.2796L19.1147 20.3062L19.0817 20.3325L19.0483 20.3584L19.0146 20.3841L18.9806 20.4095L18.9462 20.4345L18.9116 20.4593L18.8767 20.4837L18.8415 20.5079L18.8059 20.5316L18.7701 20.5551L18.7339 20.5782L18.6975 20.6011L18.6608 20.6236L18.6238 20.6457L18.5866 20.6675L18.5491 20.689L18.5113 20.7101L18.4731 20.7309L18.4348 20.7513L18.3962 20.7714L18.3574 20.7911L18.3182 20.8104L18.2789 20.8295L18.2393 20.8481L18.1994 20.8663L18.1594 20.8842L18.119 20.9016L18.0785 20.9188L18.0377 20.9355L17.9967 20.9519L17.9554 20.9678L17.9139 20.9834L17.8722 20.9986L17.8304 21.0134L17.7883 21.0278L17.746 21.0418L17.7035 21.0554L17.6609 21.0686L17.618 21.0813L17.575 21.0938L17.5317 21.1057L17.4884 21.1173L17.4448 21.1284L17.401 21.1391L17.3571 21.1494L17.313 21.1593L17.2688 21.1687L17.2245 21.1778L17.1799 21.1863L17.1353 21.1945L17.0905 21.2022L17.0455 21.2096L17.0005 21.2164L16.9553 21.2228L16.91 21.2288L16.8646 21.2344L16.8191 21.2395L16.7734 21.2441L16.7277 21.2484L16.6819 21.2521L16.6359 21.2555L16.5899 21.2583L16.5438 21.2607L16.4976 21.2627L16.4514 21.2642L16.405 21.2652L16.3587 21.2658L16.3123 21.266L16.2658 21.2657L16.2193 21.2649L16.1727 21.2637L16.1261 21.262L16.0794 21.2598L16.0327 21.2572L15.986 21.2541L15.9392 21.2506L15.8925 21.2466L15.8457 21.2421L15.799 21.2372L15.7522 21.2317L15.7055 21.2258L15.6587 21.2195L15.612 21.2127L15.5653 21.2054L15.5186 21.1976L15.472 21.1894L15.4254 21.1807L15.3788 21.1716L15.3322 21.1619L15.2857 21.1518L15.2393 21.1412L15.193 21.1302L15.1466 21.1187L15.1004 21.1067L15.0543 21.0942L15.0081 21.0813L14.9622 21.068L14.9163 21.0541L14.8705 21.0398L14.8248 21.025L14.7791 21.0098L14.7337 20.994L14.6883 20.9778L14.643 20.9612L14.598 20.9441L14.5529 20.9265L14.5081 20.9084L14.4634 20.8899L14.4188 20.871L14.3744 20.8515L14.3301 20.8317L14.2861 20.8113L14.2421 20.7905L14.1983 20.7693L14.1547 20.7476L14.1114 20.7254L14.0681 20.7028L14.0251 20.6798L13.9823 20.6562L13.9397 20.6323L13.8972 20.6079L13.855 20.583L13.813 20.5578L13.7713 20.532L13.7297 20.5059L13.6884 20.4793L13.6473 20.4522L13.6064 20.4248L13.5659 20.3969L13.5256 20.3685L13.4854 20.3398L13.4456 20.3106L13.4061 20.281L13.3668 20.251L13.3278 20.2205L13.289 20.1897L13.2506 20.1584L13.2124 20.1267L13.1745 20.0946L13.1369 20.0621L13.0997 20.0292L13.0627 19.9959L13.026 19.9622L12.9897 19.9281L12.9537 19.8936L12.9179 19.8588L12.8826 19.8235L12.8476 19.7879L12.8129 19.7518L12.7785 19.7154L12.7445 19.6786L12.7109 19.6415L12.6775 19.604L12.6446 19.566L12.612 19.5278L12.5798 19.4892L12.548 19.4502L12.5165 19.4109L12.4854 19.3712L12.4547 19.3312L12.4244 19.2908L12.3945 19.2501L12.365 19.2091L12.3359 19.1677L12.3072 19.126L12.2789 19.084L12.251 19.0416L12.2235 18.999L12.1965 18.956L12.1699 18.9128L12.1436 18.8691L12.1179 18.8253L12.0925 18.7811L12.0676 18.7366L12.0431 18.6918L12.0191 18.6468L11.9956 18.6014L11.9724 18.5558L11.9498 18.51L11.9276 18.4638L11.9058 18.4174L11.8846 18.3707L11.8638 18.3238L11.8434 18.2766L11.8235 18.2292L11.8041 18.1815L11.7852 18.1336L11.7668 18.0854L11.7489 18.0371L11.7315 17.9885L11.7145 17.9397L11.698 17.8907L11.6821 17.8414L11.6666 17.792L11.6517 17.7423L11.6372 17.6925L11.6233 17.6424L11.6099 17.5922L11.5969 17.5418L11.5845 17.4912L11.5727 17.4405L11.5613 17.3896L11.5504 17.3385L11.5401 17.2873L11.5303 17.2359L11.521 17.1844L11.5123 17.1327L11.5041 17.081L11.4964 17.029L11.4893 16.977L11.4827 16.9248L11.4767 16.8725L11.4712 16.8201L11.4662 16.7676L11.4618 16.715L11.4579 16.6623L11.4546 16.6095L11.4518 16.5566L11.4495 16.5037L11.4478 16.4507L11.4467 16.3976L11.4462 16.3445L11.4461 16.2912L11.4467 16.238L11.4478 16.1847L11.4495 16.1313L11.4517 16.0779L11.4545 16.0245L11.4578 15.9711L11.4617 15.9177L11.4662 15.8642L11.4712 15.8108L11.4768 15.7573L11.483 15.7038L11.4897 15.6504L11.497 15.597L11.5048 15.5436L11.5133 15.4902L11.5223 15.4368L11.5318 15.3835L11.5419 15.3302L11.5527 15.277L11.5639 15.2238L11.5757 15.1707L11.5881 15.1177L11.6011 15.0648L11.6146 15.0119L11.6287 14.9591L11.6434 14.9064L11.6586 14.8538L11.6743 14.8012L11.6907 14.7488L11.7076 14.6965L11.7251 14.6443L11.7431 14.5923L11.7617 14.5403L11.7809 14.4885L11.8006 14.4369L11.8209 14.3854L11.8417 14.334L11.8631 14.2828L11.885 14.2318L11.9075 14.1809L11.9306 14.1302L11.9542 14.0797L11.9784 14.0294L12.003 13.9793L12.0283 13.9293L12.054 13.8795L12.0804 13.83L12.1073 13.7807L12.1347 13.7316L12.1626 13.6827L12.1911 13.6341L12.2201 13.5857L12.2497 13.5375L12.2798 13.4896L12.3104 13.442L12.3416 13.3945L12.3732 13.3473L12.4054 13.3005L12.4381 13.2539L12.4713 13.2075L12.5051 13.1615L12.5393 13.1157L12.574 13.0703L12.6093 13.0251L12.6451 12.9803L12.6814 12.9357L12.7181 12.8915L12.7554 12.8476L12.7931 12.804L12.8313 12.7607L12.8701 12.7178L12.9093 12.6752L12.949 12.633L12.9891 12.5912L13.0298 12.5496L13.0709 12.5085L13.1125 12.4677L13.1545 12.4272L13.197 12.3872L13.24 12.3476L13.2833 12.3083L13.3272 12.2694L13.3714 12.2309L13.4162 12.1928L13.4614 12.1551L13.507 12.1178L13.553 12.081L13.5995 12.0445L13.6463 12.0085L13.6936 11.9729L13.7413 11.9378L13.7895 11.903L13.838 11.8688L13.8869 11.8349L13.9362 11.8015L13.986 11.7686L14.036 11.7361L14.0865 11.7041L14.1374 11.6726L14.1886 11.6415L14.2402 11.6109L14.2922 11.5808L14.3445 11.5511L14.3972 11.522L14.4502 11.4933L14.5036 11.4651L14.5573 11.4375L14.6113 11.4103L14.6657 11.3837L14.7204 11.3575L14.7754 11.3319L14.8308 11.3067L14.8864 11.2821L14.9423 11.2581L14.9986 11.2345L15.0552 11.2115L15.1119 11.189L15.1691 11.1671L15.2265 11.1456L15.2841 11.1248L15.342 11.1045L15.4003 11.0847L15.4587 11.0655L15.5174 11.0468L15.5763 11.0287L15.6355 11.0112L15.6949 10.9942L15.7545 10.9778L15.8144 10.962L15.8745 10.9467L15.9347 10.932L15.9952 10.9179L16.0559 10.9044L16.1168 10.8914L16.1779 10.8791L16.2391 10.8673L16.2698 10.8617ZM17.0224 15.2178L16.3239 15.3831L16.2829 11.9574L16.25 11.9647L16.2004 11.9763L16.1509 11.9883L16.1018 12.0008L16.0527 12.0138L16.0039 12.0272L15.9551 12.0412L15.9068 12.0555L15.8584 12.0704L15.8106 12.0855L15.7626 12.1013L15.715 12.1175L15.6676 12.1341L15.6204 12.1512L15.5736 12.1686L15.5269 12.1866L15.4804 12.205L15.4343 12.2238L15.3882 12.2431L15.3426 12.2627L15.2971 12.2828L15.252 12.3033L15.207 12.3243L15.1624 12.3456L15.1179 12.3674L15.074 12.3895L15.0301 12.4121L14.9866 12.435L14.9434 12.4584L14.9005 12.4821L14.8578 12.5063L14.8156 12.5308L14.7734 12.5558L14.7317 12.5811L14.6904 12.6068L14.6493 12.6328L14.6084 12.6593L14.568 12.6861L14.5279 12.7133L14.4881 12.7407L14.4487 12.7686L14.4095 12.7968L14.3707 12.8255L14.3323 12.8544L14.2942 12.8837L14.2565 12.9132L14.2192 12.9431L14.1821 12.9734L14.1453 13.0041L14.1091 13.0349L14.0732 13.0662L14.0376 13.0977L14.0024 13.1295L13.9676 13.1618L13.9331 13.1942L13.8991 13.2269L13.8653 13.26L13.8321 13.2933L13.7992 13.327L13.7667 13.3608L13.7344 13.3952L13.7027 13.4295L13.6714 13.4643L13.6404 13.4993L13.61 13.5345L13.5798 13.5701L13.5502 13.6057L13.5208 13.6418L13.4919 13.678L13.4634 13.7145L13.4353 13.7513L13.4077 13.7882L13.3804 13.8254L13.3536 13.8627L13.3272 13.9004L13.3012 13.9382L13.2757 13.9763L13.2506 14.0145L13.226 14.0529L13.2017 14.0916L13.1779 14.1303L13.1544 14.1695L13.1315 14.2085L13.109 14.2479L13.0869 14.2875L13.0653 14.3271L13.0441 14.367L13.0234 14.407L13.003 14.4473L12.9832 14.4875L12.9637 14.528L12.9448 14.5686L12.9263 14.6093L12.9082 14.6502L12.8905 14.6912L12.8734 14.7323L12.8567 14.7735L12.8404 14.8149L12.8246 14.8563L12.8092 14.8978L12.7943 14.9395L12.7798 14.9813L12.7658 15.0231L12.7523 15.065L12.7392 15.107L12.7265 15.1491L12.7144 15.1911L12.7026 15.2334L12.6913 15.2757L12.6805 15.318L12.6701 15.3603L12.6602 15.4028L12.6508 15.4452L12.6418 15.4878L12.6332 15.5303L12.6251 15.5728L12.6175 15.6155L12.6103 15.658L12.6036 15.7006L12.5973 15.7433L12.5915 15.7859L12.5862 15.8286L12.5813 15.8711L12.5768 15.9138L12.5728 15.9565L12.5692 15.999L12.5661 16.0416L12.5634 16.0842L12.5612 16.1267L12.5594 16.1692L12.5581 16.2116L12.5573 16.2541L12.5568 16.2965L12.5568 16.3388L12.5573 16.381L12.5582 16.4232L12.5595 16.4654L12.5613 16.5074L12.5634 16.5494L12.5661 16.5913L12.5692 16.6331L12.5727 16.6749L12.5766 16.7165L12.581 16.7582L12.5858 16.7995L12.591 16.841L12.5966 16.8821L12.6028 16.9233L12.6092 16.9643L12.6162 17.0052L12.6235 17.0461L12.6312 17.0867L12.6394 17.1273L12.648 17.1676L12.657 17.2079L12.6664 17.248L12.6762 17.288L12.6864 17.3277L12.6971 17.3675L12.708 17.4069L12.7194 17.4464L12.7312 17.4855L12.7434 17.5245L12.756 17.5634L12.769 17.6019L12.7824 17.6405L12.7961 17.6788L12.8103 17.7168L12.8247 17.7548L12.8396 17.7926L12.8549 17.8301L12.8705 17.8674L12.8865 17.9045L12.9029 17.9414L12.9196 17.9781L12.9367 18.0146L12.9542 18.0509L12.9719 18.0869L12.9902 18.1228L13.0086 18.1583L13.0274 18.1937L13.0466 18.2288L13.0662 18.2637L13.0861 18.2984L13.1063 18.3328L13.1268 18.3669L13.1477 18.4008L13.1689 18.4345L13.1904 18.4679L13.2123 18.501L13.2344 18.5339L13.2569 18.5666L13.2796 18.5988L13.3027 18.631L13.3261 18.6628L13.3497 18.6943L13.3738 18.7256L13.398 18.7566L13.4225 18.7872L13.4474 18.8177L13.4725 18.8478L13.4979 18.8776L13.5236 18.9072L13.5495 18.9365L13.5757 18.9654L13.6023 18.9941L13.629 19.0223L13.656 19.0505L13.6833 19.0782L13.7107 19.1056L13.7386 19.1327L13.7665 19.1595L13.7948 19.1861L13.8233 19.2122L13.852 19.2381L13.881 19.2636L13.9101 19.2888L13.9395 19.3137L13.9691 19.3383L13.9989 19.3626L14.0289 19.3865L14.0592 19.4101L14.0896 19.4333L14.1203 19.4562L14.1511 19.4789L14.1821 19.5011L14.2133 19.523L14.2447 19.5446L14.2763 19.5659L14.3081 19.5867L14.3399 19.6073L14.372 19.6275L14.4043 19.6474L14.4367 19.6668L14.4692 19.686L14.502 19.7049L14.5348 19.7233L14.5678 19.7414L14.601 19.7592L14.6343 19.7766L14.6677 19.7937L14.7012 19.8104L14.735 19.8267L14.7687 19.8427L14.8027 19.8584L14.8366 19.8737L14.8707 19.8885L14.905 19.9031L14.9394 19.9173L14.9737 19.9312L15.0083 19.9447L15.0429 19.9578L15.0776 19.9706L15.1123 19.983L15.1473 19.995L15.1821 20.0067L15.2171 20.018L15.2522 20.029L15.2873 20.0396L15.3225 20.0498L15.3577 20.0597L15.393 20.0692L15.4283 20.0784L15.4637 20.0871L15.499 20.0956L15.5344 20.1036L15.5699 20.1113L15.6054 20.1187L15.6409 20.1257L15.6764 20.1323L15.7119 20.1386L15.7475 20.1445L15.7831 20.15L15.8186 20.1552L15.8541 20.16L15.8897 20.1645L15.9252 20.1686L15.9607 20.1724L15.9963 20.1758L16.0318 20.1788L16.0672 20.1815L16.1026 20.1839L16.1381 20.1858L16.1734 20.1875L16.2086 20.1888L16.244 20.1897L16.2792 20.1903L16.3143 20.1905L16.3495 20.1904L16.3845 20.19L16.4196 20.1891L16.4546 20.188L16.4893 20.1866L16.5241 20.1847L16.559 20.1825L16.5935 20.18L16.6281 20.1772L16.6625 20.174L16.6969 20.1705L16.7312 20.1666L16.7654 20.1625L16.7995 20.158L16.8335 20.1531L16.8673 20.148L16.9012 20.1425L16.9348 20.1367L16.9683 20.1306L17.0018 20.1241L17.0351 20.1173L17.0682 20.1102L17.1011 20.1029L17.1341 20.0951L17.1669 20.0871L17.1995 20.0788L17.232 20.0702L17.2643 20.0612L17.2966 20.0519L17.3286 20.0424L17.3603 20.0325L17.3922 20.0223L17.4237 20.0119L17.4551 20.0012L17.4863 19.9902L17.5173 19.9788L17.5483 19.9672L17.579 19.9553L17.6095 19.9431L17.6399 19.9307L17.67 19.9179L17.7001 19.9049L17.7298 19.8917L17.7595 19.8781L17.7889 19.8643L17.818 19.8502L17.8471 19.8359L17.8758 19.8213L17.9045 19.8064L17.9329 19.7912L17.9611 19.7759L17.989 19.7603L18.0168 19.7444L18.0444 19.7282L18.0717 19.7118L18.0988 19.6952L18.1257 19.6784L18.1523 19.6613L18.1788 19.644L18.205 19.6265L18.231 19.6086L18.2567 19.5906L18.2822 19.5725L18.3075 19.554L18.3325 19.5353L18.3573 19.5164L18.3818 19.4973L18.4062 19.478L18.4302 19.4586L18.454 19.4389L18.4775 19.419L18.5008 19.3989L18.5239 19.3786L18.5466 19.3581L18.5692 19.3374L18.5914 19.3166L18.6134 19.2956L18.6352 19.2743L18.6567 19.253L18.6779 19.2314L18.6988 19.2096L18.7195 19.1878L18.7399 19.1657L18.76 19.1435L18.7799 19.1211L18.7995 19.0985L18.8188 19.0759L18.8379 19.053L18.8566 19.0301L18.8751 19.0069L18.8934 18.9837L18.9113 18.9603L18.929 18.9367L18.9463 18.9131L18.9634 18.8892L18.9802 18.8653L18.9967 18.8414L19.0129 18.8171L19.0289 18.7929L19.0445 18.7685L19.0599 18.744L19.075 18.7194L19.0898 18.6947L19.1043 18.6699L19.1185 18.645L19.1324 18.6201L19.1461 18.5949L19.1594 18.5699L19.1724 18.5446L19.1852 18.5193L19.1977 18.4939L19.2099 18.4683L19.2218 18.4428L19.2333 18.4172L19.2446 18.3916L19.2556 18.3658L19.2663 18.3401L19.2768 18.3141L19.2868 18.2883L19.2967 18.2622L19.3062 18.2364L19.3154 18.2103L19.3244 18.1841L19.333 18.1581L19.3414 18.1319L19.3494 18.1058L19.3573 18.0794L19.3647 18.0534L19.3719 18.0269L19.3788 18.0009L19.3854 17.9745L19.3917 17.9481L19.3977 17.9219L19.4034 17.8957L19.4088 17.8692L19.414 17.843L19.4188 17.8165L19.4234 17.7903L19.4277 17.7641L19.4317 17.7377L19.4354 17.7114L19.4388 17.6851L19.4419 17.6589L19.4448 17.6328L19.4473 17.6065L19.4496 17.5804L19.4516 17.5542L19.4533 17.5281L19.4548 17.5021L19.4559 17.4761L19.4568 17.4503L19.4574 17.4242L19.4577 17.3982L19.4578 17.3725L19.4575 17.3468L19.4571 17.3211L19.4563 17.2955L19.4552 17.2697L19.4539 17.2445L19.4523 17.2187L19.4505 17.1935L19.4484 17.1683L19.446 17.1428L19.4434 17.1177L19.4405 17.0928L19.4373 17.0675L19.4339 17.0428L19.4302 17.0179L19.4263 16.9934L19.4221 16.9686L19.4177 16.944L19.413 16.9196L19.4081 16.8953L19.4029 16.871L19.3974 16.8469L19.3918 16.8228L19.3859 16.799L19.3797 16.7753L19.3733 16.7514L19.3667 16.728L19.3598 16.7043L19.3527 16.6811L19.3454 16.6579L19.3378 16.6349L19.33 16.6119L19.3219 16.589L19.3138 16.5664L19.3053 16.5439L19.2965 16.5213L19.2876 16.4991L19.2785 16.4768L19.2692 16.455L19.2596 16.433L19.2499 16.4114L19.2399 16.3899L19.2297 16.3684L19.2193 16.3472L19.2087 16.326L19.1979 16.305L19.187 16.2843L19.1758 16.2636L19.1644 16.2432L19.1529 16.2228L19.141 16.2027L19.1292 16.1827L19.117 16.1629L19.1047 16.1432L19.0922 16.1238L19.0795 16.1045L19.0667 16.0853L19.0537 16.0663L19.0405 16.0476L19.0271 16.0289L19.0136 16.0105L18.9999 15.9923L18.986 15.9742L18.9721 15.9563L18.9579 15.9386L18.9436 15.9211L18.9291 15.9038L18.9145 15.8866L18.8997 15.8696L18.8848 15.8529L18.8697 15.8363L18.8545 15.8199L18.8392 15.8037L18.8238 15.7877L18.8081 15.7719L18.7924 15.7563L18.7765 15.7409L18.7606 15.7257L18.7445 15.7107L18.7281 15.6959L18.7119 15.6813L18.6954 15.6668L18.6789 15.6527L18.6621 15.6386L18.6454 15.6249L18.6284 15.6113L18.6115 15.5979L18.5944 15.5847L18.5772 15.5717L18.5599 15.5589L18.5425 15.5463L18.525 15.534L18.5075 15.5219L18.4899 15.5099L18.4722 15.4982L18.4544 15.4866L18.4364 15.4753L18.4185 15.4642L18.4004 15.4533L18.3824 15.4426L18.3642 15.4322L18.346 15.4219L18.3276 15.4118L18.3093 15.402L18.291 15.3923L18.2725 15.3829L18.2541 15.3737L18.2354 15.3647L18.2169 15.3559L18.1982 15.3474L18.1795 15.339L18.1608 15.3308L18.142 15.3228L18.1233 15.3152L18.1044 15.3077L18.0855 15.3003L18.0666 15.2933L18.0477 15.2864L18.0288 15.2797L18.0099 15.2732L17.9909 15.2669L17.972 15.2609L17.953 15.255L17.9339 15.2494L17.915 15.244L17.8959 15.2388L17.877 15.2338L17.8579 15.229L17.8389 15.2244L17.8199 15.22L17.8009 15.2158L17.7819 15.2118L17.7629 15.2081L17.744 15.2045L17.7251 15.2011L17.7061 15.1979L17.6873 15.195L17.6683 15.1922L17.6495 15.1896L17.6306 15.1872L17.6119 15.1851L17.5932 15.1831L17.5744 15.1814L17.5557 15.1797L17.5371 15.1784L17.5185 15.1772L17.4999 15.1761L17.4813 15.1754L17.463 15.1748L17.4445 15.1743L17.4261 15.174L17.4078 15.174L17.3895 15.1742L17.3713 15.1745L17.3532 15.1749L17.335 15.1757L17.3171 15.1765L17.299 15.1776L17.2812 15.1788L17.2634 15.1802L17.2457 15.1818L17.228 15.1835L17.2103 15.1854L17.1929 15.1875L17.1754 15.1898L17.1581 15.1923L17.1408 15.1949L17.1236 15.1977L17.1065 15.2006L17.0896 15.2037L17.0725 15.207L17.0557 15.2105L17.039 15.2141L17.0224 15.2178Z" fill="white"/>
</svg>
