<svg width="137" height="38" viewBox="0 0 137 38" fill="none" xmlns="http://www.w3.org/2000/svg">
<path d="M45.9268 24.1819V9.40332H43.4487V24.1819H45.9268Z" fill="#009347"/>
<path d="M47.4434 19.2556C47.4434 22.2749 49.5152 24.4202 52.6635 24.4202C55.8118 24.4202 57.8836 22.2749 57.8836 19.2556C57.8836 16.2363 55.8118 14.0911 52.6635 14.0911C49.5152 14.0911 47.4434 16.2363 47.4434 19.2556ZM49.9417 19.2556C49.9417 17.4877 51.0182 16.2562 52.6635 16.2562C54.3087 16.2562 55.3852 17.4877 55.3852 19.2556C55.3852 21.0036 54.3087 22.255 52.6635 22.255C51.0182 22.255 49.9417 21.0036 49.9417 19.2556Z" fill="#009347"/>
<path d="M58.717 19.057C58.717 21.9174 60.606 23.9832 63.4294 23.9832C64.8918 23.9832 66.1511 23.4072 66.7808 22.4537V24.1223C66.7808 25.7312 65.7449 26.8038 64.0184 26.8038C62.4747 26.8038 61.4185 26.0689 61.2763 24.7778H58.778C59.103 27.3402 61.1138 29.0087 63.8762 29.0087C67.1261 29.0087 69.1979 26.923 69.1979 23.6853V14.3692H67.0042L66.862 15.7001C66.2527 14.6672 64.9933 14.0514 63.5106 14.0514C60.6466 14.0514 58.717 16.1768 58.717 19.057ZM61.2357 18.9974C61.2357 17.3686 62.2919 16.1768 63.8559 16.1768C65.5621 16.1768 66.6995 17.3885 66.6995 18.9974C66.6995 20.6263 65.5621 21.8777 63.8559 21.8777C62.3122 21.8777 61.2357 20.6461 61.2357 18.9974Z" fill="#009347"/>
<path d="M70.4241 19.2556C70.4241 22.2749 72.4959 24.4202 75.6442 24.4202C78.7925 24.4202 80.8643 22.2749 80.8643 19.2556C80.8643 16.2363 78.7925 14.0911 75.6442 14.0911C72.4959 14.0911 70.4241 16.2363 70.4241 19.2556ZM72.9224 19.2556C72.9224 17.4877 73.9989 16.2562 75.6442 16.2562C77.2894 16.2562 78.3659 17.4877 78.3659 19.2556C78.3659 21.0036 77.2894 22.255 75.6442 22.255C73.9989 22.255 72.9224 21.0036 72.9224 19.2556Z" fill="#009347"/>
<path d="M83.5462 12.3629C84.3586 12.3629 85.0289 11.7273 85.0289 10.9128C85.0289 10.1183 84.3586 9.48267 83.5462 9.48267C82.7134 9.48267 82.0837 10.1183 82.0837 10.9128C82.0837 11.7273 82.7134 12.3629 83.5462 12.3629ZM82.3072 24.1818H84.7852V14.3691H82.3072V24.1818Z" fill="#009347"/>
<path d="M86.9561 28.7305H89.3733V22.831C90.003 23.8441 91.3639 24.44 92.8669 24.44C95.8324 24.44 97.5996 22.2153 97.5589 19.1563C97.498 16.0774 95.6903 14.0712 92.8466 14.0712C91.3232 14.0712 89.942 14.7267 89.3327 15.8589L89.1905 14.3691H86.9561V28.7305ZM89.4749 19.2754C89.4749 17.5076 90.5717 16.276 92.2982 16.276C94.0247 16.276 95.0606 17.5274 95.0606 19.2754C95.0606 21.0234 94.0247 22.255 92.2982 22.255C90.5717 22.255 89.4749 21.0433 89.4749 19.2754Z" fill="#009347"/>
<path d="M98.1877 21.2419C98.269 23.1886 99.8127 24.44 102.209 24.44C104.566 24.44 106.17 23.2084 106.17 21.3015C106.17 19.8912 105.277 18.9378 103.631 18.5405L101.864 18.1233C101.113 17.9247 100.605 17.6665 100.605 17.0308C100.605 16.3555 101.153 15.8788 102.047 15.8788C102.981 15.8788 103.591 16.3952 103.591 17.2493H105.845C105.764 15.3027 104.281 14.0712 102.108 14.0712C99.9549 14.0712 98.3502 15.3027 98.3502 17.1699C98.3502 18.4412 99.1018 19.4939 101.031 19.9905L102.778 20.4275C103.428 20.6063 103.834 20.9043 103.834 21.4604C103.834 22.2351 103.083 22.5927 102.169 22.5927C101.072 22.5927 100.442 22.0961 100.442 21.2419H98.1877Z" fill="#009347"/>
<path d="M111.311 24.44C112.672 24.44 113.972 23.8242 114.561 22.9105L114.723 24.1818H117.039V14.3691H114.561V19.5138C114.561 21.2817 113.87 22.2749 112.245 22.2749C110.986 22.2749 110.113 21.679 110.113 19.6529V14.3691H107.635V20.507C107.635 22.8509 108.934 24.44 111.311 24.44Z" fill="#009347"/>
<path d="M121.703 24.1818V18.5405C121.703 16.9514 122.658 16.1966 123.836 16.1966C125.014 16.1966 125.786 16.9315 125.786 18.322V24.1818H128.203V18.5603C128.203 16.9514 129.137 16.1966 130.316 16.1966C131.514 16.1966 132.286 16.9315 132.286 18.322V24.1818H134.683V17.7658C134.683 15.5013 133.403 14.0712 130.966 14.0712C129.442 14.0712 128.244 14.7863 127.756 15.9383C127.208 14.7863 126.111 14.0712 124.445 14.0712C123.267 14.0712 122.211 14.6075 121.622 15.4815L121.5 14.3691H119.225V24.1818H121.703Z" fill="#009347"/>
<path fill-rule="evenodd" clip-rule="evenodd" d="M2.26611 19.376L2.26782 19.2029L2.27133 19.0297L2.27667 18.8566L2.28381 18.6834L2.29278 18.5103L2.30357 18.3371L2.31618 18.164L2.3306 17.9909L2.34685 17.818L2.36492 17.645L2.3848 17.4722L2.4065 17.2995L2.43003 17.127L2.45537 16.9546L2.48253 16.7824L2.5115 16.6104L2.5423 16.4386L2.5749 16.267L2.60931 16.0957L2.64554 15.9246L2.68357 15.7538L2.7234 15.5833L2.76505 15.4132L2.80848 15.2433L2.85372 15.0738L2.90075 14.9047L2.94958 14.7359L3.00019 14.5676L3.05258 14.3997L3.10675 14.2322L3.16271 14.0652L3.22044 13.8986L3.27993 13.7325L3.34118 13.567L3.4042 13.4019L3.46897 13.2374L3.5355 13.0735L3.60376 12.9101L3.67377 12.7474L3.7455 12.5852L3.81897 12.4236L3.89416 12.2627L3.97106 12.1025L4.04967 11.9429L4.12999 11.784L4.21201 11.6259L4.29571 11.4684L4.3811 11.3117L4.46816 11.1558L4.55688 11.0006L4.64728 10.8462L4.73932 10.6926L4.83301 10.5398L4.92833 10.3879L5.02529 10.2369L5.12386 10.0867L5.22405 9.93745L5.32585 9.789L5.42923 9.64157L5.53421 9.49501L5.64076 9.3494L5.74887 9.20483L5.85854 9.06112L5.96976 8.91854L6.08253 8.7769L6.19681 8.63625L6.31262 8.49668L6.42993 8.35817L6.54874 8.22073L6.66903 8.08438L6.79081 7.94912L6.91404 7.81499L7.03872 7.68198L7.16486 7.55012L7.29242 7.41942L7.4214 7.28989L7.55178 7.16155L7.68356 7.0344L7.81672 6.90847L7.95126 6.78377L8.08715 6.66033L8.22439 6.53812L8.36296 6.41719L8.50285 6.29755L8.64405 6.17918L8.78654 6.06214L8.93032 5.94643L9.07536 5.83204L9.22166 5.719L9.3692 5.60731L9.51792 5.49701L9.66796 5.38808L9.81915 5.28055L9.97148 5.17444L10.125 5.06974L10.2797 4.96648L10.4355 4.86464L10.5924 4.76428L10.7505 4.66538L10.9097 4.56796L11.0699 4.47203L11.2313 4.37759L11.3936 4.28467L11.5569 4.19327L11.7214 4.1034L11.8868 4.01508L12.0532 3.9283L12.2205 3.84309L12.3888 3.75945L12.5581 3.67739L12.7283 3.59693L12.8995 3.51806L13.0714 3.44081L13.2443 3.36518L13.418 3.29118L13.5926 3.21881L13.768 3.1481L13.9442 3.07903L14.1212 3.01163L14.2989 2.9459L14.4774 2.88185L14.6567 2.81949L14.8367 2.75882L15.0174 2.69985L15.1987 2.6426L15.3807 2.58706L15.5634 2.53325L15.7467 2.48117L15.9306 2.43083L16.1152 2.38222L16.3003 2.33537L16.4859 2.29028L16.672 2.24696L16.8588 2.2054L17.046 2.16562L17.2337 2.12761L17.4219 2.09139L17.6105 2.05696L17.7996 2.02433L17.9891 1.99349L18.179 1.96447L18.3692 1.93724L18.5598 1.91185L18.7507 1.88826L18.942 1.8665L19.1336 1.84655L19.3254 1.82844L19.5174 1.81216L19.7098 1.79772L19.9023 1.78512L20.9377 1.72729L20.9968 6.60569L21.0306 6.60531L21.1736 6.60511L21.3165 6.60629L21.4595 6.60884L21.6027 6.61276L21.7457 6.61807L21.8889 6.62473L22.032 6.63279L22.1752 6.64223L22.3183 6.65304L22.4614 6.66523L22.6044 6.67881L22.7474 6.69377L22.8902 6.7101L23.033 6.72781L23.1756 6.7469L23.3181 6.76737L23.4605 6.78923L23.6027 6.81246L23.7448 6.83707L23.8867 6.86306L24.0283 6.89042L24.1697 6.91916L24.311 6.94926L24.452 6.98074L24.5926 7.01359L24.7331 7.0478L24.8733 7.0834L25.0131 7.12034L25.1526 7.15865L25.2919 7.19832L25.4307 7.23934L25.5692 7.28172L25.7073 7.32546L25.8451 7.37054L25.9824 7.41696L26.1193 7.46473L26.2558 7.51382L26.3918 7.56427L26.5274 7.61603L26.6625 7.66914L26.7971 7.72357L26.9311 7.7793L27.0647 7.83636L27.1978 7.89474L27.3303 7.95442L27.4622 8.01539L27.5936 8.07766L27.7244 8.14124L27.8546 8.2061L27.9842 8.27223L28.1131 8.33965L28.2414 8.40834L28.369 8.4783L28.496 8.54951L28.6223 8.62198L28.7479 8.69572L28.8727 8.77068L28.9969 8.84685L29.1203 8.92432L29.2429 9.00291L29.3648 9.0828L29.486 9.16389L29.6063 9.24611L29.7258 9.32963L29.8445 9.41426L29.9623 9.50011L30.0794 9.58716L30.1956 9.67534L30.3109 9.76473L30.4253 9.85515L30.5388 9.94678L30.6514 10.0396L30.7631 10.1335L30.874 10.2285L30.9838 10.3246L31.0926 10.4219L31.2006 10.5202L31.3075 10.6196L31.4135 10.7201L31.5184 10.8216L31.6223 10.9242L31.7252 11.028L31.8271 11.1326L31.9279 11.2383L32.0277 11.3451L32.1263 11.4529L32.2239 11.5616L32.3204 11.6714L32.4158 11.7821L32.5101 11.8938L32.6033 12.0065L32.6953 12.12L32.7862 12.2346L32.8759 12.35L32.9645 12.4664L33.0518 12.5837L33.138 12.702L33.223 12.821L33.3068 12.9409L33.3894 13.0617L33.4707 13.1834L33.5508 13.306L33.6296 13.4293L33.7072 13.5534L33.7835 13.6784L33.8586 13.8041L33.9323 13.9306L34.0048 14.0579L34.076 14.186L34.1458 14.3148L34.2144 14.4443L34.2816 14.5746L34.3475 14.7055L34.412 14.8372L34.4752 14.9695L34.5371 15.1025L34.5976 15.2362L34.6566 15.3705L34.7143 15.5055L34.7706 15.641L34.8256 15.7772L34.8791 15.9139L34.9312 16.0513L34.9819 16.1891L35.0312 16.3277L35.079 16.4666L35.1255 16.6062L35.1704 16.7462L35.214 16.8867L35.256 17.0277L35.2966 17.1692L35.3358 17.3112L35.3735 17.4536L35.4096 17.5964L35.4444 17.7396L35.4776 17.8833L35.5093 18.0273L35.5396 18.1716L35.5683 18.3165L35.5955 18.4615L35.6213 18.607L35.6455 18.7527L35.6682 18.8987L35.6894 19.0451L35.709 19.1917L35.7271 19.3386L35.7437 19.4856L35.7587 19.633L35.7722 19.7805L35.7842 19.9283L35.7946 20.0762L35.8035 20.2243L35.8108 20.3725L35.8166 20.521L35.8208 20.6694L35.8235 20.8181L35.8246 20.9668L35.8241 21.1156L35.8221 21.2645L35.8185 21.4135L35.8133 21.5623L35.8066 21.7113L35.7984 21.8603L35.7885 22.0093L35.7771 22.1583L35.7641 22.3071L35.7496 22.456L35.7335 22.6048L35.7158 22.7535L35.6965 22.9021L35.6758 23.0506L35.6533 23.1989L35.6294 23.3471L35.6039 23.4952L35.5768 23.643L35.5481 23.7907L35.5179 23.9382L35.4861 24.0855L35.4528 24.2324L35.4179 24.3793L35.3815 24.5257L35.3434 24.672L35.3039 24.8178L35.2628 24.9634L35.2201 25.1087L35.176 25.2536L35.1302 25.3983L35.0829 25.5424L35.0342 25.6863L34.9838 25.8297L34.9319 25.9727L34.8786 26.1153L34.8236 26.2573L34.7672 26.399L34.7093 26.5402L34.6498 26.6809L34.5889 26.821L34.5265 26.9608L34.4625 27.0998L34.3971 27.2384L34.3301 27.3764L34.2618 27.5138L34.1918 27.6507L34.1206 27.7869L34.0477 27.9226L33.9735 28.0575L33.8978 28.1919L33.8207 28.3255L33.7421 28.4585L33.6621 28.5908L33.5806 28.7223L33.4978 28.8533L33.4135 28.9833L33.3278 29.1127L33.2408 29.2413L33.1523 29.3691L33.0625 29.4961L32.9713 29.6224L32.8787 29.7478L32.7848 29.8724L32.6895 29.9962L32.5929 30.1191L32.4949 30.241L32.3957 30.3622L32.2951 30.4824L32.1932 30.6017L32.0899 30.7201L31.9855 30.8375L31.8797 30.954L31.7726 31.0696L31.6644 31.1842L31.5549 31.2978L31.444 31.4104L31.3321 31.5219L31.2187 31.6324L31.1043 31.7419L30.9887 31.8504L30.8719 31.9578L30.7539 32.0642L30.6347 32.1694L30.5143 32.2735L30.3929 32.3765L30.2702 32.4785L30.1465 32.5793L30.0216 32.6789L29.8957 32.7774L29.7686 32.8748L29.6404 32.9709L29.5112 33.0658L29.381 33.1596L29.2498 33.2522L29.1174 33.3435L28.984 33.4336L28.8497 33.5225L28.7144 33.6101L28.5781 33.6964L28.4408 33.7816L28.3026 33.8654L28.1634 33.9479L28.0233 34.0291L27.8822 34.1091L27.7404 34.1877L27.5975 34.2649L27.4539 34.3409L27.3094 34.4154L27.164 34.4887L27.0178 34.5606L26.8707 34.6311L26.7229 34.7002L26.5743 34.7679L26.4248 34.8343L26.2747 34.8992L26.1238 34.9627L25.9721 35.0248L25.8198 35.0855L25.6668 35.1448L25.513 35.2025L25.3586 35.2589L25.2035 35.3138L25.0477 35.3672L24.8914 35.4191L24.7345 35.4697L24.5768 35.5186L24.4187 35.5661L24.26 35.6122L24.1007 35.6566L23.9409 35.6996L23.7806 35.7412L23.6197 35.7811L23.4584 35.8195L23.2967 35.8565L23.1343 35.8918L22.9717 35.9257L22.8086 35.958L22.645 35.9887L22.4811 36.0179L22.3168 36.0454L22.1521 36.0715L21.9872 36.0961L21.8218 36.1189L21.6562 36.1403L21.4902 36.16L21.324 36.1782L21.1575 36.1948L20.9908 36.2098L20.8238 36.2232L20.6567 36.235L20.4893 36.2452L20.3217 36.2538L20.154 36.2608L19.9862 36.2662L19.8181 36.27L19.6501 36.2721L19.4819 36.2728L19.3136 36.2717L19.1453 36.269L18.9769 36.2648L18.8085 36.2588L18.6401 36.2513L18.4717 36.2423L18.3033 36.2315L18.1349 36.2191L17.9667 36.2051L17.7985 36.1895L17.6303 36.1723L17.4623 36.1535L17.2945 36.133L17.1267 36.1109L16.9591 36.0872L16.7917 36.0618L16.6245 36.0349L16.4575 36.0064L16.2907 35.9762L16.1242 35.9444L15.958 35.9111L15.792 35.876L15.6263 35.8394L15.4609 35.8012L15.2959 35.7614L15.1312 35.7199L14.9668 35.6769L14.8029 35.6324L14.6394 35.5862L14.4762 35.5384L14.3135 35.489L14.1513 35.438L13.9895 35.3855L13.8281 35.3314L13.6673 35.2757L13.507 35.2185L13.3473 35.1597L13.1881 35.0993L13.0295 35.0374L12.8714 34.9739L12.7139 34.9089L12.5571 34.8424L12.4009 34.7743L12.2452 34.7047L12.0903 34.6336L11.9362 34.5609L11.7827 34.4867L11.6298 34.4111L11.4777 34.334L11.3265 34.2553L11.1758 34.1752L11.026 34.0936L10.877 34.0105L10.7288 33.926L10.5815 33.84L10.4349 33.7526L10.2892 33.6636L10.1444 33.5734L10.0005 33.4816L9.85747 33.3885L9.71538 33.2938L9.57426 33.1979L9.43402 33.1005L9.29476 33.0017L9.15648 32.9016L9.01919 32.8001L8.88292 32.6972L8.74766 32.5931L8.61344 32.4874L8.48027 32.3806L8.34817 32.2724L8.21714 32.1629L8.0872 32.0521L7.95838 31.9399L7.83069 31.8265L7.70413 31.7119L7.57871 31.5959L7.45446 31.4788L7.33139 31.3603L7.2095 31.2407L7.08882 31.1199L6.96936 30.9977L6.85113 30.8745L6.73415 30.7501L6.61842 30.6244L6.50396 30.4976L6.39078 30.3697L6.2789 30.2406L6.16832 30.1104L6.05907 29.9791L5.95115 29.8467L5.84457 29.7132L5.73935 29.5786L5.6355 29.4429L5.53302 29.3062L5.43194 29.1685L5.33225 29.0297L5.23399 28.89L5.13714 28.7492L5.04174 28.6074L4.94779 28.4647L4.85528 28.321L4.76425 28.1763L4.6747 28.0308L4.58664 27.8842L4.50008 27.7369L4.41503 27.5886L4.33149 27.4395L4.2495 27.2894L4.16903 27.1385L4.09012 26.9868L4.01276 26.8343L3.93698 26.681L3.86277 26.5269L3.79014 26.372L3.71911 26.2163L3.64968 26.06L3.58187 25.9028L3.51568 25.745L3.45111 25.5865L3.38818 25.4272L3.3269 25.2673L3.26726 25.1068L3.20928 24.9456L3.15297 24.7839L3.09833 24.6214L3.04538 24.4585L2.9941 24.2949L2.94453 24.1308L2.89666 23.9661L2.85049 23.8009L2.80603 23.6352L2.7633 23.4691L2.72229 23.3024L2.68302 23.1353L2.64547 22.9677L2.60967 22.7997L2.57562 22.6313L2.54331 22.4625L2.51277 22.2933L2.48399 22.1238L2.45696 21.9539L2.43172 21.7837L2.40824 21.6131L2.38655 21.4423L2.36664 21.2712L2.34851 21.0999L2.33217 20.9283L2.31763 20.7565L2.30487 20.5844L2.29392 20.4122L2.28477 20.2399L2.27743 20.0673L2.27188 19.8947L2.26814 19.7218L2.26623 19.5489L2.26611 19.376ZM19.3792 6.70788L19.339 3.3827L19.3007 3.38631L19.1252 3.40459L18.95 3.42452L18.775 3.44615L18.6007 3.46938L18.4265 3.4943L18.2526 3.52089L18.0791 3.54912L17.9058 3.57903L17.7335 3.61049L17.5608 3.64371L17.3894 3.67843L17.2177 3.7149L17.0469 3.75292L16.8763 3.79263L16.7065 3.83386L16.5371 3.87675L16.3682 3.92123L16.1998 3.96733L16.0321 4.01496L15.8648 4.06424L15.6983 4.11505L15.5323 4.16747L15.3672 4.22135L15.2023 4.27692L15.0383 4.33398L14.8751 4.39255L14.7123 4.45272L14.5504 4.51436L14.3895 4.57749L14.2289 4.64223L14.0691 4.70845L13.9102 4.77617L13.7521 4.84532L13.5948 4.91598L13.4384 4.98806L13.2826 5.06173L13.1278 5.13674L12.9739 5.21322L12.8209 5.29113L12.6687 5.37049L12.5176 5.45121L12.3671 5.53342L12.2176 5.61705L12.0694 5.70188L11.9217 5.78836L11.7753 5.876L11.63 5.96499L11.4853 6.05545L11.3418 6.14723L11.1994 6.24035L11.0582 6.33456L10.9177 6.43044L10.7785 6.52735L10.6404 6.6256L10.5032 6.72519L10.3673 6.82597L10.2326 6.92796L10.0987 7.03138L9.96636 7.13578L9.83495 7.24156L9.70478 7.34849L9.57576 7.45666L9.44806 7.56587L9.32132 7.67645L9.19602 7.78803L9.07179 7.90089L8.949 8.0147L8.82734 8.12974L8.70702 8.24582L8.58793 8.36305L8.47 8.48149L8.35361 8.60074L8.23854 8.72102L8.12448 8.84271L8.01201 8.96517L7.90091 9.0885L7.79095 9.21312L7.6826 9.33852L7.57544 9.46505L7.46972 9.59243L7.36539 9.72085L7.26242 9.85014L7.16096 9.98029L7.06084 10.1114L6.96209 10.2435L6.86493 10.3763L6.76906 10.5101L6.67473 10.6447L6.58185 10.7801L6.49037 10.9164L6.40043 11.0534L6.31197 11.1912L6.22499 11.3298L6.13957 11.4691L6.05555 11.6093L5.97304 11.7502L5.89216 11.8917L5.81272 12.0339L5.7348 12.1769L5.65847 12.3206L5.58363 12.4649L5.5104 12.6097L5.4387 12.7552L5.36858 12.9014L5.29999 13.0482L5.23302 13.1954L5.16758 13.3434L5.10373 13.4918L5.04151 13.6407L4.98085 13.7902L4.92178 13.9402L4.86433 14.0907L4.80847 14.2416L4.75427 14.393L4.70163 14.5449L4.65062 14.6971L4.60124 14.8498L4.5535 15.0028L4.50735 15.1563L4.46287 15.31L4.42001 15.4642L4.37878 15.6186L4.33919 15.7735L4.30125 15.9285L4.26495 16.0839L4.2303 16.2395L4.1973 16.3954L4.16594 16.5514L4.13624 16.7078L4.10819 16.8643L4.08179 17.021L4.05706 17.1778L4.03397 17.3348L4.01255 17.492L3.99277 17.6493L3.97466 17.8067L3.95821 17.9642L3.94342 18.1217L3.93028 18.2792L3.9188 18.4369L3.90898 18.5946L3.90081 18.7522L3.8943 18.9099L3.88944 19.0676L3.88624 19.2252L3.88469 19.3827L3.8848 19.5402L3.88654 19.6976L3.88994 19.8549L3.89499 20.0121L3.90167 20.1691L3.91001 20.326L3.91997 20.4827L3.93157 20.6393L3.94481 20.7956L3.95968 20.9518L3.97617 21.1077L3.99429 21.2634L4.01403 21.4188L4.03538 21.5739L4.05835 21.7288L4.08294 21.8834L4.10912 22.0375L4.13691 22.1914L4.16629 22.345L4.19726 22.4981L4.22982 22.651L4.26396 22.8033L4.29968 22.9553L4.33698 23.1069L4.37584 23.258L4.41626 23.4087L4.45823 23.5588L4.50177 23.7086L4.54684 23.8578L4.59345 24.0065L4.6416 24.1547L4.69126 24.3023L4.74244 24.4494L4.79515 24.5959L4.84935 24.7418L4.90504 24.8871L4.96226 25.0318L5.02093 25.1759L5.08107 25.3193L5.14271 25.4621L5.20579 25.6042L5.27034 25.7456L5.33632 25.8864L5.40375 26.0264L5.4726 26.1657L5.54287 26.3042L5.61456 26.4421L5.68765 26.5791L5.76213 26.7154L5.83801 26.8509L5.91526 26.9855L5.99387 27.1194L6.07385 27.2525L6.15518 27.3846L6.23782 27.516L6.32184 27.6465L6.40714 27.776L6.49377 27.9048L6.5817 28.0326L6.67091 28.1595L6.76139 28.2855L6.85317 28.4106L6.94618 28.5347L7.04047 28.6578L7.13596 28.7799L7.23272 28.9011L7.33064 29.0212L7.42979 29.1404L7.53017 29.2586L7.63167 29.3757L7.73437 29.4918L7.83822 29.6069L7.94325 29.7209L8.04938 29.8337L8.15662 29.9456L8.26499 30.0563L8.37446 30.166L8.48504 30.2745L8.59667 30.3819L8.70939 30.4882L8.82311 30.5933L8.93789 30.6974L9.05373 30.8002L9.17056 30.9019L9.28832 31.0023L9.40717 31.1016L9.52701 31.1997L9.64765 31.2966L9.76943 31.3924L9.892 31.4868L10.0156 31.5801L10.14 31.6722L10.2654 31.7629L10.3916 31.8524L10.5187 31.9407L10.6465 32.0276L10.7754 32.1134L10.9049 32.1978L11.0355 32.2809L11.1666 32.3628L11.2986 32.4433L11.4315 32.5226L11.5649 32.6005L11.6992 32.6771L11.8342 32.7523L11.9699 32.8262L12.1062 32.8988L12.2434 32.97L12.3811 33.0399L12.5195 33.1085L12.6585 33.1756L12.7983 33.2414L12.9385 33.3058L13.0793 33.3689L13.2207 33.4304L13.3628 33.4907L13.5054 33.5495L13.6485 33.607L13.7921 33.6631L13.9362 33.7177L14.0809 33.771L14.2259 33.8228L14.3714 33.8731L14.5175 33.9221L14.6639 33.9697L14.8108 34.0158L14.9579 34.0605L15.1057 34.1037L15.2536 34.1455L15.4019 34.1859L15.5507 34.2248L15.6996 34.2623L15.849 34.2983L15.9985 34.3328L16.1484 34.366L16.2986 34.3976L16.4489 34.4278L16.5995 34.4566L16.7504 34.4839L16.9014 34.5097L17.0526 34.5341L17.2039 34.557L17.3555 34.5784L17.5072 34.5983L17.6589 34.6169L17.8108 34.6339L17.9628 34.6495L18.1149 34.6636L18.267 34.6762L18.4192 34.6875L18.5714 34.6971L18.7236 34.7054L18.8758 34.7122L19.0279 34.7175L19.1801 34.7214L19.3323 34.7237L19.4842 34.7247L19.6362 34.7242L19.7881 34.7222L19.9398 34.7188L20.0915 34.7139L20.243 34.7076L20.3944 34.6998L20.5455 34.6906L20.6965 34.6799L20.8473 34.6679L20.9979 34.6543L21.1482 34.6393L21.2983 34.6229L21.4481 34.6051L21.5977 34.5858L21.747 34.5651L21.8959 34.543L22.0446 34.5195L22.1929 34.4945L22.341 34.4682L22.4885 34.4405L22.6357 34.4114L22.7826 34.3808L22.929 34.3489L23.075 34.3156L23.2206 34.2809L23.3657 34.2448L23.5104 34.2074L23.6545 34.1686L23.7983 34.1284L23.9414 34.0869L24.0841 34.044L24.2262 33.9999L24.3679 33.9543L24.5089 33.9075L24.6492 33.8593L24.7892 33.8097L24.9285 33.759L25.0671 33.7068L25.2052 33.6534L25.3425 33.5988L25.4792 33.5427L25.6153 33.4854L25.7507 33.4269L25.8853 33.3671L26.0193 33.3061L26.1526 33.2437L26.285 33.1802L26.4169 33.1154L26.5479 33.0494L26.6781 32.9822L26.8077 32.9137L26.9362 32.8441L27.0641 32.7733L27.1911 32.7014L27.3175 32.6281L27.4427 32.5538L27.5674 32.4783L27.691 32.4017L27.8137 32.3239L27.9357 32.2449L28.0567 32.1648L28.1767 32.0838L28.2958 32.0015L28.4141 31.9181L28.5313 31.8337L28.6477 31.7482L28.763 31.6617L28.8775 31.574L28.9908 31.4854L29.1032 31.3957L29.2147 31.3049L29.3251 31.2131L29.4343 31.1205L29.5427 31.0267L29.6499 30.932L29.7561 30.8363L29.8613 30.7397L29.9653 30.6422L30.0683 30.5436L30.1702 30.4441L30.271 30.3437L30.3707 30.2424L30.4692 30.1403L30.5665 30.0374L30.6629 29.9332L30.7579 29.8286L30.852 29.7228L30.9447 29.6164L31.0364 29.5091L31.1268 29.4011L31.216 29.2921L31.3041 29.1824L31.391 29.072L31.4767 28.9607L31.561 28.8488L31.6443 28.736L31.7265 28.6224L31.807 28.5084L31.8866 28.3934L31.9647 28.278L32.0417 28.1616L32.1176 28.0446L32.1919 27.9272L32.2651 27.809L32.337 27.6899L32.4075 27.5707L32.4768 27.4505L32.5449 27.3298L32.6115 27.2087L32.6769 27.0868L32.7411 26.9643L32.8037 26.8418L32.8651 26.7182L32.9253 26.5941L32.984 26.4698L33.0414 26.3449L33.0975 26.2195L33.1522 26.0938L33.2056 25.9673L33.2576 25.8405L33.3082 25.7137L33.3575 25.5859L33.4053 25.458L33.452 25.3296L33.4972 25.2009L33.541 25.0718L33.5833 24.9427L33.6244 24.8126L33.664 24.6827L33.7023 24.5524L33.7392 24.4219L33.7747 24.2909L33.8087 24.1599L33.8414 24.0285L33.8727 23.8968L33.9026 23.765L33.9312 23.6328L33.9582 23.5008L33.9839 23.3681L34.0082 23.2358L34.031 23.103L34.0525 22.9701L34.0725 22.8372L34.0913 22.704L34.1085 22.571L34.1244 22.4374L34.1388 22.3043L34.1518 22.1708L34.1634 22.0375L34.1737 21.9038L34.1825 21.7707L34.1899 21.6371L34.1959 21.5034L34.2005 21.37L34.2038 21.2369L34.2055 21.1033L34.206 20.97L34.205 20.8368L34.2026 20.7037L34.1988 20.5706L34.1936 20.4381L34.1871 20.305L34.1791 20.1725L34.1698 20.04L34.1591 19.908L34.147 19.7757L34.1336 19.6439L34.1187 19.5122L34.1025 19.3808L34.0849 19.2495L34.066 19.1187L34.0456 18.9878L34.024 18.8574L34.001 18.7275L33.9766 18.5976L33.9508 18.468L33.9238 18.339L33.8954 18.2099L33.8658 18.0817L33.8346 17.9534L33.8024 17.8259L33.7686 17.6983L33.7336 17.5716L33.6973 17.445L33.6597 17.3188L33.6208 17.1933L33.5806 17.0682L33.539 16.9433L33.4964 16.8193L33.4522 16.6953L33.407 16.5722L33.3604 16.4493L33.3126 16.3272L33.2634 16.2054L33.2131 16.0842L33.1616 15.9638L33.1089 15.8439L33.0547 15.7242L32.9996 15.6057L32.943 15.4872L32.8855 15.3698L32.8266 15.2529L32.7665 15.1364L32.7054 15.0208L32.643 14.9058L32.5793 14.7913L32.5148 14.6779L32.4488 14.5647L32.3819 14.4525L32.3136 14.3409L32.2446 14.2303L32.174 14.12L32.1027 14.0108L32.03 13.9021L31.9563 13.7943L31.8817 13.6875L31.8058 13.581L31.7288 13.4756L31.6509 13.3709L31.5719 13.2672L31.4919 13.1641L31.4108 13.062L31.3288 12.9606L31.2457 12.8602L31.1616 12.7606L31.0765 12.6618L30.9904 12.5639L30.9034 12.467L30.8155 12.3709L30.7266 12.2757L30.6365 12.1814L30.546 12.0883L30.454 11.9957L30.3615 11.9044L30.268 11.8138L30.1737 11.7243L30.0781 11.6355L29.9822 11.5481L29.8851 11.4614L29.7871 11.3758L29.6887 11.2912L29.5892 11.2076L29.4886 11.1248L29.3875 11.0432L29.2857 10.9626L29.183 10.883L29.0795 10.8045L28.9755 10.7272L28.8703 10.6505L28.7647 10.5752L28.6583 10.501L28.5511 10.4277L28.4435 10.3555L28.3347 10.2843L28.2259 10.2145L28.1158 10.1455L28.0054 10.0777L27.8942 10.011L27.7825 9.94531L27.6701 9.88089L27.5573 9.81767L27.4435 9.75523L27.3297 9.69425L27.2149 9.63423L27.0996 9.57542L26.9839 9.51781L26.8675 9.46125L26.7507 9.4058L26.6334 9.35165L26.5155 9.29854L26.3974 9.24672L26.2786 9.19594L26.1556 9.14481L26.0399 9.09809L25.9195 9.05076L25.7993 9.0049L25.6782 8.9599L25.557 8.91638L25.4353 8.87389L25.3133 8.83269L25.1909 8.79253L25.0683 8.75375L24.9452 8.7161L24.8218 8.67965L24.6983 8.6445L24.5744 8.61044L24.4499 8.57756L24.3257 8.54601L24.2011 8.51566L24.0758 8.48642L23.951 8.45854L23.8255 8.43176L23.7 8.40629L23.574 8.38197L23.4483 8.35893L23.3222 8.33708L23.1962 8.31649L23.0695 8.29706L22.9432 8.27892L22.8167 8.26197L22.69 8.24625L22.5632 8.23175L22.4365 8.21851L22.3097 8.20647L22.1828 8.19566L22.0558 8.18606L21.9287 8.17768L21.802 8.17055L21.6752 8.16463L21.5479 8.15993L21.4214 8.15645L21.2945 8.15419L21.1678 8.15316L21.0409 8.15333L21.0155 8.15361L21.0555 11.4546L21.1275 11.4543L21.2201 11.4548L21.3127 11.4562L21.4055 11.4585L21.4983 11.4617L21.5911 11.4658L21.6839 11.4708L21.7768 11.4767L21.8697 11.4835L21.9626 11.4912L22.0555 11.4999L22.1483 11.5094L22.2412 11.5198L22.3341 11.5311L22.4268 11.5433L22.5195 11.5565L22.6122 11.5705L22.7047 11.5854L22.7973 11.6013L22.8896 11.6181L22.9819 11.6358L23.0741 11.6544L23.1662 11.6738L23.2582 11.6942L23.3499 11.7155L23.4416 11.7377L23.533 11.7608L23.6243 11.7848L23.7154 11.8096L23.8064 11.8355L23.8972 11.8622L23.9877 11.8897L24.078 11.9182L24.168 11.9476L24.2579 11.9779L24.3475 12.0091L24.4369 12.0411L24.5259 12.074L24.6147 12.1079L24.7032 12.1426L24.7914 12.1782L24.8793 12.2147L24.9669 12.252L25.0541 12.2903L25.141 12.3293L25.2276 12.3693L25.3139 12.4101L25.3997 12.4518L25.4852 12.4944L25.5703 12.5379L25.655 12.5821L25.7394 12.6272L25.8233 12.6732L25.9067 12.72L25.9898 12.7677L26.0725 12.8162L26.1546 12.8655L26.2363 12.9157L26.3175 12.9667L26.3983 13.0186L26.4786 13.0712L26.5585 13.1246L26.6378 13.1789L26.7165 13.234L26.7948 13.2898L26.8725 13.3466L26.9498 13.404L27.0263 13.4623L27.1025 13.5214L27.178 13.5811L27.2529 13.6418L27.3273 13.7032L27.4011 13.7653L27.4743 13.8281L27.5469 13.8918L27.6189 13.9562L27.6902 14.0213L27.7609 14.0872L27.8309 14.1538L27.9003 14.2212L27.9691 14.2892L28.0372 14.3581L28.1047 14.4275L28.1714 14.4977L28.2374 14.5686L28.3028 14.6402L28.3674 14.7124L28.4314 14.7854L28.4946 14.859L28.5571 14.9332L28.6189 15.0082L28.6799 15.0838L28.7401 15.16L28.7996 15.2369L28.8584 15.3145L28.9163 15.3925L28.9735 15.4713L29.0299 15.5507L29.0855 15.6306L29.1402 15.7112L29.1942 15.7923L29.2474 15.8741L29.2997 15.9564L29.3513 16.0392L29.402 16.1226L29.4518 16.2067L29.5008 16.2911L29.5489 16.3762L29.5962 16.4618L29.6426 16.5479L29.6882 16.6345L29.7328 16.7217L29.7766 16.8093L29.8195 16.8974L29.8615 16.9859L29.9026 17.0751L29.9427 17.1645L29.982 17.2545L30.0204 17.3449L30.0578 17.4358L30.0943 17.5271L30.1298 17.6187L30.1644 17.7109L30.198 17.8034L30.2308 17.8963L30.2626 17.9896L30.2933 18.0833L30.3232 18.1772L30.3521 18.2716L30.38 18.3664L30.4069 18.4615L30.4328 18.5569L30.4578 18.6526L30.4817 18.7486L30.5047 18.8449L30.5266 18.9416L30.5476 19.0385L30.5675 19.1356L30.5864 19.233L30.6044 19.3308L30.6213 19.4287L30.6372 19.5268L30.6521 19.6253L30.6659 19.7238L30.6787 19.8226L30.6906 19.9217L30.7012 20.0209L30.711 20.1202L30.7197 20.2198L30.7273 20.3195L30.7339 20.4193L30.7394 20.5192L30.7439 20.6193L30.7473 20.7196L30.7497 20.8199L30.751 20.9203L30.7513 21.0208L30.7505 21.1214L30.7487 21.222L30.7458 21.3227L30.7418 21.4235L30.7367 21.5242L30.7306 21.625L30.7235 21.7258L30.7153 21.8266L30.7059 21.9274L30.6956 22.0282L30.6841 22.1289L30.6717 22.2297L30.6581 22.3303L30.6434 22.4309L30.6277 22.5314L30.6109 22.6319L30.5931 22.7322L30.5741 22.8325L30.5541 22.9327L30.533 23.0327L30.5108 23.1326L30.4877 23.2324L30.4634 23.3319L30.4381 23.4313L30.4117 23.5307L30.3842 23.6297L30.3557 23.7286L30.3261 23.8272L30.2955 23.9257L30.2637 24.024L30.2309 24.122L30.1971 24.2197L30.1622 24.3172L30.1263 24.4144L30.0893 24.5113L30.0513 24.608L30.0122 24.7043L29.9721 24.8004L29.931 24.8962L29.8888 24.9915L29.8456 25.0866L29.8013 25.1813L29.756 25.2756L29.7098 25.3696L29.6624 25.4632L29.614 25.5564L29.5647 25.6492L29.5143 25.7416L29.4629 25.8335L29.4106 25.9251L29.3572 26.0162L29.3028 26.1068L29.2475 26.1971L29.1911 26.2867L29.1338 26.376L29.0754 26.4647L29.0162 26.553L28.9558 26.6406L28.8946 26.7278L28.8325 26.8146L28.7693 26.9007L28.7052 26.9862L28.6402 27.0713L28.5743 27.1558L28.5073 27.2396L28.4395 27.3229L28.3707 27.4056L28.301 27.4877L28.2305 27.5692L28.1589 27.65L28.0865 27.7303L28.0132 27.8098L27.939 27.8887L27.864 27.967L27.7881 28.0446L27.7113 28.1215L27.6336 28.1978L27.555 28.2732L27.4757 28.3481L27.3955 28.4222L27.3145 28.4955L27.2326 28.5682L27.1499 28.6401L27.0664 28.7113L26.9821 28.7817L26.897 28.8513L26.8111 28.9203L26.7245 28.9883L26.637 29.0556L26.5487 29.1221L26.4598 29.1878L26.3701 29.2527L26.2796 29.3168L26.1884 29.3801L26.0965 29.4424L26.0039 29.504L25.9104 29.5647L25.8164 29.6246L25.7216 29.6835L25.6262 29.7417L25.5301 29.7988L25.4334 29.8552L25.3359 29.9107L25.2378 29.9652L25.1391 30.0188L25.0398 30.0716L24.9398 30.1234L24.8392 30.1743L24.738 30.2242L24.6363 30.2732L24.5339 30.3213L24.4309 30.3683L24.3274 30.4144L24.2234 30.4596L24.1188 30.5038L24.0137 30.547L23.908 30.5892L23.8019 30.6305L23.6952 30.6708L23.5881 30.7101L23.4804 30.7483L23.3723 30.7856L23.2637 30.8217L23.1547 30.857L23.0452 30.8911L22.9354 30.9242L22.8251 30.9564L22.7143 30.9874L22.6032 31.0174L22.4917 31.0464L22.3798 31.0743L22.2676 31.1011L22.155 31.1269L22.0419 31.1516L21.9287 31.1753L21.8151 31.1978L21.7011 31.2194L21.5869 31.2398L21.4724 31.2592L21.3576 31.2774L21.2426 31.2945L21.1273 31.3106L21.0117 31.3255L20.8959 31.3394L20.78 31.3521L20.6637 31.3638L20.5473 31.3743L20.4308 31.3837L20.314 31.392L20.1971 31.3992L20.08 31.4052L19.9628 31.4101L19.8454 31.4139L19.728 31.4166L19.6104 31.4182L19.4927 31.4186L19.375 31.4179L19.2573 31.416L19.1394 31.4131L19.0215 31.4089L18.9036 31.4037L18.7856 31.3973L18.6677 31.3897L18.5497 31.3811L18.4318 31.3713L18.3139 31.3603L18.196 31.3482L18.0782 31.335L17.9605 31.3207L17.8428 31.3051L17.7253 31.2884L17.6078 31.2707L17.4904 31.2517L17.3732 31.2316L17.2561 31.2105L17.1391 31.1881L17.0224 31.1645L16.9057 31.1399L16.7893 31.1142L16.6731 31.0872L16.5571 31.0591L16.4413 31.03L16.3257 30.9996L16.2104 30.9682L16.0954 30.9357L15.9806 30.902L15.866 30.8672L15.7518 30.8312L15.638 30.7941L15.5243 30.7559L15.4111 30.7166L15.2983 30.6762L15.1857 30.6347L15.0735 30.592L14.9617 30.5483L14.8503 30.5034L14.7393 30.4575L14.6287 30.4105L14.5186 30.3623L14.4088 30.3131L14.2996 30.2628L14.1908 30.2114L14.0824 30.1589L13.9745 30.1053L13.8672 30.0508L13.7603 29.9951L13.654 29.9383L13.5482 29.8805L13.4429 29.8216L13.3382 29.7618L13.2341 29.7008L13.1305 29.6388L13.0275 29.5759L12.9252 29.5118L12.8234 29.4467L12.7223 29.3806L12.6218 29.3135L12.5219 29.2454L12.4228 29.1763L12.3242 29.1062L12.2263 29.0351L12.1291 28.963L12.0327 28.89L11.9369 28.8159L11.8419 28.7409L11.7476 28.665L11.654 28.588L11.5612 28.5102L11.4692 28.4314L11.3778 28.3517L11.2873 28.271L11.1977 28.1895L11.1088 28.107L11.0206 28.0236L10.9334 27.9393L10.847 27.8541L10.7614 27.768L10.6767 27.6811L10.5928 27.5933L10.5098 27.5047L10.4277 27.4151L10.3465 27.3248L10.2662 27.2336L10.1867 27.1416L10.1083 27.0488L10.0307 26.9551L9.95409 26.8607L9.8784 26.7654L9.80369 26.6694L9.72995 26.5726L9.65709 26.4751L9.5853 26.3767L9.51456 26.2776L9.44471 26.1778L9.37591 26.0773L9.30814 25.976L9.24139 25.8741L9.17566 25.7714L9.11098 25.668L9.04734 25.5639L8.98476 25.4592L8.92324 25.3538L8.86279 25.2478L8.80343 25.1411L8.74515 25.0338L8.68796 24.9259L8.63188 24.8173L8.5769 24.7081L8.52304 24.5984L8.4703 24.4881L8.41869 24.3771L8.36821 24.2657L8.31888 24.1537L8.2707 24.0411L8.22366 23.928L8.1778 23.8144L8.1331 23.7003L8.08957 23.5857L8.04722 23.4706L8.00606 23.355L7.96609 23.239L7.92731 23.1225L7.88973 23.0056L7.85336 22.8883L7.81821 22.7705L7.78427 22.6523L7.75155 22.5338L7.72007 22.4148L7.68981 22.2955L7.66078 22.1758L7.63301 22.0557L7.60647 21.9354L7.58119 21.8147L7.55716 21.6937L7.53438 21.5724L7.51287 21.4508L7.49263 21.3289L7.47365 21.2068L7.45594 21.0844L7.43952 20.9618L7.42437 20.8389L7.41051 20.7158L7.39792 20.5926L7.38663 20.4691L7.37663 20.3454L7.36792 20.2216L7.36051 20.0976L7.35439 19.9735L7.34958 19.8493L7.34608 19.725L7.34387 19.6005L7.34297 19.4759L7.34338 19.3513L7.3451 19.2266L7.34813 19.1018L7.35247 18.977L7.35813 18.8522L7.36511 18.7274L7.37339 18.6025L7.383 18.4777L7.39391 18.3528L7.40615 18.2281L7.41972 18.1033L7.43459 17.9787L7.45079 17.8541L7.4683 17.7295L7.48713 17.6051L7.50728 17.4808L7.52874 17.3566L7.55152 17.2326L7.57562 17.1087L7.60104 16.9849L7.62776 16.8614L7.65581 16.738L7.68517 16.6148L7.71583 16.4918L7.7478 16.3691L7.78108 16.2467L7.81566 16.1244L7.85155 16.0024L7.88875 15.8807L7.92724 15.7593L7.96703 15.6381L8.00811 15.5174L8.05048 15.3969L8.09415 15.2768L8.13911 15.157L8.18534 15.0376L8.23285 14.9186L8.28164 14.7999L8.3317 14.6817L8.38304 14.5639L8.43564 14.4464L8.48951 14.3295L8.54462 14.213L8.601 14.0969L8.65863 13.9813L8.7175 13.8663L8.77762 13.7517L8.83897 13.6377L8.90154 13.5241L8.96536 13.4112L9.03039 13.2987L9.09663 13.1868L9.1641 13.0756L9.23277 12.9648L9.30263 12.8547L9.3737 12.7452L9.44594 12.6363L9.51942 12.5281L9.59395 12.4205L9.66981 12.3136L9.74673 12.2073L9.8248 12.1016L9.9041 11.9968L9.98447 11.8926L10.0661 11.7891L10.1487 11.6863L10.2325 11.5843L10.3174 11.4831L10.4034 11.3826L10.4906 11.2828L10.5788 11.1839L10.6681 11.0857L10.7585 10.9884L10.8499 10.8919L10.9425 10.7962L11.0361 10.7013L11.1307 10.6073L11.2263 10.5141L11.323 10.4218L11.4208 10.3304L11.5195 10.2398L11.6192 10.1503L11.72 10.0615L11.8217 9.97373L11.9243 9.88684L12.028 9.80091L12.1326 9.71593L12.2382 9.6319L12.3447 9.54882L12.4522 9.46677L12.5605 9.38568L12.6698 9.30562L12.78 9.22651L12.891 9.14844L13.0029 9.0714L13.1157 8.9954L13.2294 8.92044L13.3438 8.84659L13.4593 8.7737L13.5754 8.70194L13.6924 8.63124L13.8102 8.56162L13.9288 8.4931L14.0481 8.42568L14.1683 8.35937L14.2892 8.29418L14.4108 8.23012L14.5332 8.1672L14.6563 8.10541L14.7801 8.04478L14.9047 7.9853L15.0299 7.92699L15.1558 7.86985L15.2824 7.81388L15.4096 7.7591L15.5375 7.70552L15.666 7.65314L15.7951 7.60197L15.9248 7.552L16.0551 7.50326L16.186 7.45574L16.3175 7.40946L16.4495 7.36441L16.5821 7.32061L16.7151 7.27806L16.8487 7.23677L16.9828 7.19673L17.1174 7.15796L17.2525 7.12047L17.388 7.08425L17.524 7.04932L17.6604 7.01567L17.7973 6.98332L17.9346 6.95227L18.0722 6.92251L18.2103 6.89406L18.3486 6.86692L18.4875 6.84111L18.6266 6.81661L18.766 6.79343L18.9058 6.77158L19.0459 6.75106L19.1862 6.73188L19.3268 6.71403L19.3792 6.70788ZM19.4386 11.6039L19.3981 8.26665L19.2829 8.28241L19.159 8.30057L19.035 8.31994L18.9118 8.34042L18.7884 8.36215L18.6657 8.38499L18.5432 8.40901L18.4211 8.43415L18.2994 8.46048L18.1778 8.48798L18.0567 8.51661L17.9361 8.54637L17.8155 8.57732L17.6997 8.60823L17.5764 8.64252L17.4572 8.6768L17.3386 8.71221L17.2206 8.74866L17.1029 8.78631L16.9856 8.82509L16.8689 8.8649L16.7528 8.90575L16.6371 8.94781L16.5219 8.99082L16.4072 9.03504L16.2934 9.08021L16.1795 9.12659L16.0666 9.17391L15.9542 9.22228L15.8425 9.27168L15.7312 9.3222L15.6204 9.37376L15.5107 9.42618L15.4011 9.47981L15.2926 9.53431L15.1843 9.59001L15.0771 9.64641L14.9701 9.70419L14.8641 9.76257L14.7589 9.82207L14.6541 9.88261L14.5502 9.94402L14.4468 10.0065L14.3444 10.0698L14.2425 10.1341L14.1416 10.1993L14.0413 10.2654L13.9418 10.3325L13.8429 10.4005L13.7451 10.4692L13.6479 10.5391L13.5515 10.6097L13.4559 10.6812L13.3612 10.7535L13.2672 10.8268L13.1742 10.9008L13.082 10.9757L12.9905 11.0516L12.9002 11.1281L12.8104 11.2055L12.7216 11.2838L12.6337 11.3627L12.5468 11.4424L12.4606 11.5231L12.3755 11.6043L12.2913 11.6863L12.2078 11.7692L12.1254 11.8527L12.0439 11.9371L11.9634 12.0221L11.8838 12.1078L11.8051 12.1942L11.7273 12.2814L11.6508 12.3691L11.575 12.4576L11.5002 12.5468L11.4265 12.6366L11.3538 12.7269L11.2819 12.8181L11.2112 12.9097L11.1414 13.0021L11.0727 13.095L11.005 13.1885L10.9384 13.2825L10.8728 13.3771L10.8081 13.4724L10.7446 13.5682L10.6821 13.6644L10.6208 13.7612L10.5603 13.8587L10.501 13.9565L10.4428 14.0548L10.3856 14.1537L10.3296 14.2529L10.2746 14.3527L10.2205 14.4531L10.1678 14.5536L10.1161 14.6548L10.0654 14.7564L10.0159 14.8582L9.96751 14.9606L9.92018 15.0633L9.87399 15.1664L9.82886 15.2699L9.78497 15.3737L9.74214 15.4779L9.70037 15.5824L9.65974 15.6873L9.62036 15.7924L9.58194 15.8979L9.54485 16.0035L9.50873 16.1096L9.47385 16.2159L9.44002 16.3225L9.40744 16.4292L9.37591 16.5362L9.34562 16.6434L9.3164 16.7509L9.28835 16.8585L9.26146 16.9664L9.23572 17.0745L9.21113 17.1826L9.18768 17.291L9.16542 17.3994L9.14429 17.508L9.12431 17.6168L9.10551 17.7256L9.08784 17.8346L9.07135 17.9435L9.05599 18.0527L9.04181 18.1619L9.02877 18.2711L9.0169 18.3804L9.00618 18.4897L8.99661 18.599L8.9882 18.7083L8.98095 18.8177L8.97483 18.927L8.96988 19.0363L8.96608 19.1455L8.96342 19.2547L8.96192 19.3639L8.96156 19.473L8.96235 19.582L8.96428 19.6909L8.96735 19.7997L8.97156 19.9084L8.97691 20.017L8.98339 20.1255L8.991 20.2337L8.99976 20.3419L9.00963 20.4499L9.02063 20.5577L9.03276 20.6653L9.046 20.7727L9.06036 20.88L9.07584 20.9869L9.09243 21.0937L9.11012 21.2001L9.12892 21.3064L9.14883 21.4125L9.16982 21.5181L9.19191 21.6237L9.21509 21.7288L9.23936 21.8337L9.26469 21.9381L9.29113 22.0424L9.31863 22.1462L9.34721 22.2498L9.37679 22.3529L9.40753 22.4558L9.43923 22.5582L9.47208 22.6603L9.50591 22.762L9.54079 22.8632L9.57673 22.964L9.61365 23.0645L9.65162 23.1645L9.69065 23.2641L9.73066 23.3631L9.77164 23.4617L9.81367 23.5599L9.85668 23.6576L9.90075 23.7548L9.9457 23.8515L9.99171 23.9476L10.0387 24.0433L10.0866 24.1385L10.1355 24.2331L10.1853 24.3272L10.2361 24.4207L10.2878 24.5136L10.3405 24.6061L10.3941 24.6979L10.4485 24.7891L10.504 24.8797L10.5603 24.9697L10.6176 25.0591L10.6757 25.1479L10.7348 25.2362L10.7945 25.3236L10.8554 25.4105L10.917 25.4967L10.9795 25.5823L11.0428 25.6672L11.107 25.7514L11.172 25.8349L11.2379 25.9178L11.3045 26L11.3719 26.0814L11.4402 26.1622L11.5093 26.2422L11.5791 26.3214L11.6498 26.4001L11.7211 26.4778L11.7933 26.5549L11.8661 26.6312L11.9398 26.7068L12.0141 26.7816L12.0893 26.8556L12.1651 26.9288L12.2416 27.0013L12.3189 27.073L12.3967 27.1438L12.4754 27.2139L12.5546 27.2831L12.6345 27.3515L12.7152 27.4191L12.7964 27.4859L12.8783 27.5518L12.9607 27.6169L13.0438 27.6811L13.1276 27.7445L13.2119 27.8071L13.2969 27.8688L13.3823 27.9296L13.4683 27.9895L13.5549 28.0486L13.6421 28.1068L13.7299 28.1642L13.8181 28.2205L13.9068 28.2761L13.9961 28.3308L14.0858 28.3845L14.1761 28.4373L14.2669 28.4892L14.358 28.5402L14.4498 28.5903L14.5418 28.6394L14.6344 28.6877L14.7274 28.735L14.8208 28.7813L14.9146 28.8268L15.009 28.8713L15.1035 28.9149L15.1985 28.9575L15.2939 28.9992L15.3896 29.0399L15.4857 29.0796L15.5821 29.1185L15.6789 29.1563L15.7759 29.1932L15.8733 29.2291L15.9709 29.2641L16.0689 29.2981L16.1671 29.3311L16.2656 29.3632L16.3644 29.3942L16.4634 29.4244L16.5626 29.4535L16.6621 29.4816L16.7617 29.5088L16.8616 29.535L16.9616 29.5603L17.0619 29.5845L17.1623 29.6077L17.2629 29.63L17.3636 29.6513L17.4645 29.6716L17.5654 29.6909L17.6666 29.7092L17.7677 29.7266L17.8691 29.743L17.9705 29.7583L18.072 29.7727L18.1735 29.7861L18.2751 29.7985L18.3767 29.8099L18.4784 29.8204L18.5801 29.8298L18.6818 29.8382L18.7836 29.8457L18.8853 29.8522L18.987 29.8577L19.0886 29.8622L19.1903 29.8658L19.2919 29.8684L19.3934 29.8699L19.4948 29.8705L19.5962 29.8702L19.6975 29.8688L19.7987 29.8666L19.8997 29.8633L20.0008 29.859L20.1015 29.8538L20.2022 29.8476L20.3027 29.8405L20.4031 29.8324L20.5033 29.8233L20.6033 29.8133L20.7032 29.8023L20.8028 29.7904L20.9023 29.7775L21.0014 29.7638L21.1004 29.749L21.1992 29.7333L21.2975 29.7167L21.3958 29.6991L21.4938 29.6806L21.5914 29.6613L21.6889 29.6409L21.7859 29.6196L21.8827 29.5975L21.9791 29.5744L22.0753 29.5505L22.1711 29.5256L22.2666 29.4998L22.3617 29.4731L22.4565 29.4455L22.5508 29.4171L22.6447 29.3878L22.7384 29.3575L22.8316 29.3264L22.9244 29.2945L23.0168 29.2617L23.1087 29.228L23.2002 29.1934L23.2913 29.158L23.382 29.1218L23.4721 29.0847L23.5618 29.0468L23.6511 29.0081L23.7397 28.9685L23.828 28.9281L23.9158 28.8869L24.0029 28.845L24.0898 28.8021L24.1759 28.7586L24.2616 28.7141L24.3466 28.669L24.4312 28.6231L24.5153 28.5764L24.5986 28.5289L24.6816 28.4806L24.7639 28.4316L24.8455 28.3819L24.9267 28.3314L25.0071 28.2802L25.087 28.2282L25.1664 28.1755L25.245 28.1221L25.3229 28.0681L25.4004 28.0132L25.4771 27.9578L25.5532 27.9016L25.6287 27.8447L25.7032 27.7873L25.7775 27.729L25.851 27.6701L25.9235 27.6106L25.9957 27.5503L26.067 27.4896L26.1376 27.4283L26.2077 27.366L26.2767 27.3035L26.3453 27.2402L26.4131 27.1762L26.48 27.1118L26.5464 27.0467L26.612 26.9811L26.6768 26.9148L26.7407 26.8481L26.804 26.7807L26.8667 26.7128L26.9283 26.6445L26.9894 26.5754L27.0496 26.506L27.1089 26.436L27.1676 26.3654L27.2254 26.2946L27.2824 26.223L27.3387 26.151L27.3941 26.0785L27.4487 26.0056L27.5024 25.9323L27.5555 25.8583L27.6076 25.7841L27.6589 25.7094L27.7095 25.6342L27.759 25.5588L27.8079 25.4828L27.8558 25.4064L27.903 25.3297L27.9492 25.2526L27.9948 25.1749L28.0392 25.0973L28.083 25.0189L28.1258 24.9404L28.1677 24.8615L28.2089 24.7821L28.249 24.7028L28.2885 24.6226L28.3268 24.5428L28.3646 24.462L28.4012 24.3814L28.4371 24.3002L28.4721 24.219L28.5061 24.1375L28.5393 24.0556L28.5716 23.9734L28.6029 23.8913L28.6335 23.8087L28.663 23.7259L28.6917 23.643L28.7195 23.5599L28.7465 23.4764L28.7725 23.3929L28.7976 23.3093L28.8218 23.2254L28.845 23.1414L28.8674 23.0572L28.8889 22.9729L28.9095 22.8886L28.9292 22.8039L28.9479 22.7193L28.9658 22.6346L28.9827 22.5498L28.9988 22.4649L29.0139 22.3797L29.0281 22.2948L29.0414 22.2096L29.0538 22.1244L29.0653 22.0393L29.0759 21.9541L29.0856 21.8686L29.0943 21.7837L29.1023 21.6981L29.1092 21.6129L29.1152 21.5278L29.1205 21.4425L29.1247 21.3573L29.1281 21.2722L29.1305 21.1869L29.132 21.1021L29.1327 21.017L29.1325 20.9321L29.1314 20.8472L29.1294 20.7626L29.1265 20.6779L29.1227 20.5933L29.118 20.5091L29.1124 20.4247L29.106 20.3405L29.0987 20.2567L29.0905 20.1727L29.0814 20.0892L29.0714 20.0055L29.0607 19.9222L29.049 19.839L29.0365 19.756L29.0231 19.6732L29.0088 19.5907L28.9937 19.5084L28.9778 19.4264L28.9609 19.3443L28.9432 19.2627L28.9248 19.1815L28.9054 19.1003L28.8852 19.0193L28.8643 18.939L28.8424 18.8584L28.8198 18.7785L28.7963 18.6987L28.772 18.6194L28.7469 18.5402L28.7209 18.4614L28.6943 18.383L28.6668 18.305L28.6384 18.227L28.6094 18.1497L28.5795 18.0726L28.5488 17.996L28.5174 17.9195L28.4851 17.8434L28.4522 17.768L28.4184 17.6927L28.3839 17.618L28.3487 17.5438L28.3127 17.4697L28.2758 17.396L28.2385 17.323L28.2002 17.2502L28.1613 17.1781L28.1217 17.1064L28.0812 17.0348L28.0402 16.9641L27.9984 16.8936L27.9559 16.8237L27.9126 16.7541L27.8689 16.6853L27.8242 16.6166L27.7791 16.5488L27.7332 16.4813L27.6866 16.4144L27.6393 16.3478L27.5914 16.2819L27.543 16.2166L27.4938 16.1516L27.444 16.0873L27.3935 16.0235L27.3427 15.9604L27.2909 15.8976L27.2386 15.8355L27.1857 15.7739L27.1323 15.7128L27.0783 15.6526L27.0236 15.5926L26.9685 15.5335L26.9127 15.4747L26.8565 15.4169L26.7995 15.3593L26.7421 15.3025L26.684 15.2461L26.6256 15.1906L26.5667 15.1357L26.5071 15.0813L26.447 15.0275L26.3864 14.9744L26.3254 14.922L26.2637 14.87L26.2019 14.8191L26.1393 14.7684L26.0764 14.7185L26.0129 14.6694L25.949 14.6207L25.8847 14.5729L25.8202 14.5258L25.7548 14.4791L25.689 14.4331L25.6232 14.3881L25.5566 14.3435L25.49 14.2999L25.4228 14.2567L25.3551 14.2142L25.287 14.1724L25.2189 14.1314L25.15 14.091L25.081 14.0515L25.0114 14.0124L24.9419 13.9743L24.8718 13.9369L24.8013 13.9L24.7306 13.8639L24.6597 13.8287L24.5883 13.7939L24.5166 13.76L24.4448 13.7268L24.3728 13.6944L24.3001 13.6626L24.2276 13.6317L24.1547 13.6014L24.0814 13.5718L24.008 13.543L23.9345 13.5151L23.8607 13.4878L23.7864 13.4611L23.7123 13.4354L23.6378 13.4102L23.5631 13.3859L23.4885 13.3623L23.4135 13.3395L23.3385 13.3174L23.2629 13.296L23.1876 13.2754L23.1121 13.2555L23.0364 13.2365L22.9606 13.2181L22.8845 13.2004L22.8086 13.1836L22.7326 13.1675L22.6563 13.1522L22.5798 13.1375L22.5038 13.1238L22.4272 13.1106L22.3508 13.0983L22.2741 13.0866L22.1978 13.0758L22.1209 13.0656L22.0445 13.0564L21.9678 13.0478L21.8912 13.0399L21.8146 13.0328L21.7379 13.0264L21.6615 13.0208L21.5847 13.016L21.5082 13.0118L21.4319 13.0085L21.355 13.0058L21.2788 13.0039L21.2025 13.0028L21.1263 13.0023L21.0742 13.0025L21.1137 16.2631L21.1373 16.2632L21.1811 16.2638L21.225 16.2648L21.2689 16.2662L21.3129 16.2682L21.357 16.2705L21.401 16.2733L21.4452 16.2765L21.4894 16.2803L21.5336 16.2844L21.5778 16.289L21.6221 16.294L21.6664 16.2995L21.7107 16.3055L21.755 16.3119L21.7993 16.3188L21.8437 16.3261L21.8879 16.3339L21.9322 16.3422L21.9765 16.3508L22.0207 16.3601L22.065 16.3696L22.1092 16.3797L22.1533 16.3903L22.1974 16.4013L22.2415 16.4127L22.2855 16.4247L22.3295 16.437L22.3734 16.4499L22.4172 16.4632L22.4609 16.477L22.5046 16.4912L22.5481 16.5059L22.5917 16.521L22.635 16.5367L22.6783 16.5527L22.7215 16.5692L22.7646 16.5862L22.8075 16.6037L22.8503 16.6216L22.8931 16.64L22.9356 16.6588L22.9781 16.678L23.0204 16.6978L23.0625 16.7179L23.1046 16.7386L23.1464 16.7597L23.188 16.7813L23.2295 16.8033L23.2709 16.8257L23.312 16.8486L23.353 16.8719L23.3937 16.8957L23.4343 16.92L23.4747 16.9447L23.5149 16.9698L23.5548 16.9953L23.5945 17.0213L23.6341 17.0478L23.6734 17.0746L23.7124 17.1019L23.7513 17.1296L23.7899 17.1578L23.8282 17.1864L23.8663 17.2154L23.9042 17.2449L23.9417 17.2747L23.979 17.305L24.016 17.3357L24.0528 17.3668L24.0893 17.3983L24.1255 17.4303L24.1613 17.4627L24.1969 17.4954L24.2321 17.5286L24.2672 17.5622L24.3018 17.5961L24.3362 17.6305L24.3703 17.6652L24.4039 17.7003L24.4373 17.7359L24.4703 17.7718L24.5031 17.8081L24.5354 17.8448L24.5674 17.8819L24.5991 17.9193L24.6303 17.9571L24.6613 17.9953L24.6918 18.0338L24.722 18.0727L24.7519 18.1119L24.7813 18.1516L24.8102 18.1915L24.8389 18.2318L24.8672 18.2725L24.895 18.3135L24.9225 18.3548L24.9496 18.3965L24.9762 18.4385L25.0024 18.4808L25.0282 18.5235L25.0535 18.5664L25.0785 18.6097L25.103 18.6533L25.1271 18.6971L25.1508 18.7414L25.1739 18.7858L25.1967 18.8306L25.2189 18.8757L25.2408 18.9211L25.2621 18.9667L25.2831 19.0126L25.3035 19.0588L25.3235 19.1053L25.343 19.152L25.362 19.199L25.3806 19.2462L25.3987 19.2937L25.4162 19.3415L25.4333 19.3895L25.4499 19.4377L25.4659 19.4862L25.4815 19.5349L25.4966 19.5838L25.5112 19.6329L25.5252 19.6823L25.5388 19.7318L25.5519 19.7815L25.5643 19.8315L25.5763 19.8817L25.5878 19.932L25.5988 19.9826L25.6092 20.0333L25.619 20.0841L25.6284 20.1352L25.6372 20.1864L25.6455 20.2377L25.6532 20.2893L25.6603 20.3409L25.6669 20.3927L25.673 20.4447L25.6786 20.4968L25.6835 20.549L25.688 20.6013L25.6918 20.6538L25.6951 20.7063L25.6979 20.759L25.7 20.8118L25.7017 20.8646L25.7026 20.9176L25.7032 20.9706L25.703 21.0236L25.7024 21.0768L25.7011 21.1301L25.6993 21.1834L25.6969 21.2368L25.6939 21.2901L25.6903 21.3436L25.6862 21.397L25.6814 21.4506L25.6761 21.5041L25.6703 21.5577L25.6638 21.6112L25.6567 21.6649L25.6491 21.7185L25.6409 21.772L25.6321 21.8256L25.6226 21.8791L25.6126 21.9327L25.602 21.9862L25.5909 22.0397L25.5791 22.0931L25.5667 22.1465L25.5538 22.1999L25.5402 22.2532L25.5261 22.3065L25.5114 22.3596L25.4961 22.4127L25.4802 22.4656L25.4637 22.5186L25.4466 22.5714L25.4289 22.6241L25.4107 22.6768L25.3919 22.7293L25.3723 22.7816L25.3523 22.834L25.3317 22.886L25.3105 22.9381L25.2887 22.9899L25.2664 23.0417L25.2434 23.0932L25.2198 23.1447L25.1957 23.1959L25.171 23.247L25.1456 23.2979L25.1199 23.3486L25.0934 23.3991L25.0663 23.4495L25.0387 23.4996L25.0105 23.5495L24.9818 23.5992L24.9525 23.6487L24.9226 23.698L24.8922 23.747L24.8611 23.7959L24.8296 23.8444L24.7974 23.8927L24.7647 23.9408L24.7315 23.9886L24.6976 24.0361L24.6633 24.0834L24.6283 24.1304L24.5929 24.1771L24.5569 24.2235L24.5203 24.2696L24.4832 24.3154L24.4456 24.361L24.4074 24.4061L24.3688 24.451L24.3296 24.4956L24.2897 24.5398L24.2495 24.5837L24.2087 24.6273L24.1673 24.6705L24.1256 24.7133L24.0832 24.7559L24.0403 24.798L23.997 24.8398L23.9532 24.8812L23.9087 24.9222L23.8639 24.9628L23.8186 25.0031L23.7727 25.043L23.7265 25.0824L23.6797 25.1215L23.6324 25.1601L23.5846 25.1983L23.5364 25.2362L23.4878 25.2735L23.4387 25.3104L23.3891 25.347L23.339 25.3831L23.2886 25.4187L23.2377 25.4538L23.1864 25.4886L23.1345 25.5228L23.0823 25.5567L23.0297 25.5899L22.9766 25.6228L22.9231 25.6552L22.8692 25.6871L22.8149 25.7184L22.7603 25.7493L22.7051 25.7797L22.6496 25.8096L22.5938 25.8391L22.5375 25.8679L22.4809 25.8963L22.4239 25.9241L22.3666 25.9515L22.3088 25.9783L22.2507 26.0045L22.1923 26.0303L22.1335 26.0554L22.0744 26.0801L22.015 26.1042L21.9552 26.1277L21.8951 26.1507L21.8347 26.1731L21.7739 26.195L21.7129 26.2163L21.6516 26.237L21.5899 26.2572L21.528 26.2768L21.4659 26.2957L21.4034 26.3141L21.3406 26.3319L21.2777 26.3491L21.2144 26.3658L21.1509 26.3818L21.0872 26.3972L21.0232 26.412L20.959 26.4263L20.8945 26.4398L20.8298 26.4529L20.7649 26.4652L20.6999 26.477L20.6346 26.4881L20.5691 26.4986L20.5034 26.5085L20.4376 26.5177L20.3716 26.5264L20.3054 26.5344L20.239 26.5417L20.1725 26.5484L20.1059 26.5545L20.0391 26.5599L19.9722 26.5647L19.905 26.5688L19.8379 26.5723L19.7706 26.5751L19.7033 26.5773L19.6357 26.5788L19.5681 26.5796L19.5005 26.5799L19.4328 26.5795L19.3649 26.5783L19.297 26.5765L19.2291 26.5741L19.1611 26.571L19.093 26.5672L19.0249 26.5628L18.9568 26.5577L18.8888 26.5519L18.8206 26.5454L18.7525 26.5384L18.6843 26.5305L18.6162 26.522L18.548 26.5129L18.48 26.5031L18.4119 26.4926L18.3439 26.4814L18.2759 26.4696L18.208 26.4571L18.1401 26.444L18.0722 26.4301L18.0045 26.4155L17.9368 26.4003L17.8693 26.3844L17.8017 26.3679L17.7343 26.3506L17.6671 26.3326L17.5999 26.3141L17.533 26.2948L17.4661 26.2749L17.3993 26.2542L17.3327 26.233L17.2662 26.211L17.2 26.1884L17.1338 26.1651L17.0679 26.1411L17.0022 26.1165L16.9365 26.0912L16.8712 26.0652L16.806 26.0386L16.7411 26.0113L16.6764 25.9833L16.6118 25.9547L16.5476 25.9254L16.4835 25.8955L16.4197 25.8649L16.3562 25.8336L16.293 25.8018L16.23 25.7692L16.1673 25.736L16.1049 25.7022L16.0428 25.6677L15.9809 25.6326L15.9195 25.5968L15.8583 25.5605L15.7974 25.5234L15.7368 25.4858L15.6766 25.4475L15.6167 25.4086L15.5572 25.369L15.4981 25.3288L15.4393 25.2881L15.3808 25.2467L15.3228 25.2046L15.2652 25.1621L15.2079 25.1189L15.1511 25.075L15.0946 25.0306L15.0385 24.9856L14.9829 24.94L14.9277 24.8938L14.873 24.847L14.8186 24.7997L14.7648 24.7518L14.7113 24.7032L14.6584 24.6542L14.6059 24.6045L14.5538 24.5543L14.5023 24.5035L14.4513 24.4522L14.4007 24.4003L14.3506 24.348L14.3011 24.295L14.252 24.2415L14.2035 24.1875L14.1555 24.133L14.108 24.0779L14.061 24.0223L14.0147 23.9662L13.9688 23.9096L13.9235 23.8525L13.8787 23.7949L13.8346 23.7368L13.7911 23.6783L13.748 23.6192L13.7056 23.5596L13.6637 23.4996L13.6225 23.4391L13.5818 23.3781L13.5418 23.3167L13.5024 23.2549L13.4636 23.1926L13.4254 23.1298L13.3878 23.0667L13.3509 23.0031L13.3146 22.9391L13.2789 22.8746L13.244 22.8098L13.2096 22.7445L13.1759 22.6789L13.1428 22.6129L13.1105 22.5464L13.0788 22.4796L13.0478 22.4124L13.0175 22.3449L12.9879 22.2769L12.9589 22.2087L12.9306 22.14L12.9031 22.0711L12.8762 22.0018L12.8502 21.9322L12.8247 21.8622L12.8 21.792L12.776 21.7214L12.7528 21.6505L12.7303 21.5794L12.7084 21.5079L12.6873 21.4362L12.667 21.3641L12.6475 21.2919L12.6286 21.2193L12.6106 21.1465L12.5933 21.0735L12.5767 21.0002L12.5609 20.9267L12.5459 20.853L12.5316 20.779L12.518 20.7048L12.5053 20.6305L12.4934 20.556L12.4822 20.4812L12.4718 20.4063L12.4622 20.3311L12.4534 20.2559L12.4454 20.1804L12.4381 20.1049L12.4317 20.0291L12.426 19.9533L12.4212 19.8773L12.4171 19.8012L12.4138 19.725L12.4114 19.6487L12.4098 19.5723L12.409 19.4958L12.4089 19.4192L12.4097 19.3425L12.4114 19.2659L12.4137 19.1891L12.417 19.1122L12.4211 19.0353L12.4259 18.9585L12.4316 18.8815L12.4381 18.8046L12.4454 18.7276L12.4536 18.6507L12.4626 18.5737L12.4724 18.4968L12.483 18.4199L12.4945 18.3431L12.5067 18.2662L12.5199 18.1894L12.5338 18.1126L12.5485 18.0359L12.5641 17.9593L12.5806 17.8828L12.5978 17.8064L12.6158 17.73L12.6347 17.6539L12.6544 17.5777L12.675 17.5017L12.6963 17.4259L12.7185 17.3501L12.7415 17.2745L12.7653 17.1991L12.79 17.1238L12.8154 17.0486L12.8417 16.9738L12.8688 16.899L12.8967 16.8244L12.9254 16.7501L12.955 16.676L12.9854 16.602L13.0166 16.5283L13.0485 16.4549L13.0813 16.3816L13.1149 16.3087L13.1493 16.236L13.1845 16.1635L13.2205 16.0914L13.2573 16.0194L13.2948 15.9478L13.3332 15.8766L13.3724 15.8056L13.4124 15.735L13.4531 15.6646L13.4946 15.5945L13.5369 15.5249L13.58 15.4556L13.6238 15.3866L13.6685 15.318L13.7139 15.2497L13.76 15.1818L13.8069 15.1143L13.8546 15.0472L13.9029 14.9806L13.9521 14.9143L14.002 14.8484L14.0526 14.783L14.104 14.718L14.1561 14.6534L14.209 14.5893L14.2626 14.5256L14.3169 14.4625L14.3719 14.3997L14.4276 14.3374L14.484 14.2757L14.5412 14.2144L14.599 14.1536L14.6576 14.0934L14.7168 14.0336L14.7767 13.9743L14.8373 13.9156L14.8986 13.8574L14.9605 13.7998L15.0231 13.7427L15.0863 13.6862L15.1502 13.6302L15.2147 13.5747L15.28 13.52L15.3458 13.4657L15.4123 13.412L15.4793 13.359L15.547 13.3065L15.6153 13.2547L15.6843 13.2035L15.7538 13.1529L15.8239 13.1029L15.8946 13.0535L15.9659 13.0048L16.0378 12.9567L16.1103 12.9093L16.1832 12.8626L16.2568 12.8166L16.331 12.7711L16.4056 12.7264L16.4809 12.6824L16.5565 12.639L16.6328 12.5963L16.7096 12.5544L16.7869 12.5131L16.8647 12.4726L16.9429 12.4328L17.0217 12.3936L17.1009 12.3553L17.1806 12.3176L17.2608 12.2808L17.3414 12.2446L17.4225 12.2092L17.504 12.1745L17.5861 12.1406L17.6685 12.1074L17.7512 12.0751L17.8345 12.0435L17.9181 12.0127L18.0021 11.9826L18.0865 11.9534L18.1714 11.9249L18.2565 11.8973L18.3421 11.8704L18.4279 11.8444L18.5142 11.8191L18.6008 11.7947L18.6877 11.7711L18.7749 11.7483L18.8624 11.7263L18.9503 11.7051L19.0384 11.6848L19.1269 11.6654L19.2156 11.6468L19.3046 11.629L19.3938 11.612L19.4386 11.6039ZM20.5353 17.8742L19.5174 18.112L19.4577 13.1811L19.4097 13.1916L19.3375 13.2083L19.2653 13.2257L19.1937 13.2436L19.1222 13.2623L19.0511 13.2816L18.98 13.3018L18.9096 13.3223L18.839 13.3437L18.7694 13.3656L18.6995 13.3883L18.6301 13.4116L18.561 13.4355L18.4922 13.4601L18.4241 13.4852L18.356 13.5111L18.2882 13.5375L18.2209 13.5646L18.1537 13.5924L18.0874 13.6205L18.0211 13.6495L17.9554 13.679L17.8898 13.7092L17.8248 13.7399L17.76 13.7712L17.6958 13.8031L17.632 13.8356L17.5686 13.8686L17.5056 13.9022L17.443 13.9364L17.3808 13.9712L17.3194 14.0065L17.2578 14.0425L17.1971 14.0788L17.1368 14.1158L17.077 14.1533L17.0174 14.1914L16.9585 14.23L16.9001 14.2691L16.842 14.3087L16.7846 14.3487L16.7275 14.3894L16.671 14.4306L16.615 14.4722L16.5594 14.5144L16.5045 14.5569L16.4501 14.6L16.3961 14.6436L16.3426 14.6877L16.2897 14.7321L16.2374 14.7771L16.1855 14.8224L16.1342 14.8683L16.0834 14.9147L16.0333 14.9614L15.9837 15.0085L15.9345 15.0561L15.886 15.1041L15.838 15.1525L15.7907 15.2012L15.7437 15.2506L15.6975 15.3001L15.6519 15.3501L15.6067 15.4006L15.5623 15.4512L15.5183 15.5024L15.4752 15.5537L15.4323 15.6057L15.3903 15.6577L15.3487 15.7103L15.3078 15.7633L15.2675 15.8164L15.2278 15.8699L15.1888 15.9237L15.1503 15.9779L15.1124 16.0323L15.0752 16.0871L15.0386 16.1421L15.0027 16.1974L14.9673 16.2531L14.9327 16.3088L14.8985 16.3652L14.8651 16.4214L14.8322 16.4781L14.8 16.535L14.7686 16.5921L14.7377 16.6495L14.7075 16.7071L14.6778 16.765L14.6489 16.8229L14.6206 16.8813L14.5929 16.9396L14.566 16.9983L14.5396 17.0571L14.5139 17.1162L14.4889 17.1752L14.4645 17.2347L14.4409 17.2942L14.4177 17.3538L14.3954 17.4135L14.3736 17.4735L14.3525 17.5337L14.3321 17.5938L14.3124 17.6541L14.2933 17.7147L14.2748 17.7752L14.2572 17.8358L14.24 17.8966L14.2235 17.9574L14.2078 18.0183L14.1927 18.0793L14.1782 18.1404L14.1644 18.2015L14.1514 18.2627L14.1389 18.3239L14.1271 18.3851L14.116 18.4465L14.1055 18.5077L14.0957 18.5691L14.0865 18.6306L14.0781 18.6918L14.0703 18.7533L14.0631 18.8145L14.0566 18.8759L14.0508 18.9374L14.0456 18.9986L14.0411 19.06L14.0372 19.1213L14.0339 19.1824L14.0314 19.2436L14.0294 19.3046L14.0282 19.3658L14.0275 19.4267L14.0276 19.4876L14.0282 19.5484L14.0295 19.6092L14.0314 19.6699L14.034 19.7304L14.0372 19.7909L14.0411 19.8511L14.0456 19.9113L14.0507 19.9714L14.0564 20.0314L14.0628 20.0913L14.0698 20.1508L14.0774 20.2105L14.0856 20.2697L14.0945 20.3291L14.1039 20.3881L14.114 20.447L14.1247 20.5058L14.136 20.5642L14.1479 20.6226L14.1604 20.6807L14.1735 20.7387L14.1872 20.7964L14.2015 20.854L14.2164 20.9112L14.2319 20.9684L14.2479 21.0252L14.2645 21.0819L14.2817 21.1382L14.2995 21.1944L14.3178 21.2503L14.3367 21.3058L14.3562 21.3614L14.3763 21.4165L14.3969 21.4712L14.418 21.5259L14.4397 21.5802L14.462 21.6342L14.4847 21.6879L14.508 21.7413L14.5319 21.7945L14.5563 21.8473L14.5812 21.8999L14.6066 21.952L14.6325 22.0038L14.6591 22.0556L14.6859 22.1067L14.7134 22.1576L14.7414 22.2082L14.7699 22.2584L14.7989 22.3083L14.8283 22.3578L14.8582 22.4069L14.8887 22.4558L14.9195 22.5042L14.9509 22.5522L14.9827 22.6L15.015 22.6473L15.0477 22.6944L15.0808 22.7408L15.1145 22.7871L15.1486 22.8328L15.183 22.8782L15.2181 22.9233L15.2534 22.9678L15.2892 23.012L15.3254 23.0557L15.362 23.0992L15.3989 23.142L15.4365 23.1846L15.4743 23.2267L15.5124 23.2684L15.5512 23.3097L15.5901 23.3503L15.6294 23.3908L15.6692 23.4307L15.7092 23.4702L15.7497 23.5092L15.7905 23.5478L15.8317 23.586L15.8732 23.6237L15.915 23.6609L15.9573 23.6977L15.9997 23.734L16.0426 23.7698L16.0857 23.8052L16.1291 23.8401L16.1729 23.8746L16.2171 23.9085L16.2613 23.9419L16.306 23.9749L16.3509 24.0075L16.3962 24.0395L16.4416 24.071L16.4874 24.1021L16.5334 24.1327L16.5797 24.1628L16.6261 24.1923L16.6728 24.2214L16.72 24.2501L16.7672 24.278L16.8146 24.3057L16.8624 24.3328L16.9101 24.3593L16.9582 24.3854L17.0067 24.411L17.0551 24.4361L17.1038 24.4606L17.1526 24.4846L17.2018 24.5082L17.2509 24.5312L17.3005 24.5537L17.35 24.5757L17.3996 24.5972L17.4496 24.6181L17.4997 24.6386L17.5498 24.6586L17.6001 24.678L17.6505 24.6968L17.7012 24.7152L17.7517 24.7331L17.8027 24.7505L17.8535 24.7672L17.9044 24.7835L17.9556 24.7993L18.0068 24.8146L18.058 24.8293L18.1093 24.8436L18.1608 24.8572L18.2123 24.8704L18.2638 24.883L18.3154 24.8952L18.3669 24.9068L18.4186 24.9178L18.4703 24.9285L18.5221 24.9385L18.5738 24.9481L18.6256 24.957L18.6774 24.9656L18.7293 24.9735L18.7811 24.9811L18.8328 24.988L18.8846 24.9944L18.9364 25.0003L18.9882 25.0058L19.0399 25.0106L19.0917 25.015L19.1434 25.0189L19.1949 25.0222L19.2466 25.0251L19.2981 25.0274L19.3495 25.0293L19.4011 25.0306L19.4523 25.0315L19.5035 25.0318L19.5547 25.0317L19.6058 25.0311L19.6569 25.0298L19.7078 25.0282L19.7585 25.0261L19.8092 25.0235L19.86 25.0203L19.9103 25.0167L19.9608 25.0127L20.0109 25.0081L20.0611 25.0031L20.1111 24.9975L20.1608 24.9915L20.2106 24.985L20.2601 24.978L20.3093 24.9706L20.3587 24.9627L20.4077 24.9544L20.4566 24.9456L20.5053 24.9362L20.5539 24.9265L20.6021 24.9163L20.6501 24.9057L20.6982 24.8945L20.746 24.8829L20.7935 24.871L20.8408 24.8586L20.8879 24.8457L20.9349 24.8323L20.9816 24.8186L21.0278 24.8044L21.0743 24.7898L21.1202 24.7747L21.166 24.7594L21.2114 24.7435L21.2567 24.7271L21.3018 24.7104L21.3466 24.6933L21.391 24.6758L21.4352 24.6579L21.4792 24.6395L21.523 24.6207L21.5663 24.6017L21.6096 24.5821L21.6524 24.5623L21.6949 24.542L21.7373 24.5213L21.7791 24.5003L21.8209 24.4789L21.8623 24.4571L21.9034 24.435L21.9441 24.4125L21.9846 24.3896L22.0248 24.3664L22.0645 24.3428L22.104 24.3189L22.1432 24.2946L22.1821 24.2701L22.2207 24.2451L22.2588 24.2199L22.2967 24.1943L22.3342 24.1684L22.3713 24.1422L22.4082 24.1156L22.4446 24.0887L22.4807 24.0615L22.5165 24.0341L22.552 24.0063L22.587 23.9783L22.6217 23.95L22.656 23.9213L22.6899 23.8924L22.7235 23.8632L22.7567 23.8336L22.7896 23.8039L22.8219 23.7739L22.854 23.7436L22.8857 23.7131L22.9171 23.6823L22.948 23.6513L22.9785 23.62L23.0086 23.5885L23.0384 23.5567L23.0677 23.5248L23.0967 23.4925L23.1252 23.46L23.1533 23.4275L23.1812 23.3945L23.2084 23.3615L23.2355 23.3281L23.262 23.2947L23.2881 23.261L23.3139 23.2271L23.3391 23.1931L23.364 23.1588L23.3886 23.1243L23.4126 23.0899L23.4363 23.055L23.4596 23.0201L23.4823 22.985L23.5047 22.9498L23.5267 22.9144L23.5483 22.8788L23.5695 22.8431L23.5901 22.8073L23.6104 22.7714L23.6303 22.7352L23.6497 22.6991L23.6687 22.6627L23.6873 22.6263L23.7055 22.5897L23.7233 22.5529L23.7406 22.5162L23.7575 22.4794L23.7739 22.4425L23.79 22.4053L23.8055 22.3683L23.8208 22.3309L23.8354 22.2938L23.8498 22.2562L23.8636 22.2191L23.8771 22.1815L23.8902 22.1438L23.9027 22.1063L23.9149 22.0687L23.9267 22.0311L23.9381 21.9931L23.9488 21.9556L23.9594 21.9176L23.9694 21.8801L23.979 21.8421L23.9882 21.8041L23.997 21.7663L24.0053 21.7287L24.0132 21.6905L24.0207 21.6528L24.0278 21.6147L24.0344 21.577L24.0407 21.5392L24.0465 21.5013L24.0519 21.4634L24.0568 21.4255L24.0614 21.3879L24.0656 21.3503L24.0693 21.3124L24.0727 21.2748L24.0756 21.2372L24.078 21.1996L24.0802 21.1621L24.0818 21.1247L24.0831 21.0875L24.084 21.05L24.0845 21.0126L24.0846 20.9756L24.0842 20.9385L24.0835 20.9016L24.0824 20.8647L24.0809 20.8277L24.0789 20.7913L24.0766 20.7542L24.074 20.718L24.0709 20.6816L24.0674 20.645L24.0636 20.6088L24.0594 20.573L24.0547 20.5366L24.0498 20.501L24.0444 20.4652L24.0387 20.4299L24.0326 20.3942L24.0261 20.3588L24.0193 20.3237L24.0122 20.2887L24.0046 20.2537L23.9966 20.219L23.9884 20.1844L23.9797 20.15L23.9708 20.1159L23.9614 20.0816L23.9518 20.0479L23.9418 20.0138L23.9314 19.9804L23.9208 19.947L23.9097 19.9138L23.8983 19.8808L23.8866 19.8478L23.8747 19.8153L23.8623 19.7829L23.8496 19.7504L23.8366 19.7185L23.8233 19.6864L23.8097 19.655L23.7957 19.6233L23.7816 19.5921L23.767 19.5612L23.7522 19.5303L23.7371 19.4997L23.7216 19.4693L23.7059 19.4391L23.6899 19.4092L23.6736 19.3795L23.6571 19.3501L23.6402 19.3208L23.623 19.2918L23.6057 19.263L23.588 19.2345L23.57 19.2061L23.5518 19.1782L23.5333 19.1504L23.5146 19.1228L23.4956 19.0955L23.4765 19.0685L23.4569 19.0417L23.4373 19.0151L23.4173 18.9889L23.3971 18.9629L23.3768 18.9371L23.356 18.9116L23.3352 18.8865L23.3141 18.8615L23.2928 18.8368L23.2712 18.8124L23.2496 18.7883L23.2276 18.7644L23.2054 18.7408L23.1831 18.7174L23.1606 18.6945L23.1378 18.6718L23.1148 18.6492L23.0918 18.6271L23.0685 18.6053L23.0451 18.5837L23.0212 18.5622L22.9975 18.5413L22.9735 18.5204L22.9494 18.5001L22.925 18.4799L22.9006 18.4601L22.8759 18.4405L22.8512 18.4212L22.8263 18.4022L22.8012 18.3835L22.7761 18.3652L22.7507 18.347L22.7252 18.3292L22.6997 18.3118L22.674 18.2945L22.6482 18.2777L22.6222 18.2611L22.5961 18.2448L22.57 18.2288L22.5436 18.2131L22.5173 18.1977L22.4909 18.1827L22.4643 18.1679L22.4376 18.1534L22.4109 18.1392L22.3841 18.1253L22.3572 18.1118L22.3304 18.0986L22.3032 18.0855L22.2761 18.0729L22.2489 18.0606L22.2217 18.0486L22.1944 18.0368L22.167 18.0253L22.1398 18.0143L22.1122 18.0035L22.0847 17.9929L22.0572 17.9827L22.0296 17.9728L22.0021 17.9632L21.9745 17.9539L21.9468 17.9448L21.9193 17.9362L21.8915 17.9277L21.8638 17.9196L21.8362 17.9118L21.8083 17.9043L21.7808 17.8972L21.7531 17.8902L21.7253 17.8836L21.6976 17.8773L21.67 17.8713L21.6422 17.8655L21.6146 17.8601L21.587 17.8549L21.5595 17.8501L21.5317 17.8455L21.5044 17.8413L21.4766 17.8373L21.4494 17.8336L21.4218 17.8301L21.3944 17.827L21.3672 17.8242L21.3398 17.8217L21.3126 17.8193L21.2854 17.8174L21.2583 17.8156L21.2312 17.8142L21.2042 17.813L21.1774 17.8122L21.1505 17.8115L21.1238 17.8111L21.097 17.8111L21.0704 17.8113L21.0438 17.8117L21.0174 17.8124L20.991 17.8135L20.9649 17.8147L20.9386 17.8162L20.9126 17.818L20.8866 17.82L20.8608 17.8223L20.8351 17.8248L20.8093 17.8276L20.7838 17.8306L20.7584 17.8339L20.7331 17.8374L20.7079 17.8412L20.6829 17.8452L20.6579 17.8494L20.6333 17.8539L20.6085 17.8586L20.584 17.8636L20.5595 17.8687L20.5353 17.8742Z" fill="#009347"/>
</svg>
