<svg width="64" height="28" viewBox="0 0 64 28" fill="none" xmlns="http://www.w3.org/2000/svg">
<mask id="mask0_2_1635" style="mask-type:luminance" maskUnits="userSpaceOnUse" x="0" y="0" width="14" height="28">
<path fill-rule="evenodd" clip-rule="evenodd" d="M0.5 0H13.098V28H0.5V0Z" fill="white"/>
</mask>
<g mask="url(#mask0_2_1635)">
<path fill-rule="evenodd" clip-rule="evenodd" d="M3.43471 28C1.84481 28 0.489746 26.9735 0.489746 24.6465C0.489746 21.0542 3.49465 18.326 4.85806 17.5546C4.85806 17.5546 6.76556 18.685 8.74443 19.4124C4.81242 16.8533 2.30001 12.1902 2.30001 7.01463C2.30001 2.17773 4.78159 0 7.0222 0C8.82464 0 13.0979 2.03985 13.0979 9.86722C13.0979 18.2898 8.826 28 3.43471 28Z" fill="#0178D7"/>
</g>
<path fill-rule="evenodd" clip-rule="evenodd" d="M42.575 22.4013H40.7131V15.5337C40.7131 14.21 40.5144 13.2522 40.1171 12.6604C39.7198 12.0688 39.0517 11.7728 38.1134 11.7728C37.3186 11.7728 36.643 12.1465 36.0868 12.8941C35.5305 13.6415 35.2524 14.537 35.2524 15.5805V22.4013H33.3905V15.3001C33.3905 12.9486 32.5087 11.7728 30.7453 11.7728C29.9278 11.7728 29.2541 12.1252 28.7245 12.8298C28.1946 13.5345 27.9297 14.4513 27.9297 15.5805V22.4013H26.0679V10.4413H27.9297V12.3335H27.9752C28.8001 10.8851 30.0035 10.161 31.5854 10.161C32.3801 10.161 33.0726 10.3888 33.663 10.8443C34.2532 11.2998 34.6582 11.8974 34.8777 12.6371C35.7404 10.9864 37.0272 10.161 38.7377 10.161C41.2959 10.161 42.575 11.7844 42.575 15.0314V22.4013Z" fill="#0178D7"/>
<path fill-rule="evenodd" clip-rule="evenodd" d="M63.5 22.4013H61.6382V15.5805C61.6382 13.042 60.7375 11.7728 58.9362 11.7728C58.0052 11.7728 57.2351 12.1329 56.6258 12.8531C56.0166 13.5734 55.712 14.4825 55.712 15.5805V22.4013H53.8501V10.4413H55.712V12.4269H55.7573C56.6353 10.9163 57.9068 10.161 59.5719 10.161C60.8434 10.161 61.816 10.5834 62.4897 11.4282C63.1632 12.273 63.5 13.4937 63.5 15.0899V22.4013Z" fill="#0178D7"/>
<path fill-rule="evenodd" clip-rule="evenodd" d="M44.6077 19.8966V21.9482C44.6077 21.9482 45.5962 22.683 47.5249 22.683C50.4523 22.683 51.7385 21.0026 51.7385 19.169C51.7385 15.1949 46.5371 16.1449 46.5371 13.5078C46.5371 12.5167 47.3042 11.7996 48.5916 11.7996C50.0952 11.7996 51.2028 12.6249 51.2028 12.6249V10.726C51.2028 10.726 50.1733 10.139 48.689 10.139C46.1858 10.139 44.6262 11.7474 44.6262 13.6795C44.6262 17.6085 49.8115 16.8399 49.8115 19.4002C49.8115 20.5771 48.8709 21.0035 47.6548 21.0035C45.9139 21.0035 44.6077 19.8966 44.6077 19.8966Z" fill="#0178D7"/>
<path fill-rule="evenodd" clip-rule="evenodd" d="M10.3059 25.3313C10.3059 26.5519 10.7204 27.0299 11.3541 27.0299C12.9399 27.0299 15.4664 23.2219 15.3704 19.224C17.7752 16.6143 20.6576 12.5262 20.6576 9.25186C20.6576 8.45926 20.4391 7.79175 19.526 7.79175C18.1299 7.79175 16.135 10.2671 14.8696 12.7254C13.6492 15.2721 12.5077 18.1767 10.9924 22.1632C10.6382 23.163 10.3059 24.374 10.3059 25.3313Z" fill="#0178D7"/>
</svg>
