<svg width="136" height="19" viewBox="0 0 136 19" fill="none" xmlns="http://www.w3.org/2000/svg">
<path fill-rule="evenodd" clip-rule="evenodd" d="M18.3495 18.6061H21.6091V3.77209H18.8251L13.0383 12.1988H13V3.77209H10.2172L0 18.6061H3.95496L9.70461 10.1794H9.74296V18.6061H12.5628L18.2767 10.1794H18.3495V18.6061ZM49.3705 3.78455H46.0726L43.2988 18.6061H46.5583L47.5477 13.4628H47.5733L49.6978 18.6061H53.3971L50.5043 12.6413L55.5215 7.963H51.6765L47.9056 11.8198H47.8328L49.3705 3.78455ZM32.7044 9.07016L32.9242 7.96322V7.92707H36.1097L34.0951 18.5702H30.8739L31.0938 17.4271H31.0554C30.3242 18.4642 28.8581 18.9628 27.576 18.9628C24.1336 18.9628 22.5958 16.284 23.1813 13.2486C23.8396 9.78444 26.8064 7.57056 29.7362 7.57056C31.5309 7.57056 32.372 8.42694 32.666 9.07016H32.7044ZM28.6396 15.9984C30.6912 15.9984 31.6793 14.2831 31.8992 13.2485H31.8966C32.1165 11.9969 31.494 10.5684 29.6622 10.5684C27.7959 10.5684 26.6608 12.1041 26.441 13.3183C26.2595 14.2843 26.6621 15.9984 28.6396 15.9984ZM37.9787 7.96322H41.0184L40.7986 9.07016H40.8369L40.8814 9.01482C41.2934 8.50124 42.0401 7.57056 43.8766 7.57056L43.2912 10.7867C41.7534 10.8241 40.6068 11.1083 40.3614 12.7512L39.2263 18.6101H35.9028L37.9787 7.96322ZM60.7726 7.57056C57.4747 7.57056 54.5091 10.3566 53.9594 13.3209C53.374 16.4622 55.5343 18.9641 58.6839 18.9641C59.8556 18.9588 61.0007 18.6238 61.9819 17.9992C63.007 17.3922 63.9593 16.4635 64.7301 15.2855H61.3977C60.848 15.8564 60.2255 16.2852 59.1991 16.2852C57.917 16.2852 57.0004 15.5348 57.026 14.2858H65.2069C65.3169 14.0364 65.3539 13.8569 65.4268 13.463C66.0493 10.1771 64.1102 7.57056 60.7739 7.57056H60.7726ZM60.3316 10.2878C58.6097 10.2878 57.7303 11.4646 57.4746 12.1078H62.4561C62.4561 11.4658 62.0163 10.2878 60.3316 10.2878ZM71.6738 7.9631H73.7241L73.246 10.3577H71.1586L69.5838 18.585H66.3242L67.899 10.3577H66.2884L66.7997 7.96434H66.8381C68.0473 7.85589 68.9268 7.42833 69.1824 6.03592L69.4023 4.82178H72.2592L71.6738 7.9631Z" fill="#2E2E2F"/>
<path fill-rule="evenodd" clip-rule="evenodd" d="M90.8273 3.78579L97.1624 0L98.1467 3.78704H96.5361L86.3547 18.621H83.5348V10.1943H83.4965L77.7468 18.621H74.8899V3.78704H78.1878V12.2138H78.2262L83.9784 3.78579H86.7995V12.2125H86.8724L92.622 3.78579H90.8273ZM117.707 18.9651C120.637 18.9651 123.201 17.0006 124.262 14.5723V14.5262H120.929C120.465 15.2043 119.647 15.9547 118.292 15.9547C116.716 15.9547 115.911 14.7767 116.205 13.241C116.497 11.7389 117.78 10.4898 119.317 10.5609C120.709 10.5609 121.185 11.31 121.405 12.0605H124.703C124.652 9.46515 122.687 7.57288 119.794 7.57288C116.499 7.57288 113.531 10.1096 112.945 13.2509C112.323 16.4297 114.409 18.9651 117.707 18.9651ZM103.388 18.6073H100.166L100.386 17.4642H100.348C99.5783 18.4988 98.1492 18.9999 96.8684 18.9999C93.3889 18.9999 91.8882 16.3198 92.4737 13.2857C93.1333 9.8203 96.1359 7.60767 99.0286 7.60767C100.823 7.60767 101.666 8.4653 101.958 9.10727H101.997L102.217 8.00033H105.438L103.388 18.6073ZM101.153 13.2522C100.933 14.2879 99.9085 16.0014 97.8948 16.0021C95.9172 16.0014 95.4777 14.3216 95.6975 13.322C95.9148 12.1079 97.0524 10.5721 98.9187 10.5721C100.75 10.5721 101.373 11.9683 101.153 13.2522ZM113.603 7.96688H111.553L112.139 4.82556H109.282L109.062 6.03971C108.806 7.43211 107.927 7.85968 106.717 7.96813H106.679L106.204 10.3615H107.814L106.239 18.5888H109.499L111.074 10.3615H113.161L113.603 7.96688ZM130.597 3.78833H127.337L124.524 18.5762H127.745L128.88 12.6838C128.882 12.6737 128.884 12.6632 128.886 12.6524C129.001 12.0879 129.317 10.5397 131.114 10.5397C132.834 10.5397 132.541 12.2911 132.431 12.7897L131.332 18.5737H134.591L135.726 12.6451C136.093 10.7167 136.166 9.78676 135.471 8.75211C134.921 7.96678 133.748 7.57412 132.722 7.57412C131.295 7.57412 130.341 8.07399 129.646 9.07373H129.607L130.597 3.78833Z" fill="#07AC4F"/>
</svg>
