<svg width="87" height="24" viewBox="0 0 87 24" fill="none" xmlns="http://www.w3.org/2000/svg">
<path fill-rule="evenodd" clip-rule="evenodd" d="M0.5 5.84241H5.61645L8.59577 13.5125L11.6136 5.84241H16.5953L9.09402 23.9999H4.08069L6.13403 19.1884L0.5 5.84241Z" fill="#5F01D1"/>
<path fill-rule="evenodd" clip-rule="evenodd" d="M15.5103 12.4613C15.5103 9.0065 17.9404 5.53711 21.7847 5.53711C24.2351 5.53711 25.3451 7.04547 25.345 7.04547V5.84259H29.8075V19.0739H25.345V17.8138C25.345 17.8138 24.3502 19.4314 21.7117 19.4314C18.1747 19.4314 15.5103 16.3491 15.5103 12.4613ZM25.4235 12.4759C25.4235 11.2016 24.508 9.78931 22.7343 9.78931C21.0681 9.78931 20.039 11.0171 20.0388 12.5343C20.0388 14.0305 21.3184 15.195 22.7343 15.195C24.4428 15.195 25.4235 13.8482 25.4235 12.4759Z" fill="#5F01D1"/>
<path fill-rule="evenodd" clip-rule="evenodd" d="M31.3445 19.074V0H36.012V7.09127C36.012 7.09127 37.1206 5.53883 39.4425 5.53883C42.2827 5.53883 43.9468 7.66835 43.9468 10.7113V19.074H39.3133V11.8567C39.3133 10.827 38.8257 9.83216 37.7217 9.83216C36.5977 9.83216 36.012 10.8421 36.012 11.8567V19.0739H31.3445V19.074Z" fill="#5F01D1"/>
<path fill-rule="evenodd" clip-rule="evenodd" d="M44.8811 12.5165C44.8811 8.90736 47.5023 5.53882 51.9048 5.53882C55.5149 5.53882 58.9483 8.02743 58.9483 12.5852C58.9483 16.7511 55.6689 19.4315 51.9215 19.4315C48.055 19.4315 44.8811 16.6236 44.8811 12.5165ZM54.5777 12.5214C54.5777 11.1315 53.5018 9.82812 51.9467 9.82812C50.2657 9.82812 49.3348 11.1057 49.3349 12.5084C49.3349 13.9645 50.4546 15.1691 51.9467 15.1691C53.5751 15.1691 54.5777 13.7068 54.5777 12.5214Z" fill="#5F01D1"/>
<path fill-rule="evenodd" clip-rule="evenodd" d="M59.7004 12.5165C59.7004 8.90736 62.3216 5.53882 66.724 5.53882C70.3341 5.53882 73.7676 8.02743 73.7676 12.5852C73.7676 16.7511 70.4883 19.4315 66.7408 19.4315C62.8743 19.4315 59.7004 16.6236 59.7004 12.5165ZM69.3978 12.5214C69.3978 11.1315 68.3217 9.82812 66.7667 9.82812C65.0856 9.82812 64.1548 11.1057 64.1549 12.5084C64.1549 13.9645 65.2745 15.1691 66.7667 15.1691C68.3951 15.1691 69.3978 13.7068 69.3978 12.5214Z" fill="#5F01D1"/>
<path fill-rule="evenodd" clip-rule="evenodd" d="M77.4505 13.1169C79.1622 13.1169 80.5499 14.5133 80.5499 16.2359C80.5499 17.9584 79.1622 19.3548 77.4505 19.3548C75.7386 19.3548 74.3511 17.9584 74.3511 16.2359C74.3511 14.5133 75.7386 13.1169 77.4505 13.1169Z" fill="#5F01D1"/>
<path fill-rule="evenodd" clip-rule="evenodd" d="M81.5685 11.9713H75.9888L80.9408 0H86.4997L81.5685 11.9713Z" fill="#5F01D1"/>
</svg>
