<svg width="160" height="46" viewBox="0 0 160 46" fill="none" xmlns="http://www.w3.org/2000/svg">
<path d="M53.4432 29.6269V12.126H50.5278V29.6269H53.4432Z" fill="white"/>
<path d="M55.2275 23.7936C55.2275 27.3691 57.6649 29.9096 61.3688 29.9096C65.0727 29.9096 67.5101 27.3691 67.5101 23.7936C67.5101 20.2182 65.0727 17.6777 61.3688 17.6777C57.6649 17.6777 55.2275 20.2182 55.2275 23.7936ZM58.1668 23.7936C58.1668 21.7001 59.4333 20.2417 61.3688 20.2417C63.3044 20.2417 64.5709 21.7001 64.5709 23.7936C64.5709 25.8636 63.3044 27.3456 61.3688 27.3456C59.4333 27.3456 58.1668 25.8636 58.1668 23.7936Z" fill="white"/>
<path d="M68.4907 23.5581C68.4907 26.9454 70.7131 29.3917 74.0346 29.3917C75.7551 29.3917 77.2367 28.7096 77.9775 27.5805V29.5564C77.9775 31.4617 76.7588 32.732 74.7276 32.732C72.9115 32.732 71.6689 31.8616 71.5016 30.3326H68.5624C68.9447 33.3671 71.3105 35.343 74.5603 35.343C78.3837 35.343 80.8211 32.8731 80.8211 29.0389V18.0067H78.2403L78.0731 19.5828C77.3562 18.3596 75.8746 17.6304 74.1302 17.6304C70.7608 17.6304 68.4907 20.1473 68.4907 23.5581ZM71.4538 23.4875C71.4538 21.5587 72.6964 20.1473 74.5364 20.1473C76.5437 20.1473 77.8819 21.5822 77.8819 23.4875C77.8819 25.4164 76.5437 26.8983 74.5364 26.8983C72.7203 26.8983 71.4538 25.4399 71.4538 23.4875Z" fill="white"/>
<path d="M82.2637 23.7936C82.2637 27.3691 84.7011 29.9096 88.405 29.9096C92.1089 29.9096 94.5463 27.3691 94.5463 23.7936C94.5463 20.2182 92.1089 17.6777 88.405 17.6777C84.7011 17.6777 82.2637 20.2182 82.2637 23.7936ZM85.2029 23.7936C85.2029 21.7001 86.4694 20.2417 88.405 20.2417C90.3406 20.2417 91.607 21.7001 91.607 23.7936C91.607 25.8636 90.3406 27.3456 88.405 27.3456C86.4694 27.3456 85.2029 25.8636 85.2029 23.7936Z" fill="white"/>
<path d="M97.7012 15.631C98.6571 15.631 99.4456 14.8783 99.4456 13.9139C99.4456 12.9729 98.6571 12.2202 97.7012 12.2202C96.7215 12.2202 95.9807 12.9729 95.9807 13.9139C95.9807 14.8783 96.7215 15.631 97.7012 15.631ZM96.2436 29.627H99.1589V18.0068H96.2436V29.627Z" fill="white"/>
<path d="M101.713 35.0136H104.557V28.0273C105.298 29.227 106.899 29.9327 108.667 29.9327C112.156 29.9327 114.235 27.2981 114.187 23.6756C114.115 20.0296 111.989 17.6538 108.643 17.6538C106.851 17.6538 105.226 18.4301 104.509 19.7709L104.342 18.0067H101.713V35.0136ZM104.676 23.8168C104.676 21.7232 105.967 20.2648 107.998 20.2648C110.029 20.2648 111.248 21.7468 111.248 23.8168C111.248 25.8868 110.029 27.3452 107.998 27.3452C105.967 27.3452 104.676 25.9103 104.676 23.8168Z" fill="white"/>
<path d="M114.927 26.1455C115.022 28.4507 116.838 29.9327 119.658 29.9327C122.43 29.9327 124.318 28.4743 124.318 26.2161C124.318 24.546 123.266 23.4169 121.331 22.9464L119.252 22.4524C118.368 22.2172 117.77 21.9114 117.77 21.1587C117.77 20.3589 118.416 19.7944 119.467 19.7944C120.566 19.7944 121.283 20.406 121.283 21.4174H123.936C123.84 19.1122 122.096 17.6538 119.539 17.6538C117.006 17.6538 115.118 19.1122 115.118 21.3234C115.118 22.8288 116.002 24.0755 118.272 24.6636L120.327 25.1811C121.092 25.3928 121.57 25.7456 121.57 26.4043C121.57 27.3216 120.686 27.7451 119.61 27.7451C118.32 27.7451 117.579 27.157 117.579 26.1455H114.927Z" fill="white"/>
<path d="M130.366 29.9329C131.967 29.9329 133.496 29.2037 134.189 28.1216L134.38 29.6271H137.104V18.0068H134.189V24.0992C134.189 26.1927 133.377 27.3689 131.465 27.3689C129.983 27.3689 128.956 26.6632 128.956 24.2639V18.0068H126.041V25.2754C126.041 28.051 127.57 29.9329 130.366 29.9329Z" fill="white"/>
<path d="M142.592 29.6269V22.9464C142.592 21.0646 143.715 20.1707 145.101 20.1707C146.487 20.1707 147.395 21.0411 147.395 22.6877V29.6269H150.239V22.9699C150.239 21.0646 151.338 20.1707 152.724 20.1707C154.134 20.1707 155.042 21.0411 155.042 22.6877V29.6269H157.862V22.029C157.862 19.3474 156.356 17.6538 153.489 17.6538C151.697 17.6538 150.287 18.5006 149.713 19.8649C149.068 18.5006 147.778 17.6538 145.818 17.6538C144.432 17.6538 143.189 18.2889 142.497 19.3239L142.353 18.0067H139.677V29.6269H142.592Z" fill="white"/>
<path d="M135.603 40.012C136.037 40.012 136.415 39.652 136.415 39.2245C136.415 38.7858 136.037 38.4258 135.603 38.4258C135.157 38.4258 134.78 38.7858 134.78 39.2245C134.78 39.652 135.157 40.012 135.603 40.012Z" fill="white"/>
<path d="M137.253 37.1096C137.253 38.8308 138.327 39.9896 139.893 39.9896C141.242 39.9896 142.27 39.1908 142.487 37.9983H141.459C141.264 38.6621 140.67 39.0558 139.961 39.0558C138.956 39.0558 138.316 38.2908 138.316 37.0983C138.316 35.8833 138.99 35.1408 139.984 35.1408C140.67 35.1408 141.264 35.5008 141.447 36.2096H142.476C142.293 35.0058 141.333 34.1958 139.996 34.1958C138.373 34.1958 137.253 35.3771 137.253 37.1096Z" fill="white"/>
<path d="M142.893 37.0983C142.893 38.752 144.035 39.9895 145.75 39.9895C147.464 39.9895 148.607 38.752 148.607 37.0983C148.607 35.4445 147.464 34.207 145.75 34.207C144.035 34.207 142.893 35.4445 142.893 37.0983ZM143.978 37.0983C143.978 35.9733 144.675 35.152 145.75 35.152C146.824 35.152 147.521 35.9733 147.521 37.0983C147.521 38.2233 146.824 39.0445 145.75 39.0445C144.675 39.0445 143.978 38.2233 143.978 37.0983Z" fill="white"/>
<path d="M150.598 39.8658V36.5583C150.598 35.692 151.147 35.1295 151.947 35.1295C152.713 35.1295 153.193 35.6133 153.193 36.4795V39.8658H154.244V36.5695C154.244 35.692 154.781 35.1295 155.593 35.1295C156.347 35.1295 156.827 35.6133 156.827 36.4795V39.8658H157.867V36.2545C157.867 34.9833 157.113 34.207 155.833 34.207C154.964 34.207 154.29 34.6233 154.016 35.2983C153.73 34.6233 153.101 34.207 152.187 34.207C151.49 34.207 150.873 34.522 150.564 35.062L150.484 34.3645H149.524V39.8658H150.598Z" fill="white"/>
<path fill-rule="evenodd" clip-rule="evenodd" d="M2.07788 23.9359L2.07989 23.7309L2.08402 23.5259L2.0903 23.3208L2.0987 23.1157L2.10926 22.9107L2.12194 22.7056L2.13678 22.5007L2.15375 22.2957L2.17286 22.0909L2.19412 21.886L2.21752 21.6815L2.24304 21.4769L2.27072 21.2726L2.30054 21.0685L2.33249 20.8645L2.36658 20.6609L2.40281 20.4574L2.44115 20.2543L2.48164 20.0513L2.52426 19.8487L2.56901 19.6465L2.61587 19.4446L2.66486 19.2431L2.71596 19.0419L2.76918 18.8413L2.82451 18.6409L2.88195 18.4411L2.9415 18.2417L3.00314 18.0429L3.06687 17.8446L3.1327 17.6468L3.20061 17.4495L3.27061 17.2529L3.34267 17.0568L3.41681 16.8614L3.49301 16.6665L3.57127 16.4724L3.65158 16.2789L3.73394 16.0862L3.81834 15.8942L3.90477 15.7028L3.99323 15.5123L4.0837 15.3226L4.17619 15.1336L4.27068 14.9454L4.36717 14.7581L4.46564 14.5717L4.5661 14.3861L4.66852 14.2015L4.7729 14.0177L4.87925 13.8348L4.98753 13.653L5.09776 13.472L5.2099 13.2921L5.32397 13.1133L5.43994 12.9354L5.55781 12.7587L5.67757 12.5829L5.7992 12.4083L5.9227 12.2347L6.04805 12.0623L6.17524 11.8911L6.30427 11.7209L6.43512 11.5521L6.56778 11.3843L6.70223 11.2178L6.83847 11.0525L6.97649 10.8885L7.11626 10.7257L7.25779 10.5643L7.40105 10.4041L7.54603 10.2452L7.69272 10.0877L7.84111 9.93158L7.99118 9.77681L8.14292 9.62342L8.29631 9.47143L8.45135 9.32086L8.60801 9.17174L8.76629 9.02407L8.92616 8.87788L9.08762 8.73316L9.25064 8.58996L9.41522 8.44827L9.58134 8.30811L9.74898 8.16951L9.91812 8.03247L10.0888 7.89701L10.2609 7.76315L10.4345 7.63089L10.6094 7.50027L10.7859 7.37127L10.9638 7.24394L11.143 7.11828L11.3236 6.99429L11.5056 6.872L11.6889 6.75141L11.8735 6.63256L12.0595 6.51544L12.2468 6.40008L12.4353 6.28647L12.6251 6.17464L12.8161 6.0646L13.0083 5.95637L13.2017 5.84994L13.3963 5.74535L13.5921 5.64258L13.7889 5.54168L13.987 5.44263L14.1861 5.34546L14.3863 5.25017L14.5877 5.15678L14.79 5.0653L14.9934 4.97574L15.1978 4.8881L15.4032 4.8024L15.6095 4.71866L15.8168 4.63687L16.025 4.55705L16.2341 4.47922L16.4441 4.40337L16.655 4.32952L16.8668 4.25768L17.0793 4.18785L17.2926 4.12005L17.5068 4.05428L17.7217 3.99055L17.9374 3.92888L18.1537 3.86927L18.3709 3.81171L18.5886 3.75622L18.807 3.70283L19.026 3.65153L19.2458 3.6023L19.466 3.5552L19.6868 3.51019L19.9082 3.46729L20.1301 3.42653L20.3526 3.38788L20.5755 3.35137L20.7989 3.31699L21.0227 3.28476L21.2469 3.25468L21.4715 3.22675L21.6966 3.20098L21.9219 3.17735L22.1476 3.15591L22.3736 3.13664L22.5999 3.11953L22.8263 3.1046L24.0444 3.03613L24.1139 8.81318L24.1537 8.81273L24.3219 8.8125L24.4901 8.81389L24.6583 8.8169L24.8268 8.82156L24.9951 8.82784L25.1635 8.83573L25.3319 8.84527L25.5003 8.85645L25.6686 8.86925L25.837 8.88369L26.0053 8.89977L26.1735 8.91748L26.3415 8.93682L26.5095 8.9578L26.6773 8.98041L26.8449 9.00465L27.0124 9.03053L27.1798 9.05804L27.3469 9.08718L27.5138 9.11795L27.6805 9.15035L27.8468 9.18439L28.0131 9.22004L28.1789 9.25732L28.3444 9.29622L28.5097 9.33674L28.6746 9.37888L28.839 9.42264L29.0032 9.468L29.167 9.51498L29.3303 9.56356L29.4933 9.61374L29.6558 9.66553L29.8178 9.71892L29.9794 9.77389L30.1404 9.83046L30.3011 9.8886L30.4611 9.94834L30.6205 10.0096L30.7795 10.0725L30.9378 10.137L31.0955 10.203L31.2527 10.2706L31.4093 10.3397L31.5652 10.4104L31.7204 10.4826L31.875 10.5563L32.0288 10.6316L32.182 10.7084L32.3344 10.7867L32.4861 10.8666L32.6371 10.9479L32.7872 11.0307L32.9366 11.1151L33.0852 11.2009L33.2329 11.2882L33.3798 11.377L33.5259 11.4672L33.671 11.5589L33.8153 11.652L33.9587 11.7466L34.1013 11.8426L34.2428 11.94L34.3834 12.0389L34.5231 12.1391L34.6617 12.2408L34.7994 12.3439L34.9361 12.4483L35.0718 12.5541L35.2063 12.6612L35.3399 12.7697L35.4724 12.8797L35.6038 12.9908L35.7342 13.1033L35.8634 13.2172L35.9914 13.3323L36.1184 13.4488L36.2442 13.5665L36.3689 13.6855L36.4923 13.8058L36.6146 13.9273L36.7356 14.0501L36.8555 14.174L36.9741 14.2992L37.0915 14.4256L37.2075 14.5533L37.3223 14.682L37.4359 14.812L37.5481 14.9431L37.6591 15.0754L37.7687 15.2088L37.8769 15.3433L37.9839 15.4789L38.0894 15.6157L38.1936 15.7535L38.2964 15.8924L38.3978 16.0324L38.4977 16.1735L38.5963 16.3154L38.6935 16.4585L38.7892 16.6026L38.8834 16.7477L38.9761 16.8938L39.0674 17.0407L39.1572 17.1887L39.2455 17.3376L39.3322 17.4875L39.4175 17.6382L39.5013 17.7899L39.5834 17.9424L39.6641 18.0958L39.7431 18.25L39.8206 18.4051L39.8966 18.561L39.971 18.7177L40.0437 18.8752L40.1149 19.0335L40.1844 19.1926L40.2522 19.3524L40.3185 19.5129L40.3831 19.6742L40.4461 19.8361L40.5074 19.9988L40.567 20.162L40.625 20.3261L40.6813 20.4906L40.736 20.6559L40.7888 20.8217L40.8401 20.9881L40.8895 21.1551L40.9373 21.3226L40.9833 21.4907L41.0277 21.6594L41.0702 21.8284L41.1111 21.9981L41.1502 22.1682L41.1875 22.3388L41.2231 22.5097L41.2569 22.6812L41.2889 22.853L41.3192 23.0252L41.3477 23.1978L41.3744 23.3707L41.3993 23.5441L41.4224 23.7176L41.4437 23.8916L41.4632 24.0658L41.4809 24.2402L41.4968 24.4149L41.5109 24.5899L41.5232 24.7651L41.5336 24.9405L41.5422 25.116L41.5491 25.2918L41.5539 25.4676L41.5572 25.6436L41.5584 25.8197L41.5579 25.996L41.5555 26.1723L41.5512 26.3487L41.5452 26.525L41.5373 26.7014L41.5276 26.8778L41.516 27.0543L41.5026 27.2307L41.4873 27.407L41.4702 27.5833L41.4513 27.7595L41.4304 27.9356L41.4077 28.1116L41.3833 28.2874L41.3569 28.4631L41.3288 28.6386L41.2988 28.8139L41.2669 28.989L41.2332 29.1638L41.1977 29.3385L41.1603 29.5129L41.121 29.687L41.08 29.8608L41.0372 30.0343L40.9924 30.2074L40.9458 30.3802L40.8975 30.5526L40.8473 30.7246L40.7954 30.8962L40.7416 31.0676L40.6859 31.2382L40.6285 31.4086L40.5693 31.5784L40.5082 31.7478L40.4455 31.9166L40.3808 32.0849L40.3145 32.2526L40.2463 32.4198L40.1764 32.5864L40.1047 32.7524L40.0312 32.9179L39.956 33.0825L39.879 33.2467L39.8003 33.4101L39.7199 33.5728L39.6376 33.7349L39.5537 33.8962L39.468 34.0569L39.3807 34.2166L39.2916 34.3758L39.2009 34.534L39.1084 34.6915L39.0143 34.8482L38.9185 35.0039L38.821 35.159L38.7218 35.313L38.621 35.4662L38.5187 35.6185L38.4146 35.7699L38.3089 35.9203L38.2016 36.0698L38.0927 36.2183L37.9822 36.3659L37.8701 36.5124L37.7564 36.658L37.6412 36.8024L37.5244 36.9459L37.4061 37.0882L37.2862 37.2295L37.1647 37.3697L37.0418 37.5088L36.9174 37.6468L36.7914 37.7836L36.6641 37.9193L36.5352 38.0538L36.4048 38.1872L36.2731 38.3192L36.1398 38.4501L36.0052 38.5798L35.8692 38.7082L35.7317 38.8355L35.5929 38.9614L35.4526 39.086L35.311 39.2093L35.1682 39.3313L35.0239 39.4521L34.8783 39.5714L34.7314 39.6893L34.5832 39.806L34.4337 39.9213L34.283 40.0351L34.131 40.1475L33.9777 40.2586L33.8233 40.3682L33.6676 40.4763L33.5107 40.5831L33.3527 40.6883L33.1935 40.7921L33.0331 40.8943L32.8716 40.9952L32.7091 41.0944L32.5453 41.1921L32.3804 41.2883L32.2145 41.383L32.0476 41.4761L31.8795 41.5675L31.7106 41.6575L31.5405 41.7457L31.3695 41.8325L31.1975 41.9177L31.0245 42.0011L30.8506 42.0829L30.6757 42.1632L30.4999 42.2418L30.3233 42.3187L30.1457 42.3938L29.9673 42.4674L29.7881 42.5393L29.6081 42.6094L29.4272 42.6779L29.2455 42.7446L29.063 42.8096L28.8798 42.8729L28.6959 42.9344L28.5112 42.9942L28.3258 43.0522L28.1397 43.1084L27.953 43.1629L27.7657 43.2156L27.5776 43.2665L27.389 43.3157L27.1998 43.363L27.01 43.4085L26.8197 43.4523L26.6287 43.4941L26.4374 43.5342L26.2455 43.5724L26.053 43.6088L25.8602 43.6434L25.667 43.676L25.4732 43.7069L25.2791 43.736L25.0845 43.7631L24.8897 43.7883L24.6945 43.8118L24.4989 43.8332L24.303 43.8529L24.1069 43.8707L23.9105 43.8865L23.7138 43.9005L23.5169 43.9126L23.3197 43.9228L23.1225 43.9311L22.925 43.9375L22.7273 43.9419L22.5296 43.9445L22.3317 43.9452L22.1338 43.944L21.9358 43.9408L21.7376 43.9358L21.5395 43.9288L21.3414 43.9199L21.1432 43.9091L20.9452 43.8963L20.7471 43.8817L20.5492 43.8651L20.3512 43.8466L20.1534 43.8263L19.9558 43.804L19.7583 43.7797L19.5609 43.7536L19.3638 43.7254L19.1668 43.6955L18.9701 43.6636L18.7737 43.6298L18.5774 43.594L18.3816 43.5564L18.1859 43.5169L17.9907 43.4754L17.7957 43.432L17.6012 43.3868L17.407 43.3397L17.2133 43.2906L17.0199 43.2396L16.8271 43.1869L16.6347 43.1322L16.4427 43.0756L16.2513 43.0171L16.0604 42.9568L15.8701 42.8946L15.6803 42.8304L15.4911 42.7645L15.3025 42.6968L15.1146 42.6271L14.9272 42.5556L14.7406 42.4823L14.5547 42.4071L14.3694 42.3301L14.1849 42.2514L14.0011 42.1708L13.818 42.0884L13.6358 42.0041L13.4544 41.9181L13.2738 41.8302L13.094 41.7406L12.9151 41.6493L12.7371 41.5561L12.5599 41.4613L12.3836 41.3647L12.2084 41.2663L12.034 41.1662L11.8606 41.0643L11.6883 40.9608L11.5168 40.8555L11.3465 40.7486L11.1772 40.6399L11.0089 40.5296L10.8417 40.4175L10.6757 40.3039L10.5107 40.1886L10.3469 40.0716L10.1842 39.9531L10.0227 39.8328L9.86236 39.711L9.70323 39.5877L9.54532 39.4626L9.38866 39.3361L9.23324 39.208L9.07909 39.0783L8.92622 38.9471L8.77467 38.8142L8.62444 38.6799L8.47554 38.5442L8.32799 38.4068L8.18182 38.2682L8.03703 38.1278L7.89363 37.9862L7.75166 37.8431L7.61112 37.6985L7.47202 37.5526L7.33439 37.4052L7.19824 37.2564L7.06358 37.1062L6.93043 36.9548L6.79881 36.8019L6.66872 36.6478L6.54019 36.4922L6.41322 36.3354L6.28783 36.1773L6.16404 36.018L6.04186 35.8573L5.9213 35.6954L5.80238 35.5323L5.6851 35.3679L5.5695 35.2024L5.45556 35.0357L5.34333 34.8678L5.23279 34.6988L5.12396 34.5287L5.01686 34.3574L4.91151 34.185L4.80791 34.0115L4.70608 33.837L4.60602 33.6614L4.50774 33.4848L4.41127 33.307L4.3166 33.1283L4.22377 32.9488L4.13276 32.7681L4.04361 32.5866L3.9563 32.4041L3.87086 32.2207L3.78729 32.0363L3.70561 31.8512L3.62583 31.665L3.54796 31.4782L3.47199 31.2904L3.39795 31.1018L3.32586 30.9125L3.2557 30.7224L3.18749 30.5315L3.12124 30.34L3.05696 30.1476L2.99466 29.9546L2.93434 29.7609L2.87602 29.5666L2.8197 29.3716L2.76538 29.1759L2.71308 28.9798L2.66281 28.783L2.61456 28.5856L2.56835 28.3877L2.52419 28.1892L2.48207 27.9903L2.44201 27.7908L2.404 27.591L2.36806 27.3906L2.3342 27.1899L2.30241 26.9887L2.27271 26.7871L2.24509 26.5851L2.21957 26.3828L2.19615 26.1802L2.17482 25.9773L2.1556 25.7742L2.13848 25.5707L2.12348 25.367L2.1106 25.163L2.09983 24.9589L2.09119 24.7546L2.08467 24.5501L2.08027 24.3455L2.07802 24.1407L2.07788 23.9359ZM22.211 8.93419L22.1636 4.99649L22.1186 5.00076L21.9121 5.0224L21.706 5.04601L21.5001 5.07162L21.295 5.09913L21.0901 5.12864L20.8855 5.16013L20.6814 5.19356L20.4776 5.22897L20.2748 5.26623L20.0716 5.30557L19.87 5.34669L19.668 5.38988L19.4671 5.4349L19.2663 5.48192L19.0666 5.53075L18.8673 5.58154L18.6685 5.63422L18.4704 5.6888L18.2732 5.74521L18.0763 5.80357L17.8805 5.86374L17.6852 5.92582L17.4909 5.98962L17.2969 6.05543L17.104 6.123L16.912 6.19236L16.7205 6.26361L16.53 6.33661L16.3406 6.41136L16.1518 6.48803L15.9638 6.56644L15.7768 6.64665L15.5908 6.72854L15.4058 6.81221L15.2218 6.89756L15.0384 6.9848L14.8564 7.07364L14.6753 7.1642L14.4952 7.25647L14.3162 7.35045L14.1385 7.44603L13.9614 7.54338L13.7855 7.64243L13.6112 7.74288L13.4374 7.84529L13.2652 7.94907L13.0942 8.05446L12.924 8.16158L12.7552 8.27027L12.5876 8.38054L12.4216 8.49211L12.2562 8.60565L12.0924 8.72041L11.9299 8.83676L11.7686 8.9547L11.6087 9.07404L11.4502 9.19481L11.2927 9.31728L11.137 9.44092L10.9824 9.56618L10.8293 9.69281L10.6775 9.82091L10.5272 9.95023L10.3781 10.0812L10.2307 10.2133L10.0846 10.347L9.9401 10.4817L9.79697 10.618L9.65542 10.7554L9.51532 10.8943L9.37657 11.0345L9.23965 11.1757L9.10426 11.3182L8.97008 11.4623L8.83776 11.6073L8.70706 11.7533L8.57769 11.9009L8.45021 12.0494L8.32415 12.1993L8.19977 12.3501L8.07703 12.5022L7.95589 12.6553L7.83653 12.8094L7.71873 12.9647L7.60256 13.1211L7.48825 13.2783L7.37547 13.4369L7.26449 13.5962L7.15522 13.7566L7.0476 13.918L6.94179 14.0803L6.83771 14.2434L6.73539 14.4075L6.63489 14.5725L6.53604 14.7385L6.43897 14.9054L6.34381 15.0729L6.25036 15.2414L6.15869 15.4107L6.06888 15.5808L5.98084 15.7517L5.89469 15.9232L5.81034 16.0955L5.72784 16.2686L5.64715 16.4425L5.56836 16.6168L5.49137 16.792L5.41625 16.9678L5.34306 17.1441L5.27169 17.3212L5.20219 17.4988L5.13461 17.677L5.06889 17.8558L5.00512 18.0349L4.94319 18.2148L4.88318 18.3951L4.82509 18.576L4.76892 18.7571L4.71463 18.9389L4.6623 19.121L4.61188 19.3035L4.56337 19.4864L4.51679 19.6698L4.47216 19.8533L4.42946 20.0373L4.38869 20.2216L4.34986 20.4062L4.31298 20.591L4.27803 20.7762L4.24503 20.9615L4.21397 21.1471L4.18487 21.3328L4.15771 21.5188L4.13251 21.7049L4.10925 21.8911L4.08794 22.0775L4.06858 22.264L4.05118 22.4506L4.03572 22.6371L4.02221 22.8239L4.01066 23.0106L4.00105 23.1973L3.99339 23.384L3.98768 23.5707L3.98392 23.7573L3.98209 23.9438L3.98221 24.1304L3.98427 24.3167L3.98827 24.5031L3.9942 24.6892L4.00207 24.8751L4.01188 25.061L4.0236 25.2465L4.03725 25.4319L4.05282 25.617L4.07032 25.8019L4.08971 25.9866L4.11103 26.1709L4.13425 26.355L4.15938 26.5387L4.1864 26.7221L4.21533 26.9052L4.24612 27.0877L4.27882 27.27L4.31338 27.4518L4.34982 27.6331L4.38812 27.8142L4.42829 27.9946L4.47032 28.1746L4.51419 28.3541L4.55991 28.533L4.60747 28.7115L4.65684 28.8892L4.70806 29.0666L4.76109 29.2433L4.81593 29.4194L4.87257 29.5949L4.93099 29.7697L4.99121 29.9439L5.05322 30.1173L5.11699 30.2902L5.1825 30.4622L5.24982 30.6336L5.31884 30.8042L5.3896 30.9741L5.46211 31.1431L5.53632 31.3114L5.61226 31.4789L5.68989 31.6456L5.76922 31.8114L5.85021 31.9763L5.93289 32.1404L6.01723 32.3036L6.10322 32.4659L6.19085 32.6273L6.28011 32.7878L6.37099 32.9472L6.46348 33.1057L6.55757 33.2633L6.65326 33.4198L6.75047 33.5754L6.84932 33.7299L6.94967 33.8833L7.0516 34.0358L7.15504 34.1872L7.25999 34.3374L7.36644 34.4866L7.47442 34.6347L7.58384 34.7817L7.69477 34.9275L7.80711 35.0721L7.92095 35.2156L8.03615 35.3579L8.1528 35.499L8.27089 35.639L8.3903 35.7777L8.51113 35.9152L8.6333 36.0514L8.75686 36.1864L8.88173 36.3201L9.00789 36.4525L9.13539 36.5836L9.26417 36.7135L9.39427 36.8421L9.52559 36.9692L9.6582 37.0951L9.792 37.2196L9.92703 37.3428L10.0633 37.4646L10.2008 37.585L10.3393 37.7039L10.4791 37.8215L10.6201 37.9377L10.762 38.0525L10.9053 38.1659L11.0495 38.2777L11.1949 38.3881L11.3413 38.4972L11.4888 38.6046L11.6373 38.7106L11.7868 38.8151L11.9372 38.9181L12.0888 39.0197L12.2412 39.1196L12.3948 39.2181L12.549 39.315L12.7044 39.4103L12.8606 39.5042L13.0176 39.5965L13.1756 39.6872L13.3344 39.7763L13.4941 39.8638L13.6545 39.9497L13.8159 40.0341L13.9778 40.1168L14.1406 40.1981L14.3043 40.2775L14.4686 40.3555L14.6336 40.4317L14.7993 40.5064L14.9657 40.5793L15.1328 40.6507L15.3005 40.7204L15.4689 40.7885L15.6379 40.8548L15.8074 40.9195L15.9776 40.9826L16.1482 41.0439L16.3194 41.1036L16.4913 41.1616L16.6635 41.2179L16.8363 41.2725L17.0094 41.3254L17.1832 41.3766L17.3573 41.4261L17.5318 41.4739L17.7068 41.52L17.882 41.5644L18.0577 41.6071L18.2336 41.648L18.41 41.6872L18.5867 41.7247L18.7635 41.7605L18.9407 41.7945L19.1182 41.8268L19.2959 41.8574L19.4737 41.8863L19.6518 41.9134L19.8301 41.9387L20.0086 41.9624L20.1871 41.9843L20.3658 42.0045L20.5446 42.0229L20.7235 42.0397L20.9025 42.0546L21.0815 42.0679L21.2605 42.0794L21.4396 42.0892L21.6187 42.0972L21.7977 42.1035L21.9767 42.1081L22.1557 42.1109L22.3345 42.112L22.5133 42.1114L22.692 42.109L22.8705 42.105L23.0489 42.0992L23.2272 42.0917L23.4053 42.0825L23.583 42.0716L23.7607 42.059L23.9381 42.0447L24.1153 42.0286L24.2921 42.0108L24.4687 41.9914L24.6449 41.9703L24.8209 41.9475L24.9965 41.923L25.1718 41.8968L25.3467 41.869L25.5212 41.8394L25.6953 41.8082L25.8689 41.7754L26.0421 41.7409L26.2149 41.7047L26.3872 41.667L26.5589 41.6275L26.7302 41.5864L26.9009 41.5438L27.0711 41.4994L27.2407 41.4534L27.4098 41.4059L27.5782 41.3567L27.7461 41.306L27.9133 41.2537L28.08 41.1997L28.2459 41.1443L28.411 41.0872L28.5756 41.0285L28.7395 40.9684L28.9026 40.9066L29.065 40.8434L29.2266 40.7787L29.3874 40.7123L29.5475 40.6445L29.7068 40.5751L29.8651 40.5044L30.0228 40.4321L30.1796 40.3582L30.3354 40.283L30.4906 40.2062L30.6446 40.1281L30.7979 40.0485L30.9503 39.9674L31.1016 39.885L31.252 39.8011L31.4014 39.7159L31.5501 39.6292L31.6974 39.5413L31.8441 39.4518L31.9895 39.3611L32.1339 39.2689L32.2774 39.1754L32.4198 39.0805L32.5609 38.9846L32.701 38.8871L32.8402 38.7884L32.9781 38.6885L33.1151 38.5872L33.2507 38.4848L33.3854 38.3809L33.5187 38.2759L33.6509 38.1698L33.7821 38.0623L33.912 37.9536L34.0405 37.8438L34.168 37.7328L34.2941 37.6207L34.4191 37.5074L34.5428 37.3929L34.6651 37.2775L34.7863 37.1607L34.9062 37.0428L35.0248 36.924L35.1421 36.804L35.2579 36.6831L35.3724 36.5612L35.4859 36.4379L35.5977 36.3139L35.7083 36.1888L35.8174 36.0628L35.9253 35.9356L36.0316 35.8077L36.1366 35.6787L36.2403 35.5487L36.3424 35.418L36.4433 35.2862L36.5425 35.1537L36.6405 35.0201L36.7371 34.8856L36.8319 34.7506L36.9255 34.6145L37.0174 34.4777L37.108 34.34L37.1973 34.2014L37.2847 34.0623L37.3708 33.9224L37.4554 33.7814L37.5383 33.6401L37.6199 33.4979L37.7 33.3549L37.7783 33.2115L37.8553 33.0671L37.9308 32.9221L38.0044 32.7769L38.0767 32.6306L38.1475 32.4837L38.2166 32.3365L38.2841 32.1886L38.3501 32.0401L38.4144 31.8912L38.4773 31.7414L38.5385 31.5913L38.598 31.4411L38.656 31.2897L38.7123 31.1383L38.7671 30.9862L38.8203 30.8339L38.8719 30.681L38.9216 30.5281L38.97 30.374L39.0166 30.2202L39.0616 30.0659L39.105 29.9114L39.1468 29.7562L39.1868 29.6011L39.2253 29.4454L39.2621 29.2894L39.2973 29.1334L39.3309 28.9769L39.3627 28.8205L39.3929 28.6634L39.4215 28.5067L39.4484 28.3494L39.4736 28.1921L39.4972 28.0347L39.5192 27.8769L39.5395 27.7194L39.5582 27.5612L39.5751 27.4036L39.5905 27.2455L39.6041 27.0877L39.6162 26.9294L39.6266 26.7717L39.6353 26.6135L39.6423 26.4552L39.6478 26.2972L39.6516 26.1396L39.6537 25.9814L39.6542 25.8235L39.653 25.6658L39.6502 25.5082L39.6458 25.3506L39.6396 25.1936L39.632 25.036L39.6226 24.8791L39.6116 24.7222L39.599 24.5659L39.5848 24.4092L39.569 24.2532L39.5515 24.0972L39.5324 23.9416L39.5118 23.7861L39.4895 23.6312L39.4655 23.4762L39.4401 23.3218L39.4131 23.168L39.3844 23.0141L39.354 22.8607L39.3222 22.7079L39.2888 22.555L39.254 22.4032L39.2173 22.2512L39.1794 22.1003L39.1396 21.9491L39.0985 21.7991L39.0558 21.6493L39.0115 21.4997L38.9658 21.3511L38.9185 21.203L38.8696 21.0551L38.8194 20.9082L38.7674 20.7614L38.7142 20.6156L38.6594 20.4701L38.6032 20.3255L38.5453 20.1812L38.4861 20.0377L38.4255 19.8952L38.3635 19.7532L38.2997 19.6115L38.235 19.4711L38.1684 19.3307L38.1006 19.1917L38.0314 19.0533L37.9607 18.9153L37.8888 18.7785L37.8153 18.6422L37.7404 18.5066L37.6646 18.3723L37.587 18.2384L37.5082 18.1055L37.4279 17.9733L37.3467 17.8424L37.2636 17.7118L37.1797 17.5824L37.0942 17.4536L37.0075 17.326L36.9198 17.1995L36.8304 17.0735L36.7399 16.9486L36.6483 16.8246L36.5553 16.7018L36.4612 16.5797L36.3658 16.4588L36.2693 16.3387L36.1715 16.2198L36.0726 16.1019L35.9724 15.9849L35.8711 15.869L35.7688 15.7542L35.6654 15.6404L35.5608 15.5277L35.4548 15.4159L35.3483 15.3057L35.2401 15.1961L35.1313 15.088L35.0213 14.9807L34.9103 14.8747L34.7979 14.7696L34.6851 14.6661L34.5708 14.5634L34.4555 14.4619L34.3397 14.3618L34.2227 14.2628L34.1044 14.1647L33.9854 14.0681L33.8656 13.9727L33.7448 13.8785L33.623 13.7854L33.5006 13.6939L33.3769 13.6031L33.2527 13.514L33.1275 13.426L33.0014 13.3392L32.8748 13.2538L32.7468 13.1694L32.6188 13.0868L32.4893 13.0051L32.3594 12.9248L32.2285 12.8457L32.0971 12.768L31.9649 12.6917L31.8323 12.6168L31.6983 12.5429L31.5644 12.4707L31.4294 12.3996L31.2938 12.33L31.1577 12.2617L31.0207 12.1948L30.8833 12.1291L30.7453 12.065L30.6066 12.0021L30.4676 11.9407L30.3279 11.8806L30.1831 11.82L30.047 11.7647L29.9054 11.7087L29.764 11.6543L29.6215 11.6011L29.4789 11.5495L29.3358 11.4992L29.1923 11.4504L29.0482 11.4029L28.904 11.3569L28.7591 11.3123L28.614 11.2692L28.4687 11.2276L28.3229 11.1872L28.1765 11.1483L28.0303 11.1109L27.8838 11.075L27.7364 11.0404L27.5895 11.0073L27.4418 10.9756L27.2942 10.9455L27.146 10.9167L26.9981 10.8894L26.8497 10.8635L26.7015 10.8391L26.5525 10.8161L26.4039 10.7946L26.255 10.7746L26.1059 10.7559L25.9568 10.7388L25.8078 10.7231L25.6586 10.7088L25.5093 10.696L25.3599 10.6847L25.2103 10.6747L25.0613 10.6663L24.9121 10.6593L24.7623 10.6537L24.6135 10.6496L24.4643 10.6469L24.3152 10.6457L24.1659 10.6459L24.136 10.6462L24.183 14.5553L24.2677 14.5549L24.3767 14.5555L24.4857 14.5572L24.5948 14.5599L24.704 14.5637L24.8132 14.5686L24.9223 14.5745L25.0316 14.5815L25.1409 14.5896L25.2502 14.5987L25.3595 14.6089L25.4687 14.6202L25.578 14.6325L25.6872 14.6459L25.7963 14.6603L25.9054 14.676L26.0144 14.6926L26.1233 14.7103L26.2322 14.7291L26.3408 14.7489L26.4494 14.7699L26.5579 14.7919L26.6662 14.8149L26.7744 14.839L26.8823 14.8643L26.9902 14.8906L27.0977 14.9179L27.2052 14.9463L27.3124 14.9758L27.4194 15.0063L27.5262 15.0379L27.6327 15.0706L27.7389 15.1043L27.8448 15.1391L27.9506 15.175L28.056 15.2119L28.1611 15.2498L28.2658 15.2888L28.3703 15.3289L28.4745 15.37L28.5782 15.4122L28.6816 15.4554L28.7847 15.4996L28.8873 15.5449L28.9896 15.5911L29.0914 15.6385L29.1929 15.6869L29.2939 15.7363L29.3945 15.7867L29.4946 15.8381L29.5942 15.8905L29.6935 15.944L29.7922 15.9984L29.8904 16.0538L29.9881 16.1103L30.0854 16.1677L30.182 16.2261L30.2781 16.2856L30.3737 16.346L30.4687 16.4074L30.5632 16.4697L30.6571 16.533L30.7504 16.5973L30.8431 16.6624L30.9351 16.7286L31.0266 16.7958L31.1175 16.8638L31.2075 16.9328L31.2971 17.0028L31.3859 17.0736L31.4741 17.1454L31.5616 17.2181L31.6485 17.2916L31.7346 17.3661L31.82 17.4415L31.9047 17.5177L31.9885 17.5949L32.0718 17.6729L32.1541 17.7517L32.2358 17.8315L32.3167 17.9121L32.3968 17.9936L32.4762 18.0758L32.5547 18.159L32.6324 18.243L32.7093 18.3277L32.7853 18.4132L32.8605 18.4997L32.9349 18.5868L33.0085 18.6748L33.0811 18.7635L33.1529 18.853L33.2238 18.9433L33.2938 19.0343L33.3629 19.1262L33.431 19.2186L33.4983 19.3119L33.5646 19.4059L33.6301 19.5006L33.6945 19.596L33.758 19.6921L33.8205 19.7889L33.8821 19.8864L33.9428 19.9845L34.0025 20.0833L34.061 20.1828L34.1187 20.2828L34.1753 20.3835L34.2309 20.4849L34.2856 20.5868L34.3392 20.6894L34.3916 20.7926L34.4432 20.8964L34.4937 21.0007L34.543 21.1056L34.5913 21.2111L34.6386 21.3171L34.6848 21.4236L34.7299 21.5307L34.774 21.6383L34.8169 21.7464L34.8587 21.8549L34.8994 21.9641L34.939 22.0736L34.9775 22.1836L35.0149 22.2941L35.0511 22.4051L35.0862 22.5163L35.1202 22.6281L35.153 22.7403L35.1847 22.8529L35.2151 22.9659L35.2445 23.0792L35.2727 23.193L35.2997 23.307L35.3256 23.4214L35.3502 23.5362L35.3737 23.6512L35.3959 23.7666L35.417 23.8824L35.4369 23.9984L35.4556 24.1145L35.4731 24.2311L35.4894 24.3478L35.5045 24.4648L35.5184 24.5821L35.531 24.6996L35.5424 24.8173L35.5527 24.9352L35.5616 25.0532L35.5694 25.1714L35.5759 25.2898L35.5812 25.4083L35.5852 25.527L35.588 25.6458L35.5896 25.7647L35.5899 25.8838L35.5889 26.0028L35.5868 26.122L35.5833 26.2412L35.5787 26.3606L35.5727 26.4798L35.5656 26.5992L35.5572 26.7186L35.5475 26.838L35.5365 26.9573L35.5243 27.0767L35.5108 27.1959L35.4962 27.3153L35.4802 27.4344L35.4629 27.5536L35.4444 27.6726L35.4247 27.7916L35.4037 27.9104L35.3814 28.0291L35.3579 28.1478L35.333 28.2662L35.307 28.3845L35.2798 28.5027L35.2512 28.6206L35.2214 28.7383L35.1903 28.8559L35.158 28.9732L35.1244 29.0903L35.0896 29.2071L35.0536 29.3237L35.0163 29.4401L34.9776 29.5562L34.9378 29.6718L34.8968 29.7873L34.8546 29.9025L34.8111 30.0172L34.7663 30.1317L34.7204 30.2458L34.6732 30.3595L34.6248 30.4729L34.5751 30.5858L34.5243 30.6985L34.4723 30.8106L34.419 30.9223L34.3645 31.0336L34.3088 31.1445L34.2519 31.2548L34.1938 31.3648L34.1346 31.4741L34.0741 31.583L34.0125 31.6914L33.9498 31.7993L33.8858 31.9066L33.8206 32.0135L33.7544 32.1196L33.6869 32.2254L33.6182 32.3304L33.5485 32.4349L33.4776 32.5387L33.4056 32.642L33.3324 32.7447L33.2581 32.8467L33.1827 32.948L33.1062 33.0488L33.0286 33.1488L32.9499 33.2481L32.8701 33.3467L32.7892 33.4447L32.7072 33.5418L32.6242 33.6384L32.54 33.7341L32.4548 33.8291L32.3686 33.9233L32.2813 34.0168L32.193 34.1095L32.1038 34.2014L32.0134 34.2924L31.922 34.3827L31.8296 34.4721L31.7363 34.5608L31.6418 34.6485L31.5466 34.7354L31.4502 34.8215L31.3529 34.9066L31.2547 34.9908L31.1555 35.0743L31.0554 35.1567L30.9543 35.2383L30.8524 35.3189L30.7495 35.3986L30.6457 35.4773L30.541 35.5552L30.4355 35.632L30.329 35.7079L30.2218 35.7828L30.1136 35.8567L30.0046 35.9296L29.8947 36.0015L29.7841 36.0724L29.6726 36.1422L29.5604 36.2111L29.4472 36.2788L29.3335 36.3455L29.2188 36.4112L29.1034 36.4757L28.9873 36.5392L28.8704 36.6017L28.7528 36.6631L28.6345 36.7233L28.5154 36.7824L28.3957 36.8404L28.2753 36.8974L28.1541 36.9531L28.0324 37.0078L27.91 37.0612L27.787 37.1136L27.6632 37.1647L27.539 37.2148L27.4141 37.2636L27.2886 37.3113L27.1626 37.3578L27.0359 37.4031L26.9087 37.4472L26.7809 37.4901L26.6527 37.5318L26.5239 37.5722L26.3947 37.6115L26.2649 37.6495L26.1346 37.6862L26.0039 37.7218L25.8727 37.7561L25.7411 37.7891L25.609 37.8209L25.4765 37.8515L25.3435 37.8808L25.2103 37.9088L25.0766 37.9355L24.9426 37.9609L24.8083 37.9852L24.6735 38.0081L24.5385 38.0297L24.4032 38.0499L24.2675 38.0689L24.1315 38.0866L23.9953 38.1031L23.8589 38.1181L23.7221 38.1319L23.5852 38.1444L23.4481 38.1556L23.3107 38.1654L23.1732 38.1739L23.0354 38.181L22.8975 38.1869L22.7594 38.1914L22.6213 38.1945L22.483 38.1964L22.3445 38.1969L22.206 38.1961L22.0675 38.1938L21.9288 38.1903L21.7901 38.1854L21.6514 38.1792L21.5126 38.1716L21.3739 38.1627L21.2351 38.1525L21.0964 38.1408L20.9577 38.1278L20.819 38.1135L20.6804 38.0979L20.5419 38.0809L20.4034 38.0625L20.2651 38.0428L20.1269 38.0217L19.9888 37.9993L19.8509 37.9755L19.7131 37.9504L19.5755 37.9239L19.4382 37.896L19.3009 37.8668L19.164 37.8364L19.0273 37.8045L18.8908 37.7712L18.7546 37.7367L18.6186 37.7008L18.4829 37.6635L18.3476 37.625L18.2125 37.5851L18.0778 37.5439L17.9434 37.5012L17.8095 37.4573L17.6758 37.4121L17.5426 37.3656L17.4098 37.3177L17.2774 37.2686L17.1454 37.218L17.0139 37.1663L16.8828 37.1131L16.7522 37.0587L16.6221 37.0031L16.4925 36.946L16.3634 36.8877L16.2349 36.8282L16.1069 36.7673L15.9794 36.7051L15.8524 36.6417L15.7262 36.5771L15.6005 36.5111L15.4754 36.4439L15.3509 36.3755L15.2271 36.3058L15.1039 36.2349L14.9814 36.1627L14.8595 36.0892L14.7383 36.0147L14.6179 35.9388L14.4982 35.8618L14.3793 35.7835L14.2611 35.704L14.1435 35.6234L14.0269 35.5416L13.9109 35.4585L13.7958 35.3744L13.6814 35.289L13.568 35.2024L13.4553 35.1148L13.3435 35.0259L13.2326 34.936L13.1225 34.8449L13.0133 34.7527L12.905 34.6594L12.7976 34.565L12.6911 34.4694L12.5856 34.3729L12.481 34.2752L12.3773 34.1764L12.2747 34.0766L12.173 33.9758L12.0724 33.8738L11.9726 33.7709L11.8739 33.6669L11.7764 33.562L11.6798 33.4559L11.5842 33.349L11.4897 33.2409L11.3962 33.132L11.304 33.0221L11.2126 32.9111L11.1226 32.7993L11.0335 32.6865L10.9456 32.5728L10.8589 32.4582L10.7732 32.3427L10.6887 32.2262L10.6055 32.1089L10.5233 31.9907L10.4423 31.8716L10.3626 31.7518L10.2841 31.631L10.2068 31.5094L10.1307 31.387L10.0558 31.2637L9.98217 31.1398L9.9098 31.0149L9.83868 30.8894L9.76884 30.763L9.70028 30.636L9.633 30.5081L9.56701 30.3796L9.50234 30.2503L9.43897 30.1203L9.37692 29.9897L9.31621 29.8583L9.25682 29.7263L9.19879 29.5937L9.1421 29.4603L9.08676 29.3265L9.03281 29.192L8.98022 29.0568L8.92901 28.9211L8.87918 28.7848L8.83075 28.6479L8.78373 28.5105L8.73811 28.3726L8.6939 28.2341L8.65112 28.0952L8.60976 27.9557L8.56983 27.8158L8.53133 27.6754L8.4943 27.5344L8.4587 27.3932L8.42455 27.2515L8.39188 27.1093L8.36065 26.9667L8.33091 26.8238L8.30264 26.6806L8.27584 26.5369L8.25054 26.3929L8.22672 26.2486L8.2044 26.104L8.18356 25.959L8.16424 25.8138L8.14642 25.6683L8.13011 25.5225L8.1153 25.3766L8.10202 25.2303L8.09026 25.0839L8.08001 24.9373L8.07128 24.7905L8.06409 24.6435L8.05843 24.4964L8.05431 24.3492L8.05171 24.2018L8.05065 24.0542L8.05114 23.9066L8.05315 23.7589L8.05673 23.6113L8.06183 23.4635L8.06849 23.3156L8.0767 23.1678L8.08644 23.0199L8.09775 22.8721L8.11059 22.7242L8.12499 22.5766L8.14095 22.4288L8.15844 22.2812L8.1775 22.1336L8.1981 21.9861L8.22025 21.8388L8.24396 21.6916L8.26921 21.5445L8.29601 21.3977L8.32436 21.2509L8.35427 21.1043L8.3857 20.9581L8.4187 20.812L8.45324 20.6661L8.48931 20.5205L8.52692 20.3751L8.56608 20.2301L8.60676 20.0853L8.64899 19.9409L8.69275 19.7968L8.73803 19.653L8.78484 19.5095L8.83317 19.3665L8.88302 19.2239L8.9344 19.0816L8.98728 18.9397L9.04167 18.7983L9.09757 18.6574L9.15497 18.5168L9.21387 18.3768L9.27427 18.2373L9.33615 18.0982L9.39952 17.9598L9.46436 17.8218L9.53069 17.6843L9.59848 17.5475L9.66775 17.4113L9.73847 17.2756L9.81065 17.1406L9.88427 17.0061L9.95935 16.8723L10.0359 16.7391L10.1138 16.6066L10.1932 16.4749L10.2739 16.3438L10.3561 16.2134L10.4398 16.0837L10.5247 15.9547L10.6112 15.8266L10.6989 15.6991L10.7881 15.5725L10.8786 15.4466L10.9705 15.3215L11.0638 15.1974L11.1583 15.0739L11.2543 14.9514L11.3515 14.8297L11.4501 14.7089L11.55 14.5891L11.6512 14.47L11.7537 14.3519L11.8575 14.2347L11.9626 14.1185L12.0689 14.0032L12.1765 13.8889L12.2854 13.7756L12.3955 13.6632L12.5068 13.5519L12.6193 13.4416L12.733 13.3322L12.8481 13.224L12.9642 13.1167L13.0815 13.0107L13.2001 12.9056L13.3198 12.8016L13.4405 12.6988L13.5625 12.597L13.6856 12.4964L13.8097 12.3968L13.935 12.2985L14.0615 12.2013L14.1889 12.1053L14.3175 12.0105L14.4471 11.9168L14.5777 11.8243L14.7094 11.7331L14.8421 11.6431L14.9759 11.5543L15.1105 11.4669L15.2463 11.3806L15.3829 11.2956L15.5206 11.2119L15.6592 11.1294L15.7987 11.0483L15.9391 10.9684L16.0805 10.8899L16.2227 10.8127L16.3658 10.7368L16.5098 10.6623L16.6546 10.5892L16.8003 10.5174L16.9468 10.4469L17.0941 10.3779L17.2422 10.3102L17.3911 10.2439L17.5408 10.1791L17.6913 10.1156L17.8425 10.0536L17.9943 9.99298L18.1469 9.93381L18.3002 9.87609L18.4542 9.81982L18.6089 9.76501L18.7642 9.71167L18.9202 9.6598L19.0767 9.60941L19.2338 9.56051L19.3916 9.51309L19.55 9.46719L19.7089 9.42279L19.8683 9.3799L20.0283 9.33853L20.1888 9.29868L20.3499 9.26037L20.5113 9.2236L20.6733 9.18836L20.8357 9.15467L20.9985 9.12254L21.1618 9.09197L21.3255 9.06295L21.4895 9.0355L21.654 9.00963L21.8188 8.98533L21.9839 8.96261L22.1493 8.94147L22.211 8.93419ZM22.2808 14.7321L22.2332 10.7801L22.0976 10.7988L21.9519 10.8203L21.806 10.8432L21.6611 10.8675L21.5159 10.8932L21.3715 10.9202L21.2274 10.9487L21.0838 10.9785L20.9405 11.0096L20.7976 11.0422L20.655 11.0761L20.5131 11.1114L20.3713 11.148L20.2351 11.1846L20.0899 11.2252L19.9498 11.2658L19.8102 11.3077L19.6714 11.3509L19.5329 11.3955L19.395 11.4414L19.2576 11.4886L19.121 11.5369L18.9849 11.5867L18.8494 11.6377L18.7145 11.69L18.5805 11.7435L18.4466 11.7985L18.3137 11.8545L18.1815 11.9118L18.0501 11.9703L17.9191 12.0301L17.7888 12.0912L17.6597 12.1532L17.5308 12.2167L17.4032 12.2813L17.2758 12.3472L17.1497 12.414L17.0238 12.4825L16.8991 12.5516L16.7752 12.6221L16.652 12.6937L16.5297 12.7665L16.4081 12.8405L16.2876 12.9154L16.1678 12.9916L16.049 13.0688L15.9311 13.147L15.814 13.2265L15.6976 13.3071L15.5826 13.3884L15.4682 13.4711L15.3548 13.5548L15.2423 13.6395L15.131 13.7251L15.0203 13.8119L14.9109 13.8995L14.8025 13.9882L14.6948 14.0781L14.5885 14.1686L14.483 14.2604L14.3785 14.353L14.2751 14.4465L14.1728 14.5409L14.0713 14.6364L13.9713 14.7326L13.8722 14.8297L13.774 14.9279L13.677 15.0268L13.5812 15.1267L13.4864 15.2273L13.3928 15.3288L13.3002 15.4312L13.2087 15.5345L13.1187 15.6383L13.0296 15.7431L12.9416 15.8488L12.8548 15.955L12.7693 16.062L12.6847 16.17L12.6015 16.2785L12.5194 16.3878L12.4386 16.4979L12.3589 16.6086L12.2806 16.7199L12.2034 16.832L12.1273 16.9448L12.0525 17.0582L11.9791 17.1722L11.9069 17.2868L11.8358 17.4023L11.766 17.5181L11.6975 17.6345L11.6302 17.7516L11.5643 17.8691L11.4996 17.9873L11.436 18.1061L11.374 18.2252L11.3131 18.345L11.2536 18.4653L11.1953 18.5859L11.1383 18.7072L11.0827 18.8288L11.0283 18.9509L10.9752 19.0734L10.9236 19.1963L10.8732 19.3197L10.8241 19.4435L10.7763 19.5677L10.7299 19.6922L10.6847 19.8171L10.6411 19.9422L10.5986 20.0678L10.5576 20.1937L10.5178 20.3199L10.4794 20.4463L10.4423 20.573L10.4067 20.7L10.3723 20.8273L10.3393 20.9547L10.3077 21.0825L10.2774 21.2104L10.2485 21.3384L10.2209 21.4668L10.1947 21.5953L10.1698 21.7238L10.1463 21.8527L10.1242 21.9815L10.1034 22.1106L10.084 22.2396L10.066 22.3688L10.0493 22.4981L10.034 22.6275L10.02 22.7569L10.0074 22.8863L9.99611 23.0158L9.98622 23.1452L9.97768 23.2748L9.97049 23.4043L9.96467 23.5336L9.9602 23.663L9.95707 23.7923L9.9553 23.9216L9.95488 24.0508L9.9558 24.1799L9.95808 24.3089L9.96169 24.4377L9.96664 24.5664L9.97294 24.695L9.98056 24.8235L9.98952 24.9516L9.99981 25.0798L10.0114 25.2076L10.0244 25.3353L10.0386 25.4627L10.0542 25.5899L10.0711 25.7169L10.0893 25.8436L10.1088 25.9701L10.1297 26.0961L10.1518 26.222L10.1752 26.3476L10.1999 26.4726L10.2259 26.5976L10.2531 26.7221L10.2817 26.8463L10.3115 26.97L10.3426 27.0934L10.375 27.2165L10.4086 27.3391L10.4434 27.4612L10.4795 27.583L10.5168 27.7043L10.5555 27.8252L10.5953 27.9457L10.6363 28.0655L10.6786 28.1849L10.722 28.3038L10.7667 28.4223L10.8126 28.5402L10.8597 28.6575L10.9079 28.7743L10.9574 28.8906L11.008 29.0062L11.0598 29.1213L11.1127 29.2358L11.1668 29.3497L11.2221 29.463L11.2784 29.5757L11.336 29.6877L11.3946 29.7992L11.4543 29.9099L11.5152 30.02L11.5771 30.1294L11.6402 30.2381L11.7043 30.3461L11.7695 30.4534L11.8358 30.5601L11.9031 30.6659L11.9715 30.7711L12.041 30.8756L12.1113 30.9791L12.1829 31.0821L12.2553 31.1841L12.3289 31.2855L12.4034 31.386L12.4789 31.4857L12.5554 31.5846L12.6329 31.6828L12.7112 31.7801L12.7906 31.8765L12.8709 31.9722L12.9522 32.067L13.0343 32.1607L13.1175 32.2539L13.2014 32.346L13.2863 32.4373L13.372 32.5276L13.4587 32.6171L13.5461 32.7057L13.6346 32.7933L13.7237 32.88L13.8138 32.9658L13.9047 33.0507L13.9962 33.1346L14.0888 33.2176L14.182 33.2996L14.276 33.3806L14.3709 33.4606L14.4665 33.5397L14.5628 33.6178L14.6598 33.6948L14.7576 33.7709L14.8561 33.846L14.9553 33.9201L15.0552 33.9932L15.1557 34.0652L15.2569 34.1361L15.3588 34.2061L15.4614 34.275L15.5646 34.3429L15.6684 34.4097L15.7728 34.4755L15.8779 34.5402L15.9834 34.6038L16.0896 34.6664L16.1964 34.7279L16.3036 34.7882L16.4116 34.8476L16.5199 34.9057L16.6288 34.9629L16.7382 35.019L16.8481 35.0738L16.9585 35.1277L17.0695 35.1803L17.1807 35.232L17.2924 35.2824L17.4047 35.3318L17.5173 35.38L17.6303 35.427L17.7438 35.4731L17.8576 35.5178L17.9717 35.5615L18.0863 35.6041L18.2012 35.6455L18.3164 35.6858L18.432 35.7248L18.5479 35.7629L18.6641 35.7996L18.7805 35.8353L18.8973 35.8698L19.0143 35.9031L19.1315 35.9353L19.249 35.9663L19.3667 35.9963L19.4846 36.0249L19.6028 36.0524L19.7211 36.0788L19.8396 36.1041L19.9583 36.1281L20.077 36.1509L20.1961 36.1726L20.3151 36.1932L20.4343 36.2126L20.5536 36.2307L20.673 36.2478L20.7925 36.2636L20.912 36.2784L21.0315 36.2918L21.1511 36.3042L21.2708 36.3154L21.3905 36.3254L21.5102 36.3342L21.6299 36.342L21.7495 36.3484L21.869 36.3538L21.9887 36.358L22.1082 36.3611L22.2276 36.3629L22.347 36.3636L22.4662 36.3632L22.5854 36.3616L22.7045 36.3589L22.8233 36.3551L22.9422 36.35L23.0607 36.3438L23.1792 36.3365L23.2974 36.3281L23.4155 36.3184L23.5334 36.3077L23.6511 36.2958L23.7686 36.2828L23.8858 36.2687L24.0028 36.2535L24.1194 36.2372L24.2359 36.2197L24.3521 36.2011L24.4678 36.1815L24.5834 36.1606L24.6987 36.1387L24.8136 36.1158L24.9283 36.0917L25.0423 36.0665L25.1562 36.0404L25.2697 36.013L25.3828 35.9846L25.4955 35.9552L25.6079 35.9246L25.7198 35.893L25.8312 35.8604L25.9422 35.8267L26.0527 35.7919L26.163 35.7561L26.2726 35.7193L26.3818 35.6815L26.4905 35.6426L26.5986 35.6027L26.7062 35.5618L26.8134 35.5199L26.9201 35.4769L27.0261 35.4331L27.1316 35.3882L27.2366 35.3423L27.3409 35.2955L27.4448 35.2476L27.5481 35.1989L27.6506 35.1493L27.7528 35.0984L27.8541 35.0469L27.955 34.9942L28.0549 34.9408L28.1545 34.8864L28.2534 34.8311L28.3514 34.7748L28.449 34.7177L28.5458 34.6597L28.6418 34.6008L28.7374 34.5409L28.832 34.4804L28.926 34.4188L29.0194 34.3563L29.1119 34.2931L29.2035 34.2292L29.2947 34.1642L29.3849 34.0986L29.4745 34.032L29.5633 33.9646L29.651 33.8966L29.7383 33.8276L29.8248 33.7578L29.9101 33.6875L29.9951 33.616L30.0789 33.5441L30.1619 33.4715L30.2444 33.3977L30.3257 33.3237L30.4063 33.2487L30.4861 33.173L30.5648 33.0967L30.6429 33.0196L30.7201 32.9419L30.7963 32.8635L30.8715 32.7844L30.946 32.7046L31.0197 32.6242L31.0922 32.5433L31.1641 32.4615L31.2349 32.3793L31.3047 32.2965L31.3738 32.2128L31.4417 32.1289L31.5088 32.0442L31.575 31.959L31.6403 31.8731L31.7045 31.7867L31.7676 31.7L31.8301 31.6124L31.8914 31.5245L31.9517 31.436L32.0113 31.347L32.0695 31.2577L32.127 31.1677L32.1834 31.0772L32.2389 30.9863L32.2933 30.895L32.3469 30.8031L32.3991 30.7111L32.4507 30.6183L32.5011 30.5253L32.5503 30.4319L32.5988 30.3378L32.646 30.244L32.6924 30.149L32.7375 30.0544L32.782 29.9588L32.825 29.8634L32.8673 29.7672L32.9084 29.671L32.9484 29.5745L32.9875 29.4775L33.0255 29.3803L33.0623 29.283L33.0983 29.1851L33.1331 29.0871L33.1668 28.989L33.1995 28.8905L33.2312 28.7917L33.2619 28.6928L33.2914 28.5938L33.3199 28.4944L33.3472 28.395L33.3736 28.2952L33.3988 28.1954L33.423 28.0956L33.4462 27.9953L33.4682 27.8951L33.4893 27.7947L33.5092 27.6944L33.5281 27.5939L33.5458 27.4929L33.5626 27.3924L33.5782 27.2915L33.5928 27.1906L33.6063 27.0899L33.6188 26.9889L33.6302 26.8877L33.6405 26.7871L33.6498 26.6858L33.658 26.5848L33.6651 26.4841L33.6712 26.3831L33.6762 26.2822L33.6802 26.1815L33.6831 26.0804L33.6848 25.98L33.6857 25.8792L33.6854 25.7786L33.6841 25.6781L33.6817 25.578L33.6783 25.4776L33.6738 25.3775L33.6683 25.2778L33.6618 25.1778L33.6542 25.0781L33.6457 24.9788L33.636 24.8793L33.6253 24.7804L33.6136 24.6813L33.6009 24.5827L33.5872 24.4843L33.5724 24.3859L33.5566 24.2879L33.5399 24.1902L33.5221 24.0928L33.5033 23.9956L33.4835 23.8983L33.4627 23.8018L33.441 23.7056L33.4182 23.6094L33.3945 23.5135L33.3698 23.4184L33.3441 23.323L33.3175 23.2283L33.2898 23.1338L33.2613 23.04L33.2318 22.9462L33.2012 22.8528L33.1698 22.76L33.1375 22.6676L33.1041 22.5752L33.07 22.4837L33.0348 22.3924L32.9987 22.3017L32.9617 22.2111L32.9238 22.121L32.885 22.0318L32.8453 21.9426L32.8047 21.8541L32.7633 21.7662L32.7209 21.6784L32.6776 21.5912L32.6336 21.5047L32.5885 21.4185L32.5428 21.3331L32.4962 21.2482L32.4486 21.1635L32.4004 21.0797L32.3511 20.9962L32.3012 20.9135L32.2502 20.8311L32.1988 20.7496L32.1462 20.6683L32.0932 20.5879L32.0391 20.508L31.9844 20.4287L31.9287 20.3499L31.8724 20.2718L31.8154 20.1945L31.7575 20.1175L31.699 20.0414L31.6395 19.9658L31.5797 19.8911L31.5188 19.8167L31.4573 19.7432L31.3951 19.6703L31.3322 19.598L31.2687 19.5266L31.2043 19.4556L31.1395 19.3856L31.0738 19.316L31.0078 19.2475L30.9406 19.1793L30.8732 19.1121L30.8048 19.0453L30.7361 18.9795L30.6668 18.9145L30.5967 18.8501L30.526 18.7863L30.4547 18.7235L30.3829 18.6615L30.3103 18.5999L30.2377 18.5396L30.164 18.4795L30.0899 18.4205L30.0153 18.3623L29.9401 18.3046L29.8645 18.248L29.7885 18.1922L29.7116 18.137L29.6342 18.0825L29.5568 18.0292L29.4784 17.9763L29.4001 17.9247L29.321 17.8736L29.2414 17.8232L29.1613 17.7737L29.0811 17.7253L29.0001 17.6774L28.9189 17.6306L28.837 17.5843L28.7553 17.5392L28.6728 17.4948L28.5899 17.4512L28.5067 17.4084L28.4232 17.3667L28.3393 17.3256L28.2549 17.2854L28.1705 17.2461L28.0858 17.2078L28.0002 17.17L27.915 17.1334L27.8292 17.0976L27.7429 17.0625L27.6566 17.0285L27.5701 16.9953L27.4833 16.963L27.3959 16.9314L27.3087 16.9009L27.2211 16.8712L27.1332 16.8423L27.0454 16.8144L26.9572 16.7874L26.8689 16.7612L26.78 16.7359L26.6914 16.7115L26.6026 16.688L26.5135 16.6654L26.4244 16.6436L26.3348 16.6228L26.2455 16.6028L26.1561 16.5838L26.0663 16.5656L25.9764 16.5482L25.8869 16.5319L25.7968 16.5164L25.707 16.5018L25.6167 16.488L25.5269 16.4752L25.4364 16.4631L25.3466 16.4522L25.2564 16.4419L25.1662 16.4326L25.0761 16.4242L24.9858 16.4167L24.896 16.41L24.8056 16.4043L24.7156 16.3994L24.6258 16.3954L24.5354 16.3922L24.4458 16.39L24.356 16.3887L24.2663 16.3881L24.205 16.3883L24.2515 20.2496L24.2792 20.2497L24.3308 20.2504L24.3824 20.2516L24.4341 20.2532L24.4859 20.2556L24.5377 20.2583L24.5896 20.2616L24.6415 20.2655L24.6935 20.2699L24.7455 20.2748L24.7976 20.2802L24.8496 20.2862L24.9018 20.2927L24.9538 20.2998L25.006 20.3073L25.0581 20.3155L25.1103 20.3242L25.1623 20.3334L25.2145 20.3432L25.2666 20.3535L25.3186 20.3644L25.3707 20.3758L25.4227 20.3877L25.4746 20.4002L25.5265 20.4132L25.5783 20.4268L25.6301 20.4409L25.6818 20.4555L25.7335 20.4708L25.785 20.4865L25.8364 20.5029L25.8879 20.5198L25.9391 20.5371L25.9903 20.555L26.0413 20.5736L26.0922 20.5926L26.143 20.6121L26.1937 20.6323L26.2442 20.6529L26.2946 20.6741L26.3449 20.6959L26.395 20.7182L26.4449 20.741L26.4947 20.7644L26.5443 20.7882L26.5937 20.8127L26.6429 20.8377L26.6919 20.8632L26.7407 20.8893L26.7894 20.9159L26.8378 20.943L26.886 20.9706L26.9339 20.9987L26.9817 21.0274L27.0292 21.0567L27.0764 21.0865L27.1234 21.1166L27.1701 21.1474L27.2167 21.1788L27.2629 21.2106L27.3088 21.2429L27.3546 21.2758L27.4 21.3091L27.445 21.343L27.4898 21.3773L27.5344 21.4122L27.5786 21.4476L27.6224 21.4834L27.666 21.5198L27.7093 21.5566L27.7522 21.5939L27.7948 21.6318L27.8369 21.6701L27.8788 21.7089L27.9203 21.7482L27.9615 21.7879L28.0022 21.8281L28.0427 21.8688L28.0828 21.91L28.1223 21.9516L28.1616 21.9937L28.2005 22.0363L28.239 22.0792L28.2771 22.1227L28.3147 22.1666L28.352 22.2108L28.3887 22.2556L28.4251 22.3008L28.4611 22.3465L28.4966 22.3926L28.5317 22.439L28.5663 22.486L28.6004 22.5332L28.6341 22.581L28.6674 22.6291L28.7001 22.6777L28.7324 22.7266L28.7643 22.776L28.7956 22.8257L28.8265 22.8758L28.8568 22.9263L28.8866 22.9772L28.916 23.0284L28.9448 23.0801L28.9732 23.132L29.001 23.1844L29.0282 23.237L29.055 23.29L29.0812 23.3434L29.1069 23.3972L29.132 23.4512L29.1566 23.5056L29.1807 23.5603L29.2042 23.6153L29.2272 23.6707L29.2495 23.7263L29.2713 23.7823L29.2926 23.8385L29.3133 23.8951L29.3334 23.9519L29.3529 24.009L29.3718 24.0664L29.3901 24.1241L29.4079 24.1819L29.425 24.2401L29.4415 24.2986L29.4575 24.3572L29.4729 24.4161L29.4875 24.4754L29.5017 24.5348L29.5152 24.5943L29.5281 24.6542L29.5403 24.7143L29.5519 24.7744L29.5629 24.8349L29.5733 24.8956L29.583 24.9563L29.5921 25.0174L29.6005 25.0786L29.6083 25.1399L29.6154 25.2015L29.622 25.2632L29.6278 25.3249L29.633 25.3869L29.6376 25.4491L29.6414 25.5113L29.6446 25.5737L29.6471 25.6362L29.6491 25.6987L29.6502 25.7614L29.6509 25.8242L29.6507 25.887L29.6499 25.95L29.6485 26.0131L29.6463 26.0762L29.6435 26.1394L29.64 26.2026L29.6358 26.266L29.6309 26.3293L29.6253 26.3927L29.6191 26.4561L29.6122 26.5195L29.6045 26.5829L29.5962 26.6464L29.5873 26.7099L29.5776 26.7733L29.5672 26.8367L29.5561 26.9001L29.5444 26.9636L29.5319 27.027L29.5188 27.0903L29.5049 27.1536L29.4903 27.2168L29.4752 27.28L29.4592 27.3431L29.4426 27.4062L29.4253 27.4691L29.4072 27.532L29.3885 27.5947L29.3691 27.6574L29.3491 27.72L29.3283 27.7823L29.3068 27.8447L29.2846 27.9069L29.2617 27.9689L29.2381 28.0309L29.2139 28.0925L29.1889 28.1542L29.1633 28.2156L29.137 28.2768L29.11 28.3379L29.0822 28.3988L29.0539 28.4595L29.0248 28.5199L28.995 28.5803L28.9646 28.6403L28.9335 28.7001L28.9017 28.7598L28.8692 28.8191L28.836 28.8782L28.8022 28.9371L28.7677 28.9957L28.7325 29.0541L28.6968 29.1121L28.6602 29.17L28.6231 29.2275L28.5853 29.2846L28.5468 29.3416L28.5077 29.3982L28.4679 29.4545L28.4275 29.5105L28.3863 29.5661L28.3447 29.6214L28.3023 29.6763L28.2593 29.731L28.2156 29.7853L28.1714 29.8392L28.1265 29.8926L28.081 29.9458L28.0349 29.9986L27.988 30.051L27.9406 30.1029L27.8926 30.1546L27.844 30.2057L27.7949 30.2564L27.745 30.3068L27.6946 30.3568L27.6436 30.4062L27.5921 30.4552L27.5398 30.5038L27.487 30.5519L27.4337 30.5996L27.3798 30.6468L27.3254 30.6935L27.2703 30.7398L27.2147 30.7855L27.1585 30.8308L27.1018 30.8756L27.0445 30.9198L26.9868 30.9635L26.9285 31.0068L26.8696 31.0496L26.8102 31.0917L26.7503 31.1333L26.6899 31.1745L26.6289 31.215L26.5675 31.2551L26.5056 31.2945L26.4432 31.3335L26.3802 31.3718L26.3168 31.4096L26.2529 31.4467L26.1886 31.4833L26.1238 31.5193L26.0585 31.5547L25.9928 31.5896L25.9266 31.6237L25.86 31.6574L25.7929 31.6903L25.7255 31.7227L25.6575 31.7544L25.5892 31.7855L25.5205 31.816L25.4513 31.8457L25.3818 31.875L25.3119 31.9035L25.2415 31.9313L25.1708 31.9586L25.0997 31.9851L25.0282 32.011L24.9564 32.0363L24.8843 32.0608L24.8118 32.0847L24.739 32.1079L24.6658 32.1303L24.5924 32.1521L24.5185 32.1732L24.4444 32.1936L24.37 32.2133L24.2953 32.2322L24.2203 32.2505L24.145 32.268L24.0695 32.2849L23.9936 32.301L23.9176 32.3164L23.8412 32.331L23.7646 32.3449L23.6879 32.3581L23.6108 32.3706L23.5336 32.3823L23.4561 32.3932L23.3785 32.4034L23.3005 32.413L23.2225 32.4216L23.1443 32.4295L23.0658 32.4368L22.9873 32.4431L22.9085 32.4488L22.8296 32.4537L22.7506 32.4578L22.6714 32.4612L22.5922 32.4638L22.5127 32.4655L22.4332 32.4665L22.3536 32.4668L22.2739 32.4663L22.1941 32.465L22.1142 32.4629L22.0343 32.46L21.9543 32.4563L21.8742 32.4518L21.7941 32.4466L21.714 32.4406L21.6339 32.4337L21.5537 32.426L21.4736 32.4177L21.3934 32.4083L21.3133 32.3983L21.2331 32.3875L21.153 32.3759L21.0729 32.3635L20.9929 32.3503L20.9129 32.3362L20.833 32.3214L20.7531 32.3059L20.6733 32.2894L20.5936 32.2722L20.514 32.2541L20.4346 32.2353L20.3551 32.2158L20.2758 32.1953L20.1967 32.174L20.1177 32.1521L20.0389 32.1292L19.9602 32.1056L19.8816 32.0812L19.8033 32.056L19.725 32.03L19.6471 32.0032L19.5693 31.9756L19.4917 31.9472L19.4144 31.9181L19.3372 31.8881L19.2603 31.8573L19.1836 31.8258L19.1073 31.7935L19.0311 31.7603L18.9552 31.7265L18.8796 31.6918L18.8042 31.6563L18.7292 31.6201L18.6545 31.5831L18.5801 31.5454L18.506 31.5068L18.4323 31.4675L18.3588 31.4275L18.2858 31.3866L18.2129 31.345L18.1406 31.3027L18.0686 31.2596L17.9971 31.2157L17.9258 31.1712L17.8549 31.1258L17.7845 31.0797L17.7145 31.0329L17.6449 30.9853L17.5758 30.9371L17.507 30.8881L17.4387 30.8383L17.3709 30.7878L17.3035 30.7367L17.2366 30.6847L17.1702 30.6322L17.1043 30.5789L17.0388 30.5249L16.9739 30.4702L16.9095 30.4147L16.8456 30.3587L16.7822 30.3019L16.7193 30.2445L16.657 30.1864L16.5953 30.1276L16.534 30.0681L16.4734 30.008L16.4134 29.9473L16.3538 29.8858L16.2949 29.8238L16.2366 29.761L16.179 29.6977L16.1218 29.6338L16.0654 29.5692L16.0095 29.504L15.9542 29.4381L15.8997 29.3717L15.8458 29.3047L15.7925 29.2371L15.7398 29.1689L15.6879 29.1L15.6366 29.0307L15.586 28.9607L15.5361 28.8902L15.4868 28.8191L15.4383 28.7475L15.3905 28.6753L15.3434 28.6026L15.297 28.5293L15.2514 28.4556L15.2064 28.3813L15.1622 28.3065L15.1188 28.2311L15.0761 28.1553L15.0341 28.079L14.993 28.0022L14.9526 27.9249L14.9129 27.8472L14.874 27.7691L14.836 27.6903L14.7987 27.6112L14.7622 27.5317L14.7266 27.4517L14.6917 27.3712L14.6576 27.2904L14.6244 27.2091L14.592 27.1275L14.5604 27.0454L14.5297 26.9629L14.4998 26.8801L14.4707 26.7969L14.4425 26.7134L14.4151 26.6294L14.3886 26.5452L14.363 26.4606L14.3381 26.3756L14.3142 26.2903L14.2913 26.2047L14.269 26.1188L14.2479 26.0326L14.2275 25.9461L14.208 25.8593L14.1894 25.7723L14.1717 25.6849L14.1549 25.5974L14.139 25.5095L14.124 25.4215L14.11 25.3332L14.0968 25.2447L14.0845 25.156L14.0733 25.067L14.0629 24.9779L14.0535 24.8885L14.0449 24.7991L14.0374 24.7094L14.0307 24.6196L14.025 24.5296L14.0202 24.4395L14.0164 24.3493L14.0135 24.2588L14.0116 24.1683L14.0107 24.0778L14.0106 23.9871L14.0115 23.8963L14.0135 23.8055L14.0163 23.7146L14.0201 23.6235L14.0249 23.5325L14.0306 23.4415L14.0373 23.3504L14.0449 23.2592L14.0536 23.1681L14.0631 23.077L14.0737 22.9859L14.0853 22.8947L14.0977 22.8037L14.1112 22.7127L14.1257 22.6217L14.1412 22.5307L14.1575 22.4398L14.1748 22.349L14.1932 22.2583L14.2125 22.1677L14.2328 22.0772L14.254 21.9868L14.2762 21.8966L14.2994 21.8063L14.3236 21.7163L14.3487 21.6266L14.3748 21.5369L14.4018 21.4473L14.4299 21.358L14.4589 21.2688L14.4888 21.1798L14.5198 21.0912L14.5516 21.0026L14.5845 20.9143L14.6182 20.8263L14.653 20.7385L14.6888 20.651L14.7255 20.5636L14.7631 20.4767L14.8016 20.39L14.8412 20.3036L14.8816 20.2174L14.9231 20.1316L14.9654 20.0462L15.0087 19.961L15.0528 19.8763L15.098 19.7919L15.1441 19.7078L15.1911 19.6242L15.239 19.5408L15.2879 19.4579L15.3376 19.3754L15.3883 19.2933L15.4399 19.2116L15.4924 19.1304L15.5458 19.0495L15.6001 18.9691L15.6552 18.8892L15.7113 18.8098L15.7683 18.7308L15.8261 18.6524L15.8848 18.5743L15.9444 18.4968L16.0048 18.4199L16.0661 18.3434L16.1284 18.2675L16.1914 18.192L16.2552 18.1173L16.32 18.0429L16.3855 17.9692L16.4519 17.8961L16.5191 17.8234L16.5872 17.7515L16.6561 17.6802L16.7258 17.6094L16.7962 17.5392L16.8675 17.4697L16.9396 17.4007L17.0124 17.3325L17.0861 17.2649L17.1605 17.1979L17.2356 17.1317L17.3115 17.066L17.3883 17.0012L17.4657 16.9368L17.544 16.8733L17.6228 16.8105L17.7025 16.7483L17.7828 16.687L17.864 16.6263L17.9457 16.5664L18.0282 16.5072L18.1114 16.4488L18.1953 16.3911L18.2799 16.3341L18.3652 16.278L18.451 16.2227L18.5375 16.1682L18.6248 16.1144L18.7126 16.0614L18.8011 16.0092L18.8901 15.9579L18.9799 15.9074L19.0702 15.8577L19.1611 15.8088L19.2526 15.7608L19.3447 15.7137L19.4374 15.6673L19.5306 15.6219L19.6244 15.5773L19.7187 15.5337L19.8136 15.4908L19.9089 15.4489L20.0048 15.4079L20.1014 15.3677L20.1983 15.3284L20.2956 15.2901L20.3936 15.2527L20.492 15.2162L20.5908 15.1806L20.6901 15.146L20.79 15.1123L20.8901 15.0796L20.9908 15.0478L21.0918 15.0169L21.1933 14.987L21.2951 14.9581L21.3974 14.9301L21.5 14.9031L21.603 14.8771L21.7064 14.852L21.81 14.828L21.9141 14.805L22.0185 14.7829L22.1232 14.7618L22.2281 14.7418L22.2808 14.7321ZM23.5711 22.1574L22.3736 22.4391L22.3032 16.5998L22.2468 16.6123L22.1618 16.6321L22.0769 16.6526L21.9927 16.6739L21.9085 16.696L21.8249 16.7189L21.7413 16.7427L21.6585 16.7671L21.5754 16.7924L21.4935 16.8183L21.4113 16.8452L21.3296 16.8728L21.2484 16.9011L21.1674 16.9302L21.0872 16.96L21.0071 16.9906L20.9274 17.0219L20.8483 17.0539L20.7692 17.0869L20.6912 17.1202L20.6132 17.1546L20.5359 17.1895L20.4587 17.2252L20.3822 17.2616L20.3059 17.2987L20.2305 17.3364L20.1554 17.3749L20.0808 17.414L20.0067 17.4538L19.9331 17.4943L19.8599 17.5355L19.7876 17.5773L19.7152 17.6199L19.6437 17.663L19.5728 17.7067L19.5024 17.7511L19.4324 17.7962L19.3631 17.842L19.2943 17.8883L19.226 17.9351L19.1585 17.9826L19.0913 18.0307L19.0248 18.0795L18.9589 18.1288L18.8936 18.1787L18.8289 18.2291L18.7649 18.2801L18.7014 18.3317L18.6384 18.384L18.5763 18.4366L18.5147 18.4898L18.4537 18.5435L18.3933 18.5978L18.3336 18.6528L18.2746 18.7081L18.2162 18.7638L18.1583 18.8203L18.1013 18.8771L18.0448 18.9344L17.9892 18.9921L17.9339 19.0506L17.8795 19.1092L17.8258 19.1684L17.7727 19.2282L17.7205 19.2881L17.6687 19.3487L17.6179 19.4095L17.5675 19.4711L17.5181 19.5327L17.4692 19.595L17.421 19.6577L17.3737 19.7206L17.3269 19.7839L17.281 19.8476L17.2357 19.9118L17.1911 19.9763L17.1474 20.0412L17.1044 20.1063L17.0621 20.1717L17.0204 20.2377L16.9797 20.3038L16.9395 20.3704L16.9002 20.437L16.8616 20.5042L16.8236 20.5716L16.7867 20.6392L16.7503 20.7071L16.7148 20.7753L16.6799 20.844L16.6459 20.9125L16.6125 20.9816L16.58 21.0508L16.5483 21.1202L16.5173 21.1898L16.487 21.2598L16.4576 21.3298L16.4289 21.4001L16.4011 21.4706L16.3739 21.5413L16.3476 21.6119L16.322 21.683L16.2972 21.7542L16.2732 21.8255L16.2499 21.8969L16.2275 21.9686L16.2058 22.0402L16.185 22.1119L16.1648 22.1839L16.1454 22.256L16.1269 22.3281L16.1092 22.4003L16.0921 22.4727L16.0759 22.5451L16.0605 22.6176L16.0459 22.69L16.032 22.7625L16.0189 22.8352L16.0066 22.9077L15.9951 22.9803L15.9843 23.0532L15.9743 23.1257L15.9652 23.1985L15.9567 23.271L15.949 23.3437L15.9422 23.4165L15.9361 23.489L15.9308 23.5617L15.9262 23.6343L15.9223 23.7067L15.9193 23.7791L15.917 23.8514L15.9156 23.9238L15.9148 23.996L15.9149 24.0681L15.9156 24.1401L15.9172 24.2121L15.9194 24.2839L15.9225 24.3556L15.9262 24.4272L15.9308 24.4986L15.9361 24.5699L15.9421 24.641L15.9488 24.712L15.9563 24.783L15.9645 24.8535L15.9735 24.9241L15.9831 24.9943L15.9936 25.0646L16.0047 25.1344L16.0166 25.2042L16.0292 25.2738L16.0425 25.343L16.0565 25.4122L16.0711 25.4809L16.0866 25.5496L16.1027 25.618L16.1195 25.6862L16.137 25.7539L16.1553 25.8217L16.1741 25.8889L16.1936 25.9561L16.2139 26.0227L16.2348 26.0893L16.2564 26.1555L16.2786 26.2213L16.3016 26.287L16.3252 26.3523L16.3494 26.4171L16.3742 26.4818L16.3998 26.5462L16.4259 26.6101L16.4527 26.6737L16.4801 26.7369L16.5082 26.7999L16.5369 26.8625L16.5662 26.9247L16.5961 26.9865L16.6266 27.0478L16.6578 27.1091L16.6894 27.1696L16.7217 27.2299L16.7547 27.2898L16.7882 27.3492L16.8223 27.4083L16.8569 27.467L16.8921 27.5251L16.928 27.583L16.9642 27.6404L17.0011 27.6973L17.0386 27.7538L17.0765 27.8099L17.1151 27.8656L17.154 27.9205L17.1936 27.9753L17.2337 28.0295L17.2742 28.0832L17.3155 28.1366L17.357 28.1894L17.3991 28.2417L17.4417 28.2935L17.4848 28.345L17.5283 28.3957L17.5724 28.4461L17.6169 28.496L17.6618 28.5453L17.7074 28.5942L17.7531 28.6424L17.7994 28.6903L17.8462 28.7376L17.8933 28.7843L17.9409 28.8305L17.9889 28.8763L18.0374 28.9215L18.0862 28.9661L18.1354 29.0101L18.1851 29.0537L18.2351 29.0967L18.2855 29.1391L18.3362 29.181L18.3873 29.2223L18.4388 29.2632L18.4908 29.3033L18.5428 29.3429L18.5954 29.382L18.6483 29.4206L18.7015 29.4585L18.755 29.4958L18.8088 29.5326L18.8629 29.5688L18.9174 29.6044L18.972 29.6394L19.027 29.6739L19.0825 29.7078L19.1379 29.741L19.1937 29.7737L19.2499 29.8058L19.3061 29.8372L19.3627 29.8681L19.4197 29.8985L19.4767 29.9281L19.534 29.9572L19.5914 29.9856L19.6493 30.0135L19.7071 30.0407L19.7654 30.0674L19.8236 30.0935L19.882 30.1189L19.9408 30.1437L19.9998 30.168L20.0587 30.1916L20.1179 30.2146L20.1772 30.2369L20.2368 30.2587L20.2963 30.2798L20.3562 30.3004L20.416 30.3202L20.4759 30.3396L20.5361 30.3583L20.5963 30.3764L20.6566 30.3938L20.7169 30.4107L20.7775 30.4268L20.8381 30.4425L20.8987 30.4574L20.9593 30.4718L21.02 30.4855L21.0808 30.4986L21.1417 30.5112L21.2026 30.5231L21.2634 30.5344L21.3243 30.545L21.3853 30.5552L21.4463 30.5646L21.5073 30.5735L21.5681 30.5817L21.6291 30.5892L21.6899 30.5963L21.7509 30.6027L21.8118 30.6084L21.8727 30.6137L21.9335 30.6183L21.9941 30.6223L22.0549 30.6256L22.1155 30.6284L22.176 30.6306L22.2366 30.6322L22.2969 30.6332L22.3572 30.6336L22.4174 30.6334L22.4775 30.6327L22.5376 30.6313L22.5976 30.6293L22.6572 30.6269L22.7168 30.6237L22.7766 30.62L22.8358 30.6157L22.8951 30.6109L22.9541 30.6055L23.0132 30.5996L23.072 30.5929L23.1305 30.5858L23.1891 30.5782L23.2472 30.5699L23.3052 30.5611L23.3633 30.5518L23.4209 30.5419L23.4784 30.5314L23.5358 30.5204L23.5929 30.5088L23.6496 30.4968L23.7061 30.4842L23.7627 30.471L23.8189 30.4573L23.8748 30.4432L23.9305 30.4284L23.9858 30.4132L24.0412 30.3974L24.0961 30.3811L24.1505 30.3643L24.2052 30.3469L24.2592 30.3291L24.313 30.3109L24.3665 30.2921L24.4197 30.2728L24.4728 30.253L24.5255 30.2327L24.5777 30.2119L24.6298 30.1908L24.6815 30.169L24.733 30.1468L24.784 30.1242L24.8349 30.1011L24.8853 30.0776L24.9352 30.0535L24.9851 30.0291L25.0343 30.0042L25.0835 29.9789L25.1322 29.953L25.1805 29.9268L25.2284 29.9002L25.2761 29.8731L25.3234 29.8456L25.3701 29.8177L25.4166 29.7893L25.4627 29.7606L25.5084 29.7316L25.5538 29.702L25.5987 29.6721L25.6433 29.6418L25.6874 29.6111L25.7311 29.5801L25.7744 29.5486L25.8173 29.5168L25.8598 29.4846L25.9019 29.4521L25.9436 29.4191L25.9848 29.386L26.0256 29.3524L26.0659 29.3185L26.1058 29.2842L26.1454 29.2497L26.1845 29.2147L26.2231 29.1795L26.2612 29.144L26.299 29.1081L26.3363 29.0719L26.3732 29.0355L26.4095 28.9988L26.4454 28.9617L26.4808 28.9244L26.5159 28.8867L26.5503 28.849L26.5845 28.8107L26.618 28.7722L26.6511 28.7337L26.6839 28.6946L26.7159 28.6556L26.7477 28.6161L26.779 28.5765L26.8096 28.5366L26.84 28.4964L26.8697 28.4562L26.899 28.4155L26.9279 28.3747L26.9561 28.3339L26.984 28.2926L27.0114 28.2513L27.0381 28.2097L27.0645 28.168L27.0903 28.1261L27.1157 28.084L27.1406 28.0417L27.1649 27.9993L27.1888 27.9567L27.2122 27.9139L27.2351 27.8711L27.2574 27.8281L27.2793 27.7849L27.3007 27.7416L27.3216 27.6981L27.342 27.6546L27.3618 27.6109L27.3812 27.5673L27.4001 27.5233L27.4183 27.4794L27.4363 27.4351L27.4536 27.3913L27.4705 27.3467L27.4867 27.3028L27.5026 27.2582L27.518 27.2136L27.5327 27.1692L27.5471 27.1246L27.5609 27.0801L27.5743 27.0351L27.587 26.9908L27.5994 26.9457L27.6112 26.9013L27.6225 26.8563L27.6333 26.8113L27.6436 26.7666L27.6534 26.722L27.6627 26.6768L27.6715 26.6321L27.6799 26.587L27.6876 26.5424L27.695 26.4976L27.7019 26.4527L27.7082 26.4078L27.714 26.363L27.7194 26.3184L27.7243 26.2739L27.7287 26.229L27.7326 26.1845L27.7361 26.14L27.739 26.0955L27.7415 26.0511L27.7434 26.0068L27.7449 25.9627L27.7459 25.9183L27.7466 25.874L27.7467 25.8302L27.7462 25.7863L27.7454 25.7425L27.7441 25.6988L27.7423 25.655L27.74 25.6119L27.7373 25.5679L27.7342 25.5251L27.7306 25.482L27.7265 25.4387L27.7219 25.3958L27.7171 25.3534L27.7115 25.3103L27.7057 25.2682L27.6994 25.2257L27.6927 25.1839L27.6855 25.1417L27.6779 25.0997L27.6699 25.0582L27.6615 25.0168L27.6525 24.9753L27.6432 24.9343L27.6335 24.8932L27.6233 24.8525L27.6128 24.8121L27.6017 24.7714L27.5905 24.7316L27.5787 24.6913L27.5665 24.6517L27.5539 24.6121L27.5409 24.5728L27.5275 24.5337L27.5137 24.4946L27.4997 24.4561L27.4852 24.4178L27.4702 24.3793L27.4549 24.3415L27.4392 24.3034L27.4233 24.2663L27.4068 24.2288L27.3902 24.1919L27.373 24.1552L27.3556 24.1186L27.3378 24.0824L27.3196 24.0464L27.3012 24.0106L27.2823 23.9752L27.2631 23.9401L27.2437 23.9052L27.2239 23.8705L27.2036 23.8362L27.1832 23.8021L27.1625 23.7683L27.1413 23.7347L27.1199 23.7017L27.0981 23.6687L27.0761 23.6361L27.0538 23.6037L27.0312 23.5718L27.0083 23.54L26.9851 23.5086L26.9616 23.4775L26.9378 23.4467L26.9139 23.4162L26.8895 23.386L26.865 23.3562L26.8402 23.3266L26.8151 23.2974L26.7898 23.2684L26.7643 23.2399L26.7385 23.2117L26.7124 23.1838L26.6861 23.156L26.6596 23.1288L26.6328 23.1019L26.6058 23.0752L26.5787 23.0491L26.5512 23.0232L26.5237 22.9976L26.4956 22.9723L26.4678 22.9474L26.4395 22.9228L26.4112 22.8986L26.3825 22.8747L26.3537 22.8513L26.3247 22.8281L26.2956 22.8052L26.2663 22.7827L26.2368 22.7606L26.2072 22.7389L26.1774 22.7174L26.1474 22.6963L26.1174 22.6757L26.0871 22.6552L26.0568 22.6353L26.0262 22.6156L25.9955 22.5963L25.9648 22.5774L25.9338 22.5588L25.9028 22.5406L25.8718 22.5228L25.8405 22.5053L25.809 22.4881L25.7776 22.4713L25.7461 22.4549L25.7145 22.4388L25.6829 22.4232L25.6509 22.4077L25.6191 22.3928L25.5871 22.3783L25.5551 22.3639L25.523 22.35L25.4907 22.3364L25.4587 22.3233L25.4262 22.3106L25.3938 22.2981L25.3615 22.286L25.3291 22.2742L25.2967 22.2629L25.2642 22.2518L25.2316 22.2411L25.1992 22.2309L25.1666 22.2209L25.134 22.2112L25.1016 22.202L25.0687 22.1931L25.0363 22.1847L25.0037 22.1765L24.9711 22.1686L24.9385 22.1611L24.9059 22.154L24.8733 22.1472L24.8408 22.1408L24.8084 22.1346L24.776 22.1289L24.7433 22.1235L24.7111 22.1185L24.6785 22.1138L24.6464 22.1094L24.614 22.1053L24.5818 22.1016L24.5498 22.0982L24.5176 22.0953L24.4856 22.0925L24.4536 22.0902L24.4217 22.0881L24.3898 22.0864L24.358 22.085L24.3265 22.084L24.2948 22.0832L24.2633 22.0828L24.2319 22.0827L24.2006 22.083L24.1693 22.0835L24.1382 22.0843L24.1072 22.0856L24.0764 22.087L24.0455 22.0888L24.0149 22.0909L23.9844 22.0932L23.9539 22.096L23.9237 22.099L23.8934 22.1022L23.8634 22.1058L23.8335 22.1097L23.8038 22.1139L23.7741 22.1184L23.7447 22.1231L23.7153 22.1281L23.6863 22.1334L23.6571 22.139L23.6283 22.1449L23.5995 22.151L23.5711 22.1574Z" fill="white"/>
</svg>
