<svg width="148" height="178" viewBox="0 0 148 178" fill="none" xmlns="http://www.w3.org/2000/svg">
<g style="mix-blend-mode:overlay" opacity="0.18">
<path d="M148 70.5742L133.907 56.5956L119.81 70.5742H126.467V128.683H141.343V70.5742H148Z" fill="#00A6CA"/>
</g>
<g style="mix-blend-mode:overlay" opacity="0.17">
<path d="M119.582 26.2386L95.3794 2.09229L71.1826 26.2386H82.6115V83.2638H108.153V26.2386H119.582Z" fill="#00A6CA"/>
</g>
<g style="mix-blend-mode:overlay" opacity="0.3">
<path d="M102.759 47.2094L85.7387 30.2249L68.7188 47.2094H76.753V82.3857H94.7185V47.2094H102.759Z" fill="#00A6CA"/>
</g>
<g style="mix-blend-mode:overlay" opacity="0.3">
<path d="M24.5715 118.19L14.6344 108.273L4.69727 118.19H9.3898V146.808H19.879V118.19H24.5715Z" fill="#00A6CA"/>
</g>
<g style="mix-blend-mode:overlay" opacity="0.31">
<path d="M57.5517 50.4312L40.5258 33.4409L23.5059 50.4312H31.546V87.3656H49.5115V50.4312H57.5517Z" fill="#00A6CA"/>
</g>
<g style="mix-blend-mode:overlay" opacity="0.25">
<path d="M66.3662 24.8461L49.3315 0.332336L32.3027 24.8461H40.347V67.145H58.3219V24.8461H66.3662Z" fill="#00A6CA"/>
</g>
<g style="mix-blend-mode:overlay" opacity="0.25">
<path d="M72.3549 55.5248L66.1648 40.9608L59.9688 55.5248H62.8935V84.436H69.4302V55.5248H72.3549Z" fill="#00A6CA"/>
</g>
<g style="mix-blend-mode:overlay" opacity="0.27">
<path d="M129.429 16.9845L112.409 0L95.3828 16.9845H103.423V95.8643H121.388V16.9845H129.429Z" fill="#00A6CA"/>
</g>
<g style="mix-blend-mode:overlay" opacity="0.27">
<path d="M29.3906 63.3522L22.0376 56.0087L14.6787 63.3522H18.1555V119.463H25.9196V63.3522H29.3906Z" fill="#00A6CA"/>
</g>
<g style="mix-blend-mode:overlay" opacity="0.25">
<path d="M79.2056 12.3083L87.0989 20.1852H92.0498L79.2056 7.36768L66.3672 20.1852H71.3123L79.2056 12.3083Z" fill="#00A6CA"/>
</g>
<g style="mix-blend-mode:overlay" opacity="0.27">
<path d="M126.077 91.0923L130.634 95.6402H133.489L126.077 88.2381L118.659 95.6402H121.513L126.077 91.0923Z" fill="#00A6CA"/>
</g>
<g style="mix-blend-mode:overlay" opacity="0.12">
<path d="M49.1408 25.2415L54.3737 30.4634H57.6567L49.1408 21.9712L40.6309 30.4634H43.9139L49.1408 25.2415Z" fill="#00A6CA"/>
</g>
<g style="mix-blend-mode:overlay" opacity="0.12">
<path d="M18.2495 32.7216L22.2431 36.7069H24.745L18.2495 30.2249L11.748 36.7069H14.2499L18.2495 32.7216Z" fill="#00A6CA"/>
</g>
<g style="mix-blend-mode:overlay" opacity="0.37">
<path d="M120.902 59.1568L127.069 65.3106H129.629L120.902 56.5956L112.175 65.3106H114.735L120.902 59.1568Z" fill="#00A6CA"/>
</g>
<g style="mix-blend-mode:overlay" opacity="0.18">
<path d="M8.50998 50.2964L14.5239 56.2978H17.02L8.50998 47.8055L0 56.2978H2.49603L8.50998 50.2964Z" fill="#00A6CA"/>
</g>
<g style="mix-blend-mode:overlay" opacity="0.18">
<path d="M136.537 43.2665L142.551 49.2679H145.047L136.537 40.7756L128.027 49.2679H130.523L136.537 43.2665Z" fill="#00A6CA"/>
</g>
<path d="M120.424 78.1635C120.841 78.5595 121.254 78.9614 121.662 79.3689C121.254 78.9599 120.839 78.5595 120.424 78.1635Z" fill="#CB281C"/>
<path d="M121.657 79.3671L101.42 99.5624C108.887 107.014 113.507 117.309 113.507 128.682H142.129C142.129 109.422 134.306 91.9881 121.659 79.3671H121.657Z" fill="#57CA66"/>
<path d="M101.409 99.5663L121.648 79.3696C108 65.7519 90.1138 58.9424 72.2289 58.9424V87.5041C83.6249 87.5041 93.9414 92.113 101.409 99.5663Z" fill="#5E88BD"/>
<path d="M72.2301 58.9426C71.6514 58.9426 71.0755 58.9498 70.5011 58.9642C71.077 58.9498 71.6543 58.9426 72.2301 58.9426Z" fill="#00A6CA"/>
<path d="M43.0545 157.805C35.587 150.353 30.9671 140.058 30.9671 128.686C30.9671 105.943 49.4424 87.5045 72.2344 87.5045V58.9427C52.9351 58.9427 35.4629 66.7489 22.817 79.3699C22.4086 79.7775 22.0059 80.1894 21.609 80.6057C21.8211 80.3824 22.0391 80.1649 22.2541 79.946C8.98473 93.4902 2.3457 111.086 2.3457 128.686C2.3457 129.263 2.35292 129.838 2.36735 130.411C2.36014 130.102 2.36014 129.792 2.35581 129.482C2.56797 148.424 10.3428 165.555 22.8156 178L43.053 157.805H43.0545Z" fill="#FFD081"/>
<path d="M88.2353 132.688C90.451 123.866 85.0805 114.922 76.2399 112.711C67.3994 110.5 58.4365 115.859 56.2208 124.682C54.0051 133.504 59.3757 142.448 68.2162 144.659C77.0568 146.87 86.0196 141.511 88.2353 132.688Z" fill="#E1E8F7"/>
<g style="mix-blend-mode:multiply" opacity="0.14">
<path d="M127.872 97.7386L71.1429 126.526C68.8365 127.697 68.0081 130.574 69.3388 132.787C70.6695 135.001 73.6036 135.625 75.7238 134.145L127.872 97.74V97.7386Z" fill="#232323"/>
</g>
<path d="M126.844 96.0287L70.0981 124.781C67.7903 125.95 66.9604 128.825 68.2897 131.04C69.6189 133.255 72.5531 133.88 74.6732 132.401L126.844 96.0273V96.0287Z" fill="#474747"/>
</svg>
