<svg width="238" height="274" viewBox="0 0 238 274" fill="none" xmlns="http://www.w3.org/2000/svg">
<g clip-path="url(#clip0_2_4270)">
<path d="M201.897 5.49072H36.3659C19.9528 5.49072 6.64746 18.7454 6.64746 35.0959V445.263C6.64746 461.613 19.9528 474.868 36.3659 474.868H201.897C218.31 474.868 231.615 461.613 231.615 445.263V35.0959C231.615 18.7454 218.31 5.49072 201.897 5.49072Z" fill="white"/>
<path d="M1.43492 105.999H0V123.01H1.43492V105.999Z" fill="#B4B9BF"/>
<path d="M3.31309 105.999H0.607422V123.01H3.31309V105.999Z" fill="#DADFE3"/>
<path d="M2.25574 142.61H0V173.437H2.25574V142.61Z" fill="#B4B9BF"/>
<path d="M3.60219 142.61H0.902588V173.437H3.60219V142.61Z" fill="#DADFE3"/>
<path d="M2.52936 180.039H0V210.872H2.52936V180.039Z" fill="#B4B9BF"/>
<path d="M3.60219 180.039H0.902588V210.872H3.60219V180.039Z" fill="#DADFE3"/>
<path d="M238.855 151.892H236.6V210.448H238.855V151.892Z" fill="#DADFE3"/>
<path d="M237.949 151.892H235.249V210.448H237.949V151.892Z" fill="#B4B9BF"/>
<path d="M237.692 92.2212V32.8181C237.692 22.5364 234.428 14.0641 228.258 8.31498C222.423 2.87454 214.168 0 204.388 0H34.3042C24.0375 0 15.5033 3.20133 9.63139 9.25904C4.03913 15.0263 1.08496 23.075 1.08496 32.5398V162.554C1.08496 163.28 3.06049 163.044 1.08496 162.554V450.516C1.08496 468.392 14.7374 481.875 32.8332 481.875H106.456C108.14 481.198 109.976 481.052 111.903 481.052H126.88C128.807 481.052 130.649 481.198 132.321 481.875H203.938C224.757 481.875 237.692 469.01 237.692 448.289V92.2212ZM226.356 438.963C226.356 452.283 225.128 458.092 218.897 464.174C216.247 466.764 210.916 469.845 200.564 469.845H38.5409C28.1892 469.845 22.8522 466.758 20.202 464.174C13.9654 458.092 12.4983 452.14 12.4983 438.826V41.1958C12.4983 27.8761 13.9715 22.2035 20.202 16.1216C22.8522 13.5315 28.1892 10.4512 38.5349 10.4512H57.4999C58.4421 10.5722 57.4999 10.4512 70.8241 10.4512H176.688C182.067 10.4512 181.131 10.5722 182.067 10.4512H200.546C210.904 10.4512 216.235 13.5376 218.885 16.1216C225.122 22.2035 226.356 28.0192 226.356 41.3328V438.963Z" fill="#E7EAED"/>
<path d="M31.9182 2.7771C16.5909 2.7771 4.16567 15.1543 4.16567 30.4225V450.064C4.16567 465.332 16.5909 477.709 31.9182 477.709H206.936C222.263 477.709 234.688 465.332 234.688 450.064V30.4225C234.688 15.1544 222.263 2.7771 206.936 2.7771H31.9182ZM226.362 437.703C226.362 437.699 226.366 437.705 226.362 437.703C226.362 450.987 225.085 456.915 218.86 462.982C216.212 465.567 210.885 468.64 200.542 468.64H38.6402C28.2966 468.64 22.9639 465.561 20.3157 462.982C14.0841 456.914 12.4979 451.415 12.4979 438.131V41.3917C12.4979 28.102 14.0901 22.0021 20.3157 15.9339C22.9639 13.3497 28.2966 10.2763 38.6341 10.2763H57.5841C58.5256 10.3971 57.5841 10.2763 62.9594 10.2763H174.376C182.059 10.2763 181.118 10.3971 182.059 10.2763H200.523C210.873 10.2763 216.2 13.3557 218.848 15.9339C225.08 22.0021 226.356 27.6824 226.356 40.9661L226.185 437.815C226.185 437.819 226.359 437.701 226.362 437.703Z" fill="#DADFE3"/>
<path d="M117.872 17.4817H101.417C97.1986 17.4817 93.7825 20.8827 93.7825 25.0826C93.7825 29.2824 97.1986 32.6835 101.417 32.6835H117.872C122.09 32.6835 125.506 29.2824 125.506 25.0826C125.506 20.8827 122.09 17.4817 117.872 17.4817Z" fill="black"/>
<path d="M130.871 25.0836C130.871 20.9745 134.22 17.634 138.354 17.634C142.487 17.634 145.836 20.9685 145.836 25.0836C145.836 29.1988 142.487 32.5332 138.354 32.5332C134.22 32.5332 130.871 29.1988 130.871 25.0836Z" fill="url(#paint0_linear_2_4270)"/>
<g clip-path="url(#clip1_2_4270)">
<rect opacity="0.35" x="194.476" y="22.2157" width="12.6919" height="6.34594" rx="2.00955" stroke="#181818" stroke-width="0.528828"/>
<path opacity="0.4" d="M207.909 24.4191V26.5344C208.335 26.3552 208.611 25.9385 208.611 25.4767C208.611 25.015 208.335 24.5982 207.909 24.4191Z" fill="#181818"/>
<rect x="195.163" y="23.0089" width="11.1054" height="4.75946" rx="1.32207" fill="#181818"/>
<path fill-rule="evenodd" clip-rule="evenodd" d="M184.65 23.2327C186.003 23.2327 187.305 23.7002 188.286 24.5384C188.36 24.6031 188.478 24.6023 188.551 24.5365L189.257 23.896C189.294 23.8627 189.314 23.8176 189.314 23.7706C189.314 23.7236 189.292 23.6787 189.255 23.6457C186.681 21.428 182.619 21.428 180.044 23.6457C180.007 23.6786 179.986 23.7236 179.985 23.7705C179.985 23.8175 180.006 23.8627 180.042 23.896L180.749 24.5365C180.821 24.6024 180.939 24.6032 181.013 24.5384C181.994 23.7001 183.296 23.2327 184.65 23.2327ZM184.648 25.3722C185.387 25.3722 186.099 25.6316 186.647 26.1001C186.721 26.1666 186.837 26.1651 186.91 26.0969L187.61 25.428C187.647 25.393 187.667 25.3454 187.667 25.2959C187.666 25.2465 187.645 25.1993 187.607 25.1649C185.94 23.6994 183.358 23.6994 181.69 25.1649C181.653 25.1993 181.631 25.2465 181.631 25.296C181.63 25.3454 181.651 25.393 181.688 25.428L182.388 26.0969C182.46 26.1651 182.577 26.1666 182.651 26.1001C183.198 25.6319 183.91 25.3725 184.648 25.3722ZM186.021 26.7886C186.022 26.842 186.002 26.8935 185.966 26.9309L184.781 28.1753C184.746 28.2118 184.699 28.2324 184.65 28.2324C184.6 28.2324 184.553 28.2118 184.518 28.1753L183.333 26.9309C183.297 26.8934 183.277 26.8419 183.278 26.7885C183.279 26.7351 183.301 26.6845 183.339 26.6487C184.096 25.9827 185.204 25.9827 185.96 26.6487C185.998 26.6846 186.02 26.7352 186.021 26.7886Z" fill="#181818"/>
<path fill-rule="evenodd" clip-rule="evenodd" d="M175.904 22.5125C175.904 22.1915 175.644 21.9314 175.323 21.9314H174.743C174.422 21.9314 174.162 22.1915 174.162 22.5125V27.5484C174.162 27.8693 174.422 28.1294 174.743 28.1294H175.323C175.644 28.1294 175.904 27.8693 175.904 27.5484V22.5125ZM171.859 23.1715H172.439C172.76 23.1715 173.02 23.4379 173.02 23.7665V27.5349C173.02 27.8635 172.76 28.1299 172.439 28.1299H171.859C171.538 28.1299 171.278 27.8635 171.278 27.5349V23.7665C171.278 23.4379 171.538 23.1715 171.859 23.1715ZM169.5 24.5141H168.92C168.599 24.5141 168.339 24.7839 168.339 25.1167V27.527C168.339 27.8598 168.599 28.1296 168.92 28.1296H169.5C169.821 28.1296 170.081 27.8598 170.081 27.527V25.1167C170.081 24.7839 169.821 24.5141 169.5 24.5141ZM166.616 25.754H166.036C165.715 25.754 165.455 26.0199 165.455 26.3479V27.5359C165.455 27.8639 165.715 28.1299 166.036 28.1299H166.616C166.937 28.1299 167.197 27.8639 167.197 27.5359V26.3479C167.197 26.0199 166.937 25.754 166.616 25.754Z" fill="#181818"/>
<g clip-path="url(#clip2_2_4270)">
<path d="M42.2848 22.0264C41.8312 22.0264 41.4259 22.123 41.0689 22.3162C40.7148 22.5064 40.4368 22.7698 40.2348 23.1063C40.0358 23.4399 39.9363 23.8218 39.9363 24.252V24.2608C39.9363 24.6588 40.0241 25.0158 40.1997 25.3319C40.3782 25.6479 40.6226 25.8967 40.9328 26.0781C41.243 26.2596 41.6 26.3503 42.0039 26.3503C42.2965 26.3503 42.5511 26.3064 42.7677 26.2186C42.9872 26.1308 43.1715 26.0152 43.3208 25.8718C43.47 25.7284 43.5827 25.5733 43.6588 25.4065H43.8124V24.2389H43.549V24.2476C43.549 24.4847 43.4934 24.6968 43.3822 24.8841C43.271 25.0714 43.1203 25.2178 42.9301 25.3231C42.7399 25.4285 42.5248 25.4811 42.2848 25.4811C42.0448 25.4811 41.8312 25.427 41.6439 25.3187C41.4566 25.2104 41.3088 25.0626 41.2006 24.8754C41.0923 24.6851 41.0381 24.4671 41.0381 24.2213V24.2125C41.0381 23.9755 41.0952 23.7618 41.2093 23.5716C41.3235 23.3785 41.4757 23.2263 41.6659 23.1151C41.8561 23.0039 42.0653 22.9483 42.2936 22.9483C42.5306 22.9483 42.7428 23.0053 42.9301 23.1195C43.1203 23.2336 43.271 23.3887 43.3822 23.5848C43.4934 23.7809 43.549 23.9989 43.549 24.2389L43.7466 25.2968C43.7466 25.3377 43.7466 25.3802 43.7466 25.4241C43.7466 25.465 43.7451 25.5075 43.7422 25.5514C43.7276 25.9552 43.6661 26.324 43.5578 26.6576C43.4525 26.9883 43.293 27.2531 43.0794 27.4521C42.8686 27.6482 42.5965 27.7462 42.2629 27.7462C42.0785 27.7462 41.9117 27.7169 41.7624 27.6584C41.6161 27.597 41.4903 27.5106 41.3849 27.3994C41.2825 27.2882 41.2035 27.1595 41.1479 27.0131L41.1303 26.9692H40.0197L40.0285 27.0175C40.0988 27.3394 40.2348 27.6262 40.4368 27.8779C40.6416 28.1267 40.8991 28.3227 41.2093 28.4661C41.5225 28.6066 41.8737 28.6768 42.2629 28.6768C42.7926 28.6768 43.2476 28.5422 43.6281 28.273C44.0114 28.0008 44.3055 27.6116 44.5104 27.1053C44.7152 26.599 44.8177 25.9903 44.8177 25.2792V25.2704C44.8177 24.6968 44.7504 24.2067 44.6157 23.7999C44.4811 23.3902 44.2953 23.0551 44.0583 22.7946C43.8241 22.5313 43.5549 22.3381 43.2506 22.2152C42.9462 22.0894 42.6243 22.0264 42.2848 22.0264ZM46.8106 27.6672C47.0125 27.6672 47.1793 27.6014 47.311 27.4697C47.4427 27.335 47.5085 27.1712 47.5085 26.978C47.5085 26.7819 47.4427 26.6181 47.311 26.4864C47.1793 26.3518 47.0125 26.2844 46.8106 26.2844C46.6116 26.2844 46.4448 26.3518 46.3102 26.4864C46.1785 26.6181 46.1126 26.7819 46.1126 26.978C46.1126 27.1712 46.1785 27.335 46.3102 27.4697C46.4448 27.6014 46.6116 27.6672 46.8106 27.6672ZM46.8106 24.41C47.0125 24.41 47.1793 24.3442 47.311 24.2125C47.4427 24.0779 47.5085 23.914 47.5085 23.7209C47.5085 23.5248 47.4427 23.3609 47.311 23.2292C47.1793 23.0946 47.0125 23.0273 46.8106 23.0273C46.6116 23.0273 46.4448 23.0946 46.3102 23.2292C46.1785 23.3609 46.1126 23.5248 46.1126 23.7209C46.1126 23.914 46.1785 24.0779 46.3102 24.2125C46.4448 24.3442 46.6116 24.41 46.8106 24.41ZM51.8763 28.5188H52.9562V27.3029H53.8121V26.3679H52.9562V22.1845H51.3627C51.1871 22.4449 51.0115 22.7127 50.8359 22.9878C50.6633 23.26 50.4891 23.5365 50.3136 23.8174C50.1409 24.0955 49.9668 24.3779 49.7912 24.6647C49.6185 24.9485 49.4473 25.2338 49.2776 25.5206C49.1108 25.8074 48.944 26.0928 48.7772 26.3766V27.3029H51.8763V28.5188ZM49.8307 26.3942V26.3283C49.9536 26.1118 50.0809 25.8938 50.2126 25.6743C50.3443 25.4519 50.4774 25.2309 50.6121 25.0114C50.7467 24.789 50.8828 24.5681 51.0203 24.3486C51.1578 24.1291 51.2939 23.914 51.4285 23.7033C51.5661 23.4926 51.6992 23.2878 51.828 23.0888H51.8938V26.3942H49.8307ZM56.4328 28.5188H57.5609V22.1845H56.4328L54.7779 23.3477V24.41L56.3538 23.2995H56.4328V28.5188Z" fill="#181818"/>
</g>
<rect x="23.9292" y="48.8541" width="16" height="2" rx="1" fill="#333333"/>
<rect x="23.9292" y="52.8541" width="16" height="2" rx="1" fill="#333333"/>
<rect x="23.9292" y="56.8541" width="16" height="2" rx="1" fill="#333333"/>
<path d="M106.309 51.3652C106.309 51.8769 106.192 52.3466 105.957 52.7744C105.722 53.1938 105.361 53.5335 104.875 53.7935C104.388 54.0535 103.784 54.1835 103.063 54.1835H101.729V57.3541H99.5779V48.5217H103.063C103.768 48.5217 104.363 48.6434 104.85 48.8866C105.336 49.1299 105.701 49.4654 105.944 49.8932C106.188 50.3209 106.309 50.8116 106.309 51.3652ZM102.899 52.4724C103.311 52.4724 103.617 52.376 103.818 52.183C104.019 51.9901 104.12 51.7175 104.12 51.3652C104.12 51.0129 104.019 50.7403 103.818 50.5474C103.617 50.3545 103.311 50.258 102.899 50.258H101.729V52.4724H102.899ZM109.581 51.5036C109.832 51.1178 110.147 50.8158 110.524 50.5977C110.902 50.3713 111.321 50.258 111.782 50.258V52.5353H111.191C110.654 52.5353 110.252 52.6528 109.983 52.8876C109.715 53.1141 109.581 53.5167 109.581 54.0955V57.3541H107.429V50.3335H109.581V51.5036ZM116.007 57.4548C115.319 57.4548 114.698 57.308 114.145 57.0144C113.599 56.7208 113.167 56.3015 112.849 55.7562C112.538 55.211 112.383 54.5736 112.383 53.8438C112.383 53.1225 112.542 52.4892 112.861 51.944C113.18 51.3904 113.616 50.9668 114.17 50.6732C114.723 50.3797 115.344 50.2329 116.032 50.2329C116.72 50.2329 117.34 50.3797 117.894 50.6732C118.447 50.9668 118.884 51.3904 119.202 51.944C119.521 52.4892 119.68 53.1225 119.68 53.8438C119.68 54.5652 119.517 55.2026 119.19 55.7562C118.871 56.3015 118.431 56.7208 117.869 57.0144C117.315 57.308 116.694 57.4548 116.007 57.4548ZM116.007 55.5927C116.418 55.5927 116.766 55.4417 117.051 55.1397C117.344 54.8378 117.491 54.4058 117.491 53.8438C117.491 53.2818 117.349 52.8499 117.063 52.5479C116.787 52.2459 116.443 52.095 116.032 52.095C115.612 52.095 115.264 52.2459 114.987 52.5479C114.711 52.8415 114.572 53.2734 114.572 53.8438C114.572 54.4058 114.707 54.8378 114.975 55.1397C115.252 55.4417 115.596 55.5927 116.007 55.5927ZM124.345 52.1201H123.187V57.3541H121.036V52.1201H120.256V50.3335H121.036V50.1322C121.036 49.2683 121.283 48.614 121.778 48.1695C122.273 47.7165 122.999 47.49 123.955 47.49C124.114 47.49 124.232 47.4942 124.307 47.5026V49.327C123.896 49.3018 123.607 49.3605 123.439 49.5031C123.271 49.6457 123.187 49.9015 123.187 50.2706V50.3335H124.345V52.1201ZM126.438 49.6038C126.06 49.6038 125.75 49.4947 125.507 49.2767C125.272 49.0502 125.154 48.7734 125.154 48.4463C125.154 48.1107 125.272 47.8339 125.507 47.6159C125.75 47.3894 126.06 47.2762 126.438 47.2762C126.807 47.2762 127.109 47.3894 127.344 47.6159C127.587 47.8339 127.709 48.1107 127.709 48.4463C127.709 48.7734 127.587 49.0502 127.344 49.2767C127.109 49.4947 126.807 49.6038 126.438 49.6038ZM127.507 50.3335V57.3541H125.356V50.3335H127.507ZM131.218 48.0436V57.3541H129.066V48.0436H131.218ZM139.395 53.7306C139.395 53.9319 139.382 54.1416 139.357 54.3597H134.488C134.522 54.7958 134.66 55.1314 134.903 55.3662C135.155 55.5927 135.461 55.7059 135.822 55.7059C136.359 55.7059 136.732 55.4794 136.942 55.0265H139.231C139.114 55.4878 138.9 55.903 138.59 56.2721C138.288 56.6412 137.906 56.9305 137.445 57.1402C136.983 57.3499 136.468 57.4548 135.897 57.4548C135.209 57.4548 134.597 57.308 134.06 57.0144C133.524 56.7208 133.104 56.3015 132.802 55.7562C132.5 55.211 132.349 54.5736 132.349 53.8438C132.349 53.1141 132.496 52.4766 132.79 51.9314C133.092 51.3862 133.511 50.9668 134.048 50.6732C134.585 50.3797 135.201 50.2329 135.897 50.2329C136.577 50.2329 137.181 50.3755 137.709 50.6606C138.237 50.9458 138.648 51.3526 138.942 51.8811C139.244 52.4095 139.395 53.026 139.395 53.7306ZM137.193 53.1644C137.193 52.7953 137.067 52.5018 136.816 52.2837C136.564 52.0656 136.25 51.9566 135.872 51.9566C135.511 51.9566 135.205 52.0614 134.954 52.2711C134.71 52.4808 134.559 52.7786 134.501 53.1644H137.193Z" fill="#333333"/>
<rect x="59.4292" y="69.3541" width="119" height="4" fill="#FCD809"/>
<rect x="11.9292" y="73.3541" width="214" height="8" fill="#00A6CA"/>
<path d="M36.2835 100.522L33.2261 106.435V109.354H31.0746V106.435L28.0173 100.522H30.4581L32.1692 104.221L33.8678 100.522H36.2835ZM40.3461 109.455C39.6583 109.455 39.0376 109.308 38.484 109.014C37.9388 108.721 37.5068 108.301 37.1881 107.756C36.8777 107.211 36.7226 106.574 36.7226 105.844C36.7226 105.122 36.8819 104.489 37.2007 103.944C37.5194 103.39 37.9556 102.967 38.5092 102.673C39.0628 102.38 39.6835 102.233 40.3713 102.233C41.0591 102.233 41.6798 102.38 42.2334 102.673C42.787 102.967 43.2231 103.39 43.5419 103.944C43.8606 104.489 44.02 105.122 44.02 105.844C44.02 106.565 43.8564 107.203 43.5293 107.756C43.2105 108.301 42.7702 108.721 42.2082 109.014C41.6546 109.308 41.0339 109.455 40.3461 109.455ZM40.3461 107.593C40.7571 107.593 41.1052 107.442 41.3904 107.14C41.684 106.838 41.8307 106.406 41.8307 105.844C41.8307 105.282 41.6881 104.85 41.403 104.548C41.1262 104.246 40.7823 104.095 40.3713 104.095C39.9519 104.095 39.6038 104.246 39.327 104.548C39.0502 104.841 38.9118 105.273 38.9118 105.844C38.9118 106.406 39.046 106.838 39.3144 107.14C39.5912 107.442 39.9351 107.593 40.3461 107.593ZM52.0939 102.334V109.354H49.9424V108.398C49.7243 108.708 49.4266 108.96 49.0491 109.153C48.6801 109.337 48.2691 109.43 47.8161 109.43C47.2793 109.43 46.8054 109.312 46.3944 109.077C45.9834 108.834 45.6646 108.486 45.4382 108.033C45.2117 107.58 45.0985 107.047 45.0985 106.435V102.334H47.2373V106.146C47.2373 106.616 47.359 106.98 47.6022 107.24C47.8455 107.5 48.1726 107.63 48.5836 107.63C49.003 107.63 49.3343 107.5 49.5776 107.24C49.8208 106.98 49.9424 106.616 49.9424 106.146V102.334H52.0939ZM55.7908 103.504C56.0424 103.118 56.3569 102.816 56.7344 102.598C57.1118 102.371 57.5312 102.258 57.9926 102.258V104.535H57.4012C56.8644 104.535 56.4618 104.653 56.1934 104.888C55.925 105.114 55.7908 105.517 55.7908 106.095V109.354H53.6393V102.334H55.7908V103.504ZM61.3223 104.925C61.3223 104.053 61.511 103.277 61.8885 102.598C62.2659 101.91 62.7902 101.377 63.4612 101C64.1406 100.614 64.9081 100.421 65.7637 100.421C66.8121 100.421 67.7096 100.698 68.4561 101.251C69.2027 101.805 69.7017 102.56 69.9534 103.516H67.588C67.4119 103.147 67.1602 102.866 66.8331 102.673C66.5144 102.48 66.1495 102.384 65.7385 102.384C65.0759 102.384 64.539 102.615 64.128 103.076C63.717 103.537 63.5115 104.154 63.5115 104.925C63.5115 105.697 63.717 106.314 64.128 106.775C64.539 107.236 65.0759 107.467 65.7385 107.467C66.1495 107.467 66.5144 107.37 66.8331 107.177C67.1602 106.985 67.4119 106.704 67.588 106.335H69.9534C69.7017 107.291 69.2027 108.046 68.4561 108.599C67.7096 109.144 66.8121 109.417 65.7637 109.417C64.9081 109.417 64.1406 109.228 63.4612 108.851C62.7902 108.465 62.2659 107.932 61.8885 107.253C61.511 106.574 61.3223 105.798 61.3223 104.925ZM73.4224 103.504C73.674 103.118 73.9886 102.816 74.366 102.598C74.7435 102.371 75.1629 102.258 75.6242 102.258V104.535H75.0329C74.496 104.535 74.0934 104.653 73.825 104.888C73.5566 105.114 73.4224 105.517 73.4224 106.095V109.354H71.2709V102.334H73.4224V103.504ZM83.2706 105.731C83.2706 105.932 83.258 106.142 83.2328 106.36H78.3637C78.3972 106.796 78.5356 107.131 78.7789 107.366C79.0305 107.593 79.3367 107.706 79.6973 107.706C80.2342 107.706 80.6074 107.479 80.8171 107.027H83.107C82.9896 107.488 82.7757 107.903 82.4653 108.272C82.1634 108.641 81.7817 108.931 81.3204 109.14C80.8591 109.35 80.3432 109.455 79.7728 109.455C79.085 109.455 78.4727 109.308 77.9359 109.014C77.3991 108.721 76.9797 108.301 76.6777 107.756C76.3758 107.211 76.2248 106.574 76.2248 105.844C76.2248 105.114 76.3716 104.477 76.6651 103.931C76.9671 103.386 77.3865 102.967 77.9233 102.673C78.4601 102.38 79.0766 102.233 79.7728 102.233C80.4522 102.233 81.0562 102.375 81.5846 102.661C82.113 102.946 82.524 103.353 82.8176 103.881C83.1196 104.41 83.2706 105.026 83.2706 105.731ZM81.0688 105.164C81.0688 104.795 80.9429 104.502 80.6913 104.284C80.4397 104.066 80.1251 103.957 79.7477 103.957C79.387 103.957 79.0808 104.061 78.8292 104.271C78.586 104.481 78.435 104.779 78.3763 105.164H81.0688ZM83.9778 105.831C83.9778 105.11 84.112 104.477 84.3804 103.931C84.6572 103.386 85.0305 102.967 85.5002 102.673C85.9699 102.38 86.4941 102.233 87.0729 102.233C87.5342 102.233 87.9536 102.329 88.3311 102.522C88.7169 102.715 89.0189 102.975 89.237 103.302V100.044H91.3884V109.354H89.237V108.348C89.0356 108.683 88.7463 108.952 88.3688 109.153C87.9997 109.354 87.5678 109.455 87.0729 109.455C86.4941 109.455 85.9699 109.308 85.5002 109.014C85.0305 108.712 84.6572 108.289 84.3804 107.744C84.112 107.19 83.9778 106.553 83.9778 105.831ZM89.237 105.844C89.237 105.307 89.086 104.883 88.784 104.573C88.4904 104.263 88.1298 104.108 87.702 104.108C87.2742 104.108 86.9093 104.263 86.6074 104.573C86.3138 104.875 86.167 105.294 86.167 105.831C86.167 106.368 86.3138 106.796 86.6074 107.115C86.9093 107.425 87.2742 107.58 87.702 107.58C88.1298 107.58 88.4904 107.425 88.784 107.115C89.086 106.804 89.237 106.381 89.237 105.844ZM94.027 101.604C93.6495 101.604 93.3392 101.495 93.0959 101.277C92.861 101.05 92.7436 100.773 92.7436 100.446C92.7436 100.111 92.861 99.8339 93.0959 99.6159C93.3392 99.3894 93.6495 99.2762 94.027 99.2762C94.396 99.2762 94.698 99.3894 94.9328 99.6159C95.1761 99.8339 95.2977 100.111 95.2977 100.446C95.2977 100.773 95.1761 101.05 94.9328 101.277C94.698 101.495 94.396 101.604 94.027 101.604ZM95.0964 102.334V109.354H92.9449V102.334H95.0964ZM100.568 107.53V109.354H99.4739C98.6938 109.354 98.0857 109.165 97.6495 108.788C97.2133 108.402 96.9953 107.777 96.9953 106.913V104.12H96.1397V102.334H96.9953V100.622H99.1467V102.334H100.556V104.12H99.1467V106.938C99.1467 107.148 99.1971 107.299 99.2977 107.391C99.3984 107.484 99.5661 107.53 99.801 107.53H100.568ZM107.629 109.442C106.983 109.442 106.404 109.337 105.893 109.128C105.381 108.918 104.97 108.608 104.66 108.197C104.358 107.786 104.198 107.291 104.181 106.712H106.471C106.505 107.039 106.618 107.291 106.811 107.467C107.004 107.635 107.256 107.719 107.566 107.719C107.885 107.719 108.136 107.647 108.321 107.505C108.505 107.354 108.598 107.148 108.598 106.888C108.598 106.67 108.522 106.49 108.371 106.347C108.229 106.204 108.048 106.087 107.83 105.995C107.621 105.903 107.319 105.798 106.924 105.68C106.354 105.504 105.888 105.328 105.528 105.152C105.167 104.976 104.857 104.716 104.597 104.372C104.337 104.028 104.207 103.579 104.207 103.026C104.207 102.204 104.504 101.562 105.1 101.101C105.695 100.631 106.471 100.396 107.428 100.396C108.401 100.396 109.185 100.631 109.78 101.101C110.376 101.562 110.695 102.208 110.737 103.038H108.409C108.392 102.753 108.287 102.531 108.094 102.371C107.901 102.204 107.654 102.12 107.352 102.12C107.092 102.12 106.882 102.191 106.723 102.334C106.564 102.468 106.484 102.665 106.484 102.925C106.484 103.21 106.618 103.432 106.887 103.592C107.155 103.751 107.574 103.923 108.145 104.108C108.715 104.3 109.176 104.485 109.529 104.661C109.889 104.837 110.2 105.093 110.46 105.429C110.72 105.764 110.85 106.196 110.85 106.725C110.85 107.228 110.72 107.685 110.46 108.096C110.208 108.507 109.839 108.834 109.353 109.077C108.866 109.321 108.292 109.442 107.629 109.442ZM111.746 105.844C111.746 105.114 111.893 104.477 112.186 103.931C112.488 103.386 112.904 102.967 113.432 102.673C113.969 102.38 114.581 102.233 115.269 102.233C116.15 102.233 116.884 102.464 117.471 102.925C118.066 103.386 118.456 104.036 118.641 104.875H116.351C116.158 104.338 115.785 104.07 115.231 104.07C114.837 104.07 114.522 104.225 114.288 104.535C114.053 104.837 113.935 105.273 113.935 105.844C113.935 106.414 114.053 106.855 114.288 107.165C114.522 107.467 114.837 107.618 115.231 107.618C115.785 107.618 116.158 107.349 116.351 106.813H118.641C118.456 107.635 118.066 108.28 117.471 108.75C116.875 109.22 116.141 109.455 115.269 109.455C114.581 109.455 113.969 109.308 113.432 109.014C112.904 108.721 112.488 108.301 112.186 107.756C111.893 107.211 111.746 106.574 111.746 105.844ZM122.987 109.455C122.3 109.455 121.679 109.308 121.125 109.014C120.58 108.721 120.148 108.301 119.829 107.756C119.519 107.211 119.364 106.574 119.364 105.844C119.364 105.122 119.523 104.489 119.842 103.944C120.161 103.39 120.597 102.967 121.151 102.673C121.704 102.38 122.325 102.233 123.013 102.233C123.7 102.233 124.321 102.38 124.875 102.673C125.428 102.967 125.864 103.39 126.183 103.944C126.502 104.489 126.661 105.122 126.661 105.844C126.661 106.565 126.498 107.203 126.171 107.756C125.852 108.301 125.412 108.721 124.85 109.014C124.296 109.308 123.675 109.455 122.987 109.455ZM122.987 107.593C123.398 107.593 123.747 107.442 124.032 107.14C124.325 106.838 124.472 106.406 124.472 105.844C124.472 105.282 124.33 104.85 124.044 104.548C123.768 104.246 123.424 104.095 123.013 104.095C122.593 104.095 122.245 104.246 121.968 104.548C121.692 104.841 121.553 105.273 121.553 105.844C121.553 106.406 121.687 106.838 121.956 107.14C122.233 107.442 122.576 107.593 122.987 107.593ZM129.954 103.504C130.206 103.118 130.52 102.816 130.898 102.598C131.275 102.371 131.695 102.258 132.156 102.258V104.535H131.565C131.028 104.535 130.625 104.653 130.357 104.888C130.088 105.114 129.954 105.517 129.954 106.095V109.354H127.803V102.334H129.954V103.504ZM139.802 105.731C139.802 105.932 139.79 106.142 139.765 106.36H134.895C134.929 106.796 135.067 107.131 135.311 107.366C135.562 107.593 135.868 107.706 136.229 107.706C136.766 107.706 137.139 107.479 137.349 107.027H139.639C139.521 107.488 139.307 107.903 138.997 108.272C138.695 108.641 138.314 108.931 137.852 109.14C137.391 109.35 136.875 109.455 136.305 109.455C135.617 109.455 135.005 109.308 134.468 109.014C133.931 108.721 133.511 108.301 133.21 107.756C132.908 107.211 132.757 106.574 132.757 105.844C132.757 105.114 132.903 104.477 133.197 103.931C133.499 103.386 133.918 102.967 134.455 102.673C134.992 102.38 135.608 102.233 136.305 102.233C136.984 102.233 137.588 102.375 138.116 102.661C138.645 102.946 139.056 103.353 139.349 103.881C139.651 104.41 139.802 105.026 139.802 105.731ZM137.601 105.164C137.601 104.795 137.475 104.502 137.223 104.284C136.971 104.066 136.657 103.957 136.279 103.957C135.919 103.957 135.613 104.061 135.361 104.271C135.118 104.481 134.967 104.779 134.908 105.164H137.601Z" fill="#00A6CA"/>
<path d="M86.0579 122.642V124.978H91.0339L86.9699 134.306H89.7699L93.7859 124.674V122.642H86.0579Z" fill="#333333"/>
<path d="M100.332 134.306H103.068V132.226H104.38V129.858H103.068V122.786H100.012L94.9564 130.018V132.226H100.332V134.306ZM97.8364 129.858L100.524 125.794V129.858H97.8364Z" fill="#333333"/>
<path d="M105.816 125.922H108.488C108.536 125.282 108.856 124.642 109.736 124.642C110.472 124.642 110.936 125.074 110.936 125.858C110.936 126.914 110.04 127.138 109.112 127.138H108.6V129.362H109.112C110.536 129.362 111.16 129.778 111.16 130.818C111.16 131.586 110.696 132.13 109.848 132.13C108.84 132.13 108.344 131.522 108.328 130.61H105.672C105.752 133.25 107.512 134.402 109.944 134.402C112.392 134.402 113.8 132.994 113.8 131.026C113.8 129.49 113 128.594 111.832 128.21V128.146C112.632 127.874 113.592 127.058 113.592 125.522C113.592 123.762 112.264 122.354 109.8 122.354C107.416 122.354 105.912 123.618 105.816 125.922Z" fill="#333333"/>
<path d="M124.127 126.166L122.633 130.378H121.349L119.855 126.166H120.947L121.991 129.346L123.041 126.166H124.127ZM127.711 128.65C127.711 128.746 127.705 128.846 127.693 128.95H125.371C125.387 129.158 125.453 129.318 125.569 129.43C125.689 129.538 125.835 129.592 126.007 129.592C126.263 129.592 126.441 129.484 126.541 129.268H127.633C127.577 129.488 127.475 129.686 127.327 129.862C127.183 130.038 127.001 130.176 126.781 130.276C126.561 130.376 126.315 130.426 126.043 130.426C125.715 130.426 125.423 130.356 125.167 130.216C124.911 130.076 124.711 129.876 124.567 129.616C124.423 129.356 124.351 129.052 124.351 128.704C124.351 128.356 124.421 128.052 124.561 127.792C124.705 127.532 124.905 127.332 125.161 127.192C125.417 127.052 125.711 126.982 126.043 126.982C126.367 126.982 126.655 127.05 126.907 127.186C127.159 127.322 127.355 127.516 127.495 127.768C127.639 128.02 127.711 128.314 127.711 128.65ZM126.661 128.38C126.661 128.204 126.601 128.064 126.481 127.96C126.361 127.856 126.211 127.804 126.031 127.804C125.859 127.804 125.713 127.854 125.593 127.954C125.477 128.054 125.405 128.196 125.377 128.38H126.661ZM129.279 127.588C129.399 127.404 129.549 127.26 129.729 127.156C129.909 127.048 130.109 126.994 130.329 126.994V128.08H130.047C129.791 128.08 129.599 128.136 129.471 128.248C129.343 128.356 129.279 128.548 129.279 128.824V130.378H128.253V127.03H129.279V127.588ZM134.239 127.03L132.139 131.968H131.035L131.803 130.264L130.441 127.03H131.587L132.361 129.124L133.129 127.03H134.239ZM138.678 127.498C138.602 127.358 138.492 127.252 138.348 127.18C138.208 127.104 138.042 127.066 137.85 127.066C137.518 127.066 137.252 127.176 137.052 127.396C136.852 127.612 136.752 127.902 136.752 128.266C136.752 128.654 136.856 128.958 137.064 129.178C137.276 129.394 137.566 129.502 137.934 129.502C138.186 129.502 138.398 129.438 138.57 129.31C138.746 129.182 138.874 128.998 138.954 128.758H137.652V128.002H139.884V128.956C139.808 129.212 139.678 129.45 139.494 129.67C139.314 129.89 139.084 130.068 138.804 130.204C138.524 130.34 138.208 130.408 137.856 130.408C137.44 130.408 137.068 130.318 136.74 130.138C136.416 129.954 136.162 129.7 135.978 129.376C135.798 129.052 135.708 128.682 135.708 128.266C135.708 127.85 135.798 127.48 135.978 127.156C136.162 126.828 136.416 126.574 136.74 126.394C137.064 126.21 137.434 126.118 137.85 126.118C138.354 126.118 138.778 126.24 139.122 126.484C139.47 126.728 139.7 127.066 139.812 127.498H138.678ZM141.976 130.426C141.648 130.426 141.352 130.356 141.088 130.216C140.828 130.076 140.622 129.876 140.47 129.616C140.322 129.356 140.248 129.052 140.248 128.704C140.248 128.36 140.324 128.058 140.476 127.798C140.628 127.534 140.836 127.332 141.1 127.192C141.364 127.052 141.66 126.982 141.988 126.982C142.316 126.982 142.612 127.052 142.876 127.192C143.14 127.332 143.348 127.534 143.5 127.798C143.652 128.058 143.728 128.36 143.728 128.704C143.728 129.048 143.65 129.352 143.494 129.616C143.342 129.876 143.132 130.076 142.864 130.216C142.6 130.356 142.304 130.426 141.976 130.426ZM141.976 129.538C142.172 129.538 142.338 129.466 142.474 129.322C142.614 129.178 142.684 128.972 142.684 128.704C142.684 128.436 142.616 128.23 142.48 128.086C142.348 127.942 142.184 127.87 141.988 127.87C141.788 127.87 141.622 127.942 141.49 128.086C141.358 128.226 141.292 128.432 141.292 128.704C141.292 128.972 141.356 129.178 141.484 129.322C141.616 129.466 141.78 129.538 141.976 129.538ZM145.796 130.426C145.468 130.426 145.172 130.356 144.908 130.216C144.648 130.076 144.442 129.876 144.29 129.616C144.142 129.356 144.068 129.052 144.068 128.704C144.068 128.36 144.144 128.058 144.296 127.798C144.448 127.534 144.656 127.332 144.92 127.192C145.184 127.052 145.48 126.982 145.808 126.982C146.136 126.982 146.432 127.052 146.696 127.192C146.96 127.332 147.168 127.534 147.32 127.798C147.472 128.058 147.548 128.36 147.548 128.704C147.548 129.048 147.47 129.352 147.314 129.616C147.162 129.876 146.952 130.076 146.684 130.216C146.42 130.356 146.124 130.426 145.796 130.426ZM145.796 129.538C145.992 129.538 146.158 129.466 146.294 129.322C146.434 129.178 146.504 128.972 146.504 128.704C146.504 128.436 146.436 128.23 146.3 128.086C146.168 127.942 146.004 127.87 145.808 127.87C145.608 127.87 145.442 127.942 145.31 128.086C145.178 128.226 145.112 128.432 145.112 128.704C145.112 128.972 145.176 129.178 145.304 129.322C145.436 129.466 145.6 129.538 145.796 129.538ZM147.888 128.698C147.888 128.354 147.952 128.052 148.08 127.792C148.212 127.532 148.39 127.332 148.614 127.192C148.838 127.052 149.088 126.982 149.364 126.982C149.584 126.982 149.784 127.028 149.964 127.12C150.148 127.212 150.292 127.336 150.396 127.492V125.938H151.422V130.378H150.396V129.898C150.3 130.058 150.162 130.186 149.982 130.282C149.806 130.378 149.6 130.426 149.364 130.426C149.088 130.426 148.838 130.356 148.614 130.216C148.39 130.072 148.212 129.87 148.08 129.61C147.952 129.346 147.888 129.042 147.888 128.698ZM150.396 128.704C150.396 128.448 150.324 128.246 150.18 128.098C150.04 127.95 149.868 127.876 149.664 127.876C149.46 127.876 149.286 127.95 149.142 128.098C149.002 128.242 148.932 128.442 148.932 128.698C148.932 128.954 149.002 129.158 149.142 129.31C149.286 129.458 149.46 129.532 149.664 129.532C149.868 129.532 150.04 129.458 150.18 129.31C150.324 129.162 150.396 128.96 150.396 128.704Z" fill="#00A6CA"/>
<path d="M40 144.902C40 143.521 41.1193 142.402 42.5 142.402H158.858V147.402H42.5C41.1193 147.402 40 146.283 40 144.902Z" fill="#00A6CA"/>
<path d="M158.858 142.402H195.358C196.739 142.402 197.858 143.521 197.858 144.902C197.858 146.283 196.739 147.402 195.358 147.402H158.858V142.402Z" fill="#D9D9D9"/>
<path d="M36.36 154.156C36.388 153.788 36.53 153.5 36.786 153.292C37.042 153.084 37.374 152.98 37.782 152.98C38.054 152.98 38.288 153.03 38.484 153.13C38.684 153.226 38.834 153.358 38.934 153.526C39.038 153.694 39.09 153.884 39.09 154.096C39.09 154.344 39.018 154.558 38.874 154.738C38.734 154.918 38.55 155.034 38.322 155.086V155.116C38.582 155.18 38.788 155.306 38.94 155.494C39.092 155.682 39.168 155.928 39.168 156.232C39.168 156.46 39.116 156.666 39.012 156.85C38.908 157.03 38.752 157.172 38.544 157.276C38.336 157.38 38.086 157.432 37.794 157.432C37.37 157.432 37.022 157.322 36.75 157.102C36.478 156.878 36.326 156.562 36.294 156.154H36.822C36.85 156.394 36.948 156.59 37.116 156.742C37.284 156.894 37.508 156.97 37.788 156.97C38.068 156.97 38.28 156.898 38.424 156.754C38.572 156.606 38.646 156.416 38.646 156.184C38.646 155.884 38.546 155.668 38.346 155.536C38.146 155.404 37.844 155.338 37.44 155.338H37.302V154.882H37.446C37.814 154.878 38.092 154.818 38.28 154.702C38.468 154.582 38.562 154.398 38.562 154.15C38.562 153.938 38.492 153.768 38.352 153.64C38.216 153.512 38.02 153.448 37.764 153.448C37.516 153.448 37.316 153.512 37.164 153.64C37.012 153.768 36.922 153.94 36.894 154.156H36.36ZM39.9052 155.188C39.9052 154.5 40.0172 153.964 40.2412 153.58C40.4652 153.192 40.8572 152.998 41.4172 152.998C41.9732 152.998 42.3632 153.192 42.5872 153.58C42.8112 153.964 42.9232 154.5 42.9232 155.188C42.9232 155.888 42.8112 156.432 42.5872 156.82C42.3632 157.208 41.9732 157.402 41.4172 157.402C40.8572 157.402 40.4652 157.208 40.2412 156.82C40.0172 156.432 39.9052 155.888 39.9052 155.188ZM42.3832 155.188C42.3832 154.84 42.3592 154.546 42.3112 154.306C42.2672 154.062 42.1732 153.866 42.0292 153.718C41.8892 153.57 41.6852 153.496 41.4172 153.496C41.1452 153.496 40.9372 153.57 40.7932 153.718C40.6532 153.866 40.5592 154.062 40.5112 154.306C40.4672 154.546 40.4452 154.84 40.4452 155.188C40.4452 155.548 40.4672 155.85 40.5112 156.094C40.5592 156.338 40.6532 156.534 40.7932 156.682C40.9372 156.83 41.1452 156.904 41.4172 156.904C41.6852 156.904 41.8892 156.83 42.0292 156.682C42.1732 156.534 42.2672 156.338 42.3112 156.094C42.3592 155.85 42.3832 155.548 42.3832 155.188ZM43.6728 155.188C43.6728 154.5 43.7848 153.964 44.0088 153.58C44.2328 153.192 44.6248 152.998 45.1848 152.998C45.7408 152.998 46.1308 153.192 46.3548 153.58C46.5788 153.964 46.6908 154.5 46.6908 155.188C46.6908 155.888 46.5788 156.432 46.3548 156.82C46.1308 157.208 45.7408 157.402 45.1848 157.402C44.6248 157.402 44.2328 157.208 44.0088 156.82C43.7848 156.432 43.6728 155.888 43.6728 155.188ZM46.1508 155.188C46.1508 154.84 46.1268 154.546 46.0788 154.306C46.0348 154.062 45.9408 153.866 45.7968 153.718C45.6568 153.57 45.4528 153.496 45.1848 153.496C44.9128 153.496 44.7048 153.57 44.5608 153.718C44.4208 153.866 44.3268 154.062 44.2788 154.306C44.2348 154.546 44.2128 154.84 44.2128 155.188C44.2128 155.548 44.2348 155.85 44.2788 156.094C44.3268 156.338 44.4208 156.534 44.5608 156.682C44.7048 156.83 44.9128 156.904 45.1848 156.904C45.4528 156.904 45.6568 156.83 45.7968 156.682C45.9408 156.534 46.0348 156.338 46.0788 156.094C46.1268 155.85 46.1508 155.548 46.1508 155.188Z" fill="#AAAAAA"/>
<path d="M139.042 153.49L137.374 157.402H136.822L138.514 153.544H136.198V153.076H139.042V153.49ZM142.413 153.538H140.307V154.906C140.399 154.778 140.535 154.674 140.715 154.594C140.895 154.51 141.089 154.468 141.297 154.468C141.629 154.468 141.899 154.538 142.107 154.678C142.315 154.814 142.463 154.992 142.551 155.212C142.643 155.428 142.689 155.658 142.689 155.902C142.689 156.19 142.635 156.448 142.527 156.676C142.419 156.904 142.253 157.084 142.029 157.216C141.809 157.348 141.535 157.414 141.207 157.414C140.787 157.414 140.447 157.306 140.187 157.09C139.927 156.874 139.769 156.586 139.713 156.226H140.247C140.299 156.454 140.409 156.632 140.577 156.76C140.745 156.888 140.957 156.952 141.213 156.952C141.529 156.952 141.767 156.858 141.927 156.67C142.087 156.478 142.167 156.226 142.167 155.914C142.167 155.602 142.087 155.362 141.927 155.194C141.767 155.022 141.531 154.936 141.219 154.936C141.007 154.936 140.821 154.988 140.661 155.092C140.505 155.192 140.391 155.33 140.319 155.506H139.803V153.058H142.413V153.538ZM143.415 155.188C143.415 154.5 143.527 153.964 143.751 153.58C143.975 153.192 144.367 152.998 144.927 152.998C145.483 152.998 145.873 153.192 146.097 153.58C146.321 153.964 146.433 154.5 146.433 155.188C146.433 155.888 146.321 156.432 146.097 156.82C145.873 157.208 145.483 157.402 144.927 157.402C144.367 157.402 143.975 157.208 143.751 156.82C143.527 156.432 143.415 155.888 143.415 155.188ZM145.893 155.188C145.893 154.84 145.869 154.546 145.821 154.306C145.777 154.062 145.683 153.866 145.539 153.718C145.399 153.57 145.195 153.496 144.927 153.496C144.655 153.496 144.447 153.57 144.303 153.718C144.163 153.866 144.069 154.062 144.021 154.306C143.977 154.546 143.955 154.84 143.955 155.188C143.955 155.548 143.977 155.85 144.021 156.094C144.069 156.338 144.163 156.534 144.303 156.682C144.447 156.83 144.655 156.904 144.927 156.904C145.195 156.904 145.399 156.83 145.539 156.682C145.683 156.534 145.777 156.338 145.821 156.094C145.869 155.85 145.893 155.548 145.893 155.188Z" fill="#AAAAAA"/>
<path d="M191.022 155.146C190.798 155.058 190.626 154.93 190.506 154.762C190.386 154.594 190.326 154.39 190.326 154.15C190.326 153.934 190.38 153.74 190.488 153.568C190.596 153.392 190.756 153.254 190.968 153.154C191.184 153.05 191.444 152.998 191.748 152.998C192.052 152.998 192.31 153.05 192.522 153.154C192.738 153.254 192.9 153.392 193.008 153.568C193.12 153.74 193.176 153.934 193.176 154.15C193.176 154.382 193.114 154.586 192.99 154.762C192.866 154.934 192.696 155.062 192.48 155.146C192.728 155.222 192.924 155.356 193.068 155.548C193.216 155.736 193.29 155.964 193.29 156.232C193.29 156.492 193.226 156.72 193.098 156.916C192.97 157.108 192.788 157.258 192.552 157.366C192.32 157.47 192.052 157.522 191.748 157.522C191.444 157.522 191.176 157.47 190.944 157.366C190.716 157.258 190.538 157.108 190.41 156.916C190.282 156.72 190.218 156.492 190.218 156.232C190.218 155.964 190.29 155.734 190.434 155.542C190.578 155.35 190.774 155.218 191.022 155.146ZM192.648 154.216C192.648 153.972 192.568 153.784 192.408 153.652C192.248 153.52 192.028 153.454 191.748 153.454C191.472 153.454 191.254 153.52 191.094 153.652C190.934 153.784 190.854 153.974 190.854 154.222C190.854 154.446 190.936 154.626 191.1 154.762C191.268 154.898 191.484 154.966 191.748 154.966C192.016 154.966 192.232 154.898 192.396 154.762C192.564 154.622 192.648 154.44 192.648 154.216ZM191.748 155.386C191.452 155.386 191.21 155.456 191.022 155.596C190.834 155.732 190.74 155.938 190.74 156.214C190.74 156.47 190.83 156.676 191.01 156.832C191.194 156.988 191.44 157.066 191.748 157.066C192.056 157.066 192.3 156.988 192.48 156.832C192.66 156.676 192.75 156.47 192.75 156.214C192.75 155.946 192.658 155.742 192.474 155.602C192.29 155.458 192.048 155.386 191.748 155.386ZM196.781 153.538H194.675V154.906C194.767 154.778 194.903 154.674 195.083 154.594C195.263 154.51 195.457 154.468 195.665 154.468C195.997 154.468 196.267 154.538 196.475 154.678C196.683 154.814 196.831 154.992 196.919 155.212C197.011 155.428 197.057 155.658 197.057 155.902C197.057 156.19 197.003 156.448 196.895 156.676C196.787 156.904 196.621 157.084 196.397 157.216C196.177 157.348 195.903 157.414 195.575 157.414C195.155 157.414 194.815 157.306 194.555 157.09C194.295 156.874 194.137 156.586 194.081 156.226H194.615C194.667 156.454 194.777 156.632 194.945 156.76C195.113 156.888 195.325 156.952 195.581 156.952C195.897 156.952 196.135 156.858 196.295 156.67C196.455 156.478 196.535 156.226 196.535 155.914C196.535 155.602 196.455 155.362 196.295 155.194C196.135 155.022 195.899 154.936 195.587 154.936C195.375 154.936 195.189 154.988 195.029 155.092C194.873 155.192 194.759 155.33 194.687 155.506H194.171V153.058H196.781V153.538ZM197.783 155.188C197.783 154.5 197.895 153.964 198.119 153.58C198.343 153.192 198.735 152.998 199.295 152.998C199.851 152.998 200.241 153.192 200.465 153.58C200.689 153.964 200.801 154.5 200.801 155.188C200.801 155.888 200.689 156.432 200.465 156.82C200.241 157.208 199.851 157.402 199.295 157.402C198.735 157.402 198.343 157.208 198.119 156.82C197.895 156.432 197.783 155.888 197.783 155.188ZM200.261 155.188C200.261 154.84 200.237 154.546 200.189 154.306C200.145 154.062 200.051 153.866 199.907 153.718C199.767 153.57 199.563 153.496 199.295 153.496C199.023 153.496 198.815 153.57 198.671 153.718C198.531 153.866 198.437 154.062 198.389 154.306C198.345 154.546 198.323 154.84 198.323 155.188C198.323 155.548 198.345 155.85 198.389 156.094C198.437 156.338 198.531 156.534 198.671 156.682C198.815 156.83 199.023 156.904 199.295 156.904C199.563 156.904 199.767 156.83 199.907 156.682C200.051 156.534 200.145 156.338 200.189 156.094C200.237 155.85 200.261 155.548 200.261 155.188Z" fill="#AAAAAA"/>
<rect width="213.858" height="28" transform="translate(12 183.402)" fill="#00A6CA"/>
<path d="M75.2682 197.154C75.2682 196.322 75.4402 195.582 75.7842 194.934C76.1362 194.278 76.6322 193.77 77.2722 193.41C77.9122 193.042 78.6482 192.858 79.4802 192.858C80.5362 192.858 81.4242 193.142 82.1442 193.71C82.8642 194.27 83.3282 195.034 83.5362 196.002H81.0042C80.8522 195.682 80.6402 195.438 80.3682 195.27C80.1042 195.102 79.7962 195.018 79.4442 195.018C78.9002 195.018 78.4642 195.214 78.1362 195.606C77.8162 195.99 77.6562 196.506 77.6562 197.154C77.6562 197.81 77.8162 198.334 78.1362 198.726C78.4642 199.11 78.9002 199.302 79.4442 199.302C79.7962 199.302 80.1042 199.218 80.3682 199.05C80.6402 198.882 80.8522 198.638 81.0042 198.318H83.5362C83.3282 199.286 82.8642 200.054 82.1442 200.622C81.4242 201.182 80.5362 201.462 79.4802 201.462C78.6482 201.462 77.9122 201.282 77.2722 200.922C76.6322 200.554 76.1362 200.046 75.7842 199.398C75.4402 198.742 75.2682 197.994 75.2682 197.154ZM87.0019 195.858C87.2659 195.474 87.5859 195.17 87.9619 194.946C88.3379 194.722 88.7419 194.61 89.1739 194.61V197.118H88.5139C88.0019 197.118 87.6219 197.218 87.3739 197.418C87.1259 197.618 87.0019 197.966 87.0019 198.462V201.402H84.6499V194.67H87.0019V195.858ZM96.4491 197.958C96.4491 198.142 96.4371 198.326 96.4131 198.51H91.9611C91.9851 198.878 92.0851 199.154 92.2611 199.338C92.4451 199.514 92.6771 199.602 92.9571 199.602C93.3491 199.602 93.6291 199.426 93.7971 199.074H96.3051C96.2011 199.538 95.9971 199.954 95.6931 200.322C95.3971 200.682 95.0211 200.966 94.5651 201.174C94.1091 201.382 93.6051 201.486 93.0531 201.486C92.3891 201.486 91.7971 201.346 91.2771 201.066C90.7651 200.786 90.3611 200.386 90.0651 199.866C89.7771 199.346 89.6331 198.734 89.6331 198.03C89.6331 197.326 89.7771 196.718 90.0651 196.206C90.3531 195.686 90.7531 195.286 91.2651 195.006C91.7851 194.726 92.3811 194.586 93.0531 194.586C93.7171 194.586 94.3051 194.722 94.8171 194.994C95.3291 195.266 95.7291 195.658 96.0171 196.17C96.3051 196.674 96.4491 197.27 96.4491 197.958ZM94.0491 197.37C94.0491 197.082 93.9531 196.858 93.7611 196.698C93.5691 196.53 93.3291 196.446 93.0411 196.446C92.7531 196.446 92.5171 196.526 92.3331 196.686C92.1491 196.838 92.0291 197.066 91.9731 197.37H94.0491ZM97.0276 198.03C97.0276 197.334 97.1516 196.726 97.3996 196.206C97.6556 195.686 98.0036 195.286 98.4436 195.006C98.8836 194.726 99.3716 194.586 99.9076 194.586C100.34 194.586 100.724 194.678 101.06 194.862C101.404 195.038 101.672 195.282 101.864 195.594V192.522H104.228V201.402H101.864V200.466C101.68 200.778 101.42 201.026 101.084 201.21C100.748 201.394 100.352 201.486 99.8956 201.486C99.3596 201.486 98.8716 201.346 98.4316 201.066C97.9996 200.786 97.6556 200.386 97.3996 199.866C97.1516 199.338 97.0276 198.726 97.0276 198.03ZM101.876 198.03C101.876 197.598 101.756 197.258 101.516 197.01C101.284 196.762 100.996 196.638 100.652 196.638C100.3 196.638 100.008 196.762 99.7756 197.01C99.5436 197.25 99.4276 197.59 99.4276 198.03C99.4276 198.462 99.5436 198.806 99.7756 199.062C100.008 199.31 100.3 199.434 100.652 199.434C100.996 199.434 101.284 199.31 101.516 199.062C101.756 198.814 101.876 198.47 101.876 198.03ZM106.756 194.046C106.34 194.046 106.004 193.934 105.748 193.71C105.5 193.478 105.376 193.19 105.376 192.846C105.376 192.494 105.5 192.202 105.748 191.97C106.004 191.738 106.34 191.622 106.756 191.622C107.164 191.622 107.492 191.738 107.74 191.97C107.996 192.202 108.124 192.494 108.124 192.846C108.124 193.19 107.996 193.478 107.74 193.71C107.492 193.934 107.164 194.046 106.756 194.046ZM107.92 194.67V201.402H105.568V194.67H107.92ZM113.231 199.398V201.402H112.211C110.491 201.402 109.631 200.55 109.631 198.846V196.626H108.803V194.67H109.631V193.038H111.995V194.67H113.219V196.626H111.995V198.882C111.995 199.066 112.035 199.198 112.115 199.278C112.203 199.358 112.347 199.398 112.547 199.398H113.231ZM122.343 192.942V194.814H118.959V196.302H121.455V198.09H118.959V201.402H116.607V192.942H122.343ZM122.95 198.03C122.95 197.334 123.074 196.726 123.322 196.206C123.578 195.686 123.922 195.286 124.354 195.006C124.794 194.726 125.282 194.586 125.818 194.586C126.282 194.586 126.682 194.678 127.018 194.862C127.354 195.046 127.614 195.294 127.798 195.606V194.67H130.15V201.402H127.798V200.466C127.614 200.778 127.35 201.026 127.006 201.21C126.67 201.394 126.274 201.486 125.818 201.486C125.282 201.486 124.794 201.346 124.354 201.066C123.922 200.786 123.578 200.386 123.322 199.866C123.074 199.338 122.95 198.726 122.95 198.03ZM127.798 198.03C127.798 197.598 127.678 197.258 127.438 197.01C127.206 196.762 126.918 196.638 126.574 196.638C126.222 196.638 125.93 196.762 125.698 197.01C125.466 197.25 125.35 197.59 125.35 198.03C125.35 198.462 125.466 198.806 125.698 199.062C125.93 199.31 126.222 199.434 126.574 199.434C126.918 199.434 127.206 199.31 127.438 199.062C127.678 198.814 127.798 198.47 127.798 198.03ZM131.106 198.03C131.106 197.334 131.25 196.726 131.538 196.206C131.826 195.686 132.226 195.286 132.738 195.006C133.258 194.726 133.85 194.586 134.514 194.586C135.37 194.586 136.09 194.822 136.674 195.294C137.258 195.758 137.634 196.41 137.802 197.25H135.306C135.162 196.81 134.882 196.59 134.466 196.59C134.17 196.59 133.934 196.714 133.758 196.962C133.59 197.202 133.506 197.558 133.506 198.03C133.506 198.502 133.59 198.862 133.758 199.11C133.934 199.358 134.17 199.482 134.466 199.482C134.89 199.482 135.17 199.262 135.306 198.822H137.802C137.634 199.654 137.258 200.306 136.674 200.778C136.09 201.25 135.37 201.486 134.514 201.486C133.85 201.486 133.258 201.346 132.738 201.066C132.226 200.786 131.826 200.386 131.538 199.866C131.25 199.346 131.106 198.734 131.106 198.03ZM142.751 199.398V201.402H141.731C140.011 201.402 139.151 200.55 139.151 198.846V196.626H138.323V194.67H139.151V193.038H141.515V194.67H142.739V196.626H141.515V198.882C141.515 199.066 141.555 199.198 141.635 199.278C141.723 199.358 141.867 199.398 142.067 199.398H142.751ZM146.962 201.486C146.29 201.486 145.686 201.346 145.15 201.066C144.622 200.786 144.206 200.386 143.902 199.866C143.598 199.346 143.446 198.734 143.446 198.03C143.446 197.334 143.598 196.726 143.902 196.206C144.214 195.686 144.634 195.286 145.162 195.006C145.698 194.726 146.302 194.586 146.974 194.586C147.646 194.586 148.246 194.726 148.774 195.006C149.31 195.286 149.73 195.686 150.034 196.206C150.346 196.726 150.502 197.334 150.502 198.03C150.502 198.726 150.346 199.338 150.034 199.866C149.73 200.386 149.31 200.786 148.774 201.066C148.238 201.346 147.634 201.486 146.962 201.486ZM146.962 199.446C147.29 199.446 147.562 199.326 147.778 199.086C148.002 198.838 148.114 198.486 148.114 198.03C148.114 197.574 148.002 197.226 147.778 196.986C147.562 196.746 147.294 196.626 146.974 196.626C146.654 196.626 146.386 196.746 146.17 196.986C145.954 197.226 145.846 197.574 145.846 198.03C145.846 198.494 145.95 198.846 146.158 199.086C146.366 199.326 146.634 199.446 146.962 199.446ZM153.811 195.858C154.075 195.474 154.395 195.17 154.771 194.946C155.147 194.722 155.551 194.61 155.983 194.61V197.118H155.323C154.811 197.118 154.431 197.218 154.183 197.418C153.935 197.618 153.811 197.966 153.811 198.462V201.402H151.459V194.67H153.811V195.858ZM159.694 201.486C159.086 201.486 158.542 201.386 158.062 201.186C157.59 200.978 157.214 200.698 156.934 200.346C156.662 199.986 156.51 199.582 156.478 199.134H158.758C158.79 199.35 158.89 199.518 159.058 199.638C159.226 199.758 159.434 199.818 159.682 199.818C159.874 199.818 160.026 199.778 160.138 199.698C160.25 199.618 160.306 199.514 160.306 199.386C160.306 199.218 160.214 199.094 160.03 199.014C159.846 198.934 159.542 198.846 159.118 198.75C158.638 198.654 158.238 198.546 157.918 198.426C157.598 198.306 157.318 198.11 157.078 197.838C156.846 197.566 156.73 197.198 156.73 196.734C156.73 196.334 156.838 195.974 157.054 195.654C157.27 195.326 157.586 195.066 158.002 194.874C158.426 194.682 158.934 194.586 159.526 194.586C160.406 194.586 161.098 194.802 161.602 195.234C162.106 195.666 162.398 196.234 162.478 196.938H160.354C160.314 196.722 160.218 196.558 160.066 196.446C159.922 196.326 159.726 196.266 159.478 196.266C159.286 196.266 159.138 196.302 159.034 196.374C158.938 196.446 158.89 196.546 158.89 196.674C158.89 196.834 158.982 196.958 159.166 197.046C159.35 197.126 159.646 197.21 160.054 197.298C160.542 197.402 160.946 197.518 161.266 197.646C161.594 197.774 161.878 197.982 162.118 198.27C162.366 198.55 162.49 198.934 162.49 199.422C162.49 199.814 162.374 200.166 162.142 200.478C161.918 200.79 161.594 201.038 161.17 201.222C160.754 201.398 160.262 201.486 159.694 201.486Z" fill="white"/>
<g filter="url(#filter0_d_2_4270)">
<mask id="path-36-inside-1_2_4270" fill="white">
<path d="M29.9614 228.773C29.9614 228.016 30.5751 227.402 31.3321 227.402H206.526C207.283 227.402 207.897 228.016 207.897 228.773V262.031C207.897 262.788 207.283 263.402 206.526 263.402H31.3321C30.5751 263.402 29.9614 262.788 29.9614 262.031V228.773Z"/>
</mask>
<path d="M29.9614 228.773C29.9614 228.016 30.5751 227.402 31.3321 227.402H206.526C207.283 227.402 207.897 228.016 207.897 228.773V262.031C207.897 262.788 207.283 263.402 206.526 263.402H31.3321C30.5751 263.402 29.9614 262.788 29.9614 262.031V228.773Z" fill="white" shape-rendering="crispEdges"/>
<path d="M49.3214 237.786V243.402H47.9534V241.09H45.8254V243.402H44.4574V237.786H45.8254V239.986H47.9534V237.786H49.3214ZM50.037 241.162C50.037 240.703 50.1223 240.301 50.293 239.954C50.469 239.607 50.7063 239.341 51.005 239.154C51.3037 238.967 51.637 238.874 52.005 238.874C52.3197 238.874 52.5943 238.938 52.829 239.066C53.069 239.194 53.253 239.362 53.381 239.57V238.938H54.749V243.402H53.381V242.77C53.2477 242.978 53.061 243.146 52.821 243.274C52.5863 243.402 52.3117 243.466 51.997 243.466C51.6343 243.466 51.3037 243.373 51.005 243.186C50.7063 242.994 50.469 242.725 50.293 242.378C50.1223 242.026 50.037 241.621 50.037 241.162ZM53.381 241.17C53.381 240.829 53.285 240.559 53.093 240.362C52.9063 240.165 52.677 240.066 52.405 240.066C52.133 240.066 51.901 240.165 51.709 240.362C51.5223 240.554 51.429 240.821 51.429 241.162C51.429 241.503 51.5223 241.775 51.709 241.978C51.901 242.175 52.133 242.274 52.405 242.274C52.677 242.274 52.9063 242.175 53.093 241.978C53.285 241.781 53.381 241.511 53.381 241.17ZM57.1067 239.682C57.2667 239.437 57.4667 239.245 57.7067 239.106C57.9467 238.962 58.2133 238.89 58.5067 238.89V240.338H58.1307C57.7893 240.338 57.5333 240.413 57.3627 240.562C57.192 240.706 57.1067 240.962 57.1067 241.33V243.402H55.7387V238.938H57.1067V239.682ZM58.8886 241.162C58.8886 240.703 58.9739 240.301 59.1446 239.954C59.3206 239.607 59.5579 239.341 59.8566 239.154C60.1552 238.967 60.4886 238.874 60.8566 238.874C61.1499 238.874 61.4166 238.935 61.6566 239.058C61.9019 239.181 62.0939 239.346 62.2326 239.554V237.482H63.6006V243.402H62.2326V242.762C62.1046 242.975 61.9206 243.146 61.6806 243.274C61.4459 243.402 61.1712 243.466 60.8566 243.466C60.4886 243.466 60.1552 243.373 59.8566 243.186C59.5579 242.994 59.3206 242.725 59.1446 242.378C58.9739 242.026 58.8886 241.621 58.8886 241.162ZM62.2326 241.17C62.2326 240.829 62.1366 240.559 61.9446 240.362C61.7579 240.165 61.5286 240.066 61.2566 240.066C60.9846 240.066 60.7526 240.165 60.5606 240.362C60.3739 240.554 60.2806 240.821 60.2806 241.162C60.2806 241.503 60.3739 241.775 60.5606 241.978C60.7526 242.175 60.9846 242.274 61.2566 242.274C61.5286 242.274 61.7579 242.175 61.9446 241.978C62.1366 241.781 62.2326 241.511 62.2326 241.17ZM67.6536 237.786V243.402H66.2856V237.786H67.6536ZM71.3649 238.89C71.8876 238.89 72.3036 239.061 72.6129 239.402C72.9276 239.738 73.0849 240.202 73.0849 240.794V243.402H71.7249V240.978C71.7249 240.679 71.6476 240.447 71.4929 240.282C71.3383 240.117 71.1303 240.034 70.8689 240.034C70.6076 240.034 70.3996 240.117 70.2449 240.282C70.0903 240.447 70.0129 240.679 70.0129 240.978V243.402H68.6449V238.938H70.0129V239.53C70.1516 239.333 70.3383 239.178 70.5729 239.066C70.8076 238.949 71.0716 238.89 71.3649 238.89ZM73.7636 241.178C73.7636 240.735 73.8542 240.341 74.0356 239.994C74.2222 239.647 74.4702 239.378 74.7796 239.186C75.0942 238.989 75.4356 238.89 75.8036 238.89C76.0862 238.89 76.3396 238.941 76.5636 239.042C76.7876 239.138 76.9689 239.274 77.1076 239.45V238.938H78.4756V245.53H77.1076V242.842C76.9529 243.029 76.7636 243.178 76.5396 243.29C76.3209 243.402 76.0702 243.458 75.7876 243.458C75.4249 243.458 75.0889 243.362 74.7796 243.17C74.4702 242.978 74.2222 242.709 74.0356 242.362C73.8542 242.015 73.7636 241.621 73.7636 241.178ZM77.1076 241.17C77.1076 240.93 77.0596 240.73 76.9636 240.57C76.8729 240.405 76.7529 240.282 76.6036 240.202C76.4542 240.117 76.2969 240.074 76.1316 240.074C75.9716 240.074 75.8169 240.117 75.6676 240.202C75.5182 240.282 75.3956 240.405 75.2996 240.57C75.2036 240.735 75.1556 240.938 75.1556 241.178C75.1556 241.418 75.2036 241.621 75.2996 241.786C75.3956 241.946 75.5182 242.069 75.6676 242.154C75.8169 242.234 75.9716 242.274 76.1316 242.274C76.2916 242.274 76.4462 242.234 76.5956 242.154C76.7502 242.069 76.8729 241.943 76.9636 241.778C77.0596 241.613 77.1076 241.41 77.1076 241.17ZM83.8732 238.938V243.402H82.5052V242.794C82.3666 242.991 82.1772 243.151 81.9372 243.274C81.7026 243.391 81.4412 243.45 81.1532 243.45C80.8119 243.45 80.5106 243.375 80.2492 243.226C79.9879 243.071 79.7852 242.85 79.6412 242.562C79.4972 242.274 79.4252 241.935 79.4252 241.546V238.938H80.7852V241.362C80.7852 241.661 80.8626 241.893 81.0172 242.058C81.1719 242.223 81.3799 242.306 81.6412 242.306C81.9079 242.306 82.1186 242.223 82.2732 242.058C82.4279 241.893 82.5052 241.661 82.5052 241.362V238.938H83.8732ZM85.5439 238.474C85.3039 238.474 85.1065 238.405 84.9519 238.266C84.8025 238.122 84.7279 237.946 84.7279 237.738C84.7279 237.525 84.8025 237.349 84.9519 237.21C85.1065 237.066 85.3039 236.994 85.5439 236.994C85.7785 236.994 85.9705 237.066 86.1199 237.21C86.2745 237.349 86.3519 237.525 86.3519 237.738C86.3519 237.946 86.2745 238.122 86.1199 238.266C85.9705 238.405 85.7785 238.474 85.5439 238.474ZM86.2239 238.938V243.402H84.8559V238.938H86.2239ZM88.5832 239.682C88.7432 239.437 88.9432 239.245 89.1832 239.106C89.4232 238.962 89.6899 238.89 89.9832 238.89V240.338H89.6072C89.2659 240.338 89.0099 240.413 88.8392 240.562C88.6686 240.706 88.5832 240.962 88.5832 241.33V243.402H87.2152V238.938H88.5832V239.682ZM91.3251 238.474C91.0851 238.474 90.8878 238.405 90.7331 238.266C90.5838 238.122 90.5091 237.946 90.5091 237.738C90.5091 237.525 90.5838 237.349 90.7331 237.21C90.8878 237.066 91.0851 236.994 91.3251 236.994C91.5598 236.994 91.7518 237.066 91.9011 237.21C92.0558 237.349 92.1331 237.525 92.1331 237.738C92.1331 237.946 92.0558 238.122 91.9011 238.266C91.7518 238.405 91.5598 238.474 91.3251 238.474ZM92.0051 238.938V243.402H90.6371V238.938H92.0051ZM97.2045 241.098C97.2045 241.226 97.1965 241.359 97.1805 241.498H94.0845C94.1058 241.775 94.1938 241.989 94.3485 242.138C94.5085 242.282 94.7032 242.354 94.9325 242.354C95.2738 242.354 95.5112 242.21 95.6445 241.922H97.1005C97.0258 242.215 96.8898 242.479 96.6925 242.714C96.5005 242.949 96.2578 243.133 95.9645 243.266C95.6712 243.399 95.3432 243.466 94.9805 243.466C94.5432 243.466 94.1538 243.373 93.8125 243.186C93.4712 242.999 93.2045 242.733 93.0125 242.386C92.8205 242.039 92.7245 241.634 92.7245 241.17C92.7245 240.706 92.8178 240.301 93.0045 239.954C93.1965 239.607 93.4632 239.341 93.8045 239.154C94.1458 238.967 94.5378 238.874 94.9805 238.874C95.4125 238.874 95.7965 238.965 96.1325 239.146C96.4685 239.327 96.7298 239.586 96.9165 239.922C97.1085 240.258 97.2045 240.65 97.2045 241.098ZM95.8045 240.738C95.8045 240.503 95.7245 240.317 95.5645 240.178C95.4045 240.039 95.2045 239.97 94.9645 239.97C94.7352 239.97 94.5405 240.037 94.3805 240.17C94.2258 240.303 94.1298 240.493 94.0925 240.738H95.8045ZM99.7422 243.466C99.3528 243.466 99.0062 243.399 98.7022 243.266C98.3982 243.133 98.1582 242.951 97.9822 242.722C97.8062 242.487 97.7075 242.226 97.6862 241.938H99.0382C99.0542 242.093 99.1262 242.218 99.2542 242.314C99.3822 242.41 99.5395 242.458 99.7262 242.458C99.8968 242.458 100.028 242.426 100.118 242.362C100.214 242.293 100.262 242.205 100.262 242.098C100.262 241.97 100.196 241.877 100.062 241.818C99.9288 241.754 99.7128 241.685 99.4142 241.61C99.0942 241.535 98.8275 241.458 98.6142 241.378C98.4008 241.293 98.2168 241.162 98.0622 240.986C97.9075 240.805 97.8302 240.562 97.8302 240.258C97.8302 240.002 97.8995 239.77 98.0382 239.562C98.1822 239.349 98.3902 239.181 98.6622 239.058C98.9395 238.935 99.2675 238.874 99.6462 238.874C100.206 238.874 100.646 239.013 100.966 239.29C101.292 239.567 101.478 239.935 101.526 240.394H100.262C100.241 240.239 100.172 240.117 100.054 240.026C99.9422 239.935 99.7928 239.89 99.6062 239.89C99.4462 239.89 99.3235 239.922 99.2382 239.986C99.1528 240.045 99.1102 240.127 99.1102 240.234C99.1102 240.362 99.1768 240.458 99.3102 240.522C99.4488 240.586 99.6622 240.65 99.9502 240.714C100.281 240.799 100.55 240.885 100.758 240.97C100.966 241.05 101.148 241.183 101.302 241.37C101.462 241.551 101.545 241.797 101.55 242.106C101.55 242.367 101.476 242.602 101.326 242.81C101.182 243.013 100.972 243.173 100.694 243.29C100.422 243.407 100.105 243.466 99.7422 243.466Z" fill="#555555"/>
<path d="M44.1774 248.834V247.562H46.3934V253.402H44.9694V248.834H44.1774Z" fill="#B4B9BF"/>
<path d="M151.761 243.882V245.018H153.593V246.074H151.761V247.306H153.833V248.402H150.393V242.786H153.833V243.882H151.761ZM158.161 248.402L157.017 246.682L156.009 248.402H154.457L156.257 245.546L154.417 242.786H156.009L157.137 244.482L158.129 242.786H159.681L157.897 245.618L159.753 248.402H158.161ZM160.208 245.586C160.208 245.031 160.328 244.538 160.568 244.106C160.808 243.669 161.141 243.33 161.568 243.09C162 242.845 162.488 242.722 163.032 242.722C163.698 242.722 164.269 242.898 164.744 243.25C165.218 243.602 165.536 244.082 165.696 244.69H164.192C164.08 244.455 163.92 244.277 163.712 244.154C163.509 244.031 163.277 243.97 163.016 243.97C162.594 243.97 162.253 244.117 161.992 244.41C161.73 244.703 161.6 245.095 161.6 245.586C161.6 246.077 161.73 246.469 161.992 246.762C162.253 247.055 162.594 247.202 163.016 247.202C163.277 247.202 163.509 247.141 163.712 247.018C163.92 246.895 164.08 246.717 164.192 246.482H165.696C165.536 247.09 165.218 247.57 164.744 247.922C164.269 248.269 163.698 248.442 163.032 248.442C162.488 248.442 162 248.322 161.568 248.082C161.141 247.837 160.808 247.498 160.568 247.066C160.328 246.634 160.208 246.141 160.208 245.586ZM167.901 243.882V245.018H169.733V246.074H167.901V247.306H169.973V248.402H166.533V242.786H169.973V243.882H167.901ZM172.229 247.346H174.021V248.402H170.861V242.786H172.229V247.346ZM176.042 247.346H177.834V248.402H174.674V242.786H176.042V247.346ZM179.854 243.882V245.018H181.686V246.074H179.854V247.306H181.926V248.402H178.486V242.786H181.926V243.882H179.854ZM187.839 248.402H186.471L184.183 244.938V248.402H182.815V242.786H184.183L186.471 246.266V242.786H187.839V248.402ZM192.87 242.786V243.882H191.382V248.402H190.014V243.882H188.526V242.786H192.87Z" fill="#31B643"/>
<path d="M29.9614 227.402H207.897H29.9614ZM207.897 263.402H29.9614H207.897ZM31.3321 263.402C30.0228 263.402 28.9614 262.341 28.9614 261.031V229.773C28.9614 228.463 30.0228 227.402 31.3321 227.402H31.3321C31.1274 227.402 30.9614 228.016 30.9614 228.773V262.031C30.9614 262.788 31.1274 263.402 31.3321 263.402H31.3321ZM207.897 227.402V263.402V227.402Z" fill="#31B643" mask="url(#path-36-inside-1_2_4270)"/>
</g>
<g filter="url(#filter1_d_2_4270)">
<mask id="path-41-inside-2_2_4270" fill="white">
<path d="M29.9614 275.723C29.9614 274.966 30.5751 274.352 31.3321 274.352H206.526C207.283 274.352 207.897 274.966 207.897 275.723V308.981C207.897 309.738 207.283 310.352 206.526 310.352H31.3321C30.5751 310.352 29.9614 309.738 29.9614 308.981V275.723Z"/>
</mask>
<path d="M29.9614 275.723C29.9614 274.966 30.5751 274.352 31.3321 274.352H206.526C207.283 274.352 207.897 274.966 207.897 275.723V308.981C207.897 309.738 207.283 310.352 206.526 310.352H31.3321C30.5751 310.352 29.9614 309.738 29.9614 308.981V275.723Z" fill="white" shape-rendering="crispEdges"/>
<path d="M29.9614 274.352H207.897H29.9614ZM207.897 310.352H29.9614H207.897ZM31.3321 310.352C30.0228 310.352 28.9614 309.291 28.9614 307.981V276.723C28.9614 275.413 30.0228 274.352 31.3321 274.352H31.3321C31.1274 274.352 30.9614 274.966 30.9614 275.723V308.981C30.9614 309.738 31.1274 310.352 31.3321 310.352H31.3321ZM207.897 274.352V310.352V274.352Z" fill="#D0021B" mask="url(#path-41-inside-2_2_4270)"/>
</g>
</g>
</g>
<defs>
<filter id="filter0_d_2_4270" x="25.8493" y="223.29" width="186.159" height="44.2242" filterUnits="userSpaceOnUse" color-interpolation-filters="sRGB">
<feFlood flood-opacity="0" result="BackgroundImageFix"/>
<feColorMatrix in="SourceAlpha" type="matrix" values="0 0 0 0 0 0 0 0 0 0 0 0 0 0 0 0 0 0 127 0" result="hardAlpha"/>
<feMorphology radius="1.37069" operator="dilate" in="SourceAlpha" result="effect1_dropShadow_2_4270"/>
<feOffset/>
<feGaussianBlur stdDeviation="1.37069"/>
<feComposite in2="hardAlpha" operator="out"/>
<feColorMatrix type="matrix" values="0 0 0 0 0.333333 0 0 0 0 0.333333 0 0 0 0 0.333333 0 0 0 0.14 0"/>
<feBlend mode="normal" in2="BackgroundImageFix" result="effect1_dropShadow_2_4270"/>
<feBlend mode="normal" in="SourceGraphic" in2="effect1_dropShadow_2_4270" result="shape"/>
</filter>
<filter id="filter1_d_2_4270" x="25.8493" y="270.24" width="186.159" height="44.2242" filterUnits="userSpaceOnUse" color-interpolation-filters="sRGB">
<feFlood flood-opacity="0" result="BackgroundImageFix"/>
<feColorMatrix in="SourceAlpha" type="matrix" values="0 0 0 0 0 0 0 0 0 0 0 0 0 0 0 0 0 0 127 0" result="hardAlpha"/>
<feMorphology radius="1.37069" operator="dilate" in="SourceAlpha" result="effect1_dropShadow_2_4270"/>
<feOffset/>
<feGaussianBlur stdDeviation="1.37069"/>
<feComposite in2="hardAlpha" operator="out"/>
<feColorMatrix type="matrix" values="0 0 0 0 0.333333 0 0 0 0 0.333333 0 0 0 0 0.333333 0 0 0 0.14 0"/>
<feBlend mode="normal" in2="BackgroundImageFix" result="effect1_dropShadow_2_4270"/>
<feBlend mode="normal" in="SourceGraphic" in2="effect1_dropShadow_2_4270" result="shape"/>
</filter>
<linearGradient id="paint0_linear_2_4270" x1="133.065" y1="19.8187" x2="143.595" y2="30.3952" gradientUnits="userSpaceOnUse">
<stop/>
<stop offset="1" stop-color="#231F20"/>
</linearGradient>
<clipPath id="clip0_2_4270">
<rect width="238" height="275" fill="white"/>
</clipPath>
<clipPath id="clip1_2_4270">
<rect x="12" y="10" width="213.858" height="458" rx="2.80565" fill="white"/>
</clipPath>
<clipPath id="clip2_2_4270">
<rect width="28.5567" height="11.6342" fill="white" transform="translate(34.7402 19.5188)"/>
</clipPath>
</defs>
</svg>
