<svg width="32" height="32" viewBox="0 0 32 32" fill="none" xmlns="http://www.w3.org/2000/svg">
<path fill-rule="evenodd" clip-rule="evenodd" d="M23.7558 16.5952L16.9501 23.3974C16.621 23.7265 16.0888 23.7265 15.7633 23.3974L14.9685 22.6027C14.6395 22.2736 14.6395 21.745 14.9685 21.4159L20.3599 16L14.9685 10.5841C14.643 10.255 14.643 9.72638 14.9685 9.3973L15.7633 8.6026C16.0923 8.27351 16.6245 8.27351 16.9501 8.6026L23.7558 15.4048C24.0814 15.7339 24.0814 16.2661 23.7558 16.5952ZM17.0341 15.4048L10.2283 8.6026C9.89924 8.27351 9.3671 8.27351 9.04152 8.6026L8.24681 9.3973C7.91773 9.72638 7.91773 10.255 8.24681 10.5841L13.6382 16L8.24681 21.4159C7.92123 21.745 7.92123 22.2736 8.24681 22.6027L9.04152 23.3974C9.3706 23.7265 9.90274 23.7265 10.2283 23.3974L17.0341 16.5952C17.3597 16.2661 17.3597 15.7339 17.0341 15.4048Z" fill="white"/>
</svg>
