<svg width="16" height="16" viewBox="0 0 16 16" fill="none" xmlns="http://www.w3.org/2000/svg">
<path opacity="0.4" d="M8.6736 8L10.0044 9.33336L6.38774 12.943C6.16808 13.1626 5.81194 13.1626 5.59227 12.943L5.06024 12.4121C4.84125 12.1931 4.84125 11.838 5.06024 11.619L8.6736 8Z" fill="#00A6CA"/>
<path d="M6.38867 3.05609L10.9433 7.60297C11.1623 7.82199 11.1623 8.17707 10.9433 8.39609L10.0058 9.33359L5.06046 4.38031C4.95524 4.27516 4.89612 4.13251 4.89612 3.98375C4.89612 3.835 4.95524 3.69234 5.06046 3.58719L5.59249 3.05633C5.69798 2.9506 5.84118 2.89116 5.99053 2.89112C6.13988 2.89108 6.28312 2.95043 6.38867 3.05609Z" fill="#00A6CA"/>
</svg>
