<svg width="363" height="270" viewBox="0 0 363 270" fill="none" xmlns="http://www.w3.org/2000/svg">
<path opacity="0.1" d="M-2.6831e-05 227.831C47.4662 204.403 71.1993 176.876 71.1994 145.249C50.9678 142.907 34.2379 134.512 21.0096 120.065C7.78133 106.009 1.16716 89.6095 1.16716 70.8677C1.16716 50.9545 7.58681 34.1649 20.426 20.4989C33.2653 6.83298 49.4116 3.1028e-06 68.8649 4.80347e-06C90.6527 6.70822e-06 109.522 8.78529 125.474 26.3558C141.426 44.3167 149.402 65.987 149.402 91.3666C149.402 167.505 106.994 227.05 22.1768 270L-2.6831e-05 227.831ZM213.598 227.831C261.453 204.403 285.381 176.876 285.381 145.249C264.76 142.907 247.836 134.512 234.608 120.065C221.379 106.009 214.765 89.6096 214.765 70.8677C214.765 50.9545 221.379 34.1649 234.608 20.4989C247.447 6.833 263.593 2.18272e-05 283.047 2.35278e-05C304.834 2.54326e-05 323.704 8.78531 339.656 26.3558C355.219 44.3167 363 65.987 363 91.3666C363 167.505 320.786 227.05 236.359 270L213.598 227.831Z" fill="#B4B9BF"/>
</svg>
