<svg width="152" height="43" viewBox="0 0 152 43" fill="none" xmlns="http://www.w3.org/2000/svg">
<path d="M50.771 27.3636V10.6405H48.0015V27.3636H50.771Z" fill="#009347"/>
<path d="M52.4661 21.7893C52.4661 25.2058 54.7816 27.6334 58.3003 27.6334C61.819 27.6334 64.1345 25.2058 64.1345 21.7893C64.1345 18.3727 61.819 15.9452 58.3003 15.9452C54.7816 15.9452 52.4661 18.3727 52.4661 21.7893ZM55.2583 21.7893C55.2583 19.7888 56.4615 18.3952 58.3003 18.3952C60.1391 18.3952 61.3423 19.7888 61.3423 21.7893C61.3423 23.7673 60.1391 25.1833 58.3003 25.1833C56.4615 25.1833 55.2583 23.7673 55.2583 21.7893Z" fill="#009347"/>
<path d="M65.0662 21.5645C65.0662 24.8012 67.1774 27.1389 70.3329 27.1389C71.9674 27.1389 73.3748 26.487 74.0786 25.4081V27.2962C74.0786 29.1169 72.9208 30.3306 70.9912 30.3306C69.2659 30.3306 68.0854 29.499 67.9265 28.038H65.1343C65.4975 30.9375 67.7449 32.8256 70.8323 32.8256C74.4645 32.8256 76.78 30.4655 76.78 26.8017V16.2599H74.3283L74.1694 17.7658C73.4883 16.597 72.0809 15.9002 70.4237 15.9002C67.2228 15.9002 65.0662 18.3053 65.0662 21.5645ZM67.8811 21.4971C67.8811 19.6539 69.0616 18.3053 70.8096 18.3053C72.7165 18.3053 73.9878 19.6764 73.9878 21.4971C73.9878 23.3402 72.7165 24.7563 70.8096 24.7563C69.0843 24.7563 67.8811 23.3627 67.8811 21.4971Z" fill="#009347"/>
<path d="M78.1504 21.7893C78.1504 25.2058 80.4659 27.6334 83.9846 27.6334C87.5033 27.6334 89.8189 25.2058 89.8189 21.7893C89.8189 18.3727 87.5033 15.9452 83.9846 15.9452C80.4659 15.9452 78.1504 18.3727 78.1504 21.7893ZM80.9426 21.7893C80.9426 19.7888 82.1458 18.3952 83.9846 18.3952C85.8234 18.3952 87.0266 19.7888 87.0266 21.7893C87.0266 23.7673 85.8234 25.1833 83.9846 25.1833C82.1458 25.1833 80.9426 23.7673 80.9426 21.7893Z" fill="#009347"/>
<path d="M92.8161 13.9897C93.7242 13.9897 94.4733 13.2704 94.4733 12.3488C94.4733 11.4497 93.7242 10.7305 92.8161 10.7305C91.8854 10.7305 91.1816 11.4497 91.1816 12.3488C91.1816 13.2704 91.8854 13.9897 92.8161 13.9897ZM91.4314 27.3636H94.2009V16.2599H91.4314V27.3636Z" fill="#009347"/>
<path d="M96.6274 32.5109H99.3291V25.8352C100.033 26.9815 101.554 27.6558 103.234 27.6558C106.548 27.6558 108.523 25.1384 108.478 21.6769C108.41 18.1929 106.389 15.9227 103.211 15.9227C101.508 15.9227 99.9647 16.6645 99.2837 17.9457L99.1248 16.2599H96.6274V32.5109ZM99.4426 21.8118C99.4426 19.8113 100.668 18.4177 102.598 18.4177C104.528 18.4177 105.685 19.8338 105.685 21.8118C105.685 23.7898 104.528 25.1833 102.598 25.1833C100.668 25.1833 99.4426 23.8122 99.4426 21.8118Z" fill="#009347"/>
<path d="M109.18 24.037C109.271 26.2398 110.997 27.6558 113.675 27.6558C116.309 27.6558 118.102 26.2623 118.102 24.1044C118.102 22.5085 117.103 21.4296 115.264 20.9801L113.289 20.5081C112.449 20.2833 111.882 19.9911 111.882 19.2718C111.882 18.5076 112.495 17.9681 113.494 17.9681C114.538 17.9681 115.219 18.5525 115.219 19.5191H117.739C117.648 17.3163 115.991 15.9227 113.562 15.9227C111.155 15.9227 109.362 17.3163 109.362 19.4292C109.362 20.8677 110.202 22.059 112.359 22.6209L114.311 23.1154C115.037 23.3177 115.491 23.6549 115.491 24.2843C115.491 25.1609 114.651 25.5655 113.63 25.5655C112.404 25.5655 111.7 25.0035 111.7 24.037H109.18Z" fill="#009347"/>
<path d="M123.847 27.6558C125.368 27.6558 126.821 26.959 127.48 25.9251L127.661 27.3636H130.249V16.2599H127.48V22.0815C127.48 24.082 126.708 25.2058 124.892 25.2058C123.484 25.2058 122.508 24.5315 122.508 22.2388V16.2599H119.739V23.2053C119.739 25.8577 121.191 27.6558 123.847 27.6558Z" fill="#009347"/>
<path d="M135.463 27.3636V20.9801C135.463 19.1819 136.53 18.3278 137.846 18.3278C139.163 18.3278 140.026 19.1594 140.026 20.7328V27.3636H142.727V21.0026C142.727 19.1819 143.771 18.3278 145.088 18.3278C146.427 18.3278 147.29 19.1594 147.29 20.7328V27.3636H149.969V20.1035C149.969 17.5411 148.539 15.9227 145.814 15.9227C144.112 15.9227 142.772 16.7319 142.228 18.0356C141.615 16.7319 140.389 15.9227 138.527 15.9227C137.211 15.9227 136.03 16.5296 135.372 17.5186L135.236 16.2599H132.693V27.3636H135.463Z" fill="#009347"/>
<path d="M128.823 37.2869C129.236 37.2869 129.594 36.9429 129.594 36.5344C129.594 36.1151 129.236 35.7711 128.823 35.7711C128.4 35.7711 128.041 36.1151 128.041 36.5344C128.041 36.9429 128.4 37.2869 128.823 37.2869Z" fill="#555555"/>
<path d="M130.39 34.5134C130.39 36.1581 131.411 37.2654 132.898 37.2654C134.18 37.2654 135.157 36.5021 135.363 35.3626H134.386C134.201 35.9969 133.637 36.3731 132.964 36.3731C132.008 36.3731 131.4 35.6421 131.4 34.5026C131.4 33.3416 132.041 32.6321 132.985 32.6321C133.637 32.6321 134.201 32.9761 134.375 33.6534H135.352C135.178 32.5031 134.266 31.7291 132.996 31.7291C131.454 31.7291 130.39 32.8579 130.39 34.5134Z" fill="#555555"/>
<path d="M135.748 34.5026C135.748 36.0829 136.834 37.2654 138.462 37.2654C140.091 37.2654 141.176 36.0829 141.176 34.5026C141.176 32.9224 140.091 31.7399 138.462 31.7399C136.834 31.7399 135.748 32.9224 135.748 34.5026ZM136.779 34.5026C136.779 33.4276 137.442 32.6429 138.462 32.6429C139.483 32.6429 140.145 33.4276 140.145 34.5026C140.145 35.5776 139.483 36.3624 138.462 36.3624C137.442 36.3624 136.779 35.5776 136.779 34.5026Z" fill="#555555"/>
<path d="M143.068 37.1471V33.9866C143.068 33.1589 143.59 32.6214 144.35 32.6214C145.077 32.6214 145.533 33.0836 145.533 33.9114V37.1471H146.532V33.9974C146.532 33.1589 147.042 32.6214 147.813 32.6214C148.53 32.6214 148.986 33.0836 148.986 33.9114V37.1471H149.974V33.6964C149.974 32.4816 149.257 31.7399 148.041 31.7399C147.216 31.7399 146.575 32.1376 146.315 32.7826C146.043 32.1376 145.446 31.7399 144.578 31.7399C143.915 31.7399 143.329 32.0409 143.036 32.5569L142.96 31.8904H142.048V37.1471H143.068Z" fill="#555555"/>
<path fill-rule="evenodd" clip-rule="evenodd" d="M1.97412 21.9254L1.97603 21.7296L1.97995 21.5336L1.98592 21.3377L1.9939 21.1417L2.00393 20.9458L2.01598 20.7498L2.03007 20.554L2.04619 20.3582L2.06435 20.1624L2.08455 19.9667L2.10678 19.7712L2.13103 19.5758L2.15732 19.3805L2.18565 19.1854L2.216 18.9906L2.24838 18.796L2.2828 18.6015L2.31923 18.4074L2.35769 18.2135L2.39818 18.0199L2.44069 17.8266L2.48521 17.6337L2.53175 17.4412L2.5803 17.249L2.63086 17.0572L2.68342 16.8658L2.73799 16.6748L2.79456 16.4843L2.85312 16.2944L2.91366 16.1049L2.9762 15.9159L3.04072 15.7273L3.10721 15.5394L3.17567 15.3521L3.2461 15.1653L3.31849 14.9791L3.39284 14.7937L3.46914 14.6088L3.54738 14.4246L3.62756 14.2411L3.70966 14.0583L3.7937 13.8762L3.87965 13.6949L3.96751 13.5143L4.05728 13.3345L4.14895 13.1556L4.24249 12.9774L4.33793 12.8L4.43523 12.6236L4.53439 12.448L4.63542 12.2733L4.73829 12.0995L4.843 11.9266L4.94954 11.7547L5.0579 11.5838L5.16808 11.4139L5.28005 11.245L5.39383 11.077L5.50937 10.9102L5.6267 10.7443L5.74578 10.5796L5.86661 10.416L5.98919 10.2534L6.1135 10.092L6.23953 9.93173L6.36726 9.77257L6.49668 9.61464L6.6278 9.45791L6.76058 9.30239L6.89503 9.14808L7.03113 8.99503L7.16886 8.84325L7.30822 8.69274L7.44919 8.54353L7.59175 8.39563L7.73591 8.24906L7.88163 8.10383L8.02891 7.95996L8.17774 7.81746L8.32811 7.67635L8.47999 7.53666L8.63337 7.39838L8.78824 7.26154L8.94459 7.12615L9.10241 6.99221L9.26166 6.85977L9.42235 6.72883L9.58446 6.59939L9.74796 6.47147L9.91286 6.34509L10.0791 6.22027L10.2468 6.09701L10.4157 5.97534L10.586 5.85526L10.7576 5.73679L10.9305 5.61993L11.1046 5.5047L11.28 5.39114L11.4567 5.27922L11.6346 5.16898L11.8137 5.06043L11.994 4.95356L12.1754 4.84842L12.358 4.74499L12.5418 4.6433L12.7266 4.54335L12.9126 4.44515L13.0996 4.34874L13.2878 4.25409L13.477 4.16124L13.6672 4.07019L13.8584 3.98094L14.0506 3.89352L14.2439 3.80794L14.438 3.7242L14.6332 3.64232L14.8292 3.5623L15.0261 3.48414L15.2239 3.40787L15.4226 3.3335L15.622 3.26101L15.8224 3.19045L16.0236 3.1218L16.2255 3.05507L16.4281 2.99029L16.6316 2.92744L16.8358 2.86655L17.0407 2.80762L17.2462 2.75065L17.4525 2.69565L17.6593 2.64263L17.8668 2.59161L18.0749 2.54259L18.2836 2.49555L18.4929 2.45054L18.7026 2.40753L18.9129 2.36654L19.1238 2.32759L19.3351 2.29066L19.5469 2.25577L19.7591 2.22292L19.9717 2.19212L20.1847 2.16338L20.3981 2.13669L20.6119 2.11206L20.826 2.08949L21.0403 2.069L21.255 2.05058L21.47 2.03423L21.6852 2.01997L22.8423 1.95455L22.9084 7.47484L22.9462 7.47441L23.106 7.47418L23.2658 7.47551L23.4256 7.47839L23.5856 7.48284L23.7455 7.48884L23.9055 7.49639L24.0654 7.5055L24.2254 7.51619L24.3853 7.52841L24.5453 7.54221L24.7051 7.55757L24.8649 7.5745L25.0245 7.59298L25.1841 7.61302L25.3435 7.63463L25.5028 7.65779L25.6619 7.68253L25.8209 7.70882L25.9797 7.73666L26.1383 7.76606L26.2966 7.79702L26.4546 7.82955L26.6125 7.86362L26.7701 7.89924L26.9273 7.9364L27.0843 7.97512L27.241 8.0154L27.3972 8.0572L27.5532 8.10056L27.7088 8.14544L27.864 8.19186L28.0187 8.23982L28.1731 8.28931L28.3271 8.34032L28.4806 8.39285L28.6335 8.4469L28.7861 8.50246L28.9381 8.55954L29.0896 8.61812L29.2407 8.67821L29.3911 8.7398L29.5409 8.80287L29.6902 8.86744L29.839 8.93349L29.987 9.00102L30.1345 9.07002L30.2814 9.14049L30.4275 9.21243L30.573 9.28582L30.7178 9.36066L30.8619 9.43695L31.0053 9.51468L31.148 9.59384L31.2899 9.67442L31.431 9.75643L31.5714 9.83987L31.7109 9.92469L31.8497 10.0109L31.9876 10.0985L32.1247 10.1875L32.2609 10.2779L32.3963 10.3696L32.5308 10.4627L32.6644 10.5572L32.7971 10.653L32.9287 10.7501L33.0596 10.8486L33.1894 10.9484L33.3183 11.0495L33.4461 11.1519L33.573 11.2555L33.6989 11.3606L33.8237 11.4668L33.9476 11.5743L34.0704 11.6831L34.192 11.7931L34.3126 11.9045L34.4321 12.0169L34.5506 12.1306L34.6678 12.2455L34.784 12.3616L34.899 12.479L35.0129 12.5974L35.1255 12.7171L35.237 12.8378L35.3473 12.9598L35.4564 13.0828L35.5642 13.2071L35.6708 13.3323L35.7763 13.4587L35.8804 13.5862L35.9832 13.7148L36.0848 13.8443L36.1851 13.975L36.2841 14.1067L36.3817 14.2394L36.478 14.3732L36.573 14.508L36.6666 14.6436L36.7589 14.7804L36.8498 14.9181L36.9394 15.0567L37.0274 15.1963L37.1142 15.3367L37.1994 15.4781L37.2833 15.6204L37.3657 15.7636L37.4468 15.9077L37.5263 16.0526L37.6044 16.1983L37.681 16.3449L37.7561 16.4923L37.8297 16.6404L37.9019 16.7894L37.9726 16.9392L38.0416 17.0897L38.1093 17.2409L38.1753 17.3929L38.2397 17.5457L38.3027 17.699L38.3641 17.8531L38.4239 18.0078L38.4822 18.1633L38.5388 18.3193L38.5939 18.476L38.6474 18.6333L38.6993 18.7912L38.7495 18.9496L38.7982 19.1086L38.8452 19.2682L38.8906 19.4283L38.9343 19.5889L38.9764 19.7501L39.0168 19.9116L39.0557 20.0738L39.0928 20.2363L39.1283 20.3993L39.1621 20.5626L39.1942 20.7265L39.2246 20.8907L39.2534 21.0552L39.2804 21.2201L39.3058 21.3854L39.3295 21.551L39.3514 21.7169L39.3716 21.8831L39.3902 22.0495L39.407 22.2162L39.4221 22.3832L39.4355 22.5504L39.4472 22.7178L39.457 22.8854L39.4652 23.0531L39.4717 23.2211L39.4764 23.3891L39.4794 23.5573L39.4806 23.7255L39.4801 23.8939L39.4779 24.0624L39.4738 24.231L39.4681 24.3995L39.4606 24.5681L39.4514 24.7366L39.4403 24.9052L39.4276 25.0738L39.4131 25.2423L39.3968 25.4108L39.3789 25.5791L39.359 25.7473L39.3375 25.9155L39.3143 26.0835L39.2892 26.2514L39.2625 26.4191L39.234 26.5866L39.2037 26.7539L39.1717 26.921L39.1379 27.0879L39.1024 27.2546L39.0651 27.4209L39.0261 27.587L38.9854 27.7528L38.9429 27.9182L38.8987 28.0833L38.8528 28.2481L38.8051 28.4124L38.7557 28.5764L38.7046 28.7401L38.6517 28.9032L38.5972 29.066L38.541 29.2283L38.4829 29.3901L38.4233 29.5515L38.3619 29.7122L38.2989 29.8725L38.2341 30.0323L38.1677 30.1915L38.0996 30.3501L38.0298 30.5082L37.9583 30.6655L37.8852 30.8224L37.8104 30.9786L37.734 31.1341L37.6558 31.2889L37.5762 31.4431L37.4947 31.5966L37.4118 31.7492L37.3271 31.9013L37.241 32.0525L37.1531 32.203L37.0637 32.3527L36.9727 32.5016L36.8801 32.6497L36.7859 32.7969L36.6901 32.9433L36.5929 33.0888L36.494 33.2334L36.3936 33.3772L36.2917 33.5201L36.1882 33.662L36.0832 33.803L35.9767 33.943L35.8687 34.0821L35.7593 34.2201L35.6483 34.3572L35.5359 34.4932L35.422 34.6282L35.3066 34.7622L35.1899 34.8951L35.0716 35.0269L34.952 35.1577L34.831 35.2874L34.7086 35.4159L34.5847 35.5433L34.4596 35.6695L34.3329 35.7946L34.205 35.9185L34.0758 36.0412L33.9452 36.1628L33.8134 36.2831L33.6801 36.4022L33.5456 36.52L33.4099 36.6366L33.2728 36.752L33.1345 36.866L32.995 36.9787L32.8542 37.0902L32.7122 37.2004L32.569 37.3091L32.4246 37.4165L32.279 37.5227L32.1323 37.6274L31.9844 37.7307L31.8353 37.8328L31.6852 37.9333L31.534 38.0324L31.3816 38.1302L31.2282 38.2265L31.0737 38.3213L30.9182 38.4147L30.7615 38.5066L30.6039 38.5971L30.4454 38.686L30.2857 38.7734L30.1252 38.8594L29.9636 38.9437L29.8012 39.0266L29.6377 39.108L29.4734 39.1878L29.3082 39.2659L29.142 39.3427L28.975 39.4177L28.8073 39.4912L28.6386 39.563L28.4691 39.6333L28.2988 39.702L28.1278 39.769L27.956 39.8344L27.7833 39.8982L27.61 39.9603L27.4359 40.0208L27.2612 40.0795L27.0858 40.1367L26.9096 40.1921L26.7328 40.2459L26.5555 40.2979L26.3775 40.3483L26.1989 40.3969L26.0197 40.4439L25.8399 40.4891L25.6597 40.5326L25.4788 40.5744L25.2974 40.6144L25.1156 40.6527L24.9333 40.6892L24.7505 40.724L24.5673 40.7571L24.3838 40.7882L24.1997 40.8177L24.0153 40.8455L23.8304 40.8714L23.6454 40.8955L23.4599 40.9179L23.2741 40.9384L23.088 40.9572L22.9017 40.9742L22.7151 40.9894L22.5283 41.0027L22.3412 41.0143L22.1539 41.024L21.9665 41.032L21.7789 41.038L21.5911 41.0423L21.4033 41.0448L21.2153 41.0455L21.0272 41.0443L20.8391 41.0413L20.6509 41.0365L20.4627 41.0297L20.2744 41.0212L20.0862 41.011L19.8981 40.9987L19.7099 40.9848L19.5218 40.9689L19.3338 40.9512L19.1459 40.9318L18.9581 40.9105L18.7705 40.8873L18.583 40.8623L18.3957 40.8354L18.2086 40.8068L18.0218 40.7763L17.8351 40.7441L17.6487 40.7099L17.4626 40.6739L17.2768 40.6362L17.0913 40.5965L16.906 40.5551L16.7213 40.5119L16.5368 40.4668L16.3527 40.4199L16.169 40.3712L15.9859 40.3208L15.8031 40.2685L15.6207 40.2145L15.4389 40.1586L15.2575 40.1009L15.0767 40.0415L14.8964 39.9802L14.7167 39.9172L14.5375 39.8525L14.359 39.7859L14.181 39.7176L14.0037 39.6476L13.8271 39.5757L13.6511 39.5021L13.4758 39.4269L13.3012 39.3499L13.1273 39.2711L12.9541 39.1906L12.7818 39.1084L12.6103 39.0245L12.4394 38.9388L12.2695 38.8516L12.1004 38.7625L11.932 38.672L11.7646 38.5796L11.5981 38.4856L11.4325 38.3899L11.2677 38.2926L11.104 38.1937L10.9411 38.093L10.7793 37.9909L10.6185 37.887L10.4586 37.7817L10.2998 37.6745L10.142 37.566L9.98531 37.4558L9.82967 37.344L9.67512 37.2308L9.52168 37.1158L9.36938 36.9994L9.2182 36.8816L9.06819 36.7621L8.91936 36.6412L8.77171 36.5187L8.62527 36.3948L8.48005 36.2694L8.33607 36.1425L8.19335 36.0142L8.0519 35.8845L7.91172 35.7532L7.77286 35.6207L7.63531 35.4866L7.49908 35.3513L7.36421 35.2146L7.2307 35.0764L7.09855 34.9369L6.9678 34.7961L6.83847 34.6539L6.71054 34.5104L6.58404 34.3657L6.459 34.2196L6.33542 34.0723L6.21331 33.9237L6.09269 33.7739L5.97358 33.6228L5.85597 33.4705L5.7399 33.317L5.62537 33.1623L5.51239 33.0064L5.40098 32.8494L5.29116 32.6912L5.18292 32.5319L5.07629 32.3715L4.97128 32.21L4.8679 32.0474L4.76615 31.8837L4.66607 31.719L4.56765 31.5532L4.47091 31.3865L4.37585 31.2187L4.28249 31.0499L4.19084 30.8801L4.10091 30.7093L4.01272 30.5377L3.92625 30.3651L3.84156 30.1917L3.75862 30.0172L3.67745 29.842L3.59806 29.6658L3.52046 29.4889L3.44467 29.311L3.37069 29.1325L3.29852 28.9531L3.22819 28.7729L3.1597 28.592L3.09305 28.4103L3.02825 28.2279L2.96531 28.0449L2.90424 27.8611L2.84506 27.6767L2.78776 27.4916L2.73235 27.3059L2.67885 27.1195L2.62725 26.9326L2.57756 26.7451L2.5298 26.5571L2.48396 26.3685L2.44007 26.1794L2.39811 25.9897L2.3581 25.7996L2.32004 25.609L2.28393 25.4181L2.24979 25.2266L2.21763 25.0348L2.18742 24.8426L2.15921 24.6499L2.13297 24.4569L2.10873 24.2636L2.08647 24.07L2.06621 23.8761L2.04795 23.6821L2.03169 23.4876L2.01744 23.2929L2.0052 23.098L1.99498 22.903L1.98676 22.7077L1.98057 22.5124L1.97639 22.3168L1.97425 22.1212L1.97412 21.9254ZM21.1006 7.59047L21.0555 3.82777L21.0128 3.83186L20.8166 3.85254L20.6209 3.87509L20.4252 3.89956L20.2304 3.92585L20.0358 3.95406L19.8413 3.98415L19.6475 4.01608L19.4538 4.04993L19.2612 4.08553L19.0682 4.12312L18.8766 4.16241L18.6847 4.20368L18.4939 4.2467L18.3032 4.29163L18.1134 4.33829L17.9241 4.38682L17.7352 4.43716L17.547 4.48932L17.3597 4.54322L17.1726 4.59899L16.9866 4.65648L16.801 4.7158L16.6165 4.77676L16.4322 4.83965L16.2489 4.90422L16.0665 4.9705L15.8846 5.03858L15.7037 5.10833L15.5237 5.17976L15.3443 5.25303L15.1657 5.32795L14.9881 5.40459L14.8114 5.48284L14.6356 5.56279L14.4608 5.64436L14.2866 5.72772L14.1137 5.8126L13.9417 5.89914L13.7706 5.98731L13.6005 6.07711L13.4317 6.16845L13.2635 6.26148L13.0964 6.35611L12.9308 6.4521L12.7656 6.54997L12.6021 6.64913L12.4396 6.74984L12.2779 6.8522L12.1176 6.95605L11.9583 7.06142L11.8006 7.16803L11.6435 7.27653L11.4879 7.38619L11.3336 7.49736L11.1803 7.61006L11.0284 7.7241L10.8779 7.83951L10.7282 7.95653L10.5803 8.07468L10.4334 8.19437L10.2879 8.31537L10.1437 8.43777L10.001 8.56135L9.85935 8.68649L9.71931 8.81274L9.58047 8.94045L9.44323 9.06924L9.30725 9.19942L9.17278 9.33077L9.03968 9.46343L8.90788 9.59745L8.7778 9.7324L8.64918 9.8685L8.52171 10.0062L8.396 10.1448L8.27184 10.2843L8.14894 10.4254L8.02784 10.5673L7.90807 10.7104L7.78992 10.8546L7.67331 10.9999L7.55823 11.1462L7.44484 11.2935L7.33293 11.4418L7.22256 11.5913L7.11397 11.7415L7.00683 11.893L6.9014 12.0453L6.79759 12.1985L6.69535 12.3527L6.59483 12.5078L6.49596 12.6637L6.39875 12.8205L6.30328 12.9782L6.20937 13.1368L6.11716 13.2963L6.02676 13.4564L5.93797 13.6173L5.85089 13.7792L5.76557 13.9417L5.68193 14.105L5.60009 14.2689L5.51996 14.4335L5.44159 14.5989L5.36493 14.765L5.29008 14.9317L5.21693 15.0991L5.14557 15.2671L5.07604 15.4355L5.00824 15.6047L4.94222 15.7745L4.87801 15.9447L4.81558 16.1155L4.755 16.2867L4.69616 16.4586L4.63915 16.6309L4.58397 16.8037L4.53061 16.9768L4.47903 17.1505L4.42932 17.3245L4.38142 17.4989L4.33533 17.6737L4.29108 17.8489L4.24868 18.0243L4.20812 18.2001L4.16939 18.3762L4.1325 18.5526L4.09746 18.7292L4.06426 18.9061L4.03291 19.0832L4.00341 19.2606L3.97576 19.4381L3.94996 19.6157L3.92602 19.7936L3.90392 19.9715L3.88368 20.1496L3.86529 20.3279L3.84876 20.5061L3.83407 20.6844L3.82124 20.8628L3.81026 21.0413L3.80113 21.2196L3.79386 21.3981L3.78843 21.5764L3.78486 21.7548L3.78312 21.933L3.78324 22.1113L3.78519 22.2893L3.78899 22.4674L3.79463 22.6453L3.8021 22.8229L3.81142 23.0005L3.82255 23.1778L3.83552 23.355L3.85031 23.5318L3.86694 23.7085L3.88536 23.885L3.90562 24.0611L3.92768 24.237L3.95154 24.4126L3.97721 24.5878L4.00469 24.7627L4.03395 24.9372L4.06501 25.1113L4.09785 25.2851L4.13246 25.4583L4.16885 25.6313L4.20701 25.8037L4.24694 25.9757L4.28862 26.1472L4.33205 26.3182L4.37723 26.4888L4.42413 26.6586L4.47279 26.8281L4.52317 26.997L4.57527 27.1653L4.62908 27.3329L4.68458 27.5L4.74178 27.6664L4.80069 27.8321L4.86127 27.9973L4.92351 28.1617L4.98746 28.3255L5.05303 28.4885L5.12025 28.6508L5.18914 28.8123L5.25964 28.9731L5.33178 29.1332L5.40553 29.2925L5.48089 29.4509L5.55784 29.6085L5.63638 29.7653L5.7165 29.9213L5.79819 30.0763L5.88144 30.2306L5.96624 30.3839L6.05258 30.5363L6.14044 30.6877L6.22983 30.8383L6.32073 30.9879L6.41308 31.1365L6.50699 31.2842L6.60232 31.4308L6.69915 31.5765L6.79743 31.7211L6.89712 31.8647L6.99825 32.0072L7.10083 32.1488L7.20479 32.2892L7.31017 32.4285L7.41689 32.5667L7.52503 32.7038L7.63447 32.8398L7.74529 32.9746L7.85748 33.1084L7.97092 33.241L8.08571 33.3723L8.20177 33.5025L8.31915 33.6315L8.43777 33.7592L8.55763 33.8858L8.67875 34.011L8.80109 34.1352L8.92469 34.258L9.04944 34.3795L9.17543 34.4998L9.30253 34.6187L9.43082 34.7365L9.56028 34.8529L9.69086 34.9679L9.82247 35.0815L9.95531 35.1939L10.0892 35.305L10.2241 35.4146L10.3602 35.523L10.4972 35.6298L10.6353 35.7353L10.7743 35.8395L10.9145 35.9422L11.0555 36.0435L11.1976 36.1434L11.3405 36.2418L11.4845 36.3388L11.6293 36.4343L11.7752 36.5284L11.9217 36.621L12.0693 36.7121L12.2177 36.8018L12.3669 36.89L12.517 36.9767L12.6678 37.0618L12.8195 37.1455L12.9719 37.2275L13.1252 37.3082L13.2791 37.3872L13.4337 37.4648L13.5892 37.5408L13.7453 37.6152L13.9021 37.6881L14.0595 37.7595L14.2175 37.8292L14.3763 37.8974L14.5356 37.9639L14.6956 38.029L14.8561 38.0924L15.0172 38.1542L15.1789 38.2145L15.3409 38.2731L15.5036 38.3301L15.6669 38.3855L15.8305 38.4394L15.9946 38.4915L16.1591 38.5421L16.3242 38.591L16.4895 38.6383L16.6553 38.684L16.8216 38.728L16.9881 38.7705L17.155 38.8112L17.3221 38.8503L17.4897 38.8878L17.6575 38.9236L17.8255 38.9578L17.9938 38.9903L18.1624 39.0212L18.3312 39.0504L18.5002 39.078L18.6693 39.1039L18.8387 39.1281L19.0083 39.1507L19.1779 39.1717L19.3476 39.191L19.5175 39.2086L19.6875 39.2246L19.8575 39.2389L20.0276 39.2516L20.1976 39.2625L20.3678 39.2719L20.5379 39.2795L20.7079 39.2856L20.878 39.29L21.048 39.2926L21.2179 39.2937L21.3878 39.2931L21.5575 39.2909L21.7271 39.287L21.8966 39.2815L22.066 39.2743L22.2351 39.2655L22.404 39.2551L22.5728 39.2431L22.7414 39.2294L22.9097 39.214L23.0776 39.197L23.2454 39.1785L23.4128 39.1583L23.58 39.1365L23.7468 39.1131L23.9133 39.0881L24.0795 39.0615L24.2453 39.0333L24.4107 39.0034L24.5756 38.9721L24.7402 38.9391L24.9043 38.9045L25.068 38.8685L25.2311 38.8308L25.3939 38.7915L25.556 38.7507L25.7177 38.7083L25.8788 38.6644L26.0395 38.619L26.1995 38.572L26.359 38.5235L26.5178 38.4736L26.6761 38.422L26.8337 38.369L26.9906 38.3145L27.147 38.2584L27.3027 38.2009L27.4576 38.1419L27.6119 38.0815L27.7654 38.0196L27.9182 37.9562L28.0703 37.8914L28.2216 37.8251L28.372 37.7575L28.5218 37.6884L28.6707 37.6179L28.8188 37.546L28.9662 37.4726L29.1125 37.398L29.2581 37.3219L29.4029 37.2444L29.5466 37.1657L29.6895 37.0855L29.8315 37.0041L29.9727 36.9213L30.1127 36.8372L30.252 36.7517L30.3901 36.665L30.5273 36.577L30.6636 36.4876L30.7989 36.397L30.933 36.3053L31.0661 36.2122L31.1983 36.1178L31.3294 36.0224L31.4595 35.9255L31.5883 35.8277L31.7163 35.7284L31.8429 35.6281L31.9685 35.5267L32.0931 35.424L32.2165 35.3201L32.3386 35.2152L32.4597 35.1091L32.5795 35.002L32.6983 34.8937L32.8158 34.7844L32.932 34.674L33.0472 34.5624L33.1611 34.4498L33.2737 34.3363L33.3851 34.2216L33.4952 34.1061L33.6039 33.9896L33.7117 33.8718L33.8179 33.7533L33.923 33.6337L34.0267 33.5133L34.1291 33.3918L34.2302 33.2696L34.3299 33.1464L34.4284 33.0221L34.5254 32.8972L34.6213 32.7713L34.7155 32.6446L34.8086 32.517L34.9004 32.3885L34.9904 32.2595L35.0793 32.1294L35.1667 31.9987L35.2527 31.8671L35.3375 31.7347L35.4206 31.6018L35.5024 31.4681L35.5828 31.3333L35.6616 31.1984L35.739 31.0624L35.8151 30.9258L35.8896 30.7888L35.9627 30.6508L36.0344 30.5122L36.1043 30.3735L36.173 30.2337L36.2402 30.0934L36.3059 29.9526L36.37 29.8113L36.4327 29.6694L36.4938 29.5271L36.5535 29.3841L36.6117 29.2406L36.6682 29.097L36.7233 28.9524L36.7768 28.8078L36.8289 28.6624L36.8794 28.5168L36.9284 28.3707L36.9757 28.2246L37.0217 28.0774L37.0659 27.9305L37.1086 27.783L37.1499 27.6353L37.1896 27.4871L37.2276 27.3388L37.2642 27.1901L37.2991 27.041L37.3326 26.8919L37.3645 26.7424L37.3947 26.593L37.4234 26.4429L37.4505 26.2931L37.4761 26.1428L37.5001 25.9924L37.5225 25.842L37.5434 25.6913L37.5627 25.5408L37.5804 25.3896L37.5965 25.239L37.6111 25.088L37.624 24.9372L37.6355 24.7859L37.6454 24.6352L37.6537 24.484L37.6604 24.3327L37.6655 24.1818L37.6691 24.0312L37.6711 23.88L37.6716 23.7292L37.6705 23.5785L37.6679 23.4279L37.6636 23.2773L37.6578 23.1273L37.6505 22.9767L37.6416 22.8267L37.6311 22.6768L37.6192 22.5274L37.6057 22.3777L37.5907 22.2287L37.5741 22.0795L37.5559 21.9309L37.5363 21.7823L37.5152 21.6343L37.4924 21.4861L37.4682 21.3387L37.4425 21.1917L37.4153 21.0446L37.3865 20.898L37.3563 20.752L37.3245 20.6059L37.2914 20.4609L37.2566 20.3156L37.2206 20.1714L37.1828 20.027L37.1437 19.8836L37.1031 19.7404L37.0611 19.5975L37.0176 19.4555L36.9727 19.314L36.9262 19.1726L36.8786 19.0323L36.8292 18.892L36.7787 18.7527L36.7266 18.6136L36.6732 18.4755L36.6182 18.3376L36.5619 18.2005L36.5044 18.0643L36.4454 17.9287L36.3848 17.7932L36.3234 17.659L36.2601 17.5249L36.1957 17.3921L36.13 17.2598L36.0628 17.128L35.9945 16.9972L35.9247 16.867L35.8535 16.7375L35.7815 16.6091L35.7078 16.4811L35.6329 16.3542L35.5566 16.2278L35.4795 16.1027L35.4006 15.9779L35.3208 15.8543L35.2396 15.7313L35.1573 15.6093L35.0739 15.4884L34.989 15.368L34.903 15.2487L34.816 15.1302L34.7277 15.0129L34.6382 14.8962L34.5476 14.7807L34.4559 14.6659L34.3631 14.5523L34.2691 14.4396L34.1739 14.3278L34.0777 14.2171L33.9805 14.1073L33.8823 13.9986L33.7829 13.891L33.6822 13.7841L33.581 13.6788L33.4782 13.574L33.3749 13.4707L33.2703 13.3682L33.1649 13.267L33.0581 13.1665L32.9509 13.0676L32.8424 12.9695L32.7329 12.8725L32.6228 12.7769L32.5117 12.6823L32.3993 12.5885L32.2863 12.4962L32.1725 12.405L32.0577 12.315L31.942 12.2261L31.8257 12.1386L31.7082 12.0518L31.5902 11.9667L31.4713 11.8827L31.3515 11.7997L31.2312 11.7181L31.1096 11.6375L30.988 11.5585L30.865 11.4804L30.7416 11.4037L30.6172 11.3282L30.4924 11.2539L30.3668 11.181L30.2408 11.1094L30.1136 11.0388L29.9863 10.9698L29.858 10.9019L29.7292 10.8353L29.5999 10.7701L29.4698 10.7061L29.3393 10.6434L29.2082 10.5821L29.0764 10.522L28.9443 10.4634L28.8116 10.4059L28.6741 10.348L28.5448 10.2952L28.4103 10.2416L28.2759 10.1897L28.1405 10.1388L28.0051 10.0896L27.8691 10.0415L27.7328 9.99486L27.5959 9.94942L27.4589 9.90554L27.3213 9.86293L27.1834 9.82169L27.0454 9.78191L26.9069 9.74337L26.7678 9.70616L26.6289 9.67046L26.4897 9.63612L26.3497 9.60303L26.2101 9.57148L26.0699 9.54118L25.9296 9.51235L25.7889 9.48483L25.6483 9.45876L25.5074 9.43403L25.3665 9.41075L25.225 9.38876L25.0838 9.36822L24.9424 9.34905L24.8008 9.33125L24.6591 9.31486L24.5175 9.29986L24.3758 9.28624L24.2339 9.27401L24.092 9.26315L23.95 9.25367L23.8083 9.2456L23.6666 9.2389L23.5244 9.23358L23.3829 9.22965L23.2412 9.22709L23.0996 9.22591L22.9577 9.22611L22.9293 9.22643L22.974 12.9618L23.0544 12.9614L23.158 12.962L23.2615 12.9635L23.3652 12.9662L23.4689 12.9698L23.5726 12.9745L23.6764 12.9801L23.7802 12.9868L23.884 12.9945L23.9879 13.0032L24.0917 13.013L24.1954 13.0237L24.2993 13.0355L24.403 13.0484L24.5066 13.0621L24.6103 13.0771L24.7138 13.0929L24.8173 13.1098L24.9207 13.1278L25.0239 13.1468L25.1271 13.1668L25.2301 13.1878L25.3331 13.2098L25.4358 13.2329L25.5384 13.257L25.6408 13.2821L25.743 13.3082L25.845 13.3354L25.9469 13.3635L26.0486 13.3927L26.15 13.4229L26.2512 13.4541L26.3521 13.4864L26.4527 13.5196L26.5532 13.5539L26.6533 13.5892L26.7532 13.6254L26.8527 13.6627L26.952 13.701L27.0509 13.7403L27.1495 13.7805L27.2477 13.8219L27.3456 13.8641L27.4431 13.9074L27.5402 13.9515L27.637 13.9968L27.7334 14.043L27.8293 14.0902L27.9249 14.1384L28.02 14.1876L28.1147 14.2376L28.2089 14.2887L28.3027 14.3407L28.396 14.3937L28.4888 14.4476L28.5812 14.5025L28.673 14.5583L28.7643 14.6151L28.8551 14.6729L28.9454 14.7315L29.0352 14.791L29.1244 14.8515L29.213 14.913L29.3011 14.9752L29.3885 15.0385L29.4754 15.1027L29.5617 15.1677L29.6473 15.2336L29.7324 15.3005L29.8168 15.3681L29.9006 15.4367L29.9837 15.5062L30.0662 15.5765L30.148 15.6476L30.2291 15.7196L30.3096 15.7925L30.3892 15.8662L30.4683 15.9408L30.5466 16.0161L30.6241 16.0924L30.701 16.1694L30.7771 16.2473L30.8525 16.3258L30.9271 16.4053L31.0009 16.4855L31.0739 16.5665L31.1462 16.6482L31.2176 16.7308L31.2883 16.8141L31.3582 16.8981L31.4272 16.9829L31.4954 17.0685L31.5627 17.1548L31.6292 17.2417L31.6949 17.3295L31.7596 17.4178L31.8236 17.507L31.8865 17.5968L31.9487 17.6873L32.0099 17.7784L32.0702 17.8702L32.1296 17.9628L32.1882 18.0559L32.2458 18.1496L32.3025 18.244L32.3581 18.3391L32.4129 18.4347L32.4667 18.5309L32.5195 18.6278L32.5714 18.7252L32.6224 18.8232L32.6722 18.9219L32.7212 19.021L32.7691 19.1207L32.816 19.2209L32.8619 19.3218L32.9068 19.423L32.9507 19.5248L32.9936 19.6272L33.0354 19.73L33.0762 19.8333L33.1159 19.937L33.1546 20.0412L33.1922 20.1459L33.2288 20.251L33.2643 20.3566L33.2987 20.4626L33.332 20.569L33.3643 20.6758L33.3955 20.783L33.4256 20.8906L33.4545 20.9986L33.4824 21.1068L33.5092 21.2155L33.5348 21.3245L33.5594 21.4338L33.5828 21.5435L33.6051 21.6534L33.6262 21.7637L33.6463 21.8743L33.6652 21.9851L33.683 22.0961L33.6996 22.2075L33.7151 22.3191L33.7294 22.4309L33.7426 22.5429L33.7546 22.6552L33.7654 22.7676L33.7752 22.8803L33.7837 22.9931L33.7911 23.1061L33.7972 23.2191L33.8022 23.3324L33.8061 23.4458L33.8087 23.5593L33.8102 23.673L33.8105 23.7867L33.8096 23.9005L33.8076 24.0143L33.8043 24.1283L33.7999 24.2423L33.7942 24.3563L33.7874 24.4703L33.7794 24.5845L33.7703 24.6985L33.7598 24.8126L33.7482 24.9266L33.7354 25.0406L33.7215 25.1546L33.7063 25.2685L33.6899 25.3823L33.6723 25.4961L33.6536 25.6097L33.6336 25.7233L33.6124 25.8367L33.5901 25.9501L33.5665 26.0633L33.5418 26.1763L33.5159 26.2892L33.4888 26.4019L33.4604 26.5144L33.4309 26.6268L33.4002 26.7389L33.3683 26.8508L33.3353 26.9624L33.301 27.0738L33.2656 27.185L33.2289 27.2959L33.1911 27.4064L33.1521 27.5168L33.112 27.6268L33.0707 27.7365L33.0281 27.8458L32.9845 27.9549L32.9397 28.0636L32.8937 28.1719L32.8465 28.2798L32.7982 28.3874L32.7488 28.4946L32.6982 28.6014L32.6464 28.7077L32.5935 28.8136L32.5394 28.9191L32.4843 29.0241L32.428 29.1286L32.3706 29.2327L32.312 29.3363L32.2524 29.4394L32.1916 29.5419L32.1297 29.644L32.0668 29.7454L32.0027 29.8465L31.9375 29.9469L31.8712 30.0467L31.8038 30.1459L31.7354 30.2446L31.6659 30.3428L31.5954 30.4402L31.5237 30.537L31.4511 30.6333L31.3773 30.7289L31.3025 30.8238L31.2267 30.918L31.1498 31.0116L31.072 31.1044L30.9931 31.1967L30.9131 31.2882L30.8322 31.379L30.7503 31.469L30.6674 31.5583L30.5835 31.6468L30.4987 31.7347L30.4128 31.8217L30.3261 31.908L30.2382 31.9934L30.1496 32.0781L30.0599 32.1619L29.9694 32.2449L29.8779 32.3272L29.7854 32.4085L29.6921 32.489L29.5979 32.5688L29.5028 32.6476L29.4068 32.7255L29.3099 32.8025L29.2121 32.8787L29.1135 32.9539L29.0141 33.0283L28.9139 33.1017L28.8127 33.1742L28.7108 33.2458L28.6081 33.3164L28.5045 33.3861L28.4001 33.4548L28.295 33.5225L28.1891 33.5893L28.0825 33.655L27.975 33.7197L27.8669 33.7835L27.758 33.8463L27.6484 33.9079L27.5381 33.9686L27.427 34.0283L27.3153 34.087L27.2029 34.1445L27.0898 34.201L26.976 34.2564L26.8617 34.3109L26.7466 34.3641L26.6309 34.4163L26.5146 34.4674L26.3978 34.5175L26.2802 34.5663L26.1622 34.6141L26.0435 34.6608L25.9243 34.7064L25.8046 34.7508L25.6842 34.7941L25.5634 34.8363L25.442 34.8772L25.3202 34.9171L25.1978 34.9557L25.0751 34.9932L24.9518 35.0296L24.828 35.0646L24.7038 35.0987L24.5792 35.1314L24.4541 35.163L24.3287 35.1933L24.2028 35.2226L24.0765 35.2505L23.95 35.2773L23.8229 35.3028L23.6956 35.3271L23.568 35.3503L23.44 35.3722L23.3117 35.3928L23.1832 35.4122L23.0543 35.4303L22.9251 35.4472L22.7957 35.463L22.6661 35.4773L22.5362 35.4905L22.4061 35.5025L22.2758 35.5131L22.1453 35.5225L22.0146 35.5306L21.8838 35.5374L21.7528 35.543L21.6216 35.5473L21.4903 35.5503L21.359 35.5521L21.2274 35.5526L21.0958 35.5518L20.9643 35.5497L20.8325 35.5463L20.7007 35.5416L20.569 35.5357L20.4371 35.5285L20.3053 35.52L20.1735 35.5102L20.0417 35.499L19.9099 35.4866L19.7782 35.4729L19.6465 35.458L19.5149 35.4418L19.3834 35.4242L19.252 35.4053L19.1207 35.3852L18.9895 35.3638L18.8585 35.341L18.7276 35.3171L18.5969 35.2918L18.4664 35.2651L18.336 35.2372L18.2059 35.2081L18.0761 35.1776L17.9464 35.1459L17.817 35.1128L17.6878 35.0785L17.5589 35.0429L17.4303 35.0061L17.302 34.968L17.174 34.9286L17.0464 34.8879L16.9192 34.8459L16.7921 34.8027L16.6656 34.7583L16.5395 34.7125L16.4136 34.6655L16.2883 34.6172L16.1633 34.5678L16.0388 34.517L15.9147 34.465L15.7911 34.4118L15.668 34.3573L15.5454 34.3016L15.4233 34.2447L15.3017 34.1866L15.1806 34.1271L15.0599 34.0666L14.94 34.0048L14.8206 33.9418L14.7018 33.8776L14.5835 33.8122L14.4659 33.7455L14.3488 33.6778L14.2324 33.6088L14.1167 33.5386L14.0016 33.4674L13.8872 33.3949L13.7735 33.3213L13.6605 33.2464L13.5481 33.1705L13.4365 33.0935L13.3257 33.0153L13.2155 32.9359L13.1061 32.8555L12.9975 32.7739L12.8897 32.6912L12.7827 32.6075L12.6765 32.5226L12.5711 32.4367L12.4665 32.3496L12.3627 32.2615L12.2599 32.1723L12.1578 32.0821L12.0567 31.9908L11.9565 31.8986L11.8571 31.8052L11.7586 31.7108L11.6611 31.6155L11.5645 31.5191L11.4689 31.4217L11.3741 31.3233L11.2804 31.224L11.1877 31.1237L11.0959 31.0223L11.0051 30.9201L10.9154 30.8169L10.8265 30.7128L10.7389 30.6078L10.6521 30.5018L10.5666 30.3949L10.482 30.2871L10.3985 30.1785L10.3161 30.0689L10.2346 29.9586L10.1544 29.8473L10.0753 29.7352L9.99725 29.6222L9.92037 29.5085L9.84462 29.3939L9.77001 29.2785L9.69655 29.1623L9.62426 29.0453L9.55314 28.9276L9.4832 28.8091L9.41444 28.6898L9.34688 28.5699L9.28053 28.4491L9.2154 28.3277L9.15148 28.2056L9.0888 28.0827L9.02736 27.9592L8.96716 27.835L8.90821 27.7102L8.85053 27.5846L8.79411 27.4585L8.73898 27.3318L8.68513 27.2043L8.63256 27.0764L8.58131 26.9479L8.53134 26.8187L8.48269 26.689L8.43536 26.5589L8.38935 26.428L8.34468 26.2967L8.30134 26.1649L8.25934 26.0326L8.2187 25.8999L8.1794 25.7666L8.14147 25.6329L8.1049 25.4987L8.06972 25.364L8.0359 25.2291L8.00346 25.0936L7.97242 24.9578L7.94276 24.8216L7.9145 24.685L7.88764 24.5481L7.86219 24.4108L7.83814 24.2732L7.81552 24.1353L7.79431 23.9971L7.77452 23.8586L7.75616 23.7199L7.73923 23.5808L7.72374 23.4415L7.70967 23.3021L7.69705 23.1623L7.68588 23.0224L7.67614 22.8824L7.66785 22.742L7.66102 22.6016L7.65564 22.4611L7.65173 22.3203L7.64926 22.1795L7.64825 22.0385L7.64872 21.8975L7.65063 21.7563L7.65403 21.6152L7.65887 21.474L7.6652 21.3327L7.673 21.1915L7.68225 21.0502L7.69299 20.9089L7.70519 20.7676L7.71887 20.6265L7.73403 20.4853L7.75065 20.3443L7.76876 20.2033L7.78833 20.0623L7.80937 19.9215L7.8319 19.7809L7.85588 19.6403L7.88134 19.5L7.90828 19.3598L7.93669 19.2197L7.96655 19.08L7.9979 18.9403L8.03071 18.801L8.06498 18.6618L8.10071 18.5229L8.13791 18.3844L8.17656 18.246L8.21667 18.108L8.25824 17.9703L8.30126 17.8329L8.34573 17.6958L8.39165 17.5591L8.43901 17.4228L8.48781 17.2869L8.53805 17.1513L8.58972 17.0162L8.64282 16.8815L8.69736 16.7472L8.75331 16.6134L8.81069 16.4801L8.86947 16.3472L8.92968 16.2149L8.99128 16.0831L9.05429 15.9517L9.11869 15.821L9.1845 15.6908L9.25168 15.5611L9.32025 15.4321L9.39019 15.3036L9.46151 15.1758L9.5342 15.0485L9.60823 14.9219L9.68363 14.796L9.76038 14.6707L9.83846 14.5461L9.9179 14.4222L9.99864 14.299L10.0808 14.1765L10.1641 14.0547L10.2488 13.9338L10.3348 13.8135L10.4221 13.6939L10.5107 13.5753L10.6005 13.4573L10.6917 13.3403L10.7841 13.224L10.8778 13.1086L10.9726 12.994L11.0688 12.8803L11.1662 12.7674L11.2648 12.6554L11.3646 12.5444L11.4656 12.4342L11.5678 12.325L11.6712 12.2167L11.7759 12.1093L11.8816 12.003L11.9885 11.8975L12.0965 11.793L12.2058 11.6896L12.3161 11.5871L12.4276 11.4858L12.5402 11.3853L12.6539 11.286L12.7686 11.1877L12.8845 11.0905L13.0014 10.9943L13.1194 10.8992L13.2384 10.8052L13.3585 10.7124L13.4796 10.6206L13.6017 10.53L13.7249 10.4405L13.849 10.3522L13.974 10.265L14.1002 10.179L14.2272 10.0942L14.3551 10.0106L14.4841 9.92811L14.6139 9.8469L14.7447 9.7669L14.8764 9.68813L15.0089 9.61059L15.1423 9.5343L15.2766 9.45927L15.4117 9.38549L15.5476 9.31301L15.6844 9.2418L15.822 9.17189L15.9604 9.10328L16.0996 9.03597L16.2395 8.96999L16.3803 8.90533L16.5217 8.842L16.6639 8.78001L16.8069 8.71938L16.9505 8.66011L17.0948 8.6022L17.2397 8.54566L17.3853 8.49051L17.5316 8.43674L17.6786 8.38437L17.8261 8.33339L17.9743 8.28382L18.123 8.23567L18.2723 8.18895L18.4222 8.14364L18.5726 8.09977L18.7236 8.05735L18.875 8.01636L19.027 7.97683L19.1795 7.93876L19.3325 7.90215L19.4859 7.86702L19.6398 7.83334L19.794 7.80115L19.9487 7.77044L20.1039 7.74123L20.2593 7.71351L20.4152 7.68728L20.5714 7.66255L20.728 7.63933L20.8848 7.61763L21.0419 7.59743L21.1006 7.59047ZM21.1669 13.1307L21.1217 9.35435L20.9929 9.37217L20.8544 9.39272L20.7158 9.41464L20.5781 9.43782L20.4402 9.4624L20.3031 9.48825L20.1662 9.51543L20.0297 9.54388L19.8936 9.57368L19.7578 9.60479L19.6224 9.63719L19.4876 9.67087L19.3529 9.70589L19.2235 9.74087L19.0856 9.77967L18.9524 9.81846L18.8199 9.85853L18.688 9.89977L18.5564 9.94238L18.4254 9.98626L18.2949 10.0313L18.1651 10.0775L18.0358 10.1251L17.9071 10.1738L17.7789 10.2238L17.6516 10.2749L17.5244 10.3274L17.3982 10.381L17.2725 10.4357L17.1478 10.4916L17.0233 10.5488L16.8995 10.6071L16.7768 10.6664L16.6544 10.7271L16.5332 10.7888L16.4121 10.8518L16.2923 10.9156L16.1727 10.981L16.0543 11.0471L15.9366 11.1144L15.8195 11.1829L15.7034 11.2524L15.5878 11.3232L15.4734 11.3947L15.3595 11.4675L15.2467 11.5413L15.1347 11.6161L15.0234 11.692L14.9129 11.769L14.8036 11.8467L14.6949 11.9258L14.5872 12.0057L14.4804 12.0866L14.3746 12.1684L14.2694 12.2514L14.1655 12.3351L14.0625 12.4199L13.9602 12.5058L13.8592 12.5923L13.759 12.6799L13.6597 12.7685L13.5615 12.8578L13.4643 12.948L13.3679 13.0393L13.2729 13.1311L13.1787 13.224L13.0854 13.3178L12.9933 13.4123L12.9022 13.5078L12.8122 13.6039L12.7233 13.7009L12.6353 13.7987L12.5484 13.8974L12.4629 13.9966L12.3782 14.0968L12.2946 14.1977L12.2122 14.2993L12.131 14.4015L12.0506 14.5047L11.9716 14.6084L11.8936 14.7128L11.8168 14.818L11.7411 14.9238L11.6667 15.0302L11.5934 15.1373L11.5211 15.2451L11.45 15.3534L11.3803 15.4623L11.3117 15.5719L11.2441 15.6822L11.1778 15.7928L11.1128 15.9041L11.0488 16.016L10.9862 16.1282L10.9248 16.2412L10.8643 16.3548L10.8054 16.4685L10.7476 16.583L10.691 16.698L10.6357 16.8132L10.5816 16.9291L10.5287 17.0453L10.477 17.162L10.4266 17.2791L10.3775 17.3965L10.3297 17.5144L10.283 17.6327L10.2376 17.7514L10.1936 17.8703L10.1506 17.9897L10.1092 18.1093L10.0688 18.2293L10.0298 18.3496L9.99202 18.4702L9.9556 18.591L9.92037 18.712L9.88651 18.8333L9.85385 18.955L9.8225 19.0768L9.79245 19.1988L9.76369 19.3211L9.7362 19.4434L9.70999 19.5661L9.68511 19.6888L9.66149 19.8117L9.63916 19.9348L9.61815 20.0579L9.5984 20.1813L9.57997 20.3045L9.56281 20.428L9.54696 20.5516L9.53239 20.6752L9.51911 20.7988L9.50713 20.9225L9.49644 21.0463L9.48705 21.1699L9.47893 21.2937L9.4721 21.4174L9.46657 21.541L9.46232 21.6647L9.45935 21.7882L9.45767 21.9117L9.45727 22.0353L9.45815 22.1586L9.46031 22.2818L9.46374 22.405L9.46844 22.5279L9.47442 22.6508L9.48167 22.7736L9.49018 22.896L9.49996 23.0185L9.51099 23.1406L9.52329 23.2626L9.53684 23.3844L9.55164 23.506L9.5677 23.6273L9.58499 23.7483L9.60353 23.8692L9.6233 23.9896L9.64432 24.1099L9.66656 24.2299L9.69003 24.3494L9.71472 24.4689L9.74062 24.5878L9.76775 24.7065L9.79606 24.8247L9.82561 24.9426L9.85635 25.0602L9.88829 25.1774L9.92135 25.2941L9.9557 25.4105L9.99113 25.5264L10.0279 25.6419L10.0657 25.757L10.1046 25.8715L10.1448 25.9856L10.1861 26.0992L10.2285 26.2124L10.2721 26.3251L10.3168 26.4372L10.3626 26.5488L10.4096 26.6599L10.4577 26.7704L10.5069 26.8804L10.5572 26.9898L10.6086 27.0986L10.6611 27.2069L10.7146 27.3146L10.7693 27.4216L10.825 27.5281L10.8817 27.6339L10.9396 27.7391L10.9984 27.8437L11.0583 27.9476L11.1192 28.0508L11.1812 28.1533L11.2441 28.2552L11.3081 28.3563L11.3731 28.4568L11.4391 28.5567L11.5059 28.6556L11.5739 28.754L11.6427 28.8515L11.7126 28.9484L11.7834 29.0444L11.8551 29.1397L11.9278 29.2342L12.0014 29.3281L12.0758 29.421L12.1512 29.5131L12.2275 29.6045L12.3047 29.6951L12.3828 29.7847L12.4617 29.8738L12.5415 29.9617L12.6221 30.049L12.7035 30.1353L12.7859 30.2208L12.869 30.3054L12.953 30.3892L13.0376 30.472L13.1232 30.554L13.2096 30.6352L13.2965 30.7153L13.3845 30.7946L13.473 30.8729L13.5623 30.9503L13.6525 31.0268L13.7433 31.1024L13.8348 31.1771L13.9269 31.2506L14.0198 31.3233L14.1134 31.3951L14.2077 31.4659L14.3026 31.5357L14.398 31.6045L14.4942 31.6723L14.591 31.7392L14.6884 31.805L14.7865 31.8699L14.8851 31.9338L14.9843 31.9966L15.0841 32.0585L15.1844 32.1192L15.2853 32.179L15.3867 32.2378L15.4886 32.2954L15.5911 32.3521L15.694 32.4077L15.7975 32.4624L15.9015 32.5159L16.0058 32.5683L16.1107 32.6198L16.2161 32.6701L16.3218 32.7195L16.4279 32.7677L16.5346 32.8149L16.6415 32.8609L16.7489 32.9058L16.8567 32.9498L16.9649 32.9926L17.0732 33.0344L17.1821 33.075L17.2913 33.1146L17.4007 33.1531L17.5105 33.1904L17.6206 33.2268L17.731 33.2619L17.8416 33.296L17.9526 33.3289L18.0637 33.3608L18.1751 33.3916L18.2867 33.4212L18.3985 33.4498L18.5105 33.4772L18.6228 33.5035L18.7352 33.5287L18.8478 33.5528L18.9605 33.5758L19.0733 33.5976L19.1864 33.6183L19.2995 33.6379L19.4128 33.6565L19.5261 33.6738L19.6395 33.6901L19.753 33.7053L19.8665 33.7193L19.9801 33.7322L20.0937 33.7441L20.2074 33.7547L20.3211 33.7643L20.4348 33.7727L20.5485 33.7801L20.6621 33.7863L20.7757 33.7915L20.8894 33.7955L21.0029 33.7984L21.1164 33.8001L21.2298 33.8008L21.3431 33.8004L21.4563 33.7989L21.5694 33.7963L21.6823 33.7926L21.7952 33.7878L21.9078 33.7819L22.0204 33.7749L22.1327 33.7668L22.2449 33.7576L22.3568 33.7474L22.4687 33.736L22.5803 33.7236L22.6916 33.7101L22.8028 33.6956L22.9136 33.68L23.0242 33.6633L23.1346 33.6455L23.2445 33.6268L23.3544 33.6068L23.4639 33.5859L23.573 33.564L23.682 33.541L23.7904 33.5169L23.8985 33.4919L24.0063 33.4657L24.1138 33.4387L24.2209 33.4105L24.3276 33.3813L24.4339 33.3511L24.5398 33.3199L24.6452 33.2878L24.7502 33.2545L24.855 33.2203L24.9591 33.1852L25.0628 33.149L25.1661 33.1119L25.2688 33.0737L25.3711 33.0347L25.4728 32.9946L25.5742 32.9535L25.675 32.9116L25.7752 32.8687L25.8749 32.8249L25.974 32.7802L26.0727 32.7344L26.1708 32.6878L26.2682 32.6404L26.3653 32.5919L26.4615 32.5426L26.5574 32.4923L26.6523 32.4413L26.7469 32.3893L26.8408 32.3364L26.934 32.2826L27.0267 32.228L27.1187 32.1726L27.2099 32.1163L27.3007 32.0591L27.3905 32.0013L27.4798 31.9425L27.5686 31.8827L27.6564 31.8223L27.7435 31.7613L27.8301 31.6991L27.9158 31.6365L28.0009 31.5728L28.0853 31.5084L28.1686 31.4435L28.2516 31.3775L28.3337 31.3108L28.4147 31.2436L28.4955 31.1753L28.5751 31.1066L28.654 31.0372L28.7323 30.9667L28.8095 30.896L28.8861 30.8244L28.9619 30.752L29.0367 30.6791L29.1109 30.6054L29.1842 30.5312L29.2566 30.4562L29.3281 30.3807L29.3989 30.3044L29.4688 30.2276L29.5377 30.1503L29.606 30.0721L29.6733 29.9936L29.7396 29.9144L29.8052 29.8345L29.8698 29.7543L29.9335 29.6733L29.9964 29.5919L30.0584 29.5098L30.1194 29.4273L30.1794 29.3445L30.2387 29.2607L30.297 29.1768L30.3543 29.0922L30.4109 29.0071L30.4661 28.9218L30.5208 28.8358L30.5744 28.7493L30.6271 28.6625L30.6787 28.5753L30.7297 28.4874L30.7793 28.3995L30.8283 28.3108L30.8761 28.222L30.9229 28.1327L30.969 28.0428L31.0138 27.9531L31.0579 27.8624L31.1008 27.772L31.143 27.6807L31.1839 27.5895L31.2241 27.4975L31.2631 27.4057L31.3011 27.3134L31.3383 27.2208L31.3744 27.1278L31.4093 27.0349L31.4436 26.9414L31.4765 26.8477L31.5086 26.7539L31.5397 26.6598L31.5698 26.5654L31.5989 26.4709L31.627 26.3763L31.654 26.2813L31.68 26.1863L31.705 26.091L31.729 25.9956L31.752 25.9003L31.774 25.8044L31.7949 25.7086L31.815 25.6128L31.8338 25.5169L31.8518 25.4208L31.8687 25.3244L31.8846 25.2283L31.8995 25.1319L31.9133 25.0355L31.9261 24.9392L31.938 24.8428L31.9488 24.746L31.9586 24.6499L31.9675 24.5531L31.9753 24.4566L31.982 24.3604L31.9878 24.2638L31.9925 24.1675L31.9963 24.0712L31.9991 23.9746L32.0007 23.8787L32.0015 23.7823L32.0012 23.6863L32 23.5902L31.9978 23.4945L31.9945 23.3986L31.9903 23.303L31.985 23.2077L31.9788 23.1121L31.9716 23.0168L31.9635 22.922L31.9543 22.8269L31.9442 22.7324L31.933 22.6377L31.921 22.5435L31.908 22.4494L31.8939 22.3554L31.8789 22.2618L31.863 22.1685L31.8462 22.0753L31.8283 21.9825L31.8095 21.8895L31.7897 21.7973L31.7691 21.7053L31.7475 21.6135L31.7249 21.5218L31.7015 21.4309L31.677 21.3397L31.6517 21.2493L31.6255 21.159L31.5983 21.0693L31.5703 20.9797L31.5413 20.8905L31.5115 20.8018L31.4808 20.7135L31.449 20.6252L31.4166 20.5378L31.3832 20.4505L31.3489 20.3638L31.3138 20.2773L31.2777 20.1912L31.2409 20.1059L31.2031 20.0207L31.1646 19.9362L31.1253 19.8521L31.085 19.7683L31.0438 19.6849L31.0021 19.6023L30.9592 19.5199L30.9158 19.4383L30.8715 19.3572L30.8263 19.2762L30.7805 19.1962L30.7337 19.1164L30.6862 19.0374L30.6379 18.9586L30.589 18.8807L30.5391 18.803L30.4886 18.7262L30.4373 18.6499L30.3853 18.5741L30.3324 18.4988L30.2789 18.4242L30.2248 18.3503L30.1697 18.2768L30.1142 18.2041L30.0577 18.1318L30.0008 18.0604L29.943 17.9893L29.8846 17.9191L29.8255 17.8494L29.7657 17.7803L29.7054 17.7121L29.6442 17.6443L29.5827 17.5773L29.5203 17.5109L29.4575 17.4454L29.3937 17.3802L29.3297 17.316L29.2647 17.2522L29.1994 17.1893L29.1336 17.1272L29.067 17.0656L28.9998 17.0047L28.9321 16.9447L28.8639 16.8854L28.7949 16.8266L28.7259 16.7689L28.6559 16.7116L28.5856 16.6552L28.5147 16.5996L28.4432 16.5444L28.3714 16.4903L28.2992 16.437L28.2262 16.3843L28.1527 16.3322L28.0791 16.2813L28.0046 16.2307L27.9302 16.1814L27.8551 16.1325L27.7795 16.0844L27.7034 16.0371L27.6272 15.9908L27.5502 15.9451L27.4731 15.9003L27.3953 15.8562L27.3177 15.8131L27.2393 15.7706L27.1605 15.7289L27.0815 15.6881L27.0022 15.6482L26.9225 15.6089L26.8423 15.5705L26.7621 15.533L26.6816 15.4963L26.6003 15.4603L26.5194 15.4253L26.4378 15.3911L26.3559 15.3575L26.2739 15.325L26.1918 15.2933L26.1093 15.2625L26.0262 15.2323L25.9434 15.2031L25.8601 15.1747L25.7766 15.1471L25.6932 15.1205L25.6094 15.0947L25.5256 15.0696L25.4411 15.0454L25.357 15.0221L25.2726 14.9997L25.188 14.9781L25.1033 14.9573L25.0182 14.9373L24.9333 14.9183L24.8484 14.9001L24.7632 14.8827L24.6777 14.8661L24.5927 14.8505L24.5071 14.8357L24.4218 14.8217L24.336 14.8085L24.2507 14.7963L24.1647 14.7848L24.0794 14.7743L23.9937 14.7645L23.908 14.7556L23.8224 14.7476L23.7367 14.7404L23.6513 14.734L23.5654 14.7286L23.4799 14.7239L23.3947 14.7201L23.3088 14.717L23.2236 14.7149L23.1383 14.7136L23.0532 14.7131L22.9949 14.7133L23.0391 18.4029L23.0654 18.403L23.1144 18.4037L23.1634 18.4049L23.2126 18.4064L23.2617 18.4087L23.311 18.4113L23.3602 18.4145L23.4096 18.4182L23.4589 18.4224L23.5084 18.4271L23.5578 18.4322L23.6073 18.4379L23.6568 18.4442L23.7063 18.4509L23.7558 18.4581L23.8054 18.466L23.8549 18.4743L23.9044 18.4831L23.9539 18.4924L24.0034 18.5022L24.0528 18.5127L24.1023 18.5235L24.1517 18.535L24.201 18.5469L24.2503 18.5593L24.2996 18.5723L24.3487 18.5858L24.3979 18.5997L24.4469 18.6143L24.4959 18.6294L24.5447 18.645L24.5936 18.6611L24.6423 18.6777L24.6909 18.6948L24.7394 18.7125L24.7877 18.7307L24.836 18.7494L24.8842 18.7686L24.9321 18.7884L24.98 18.8086L25.0278 18.8294L25.0754 18.8507L25.1228 18.8725L25.1701 18.8949L25.2172 18.9177L25.2642 18.941L25.3109 18.965L25.3574 18.9893L25.4038 19.0142L25.45 19.0396L25.496 19.0655L25.5418 19.0919L25.5873 19.1188L25.6327 19.1462L25.6778 19.1742L25.7227 19.2026L25.7674 19.2315L25.8118 19.2609L25.856 19.2909L25.8999 19.3213L25.9435 19.3521L25.987 19.3835L26.0301 19.4154L26.0729 19.4477L26.1155 19.4806L26.1578 19.5139L26.1998 19.5477L26.2414 19.5819L26.2829 19.6167L26.3239 19.6519L26.3647 19.6875L26.4052 19.7237L26.4452 19.7604L26.485 19.7974L26.5244 19.8349L26.5636 19.8729L26.6023 19.9113L26.6407 19.9502L26.6788 19.9895L26.7164 20.0293L26.7537 20.0696L26.7906 20.1102L26.8272 20.1513L26.8633 20.1928L26.8991 20.2347L26.9345 20.277L26.9694 20.3198L27.004 20.363L27.0381 20.4066L27.0719 20.4507L27.1052 20.4951L27.1381 20.5399L27.1705 20.5851L27.2026 20.6307L27.2342 20.6767L27.2652 20.7232L27.2959 20.7699L27.3262 20.8171L27.3559 20.8646L27.3853 20.9125L27.4141 20.9607L27.4424 21.0093L27.4703 21.0583L27.4977 21.1076L27.5246 21.1573L27.5511 21.2073L27.5769 21.2576L27.6024 21.3083L27.6273 21.3593L27.6517 21.4107L27.6755 21.4623L27.6989 21.5143L27.7218 21.5666L27.7441 21.6191L27.766 21.672L27.7872 21.7252L27.8079 21.7786L27.8281 21.8324L27.8478 21.8864L27.8668 21.9408L27.8854 21.9953L27.9033 22.0501L27.9207 22.1052L27.9376 22.1605L27.9539 22.2161L27.9696 22.272L27.9848 22.328L27.9994 22.3843L28.0133 22.4409L28.0267 22.4977L28.0396 22.5546L28.0518 22.6118L28.0634 22.6692L28.0744 22.7267L28.0849 22.7845L28.0947 22.8425L28.104 22.9005L28.1126 22.9589L28.1206 23.0173L28.128 23.076L28.1348 23.1348L28.141 23.1937L28.1465 23.2527L28.1515 23.312L28.1558 23.3714L28.1595 23.4308L28.1625 23.4904L28.1649 23.5501L28.1668 23.6099L28.1679 23.6698L28.1685 23.7298L28.1683 23.7898L28.1676 23.85L28.1662 23.9103L28.1641 23.9706L28.1615 24.031L28.1581 24.0914L28.1541 24.1519L28.1495 24.2124L28.1442 24.273L28.1383 24.3336L28.1317 24.3942L28.1244 24.4548L28.1165 24.5155L28.1081 24.5762L28.0989 24.6368L28.089 24.6973L28.0784 24.7579L28.0673 24.8185L28.0554 24.8791L28.043 24.9396L28.0298 25.0001L28.016 25.0605L28.0016 25.1209L27.9864 25.1812L27.9706 25.2415L27.9542 25.3016L27.937 25.3617L27.9192 25.4216L27.9008 25.4815L27.8817 25.5413L27.862 25.6009L27.8416 25.6605L27.8205 25.72L27.7987 25.7792L27.7763 25.8384L27.7533 25.8973L27.7296 25.9563L27.7053 26.0149L27.6803 26.0734L27.6546 26.1318L27.6283 26.19L27.6013 26.248L27.5737 26.3057L27.5454 26.3634L27.5165 26.4208L27.4869 26.4779L27.4567 26.5349L27.4258 26.5916L27.3943 26.6481L27.3623 26.7044L27.3295 26.7604L27.296 26.8162L27.2621 26.8716L27.2273 26.9269L27.1921 26.9818L27.1562 27.0364L27.1196 27.0909L27.0824 27.1449L27.0446 27.1988L27.0063 27.2522L26.9672 27.3054L26.9276 27.3583L26.8873 27.4107L26.8465 27.4629L26.805 27.5148L26.763 27.5663L26.7203 27.6174L26.6771 27.6683L26.6333 27.7187L26.5887 27.7687L26.5437 27.8184L26.4981 27.8677L26.4519 27.9166L26.4053 27.965L26.3579 28.0132L26.31 28.0609L26.2615 28.1081L26.2126 28.155L26.1629 28.2015L26.1128 28.2474L26.0622 28.2929L26.0109 28.3381L25.9592 28.3827L25.9069 28.4269L25.8541 28.4706L25.8007 28.5139L25.7468 28.5567L25.6924 28.5989L25.6376 28.6407L25.5822 28.6821L25.5262 28.7229L25.4699 28.7632L25.4129 28.803L25.3556 28.8423L25.2976 28.881L25.2393 28.9194L25.1805 28.957L25.1212 28.9942L25.0613 29.0309L25.0011 29.0669L24.9404 29.1024L24.8793 29.1374L24.8177 29.1718L24.7557 29.2056L24.6933 29.2389L24.6304 29.2716L24.5671 29.3037L24.5034 29.3352L24.4393 29.3662L24.3748 29.3965L24.3098 29.4262L24.2446 29.4553L24.1789 29.4837L24.1128 29.5117L24.0464 29.5389L23.9796 29.5655L23.9124 29.5915L23.8448 29.6169L23.7769 29.6417L23.7087 29.6658L23.6402 29.6893L23.5713 29.712L23.5022 29.7342L23.4327 29.7556L23.3629 29.7764L23.2927 29.7967L23.2223 29.8161L23.1517 29.835L23.0807 29.853L23.0094 29.8705L22.9379 29.8872L22.8661 29.9034L22.7941 29.9187L22.7218 29.9335L22.6493 29.9474L22.5765 29.9607L22.5036 29.9733L22.4304 29.9853L22.357 29.9964L22.2834 30.0069L22.2097 30.0166L22.1356 30.0257L22.0615 30.034L21.9872 30.0416L21.9127 30.0485L21.8381 30.0546L21.7632 30.06L21.6882 30.0646L21.6132 30.0686L21.538 30.0719L21.4627 30.0743L21.3872 30.076L21.3117 30.0769L21.2361 30.0772L21.1604 30.0767L21.0846 30.0755L21.0087 30.0734L20.9328 30.0707L20.8568 30.0672L20.7807 30.0629L20.7046 30.0579L20.6285 30.0521L20.5524 30.0456L20.4762 30.0382L20.4001 30.0302L20.3239 30.0213L20.2478 30.0118L20.1716 30.0014L20.0955 29.9903L20.0194 29.9784L19.9434 29.9658L19.8674 29.9524L19.7915 29.9383L19.7156 29.9234L19.6398 29.9077L19.5641 29.8913L19.4885 29.874L19.413 29.856L19.3375 29.8373L19.2621 29.8178L19.187 29.7974L19.1119 29.7764L19.0371 29.7546L18.9623 29.7321L18.8877 29.7087L18.8133 29.6847L18.7389 29.6598L18.6649 29.6342L18.591 29.6078L18.5172 29.5807L18.4438 29.5528L18.3705 29.5242L18.2974 29.4948L18.2246 29.4647L18.1521 29.4338L18.0797 29.4021L18.0076 29.3698L17.9358 29.3367L17.8641 29.3027L17.7929 29.2681L17.7219 29.2328L17.6512 29.1967L17.5809 29.1599L17.5108 29.1223L17.441 29.084L17.3716 29.045L17.3024 29.0053L17.2337 28.9648L17.1653 28.9237L17.0973 28.8817L17.0296 28.8391L16.9623 28.7958L16.8954 28.7518L16.8289 28.707L16.7628 28.6616L16.6971 28.6154L16.6318 28.5686L16.5669 28.521L16.5025 28.4728L16.4385 28.424L16.3749 28.3743L16.3119 28.3241L16.2492 28.2732L16.187 28.2216L16.1253 28.1693L16.0641 28.1163L16.0034 28.0628L15.9432 28.0085L15.8835 27.9536L15.8243 27.8981L15.7657 27.8419L15.7074 27.7851L15.6499 27.7277L15.5928 27.6696L15.5363 27.6109L15.4803 27.5517L15.4249 27.4917L15.3702 27.4312L15.3159 27.3701L15.2623 27.3083L15.2092 27.2461L15.1567 27.1831L15.1048 27.1196L15.0536 27.0556L15.003 26.991L14.9529 26.9258L14.9036 26.86L14.8549 26.7938L14.8069 26.7269L14.7594 26.6595L14.7126 26.5916L14.6665 26.5232L14.6211 26.4542L14.5764 26.3847L14.5323 26.3147L14.489 26.2443L14.4462 26.1732L14.4043 26.1018L14.363 26.0298L14.3224 25.9573L14.2826 25.8844L14.2435 25.811L14.2051 25.7372L14.1674 25.6629L14.1305 25.5882L14.0943 25.513L14.0589 25.4374L14.0243 25.3614L13.9904 25.285L13.9572 25.2081L13.9249 25.1309L13.8933 25.0532L13.8625 24.9752L13.8325 24.8967L13.8034 24.8179L13.7749 24.7388L13.7473 24.6593L13.7205 24.5795L13.6945 24.4993L13.6693 24.4187L13.645 24.3379L13.6214 24.2567L13.5987 24.1752L13.5769 24.0934L13.5557 24.0113L13.5356 23.9289L13.5163 23.8463L13.4977 23.7634L13.48 23.6802L13.4632 23.5967L13.4473 23.5131L13.4322 23.4291L13.4179 23.345L13.4046 23.2607L13.3921 23.176L13.3804 23.0913L13.3698 23.0063L13.3599 22.9212L13.3509 22.8357L13.3428 22.7502L13.3356 22.6645L13.3293 22.5787L13.3239 22.4927L13.3193 22.4066L13.3157 22.3204L13.3129 22.234L13.3111 22.1475L13.3103 22.0611L13.3102 21.9744L13.3111 21.8876L13.3129 21.8008L13.3156 21.7139L13.3192 21.6269L13.3238 21.54L13.3292 21.453L13.3355 21.3659L13.3428 21.2788L13.351 21.1918L13.3601 21.1047L13.3702 21.0176L13.3811 20.9305L13.393 20.8436L13.4058 20.7566L13.4195 20.6696L13.4342 20.5827L13.4497 20.4959L13.4662 20.4091L13.4837 20.3224L13.502 20.2358L13.5213 20.1493L13.5414 20.0629L13.5625 19.9767L13.5846 19.8905L13.6075 19.8045L13.6314 19.7187L13.6562 19.633L13.6819 19.5474L13.7085 19.4621L13.7361 19.3769L13.7645 19.2919L13.7939 19.2071L13.8242 19.1225L13.8554 19.0382L13.8875 18.954L13.9205 18.8702L13.9545 18.7865L13.9893 18.703L14.0251 18.62L14.0617 18.5371L14.0993 18.4545L14.1377 18.3722L14.1771 18.2902L14.2172 18.2086L14.2584 18.1272L14.3003 18.0462L14.3433 17.9656L14.387 17.8853L14.4317 17.8053L14.4772 17.7257L14.5236 17.6464L14.5709 17.5676L14.619 17.4892L14.668 17.4111L14.7179 17.3335L14.7687 17.2562L14.8202 17.1794L14.8726 17.1031L14.9259 17.0271L14.98 16.9517L15.035 16.8767L15.0907 16.8022L15.1473 16.7281L15.2047 16.6546L15.263 16.5815L15.3221 16.509L15.382 16.4368L15.4426 16.3654L15.5041 16.2944L15.5664 16.2239L15.6294 16.154L15.6933 16.0846L15.758 16.0159L15.8234 15.9477L15.8896 15.8801L15.9565 15.8131L16.0243 15.7466L16.0927 15.6807L16.1619 15.6155L16.2319 15.5509L16.3026 15.4869L16.374 15.4236L16.4461 15.3609L16.519 15.2989L16.5926 15.2374L16.6669 15.1768L16.7418 15.1167L16.8175 15.0573L16.8938 14.9987L16.9709 14.9407L17.0486 14.8835L17.1269 14.8269L17.206 14.7711L17.2857 14.716L17.366 14.6615L17.447 14.6079L17.5286 14.555L17.6108 14.5029L17.6937 14.4515L17.7771 14.4009L17.8612 14.3511L17.9458 14.302L18.031 14.2537L18.1168 14.2062L18.2032 14.1595L18.2901 14.1137L18.3776 14.0686L18.4656 14.0244L18.5542 13.981L18.6433 13.9384L18.7329 13.8966L18.823 13.8557L18.9136 13.8156L19.0047 13.7764L19.0964 13.738L19.1885 13.7005L19.281 13.6639L19.3741 13.6282L19.4675 13.5933L19.5614 13.5593L19.6558 13.5262L19.7506 13.494L19.8458 13.4627L19.9414 13.4323L20.0373 13.4028L20.1338 13.3743L20.2305 13.3466L20.3276 13.3199L20.4251 13.2941L20.523 13.2692L20.6212 13.2453L20.7197 13.2223L20.8186 13.2003L20.9177 13.1792L21.0172 13.1591L21.1168 13.1399L21.1669 13.1307ZM22.3927 20.226L21.255 20.4952L21.1882 14.9154L21.1346 14.9274L21.0539 14.9462L20.9732 14.9659L20.8932 14.9862L20.8132 15.0073L20.7338 15.0292L20.6543 15.052L20.5757 15.0752L20.4968 15.0995L20.4189 15.1242L20.3409 15.1499L20.2633 15.1763L20.1861 15.2033L20.1092 15.2311L20.033 15.2595L19.9569 15.2888L19.8812 15.3188L19.806 15.3493L19.7309 15.3808L19.6568 15.4127L19.5826 15.4455L19.5092 15.4788L19.4359 15.513L19.3632 15.5477L19.2908 15.5832L19.2191 15.6193L19.1478 15.656L19.0769 15.6934L19.0065 15.7315L18.9365 15.7702L18.867 15.8095L18.7984 15.8494L18.7296 15.8902L18.6616 15.9313L18.5943 15.9731L18.5274 16.0155L18.4609 16.0586L18.3951 16.1023L18.3297 16.1466L18.2649 16.1914L18.2007 16.2367L18.1369 16.2827L18.0737 16.3293L18.0111 16.3765L17.949 16.4241L17.8876 16.4722L17.8268 16.521L17.7664 16.5703L17.7066 16.6203L17.6476 16.6705L17.5891 16.7214L17.5311 16.7727L17.4738 16.8246L17.417 16.8771L17.361 16.93L17.3055 16.9832L17.2505 17.0372L17.1963 17.0914L17.1427 17.1462L17.0898 17.2014L17.0373 17.2573L16.9857 17.3133L16.9347 17.3699L16.8842 17.4269L16.8346 17.4842L16.7854 17.5421L16.7372 17.6002L16.6893 17.659L16.6423 17.718L16.5958 17.7775L16.5501 17.8374L16.5051 17.8975L16.4607 17.958L16.4171 18.0189L16.374 18.0802L16.3317 18.1418L16.2902 18.2039L16.2493 18.266L16.2091 18.3286L16.1695 18.3916L16.1308 18.4547L16.0927 18.5184L16.0553 18.5821L16.0186 18.6463L15.9826 18.7107L15.9475 18.7753L15.9129 18.8402L15.8792 18.9053L15.846 18.9709L15.8137 19.0364L15.782 19.1025L15.7511 19.1685L15.721 19.2349L15.6915 19.3014L15.6628 19.3683L15.6349 19.4351L15.6076 19.5024L15.5812 19.5697L15.5553 19.6372L15.5303 19.7048L15.5061 19.7727L15.4825 19.8407L15.4597 19.9088L15.4376 19.977L15.4163 20.0455L15.3956 20.114L15.3759 20.1825L15.3567 20.2513L15.3383 20.3202L15.3207 20.3891L15.3038 20.4581L15.2876 20.5272L15.2722 20.5964L15.2576 20.6657L15.2437 20.7349L15.2305 20.8042L15.2181 20.8737L15.2064 20.943L15.1955 21.0123L15.1852 21.0819L15.1757 21.1512L15.167 21.2208L15.159 21.2901L15.1517 21.3596L15.1452 21.4291L15.1394 21.4984L15.1344 21.5678L15.13 21.6372L15.1264 21.7064L15.1235 21.7756L15.1213 21.8447L15.1199 21.9139L15.1192 21.9829L15.1193 22.0518L15.1199 22.1206L15.1214 22.1894L15.1236 22.258L15.1265 22.3265L15.13 22.3949L15.1344 22.4631L15.1394 22.5312L15.1451 22.5992L15.1515 22.6671L15.1586 22.7349L15.1664 22.8022L15.1749 22.8697L15.1841 22.9368L15.1941 23.0039L15.2046 23.0707L15.2159 23.1373L15.2278 23.2039L15.2405 23.27L15.2538 23.3361L15.2677 23.4018L15.2824 23.4674L15.2977 23.5327L15.3137 23.5979L15.3303 23.6626L15.3477 23.7274L15.3655 23.7916L15.3841 23.8558L15.4033 23.9195L15.4232 23.9832L15.4437 24.0464L15.4648 24.1092L15.4866 24.1721L15.509 24.2344L15.532 24.2964L15.5556 24.3582L15.5799 24.4197L15.6048 24.4808L15.6302 24.5416L15.6562 24.602L15.6829 24.6622L15.7102 24.722L15.738 24.7814L15.7664 24.8404L15.7954 24.8991L15.8251 24.9576L15.8551 25.0154L15.8858 25.073L15.9171 25.1303L15.9489 25.1871L15.9813 25.2435L16.0142 25.2996L16.0476 25.3551L16.0817 25.4105L16.1161 25.4653L16.1512 25.5196L16.1868 25.5737L16.2228 25.6272L16.2595 25.6805L16.2965 25.733L16.3341 25.7853L16.3722 25.8371L16.4107 25.8884L16.4499 25.9395L16.4893 25.9899L16.5293 26.0398L16.5698 26.0894L16.6107 26.1385L16.652 26.187L16.6939 26.2352L16.7362 26.2829L16.7788 26.33L16.8222 26.3767L16.8656 26.4227L16.9096 26.4686L16.954 26.5137L16.9987 26.5584L17.044 26.6025L17.0896 26.6462L17.1356 26.6894L17.182 26.732L17.2288 26.7741L17.276 26.8158L17.3235 26.8568L17.3713 26.8974L17.4195 26.9374L17.4681 26.9769L17.517 27.0159L17.5664 27.0543L17.6158 27.0921L17.6658 27.1295L17.716 27.1663L17.7665 27.2026L17.8174 27.2383L17.8685 27.2734L17.9199 27.308L17.9716 27.342L18.0235 27.3755L18.0758 27.4084L18.1285 27.4408L18.1812 27.4725L18.2342 27.5038L18.2876 27.5345L18.341 27.5645L18.3947 27.594L18.4488 27.623L18.503 27.6513L18.5574 27.6791L18.612 27.7063L18.667 27.7329L18.7219 27.7589L18.7772 27.7844L18.8326 27.8094L18.8881 27.8336L18.9439 27.8574L18.9999 27.8805L19.0559 27.9031L19.1121 27.9251L19.1685 27.9464L19.2251 27.9672L19.2816 27.9874L19.3385 28.0071L19.3953 28.026L19.4522 28.0445L19.5094 28.0624L19.5666 28.0797L19.6239 28.0963L19.6812 28.1124L19.7388 28.1279L19.7963 28.1428L19.8539 28.1571L19.9115 28.1709L19.9691 28.184L20.0269 28.1965L20.0847 28.2085L20.1426 28.2198L20.2004 28.2307L20.2582 28.2408L20.3162 28.2505L20.3741 28.2595L20.4321 28.268L20.4898 28.2758L20.5477 28.2831L20.6056 28.2898L20.6635 28.296L20.7213 28.3014L20.7792 28.3064L20.8369 28.3108L20.8946 28.3146L20.9523 28.3178L21.0098 28.3205L21.0673 28.3226L21.1249 28.3241L21.1822 28.3251L21.2394 28.3255L21.2967 28.3253L21.3537 28.3246L21.4109 28.3232L21.4678 28.3214L21.5245 28.319L21.5811 28.316L21.6379 28.3125L21.6941 28.3084L21.7505 28.3038L21.8066 28.2986L21.8626 28.2929L21.9185 28.2866L21.9741 28.2798L22.0297 28.2725L22.085 28.2646L22.1401 28.2562L22.1953 28.2473L22.25 28.2378L22.3046 28.2278L22.3591 28.2173L22.4134 28.2062L22.4673 28.1947L22.521 28.1827L22.5747 28.1701L22.6281 28.157L22.6812 28.1435L22.7341 28.1294L22.7867 28.1149L22.8393 28.0997L22.8914 28.0842L22.9431 28.0682L22.995 28.0515L23.0464 28.0345L23.0975 28.0171L23.1483 27.9992L23.1988 27.9807L23.2493 27.9617L23.2993 27.9424L23.349 27.9225L23.3984 27.9023L23.4476 27.8815L23.4965 27.8603L23.5449 27.8387L23.5933 27.8166L23.6411 27.7941L23.6886 27.7712L23.736 27.7478L23.7828 27.7241L23.8295 27.6998L23.8757 27.6751L23.9216 27.6501L23.9671 27.6247L24.0124 27.5988L24.0574 27.5725L24.1018 27.5458L24.1459 27.5187L24.1897 27.4913L24.2331 27.4635L24.2763 27.4353L24.3189 27.4067L24.3613 27.3777L24.4032 27.3484L24.4447 27.3188L24.4858 27.2887L24.5266 27.2583L24.5669 27.2275L24.6069 27.1964L24.6466 27.165L24.6857 27.1333L24.7245 27.1012L24.7628 27.0688L24.8007 27.0361L24.8383 27.003L24.8754 26.9696L24.9121 26.936L24.9482 26.9021L24.9842 26.8678L25.0196 26.8332L25.0546 26.7984L25.0892 26.7633L25.1232 26.7278L25.1569 26.6922L25.1902 26.6562L25.2229 26.6201L25.2554 26.5836L25.2873 26.5468L25.3187 26.51L25.3498 26.4727L25.3802 26.4353L25.4104 26.3976L25.4402 26.3598L25.4693 26.3217L25.4981 26.2833L25.5263 26.2449L25.5542 26.206L25.5816 26.167L25.6084 26.128L25.6349 26.0885L25.661 26.049L25.6863 26.0093L25.7114 25.9695L25.736 25.9294L25.76 25.8891L25.7837 25.8488L25.8068 25.8082L25.8295 25.7676L25.8517 25.7266L25.8735 25.6858L25.8947 25.6446L25.9155 25.6034L25.9358 25.562L25.9557 25.5204L25.975 25.4789L25.9939 25.4371L26.0122 25.3954L26.0302 25.3534L26.0476 25.3115L26.0646 25.2691L26.081 25.2272L26.0971 25.1846L26.1125 25.1427L26.1276 25.1001L26.1422 25.0575L26.1562 25.0151L26.1699 24.9724L26.183 24.9299L26.1957 24.8869L26.2078 24.8445L26.2196 24.8014L26.2308 24.759L26.2415 24.716L26.2518 24.673L26.2615 24.6303L26.2708 24.5877L26.2797 24.5445L26.2881 24.5018L26.296 24.4587L26.3034 24.4161L26.3104 24.3733L26.3169 24.3304L26.3229 24.2875L26.3285 24.2447L26.3336 24.2021L26.3382 24.1595L26.3424 24.1166L26.3461 24.0741L26.3494 24.0315L26.3522 23.989L26.3545 23.9466L26.3564 23.9043L26.3578 23.8622L26.3588 23.8198L26.3594 23.7774L26.3595 23.7355L26.3591 23.6936L26.3583 23.6518L26.357 23.61L26.3553 23.5681L26.3531 23.527L26.3506 23.4849L26.3476 23.444L26.3442 23.4028L26.3403 23.3614L26.336 23.3205L26.3313 23.2799L26.3261 23.2388L26.3206 23.1985L26.3146 23.1579L26.3082 23.118L26.3013 23.0776L26.2941 23.0375L26.2865 22.9979L26.2785 22.9583L26.27 22.9186L26.2612 22.8794L26.252 22.8402L26.2423 22.8013L26.2323 22.7627L26.2218 22.7238L26.2111 22.6857L26.1999 22.6472L26.1883 22.6094L26.1764 22.5716L26.164 22.5341L26.1513 22.4966L26.1382 22.4593L26.1248 22.4225L26.111 22.3859L26.0968 22.3492L26.0823 22.313L26.0674 22.2766L26.0523 22.2412L26.0366 22.2053L26.0208 22.17L26.0045 22.135L25.9879 22.1L25.9711 22.0654L25.9538 22.031L25.9362 21.9968L25.9184 21.963L25.9001 21.9294L25.8816 21.8961L25.8628 21.863L25.8435 21.8301L25.8242 21.7976L25.8045 21.7653L25.7843 21.7332L25.764 21.7016L25.7434 21.6701L25.7224 21.639L25.7012 21.608L25.6798 21.5775L25.658 21.5471L25.636 21.5171L25.6137 21.4874L25.5911 21.458L25.5684 21.4289L25.5452 21.3999L25.5219 21.3715L25.4983 21.3432L25.4745 21.3153L25.4504 21.2876L25.4262 21.2604L25.4017 21.2334L25.3769 21.2067L25.3519 21.1802L25.3267 21.1542L25.3013 21.1285L25.2756 21.103L25.2499 21.078L25.2238 21.0533L25.1976 21.0289L25.171 21.0046L25.1445 20.9809L25.1177 20.9573L25.0908 20.9343L25.0635 20.9114L25.0362 20.889L25.0086 20.8668L24.981 20.845L24.9532 20.8235L24.9251 20.8023L24.897 20.7816L24.8687 20.7611L24.8402 20.741L24.8116 20.7212L24.7829 20.7017L24.7541 20.6826L24.7251 20.6638L24.6959 20.6454L24.6667 20.6273L24.6372 20.6095L24.6078 20.5921L24.5783 20.5751L24.5486 20.5584L24.5187 20.542L24.4889 20.526L24.459 20.5102L24.4289 20.4949L24.3989 20.4799L24.3685 20.4652L24.3383 20.4509L24.3079 20.437L24.2775 20.4233L24.247 20.41L24.2163 20.3971L24.1859 20.3845L24.1551 20.3723L24.1243 20.3604L24.0936 20.3489L24.0628 20.3376L24.032 20.3268L24.0011 20.3162L23.9702 20.306L23.9394 20.2962L23.9084 20.2866L23.8774 20.2774L23.8466 20.2686L23.8154 20.2601L23.7846 20.252L23.7536 20.2442L23.7227 20.2367L23.6917 20.2295L23.6608 20.2227L23.6298 20.2163L23.5989 20.2101L23.5681 20.2042L23.5373 20.1988L23.5063 20.1936L23.4757 20.1888L23.4447 20.1843L23.4142 20.1801L23.3834 20.1762L23.3528 20.1727L23.3224 20.1694L23.2918 20.1666L23.2614 20.164L23.231 20.1617L23.2007 20.1598L23.1704 20.1581L23.1402 20.1568L23.1103 20.1559L23.0802 20.1551L23.0503 20.1547L23.0204 20.1546L22.9907 20.1549L22.961 20.1554L22.9315 20.1562L22.902 20.1573L22.8727 20.1587L22.8433 20.1605L22.8143 20.1624L22.7853 20.1647L22.7564 20.1673L22.7276 20.1701L22.6988 20.1733L22.6704 20.1767L22.642 20.1804L22.6137 20.1844L22.5855 20.1887L22.5576 20.1932L22.5297 20.198L22.5021 20.2031L22.4744 20.2084L22.447 20.214L22.4197 20.2199L22.3927 20.226Z" fill="#009347"/>
</svg>
